<svg width="310" height="228" viewBox="0 0 310 228" fill="none" xmlns="http://www.w3.org/2000/svg">
<path fill-rule="evenodd" clip-rule="evenodd" d="M116.983 225.582C168.52 240.086 193.597 184.427 237.755 188.661C261.927 190.979 310.108 202.728 310 117.146C309.731 61.8937 258.842 48.0578 206.365 76.3932C190.923 82.4366 178.732 80.5637 165.495 74.559C152.258 68.5543 135.234 41.7477 103.149 36.2329C6.59363 19.6371 -76.0219 171.265 116.983 225.582Z" fill="#F8FAFE"/>
<path fill-rule="evenodd" clip-rule="evenodd" d="M239.454 86.5773C240.421 86.1068 242.156 87.019 241.15 88.4875C238.921 91.7388 247.539 98.2335 244.773 92.5103C244.477 91.8984 242.96 87.6668 245.106 89.8514C247.253 92.036 250.245 101.69 248.31 105.017C246.611 107.936 242.117 109.325 235.981 109.489L235.704 109.495L235.574 109.503C231.957 109.672 229.214 107.431 227.444 103.069L227.359 102.856C225.567 98.2893 226.058 94.6286 228.956 92.1606C229.009 92.1158 229.065 92.0755 229.125 92.0402L229.216 91.9911L239.454 86.5773Z" fill="white"/>
<path fill-rule="evenodd" clip-rule="evenodd" d="M44.0486 1.11512C43.6267 0.515965 42.943 0.170936 42.2128 0.260425C41.4651 0.351203 40.8399 0.871511 40.6124 1.58938L40.5517 1.78136C40.5057 1.92307 40.4509 2.08536 40.3866 2.26788C40.2031 2.78894 39.9807 3.36729 39.718 3.98932C38.971 5.75768 38.0516 7.52262 36.9541 9.16454C34.5862 12.7071 31.7331 15.1732 28.3886 16.123C27.8658 16.2714 27.5622 16.8159 27.7106 17.3391C27.7859 17.6047 32.6705 20.0477 37.657 19.4318C42.4937 18.8343 47.4373 15.1853 47.4772 14.9369L47.5381 14.4198L47.5554 14.2465C47.9017 10.4869 47.2442 6.23995 44.7144 2.12589C44.5042 1.78416 44.2824 1.44715 44.0486 1.11512Z" fill="#E7EAEE"/>
<path fill-rule="evenodd" clip-rule="evenodd" d="M54.1136 2.20883L54.0879 2.40769C53.7376 4.95295 52.7557 8.49758 50.98 11.1713C48.7938 14.4632 45.7085 16.9807 42.6082 18.6031C38.1355 20.9434 33.2669 21.3719 28.4732 18.3315L28.2618 18.1952C25.7427 16.5464 23.8311 15.7524 21.2081 16.4076C18.5852 17.0628 17.3112 18.9746 16.179 20.7483L16.1271 20.8233C15.9456 21.066 15.6801 21.234 15.3808 21.2932L10.4077 22.0815L12.2188 24.333C12.7638 25.0155 13.1513 25.5075 13.3811 25.809L15.3717 28.4333C21.3042 36.2199 27.6886 43.6545 40.1385 41.0807L40.5605 40.9902C43.859 40.2565 46.6244 42.2271 50.0938 45.1317L50.835 45.7563C51.7528 46.5335 54.5273 48.9814 55.6629 50.1596L56.034 50.5494L56.3764 50.918C56.4477 50.9957 56.5157 51.0706 56.5802 51.1421L56.9342 51.5416L57.1515 51.2847C59.5 48.4553 60.9709 44.146 61.7323 40.5911C62.02 39.248 62.1851 37.9619 62.2538 36.7753L62.2622 36.6208C62.2801 36.2739 62.2881 35.9711 62.2894 35.7181V35.5304L61.9346 35.6345C57.8284 36.7999 53.2085 36.9157 48.7005 36.3952C47.6115 36.2695 59.5574 26.5869 57.1054 14.0473C56.5465 11.1894 56.1919 7.36825 55.2158 4.7747C54.908 3.9567 54.5889 3.20867 54.2728 2.53977L54.1136 2.20883Z" fill="white"/>
<path fill-rule="evenodd" clip-rule="evenodd" d="M239.974 88.126L229.753 93.0981C227.304 95.1842 226.887 98.2869 228.504 102.406C229.071 103.851 230.49 107.294 230.49 105.942C230.49 105.519 239.974 99.3156 241.794 99.9226C243.476 100.484 240.454 95.4245 239.606 93.0981L239.974 87.9988L240.255 87.4908" fill="#E7EAEE"/>
<path fill-rule="evenodd" clip-rule="evenodd" d="M226.338 91.8575C227.017 91.8575 223.168 93.669 223.366 97.0101C223.565 100.351 226.174 106.509 225.539 106.751C224.905 106.994 223.702 105.199 223.459 104.564C221.951 100.613 221.665 99.0006 221.719 96.6961C221.79 93.6794 223.375 91.8575 226.338 91.8575Z" fill="#E7EAEE"/>
<ellipse cx="243.465" cy="95.1668" rx="2.65677" ry="6.00624" fill="#E7EAEE"/>
<path fill-rule="evenodd" clip-rule="evenodd" d="M57.8935 158.495C57.8935 148.073 59.0505 143.542 71.4752 137.854C96.9401 127.554 96.9401 127.157 145.725 108.281C158.626 103.315 185.826 115.211 197.653 110.226C205.538 106.902 212.912 104.434 219.426 101.138C220.057 105.26 224.135 112.24 225.571 113.44C217.943 115.042 210.564 117.519 203.434 120.872C188.02 128.121 197.154 126.146 172.74 149.186C170.672 151.138 163.069 155.59 152.075 160.227C152.075 160.227 129.936 157.252 121.057 153.556C112.021 149.794 98.328 137.854 98.328 137.854C98.328 137.854 82.3581 148.281 73.1772 152.967C68.88 155.161 57.8935 158.495 57.8935 158.495Z" fill="#7BA2BE"/>
<path fill-rule="evenodd" clip-rule="evenodd" d="M57.8935 153.079C57.8935 150.633 57.6352 148.925 57.8935 147.037C58.7354 140.88 62.0347 137.731 71.5431 133.378C97.0081 123.078 96.9401 121.741 145.725 102.865C158.626 97.8993 185.826 109.795 197.653 104.81C205.538 101.486 212.912 99.0182 219.426 95.7219C219.445 95.84 218.767 101.474 218.767 101.474C218.767 101.474 202.685 109.972 192.047 111.774C180.744 113.689 165.219 104.81 149.717 109.177C126.11 115.827 71.7079 136.731 65.2722 141.969C60.2155 146.085 57.8935 153.079 57.8935 153.079Z" fill="white"/>
<path fill-rule="evenodd" clip-rule="evenodd" d="M44.0486 1.11512C43.6267 0.515965 42.943 0.170936 42.2128 0.260425C41.4651 0.351203 40.8399 0.871511 40.6124 1.58938L40.5517 1.78136C40.5057 1.92307 40.4509 2.08536 40.3866 2.26788C40.2031 2.78894 39.9807 3.36729 39.718 3.98932C38.971 5.75768 38.0516 7.52261 36.9541 9.16453C34.5862 12.7071 31.7331 15.1732 28.3886 16.123C27.8658 16.2714 27.5622 16.8159 27.7106 17.3391C27.859 17.8622 35.9851 14.1564 38.5898 10.2595C39.7624 8.50526 40.7382 6.63212 41.5306 4.75613C41.7697 4.19015 41.9778 3.65698 42.156 3.16496L42.2427 2.92242C42.3124 2.72424 42.3725 2.54655 42.4234 2.38963C42.4362 2.27769 42.4482 2.24024 42.4592 2.27727C48.0962 6.13648 45.8802 15.7142 46.4216 15.7607C46.9385 15.8052 47.3962 15.4413 47.4772 14.9369L47.5381 14.4198L47.5554 14.2465C47.9017 10.4869 47.2442 6.23995 44.7144 2.12589C44.5042 1.78416 44.2824 1.44715 44.0486 1.11512Z" fill="#E7EAEE"/>
<path fill-rule="evenodd" clip-rule="evenodd" d="M55.7858 1.08623L55.91 1.30809L56.0616 1.59288C56.1528 1.76817 56.2553 1.97156 56.3668 2.20124C56.7535 2.99734 57.144 3.89822 57.5179 4.89178C58.5704 7.6884 59.3063 10.7066 59.5575 13.8511C59.8984 18.1183 59.2828 22.1454 57.7241 25.809L57.5906 26.1166C56.3242 28.9785 54.4791 31.6007 52.0841 33.9533L51.8467 34.1834L52.0485 34.1931C55.4975 34.3382 58.9083 34.0292 61.9067 33.0724C62.5497 32.8673 63.2507 32.9732 63.8047 33.3587C64.3575 33.7436 64.701 34.3629 64.7356 35.0359L64.7435 35.2449L64.7483 35.5209V35.6271C64.7483 36.0124 64.737 36.4443 64.7096 36.9176C64.634 38.2249 64.4529 39.6351 64.1376 41.1071C63.2468 45.2659 61.4657 49.161 58.5546 52.4429C58.1683 52.8786 57.6248 53.1397 57.047 53.1706L56.9134 53.1737C56.2964 53.162 55.733 52.9069 55.3325 52.4709L55.0393 52.13L54.8955 51.9665L54.5898 51.6269L54.2551 51.2653C54.1389 51.1414 54.0179 51.0141 53.8924 50.884C52.8235 49.7749 51.644 48.6753 50.3911 47.6635C46.9183 44.8592 43.5686 43.2759 40.7079 43.4475C36.0283 43.7289 32.1531 43.5101 28.5578 42.5006C23.9099 41.1956 20.2602 38.6349 17.845 34.5585L17.7096 34.3262C16.4592 32.1439 14.6124 29.63 12.434 27.0134C11.7608 26.2048 11.0967 25.4359 10.4638 24.7247L10.1945 24.4236C9.76331 23.9435 9.41002 23.561 9.26196 23.4053C8.71527 22.8288 8.52526 22.0016 8.7641 21.2452L8.79919 21.143C9.06155 20.4361 9.67179 19.9124 10.4155 19.7655L14.4036 18.9767L14.4501 18.9095C15.8771 16.8796 17.9146 15.1602 20.621 14.4677C23.4441 13.7453 26.4148 14.3733 29.4064 16.273L29.6152 16.4076C33.6557 19.0522 37.6607 18.9063 41.4684 16.9139C44.1882 15.4907 46.7805 13.074 48.7449 10.1162C50.5713 7.36617 51.6568 4.42634 51.7342 2.10601C51.7666 1.13632 52.4349 0.303735 53.3749 0.0663196C54.3156 -0.171667 55.2994 0.245228 55.7858 1.08623ZM54.1137 2.20884L54.088 2.40771C53.7376 4.95296 52.7558 8.49759 50.98 11.1713C48.7939 14.4632 45.7086 16.9807 42.6082 18.6031C38.1355 20.9434 33.267 21.3719 28.4733 18.3315L28.2619 18.1953C25.7428 16.5464 23.8311 15.7525 21.2082 16.4076C18.5852 17.0628 17.3113 18.9746 16.179 20.7483L16.1271 20.8233C15.9456 21.066 15.6801 21.234 15.3809 21.2932L10.4078 22.0815L12.2188 24.333C12.7639 25.0155 13.1513 25.5075 13.3811 25.809L15.3717 28.4333C21.3042 36.2199 27.6886 43.6545 40.1386 41.0808L40.5606 40.9902C43.859 40.2565 46.6245 42.2271 50.0938 45.1317L50.835 45.7563C51.7528 46.5335 54.5273 48.9814 55.6629 50.1596L56.0341 50.5494L56.3764 50.918C56.4478 50.9958 56.5158 51.0706 56.5803 51.1421L56.9342 51.5416L57.1515 51.2847C59.5001 48.4553 60.9709 44.146 61.7324 40.5912C62.0201 39.248 62.1852 37.9619 62.2538 36.7753L62.2623 36.6208C62.2802 36.2739 62.2881 35.9711 62.2894 35.7181V35.5304L61.9347 35.6345C57.8285 36.7999 53.2085 36.9157 48.7005 36.3952C47.6116 36.2695 59.5575 26.5869 57.1054 14.0473C56.5466 11.1894 56.1919 7.36827 55.2159 4.77471C54.908 3.95671 54.589 3.20868 54.2728 2.53979L54.1137 2.20884Z" fill="#E7EAEE"/>
<path fill-rule="evenodd" clip-rule="evenodd" d="M22.9301 24.3713C23.8796 24.3713 24.652 23.5983 24.652 22.6481C24.652 21.6979 23.8796 20.9249 22.9301 20.9249C21.9806 20.9249 21.2082 21.6979 21.2082 22.6481C21.2082 23.5982 21.9806 24.3713 22.9301 24.3713Z" fill="#00160A"/>
<ellipse cx="24.406" cy="29.0486" rx="2.70588" ry="2.21556" fill="#FFB61D"/>
<ellipse cx="24.406" cy="29.0486" rx="2.70588" ry="2.21556" fill="#FFB61D"/>
<path fill-rule="evenodd" clip-rule="evenodd" d="M55.7857 1.08623L55.91 1.30809L56.0615 1.59288C56.1527 1.76817 56.2552 1.97156 56.3668 2.20124C56.7534 2.99734 57.144 3.89822 57.5179 4.89178C58.5703 7.6884 59.3062 10.7066 59.5574 13.8511C59.8983 18.1183 59.2828 22.1454 57.724 25.809L57.5905 26.1166C56.3241 28.9785 54.479 31.6007 52.084 33.9533L51.8466 34.1834L52.0485 34.1931C55.4974 34.3382 58.9082 34.0292 61.9066 33.0724C62.5496 32.8673 63.2506 32.9732 63.8046 33.3587C64.3575 33.7436 64.7009 34.3629 64.7355 35.0359L64.7434 35.2449L64.7483 35.5209V35.6271C64.7483 36.0124 64.737 36.4443 64.7096 36.9176C64.6339 38.2249 64.4529 39.6351 64.1375 41.1071C63.2467 45.2659 61.4657 49.161 58.5546 52.4429C58.1683 52.8786 57.6247 53.1397 57.0469 53.1706L56.9133 53.1737C56.2963 53.162 55.7329 52.9069 55.3324 52.4709L55.0392 52.13L54.8954 51.9665L54.5898 51.6269L54.2551 51.2653C54.1388 51.1414 54.0178 51.0141 53.8924 50.884C52.8234 49.7749 51.6439 48.6753 50.391 47.6635C46.9182 44.8592 43.5686 43.2759 40.7079 43.4475C36.0283 43.7289 32.153 43.5101 28.5578 42.5006C23.9098 41.1956 20.2602 38.6349 17.8449 34.5585L17.7095 34.3262C16.4591 32.1439 14.6123 29.63 12.4339 27.0134C11.7607 26.2048 11.0966 25.4359 10.4637 24.7247L10.1944 24.4236C9.76324 23.9435 9.40995 23.561 9.26189 23.4053C8.7152 22.8288 8.52519 22.0016 8.76403 21.2452L8.79912 21.143C9.06148 20.4361 9.67172 19.9124 10.4154 19.7655L14.4036 18.9767L14.45 18.9095C15.877 16.8796 17.9145 15.1602 20.621 14.4677C23.2851 13.7859 26.0806 14.3069 28.9012 15.9642C32.0255 14.9163 34.708 12.5247 36.954 9.16455C38.0515 7.52263 38.971 5.75769 39.7179 3.98933C39.9807 3.36731 40.203 2.78895 40.3865 2.26789C40.4508 2.08537 40.5056 1.92308 40.5516 1.78137L40.6123 1.58939C40.8398 0.871522 41.465 0.351214 42.2128 0.260436C42.9429 0.170947 43.6266 0.515977 44.0485 1.11513C44.2823 1.44716 44.5041 1.78417 44.7143 2.12591C46.678 5.3194 47.5136 8.59296 47.6273 11.6565C48.0181 11.1623 48.3916 10.648 48.7448 10.1162C50.5712 7.36617 51.6568 4.42634 51.7342 2.10601C51.7665 1.13632 52.4349 0.303735 53.3748 0.0663196C54.3156 -0.171667 55.2993 0.245228 55.7857 1.08623ZM41.4683 16.9139C37.7697 18.8492 33.8849 19.0424 29.9623 16.6281C32.6034 15.406 36.841 12.8758 38.5897 10.2595C39.7623 8.50527 40.7381 6.63214 41.5305 4.75614C41.7696 4.19016 41.9777 3.65699 42.1559 3.16497L42.2426 2.92243C42.3124 2.72426 42.3724 2.54656 42.4233 2.38964C42.4361 2.2777 42.4481 2.24025 42.4591 2.27728C46.2061 4.84257 46.4833 9.93458 46.407 13.0744C44.9008 14.6827 43.2107 16.0022 41.4683 16.9139ZM42.6082 18.6031C44.1091 17.8177 45.6064 16.8225 47 15.6312C47.1072 15.5688 47.2019 15.4865 47.2788 15.389C48.6561 14.1732 49.9231 12.7627 50.98 11.1713C52.7557 8.49759 53.7376 4.95296 54.0879 2.40771L54.1136 2.20884L54.2728 2.53979C54.5889 3.20868 54.908 3.95671 55.2158 4.77471C55.8951 6.57962 56.2733 8.97905 56.629 11.2346L56.629 11.2347C56.7844 12.2202 56.9354 13.1783 57.1053 14.0473C58.9847 23.6584 52.406 31.5911 49.721 34.8287C48.9028 35.8153 48.4462 36.3659 48.7005 36.3952C53.2085 36.9157 57.8284 36.7999 61.9346 35.6345L62.2894 35.5304V35.7181C62.2881 35.9711 62.2801 36.2739 62.2622 36.6208L62.2538 36.7753C62.1851 37.9619 62.02 39.248 61.7323 40.5912C60.9708 44.146 59.5 48.4553 57.1515 51.2847L56.9342 51.5416L56.5802 51.1421C56.5157 51.0706 56.4477 50.9958 56.3764 50.918L56.034 50.5494L55.6629 50.1596C54.5272 48.9814 51.7527 46.5335 50.835 45.7563L50.0938 45.1317C46.6244 42.2271 43.859 40.2565 40.5605 40.9902L40.1385 41.0808C27.6886 43.6545 21.3042 36.2199 15.3717 28.4333L13.3811 25.809C13.1513 25.5075 12.7638 25.0155 12.2187 24.333L10.4077 22.0815L15.3808 21.2932C15.6801 21.234 15.9456 21.066 16.1271 20.8233L16.1789 20.7483C17.3112 18.9746 18.5852 17.0628 21.2081 16.4076C23.8311 15.7525 25.7427 16.5464 28.2618 18.1953L28.4732 18.3315C33.2669 21.3719 38.1354 20.9434 42.6082 18.6031ZM241.15 88.4875C242.156 87.0191 240.421 86.1069 239.454 86.5773L229.216 91.9911L229.125 92.0403C229.065 92.0756 229.009 92.1159 228.956 92.1607C226.058 94.6287 225.567 98.2894 227.359 102.856L227.444 103.069C229.214 107.432 231.957 109.672 235.574 109.503L235.704 109.495L235.981 109.489C242.116 109.325 246.611 107.936 248.31 105.017C250.245 101.691 247.253 92.0361 245.106 89.8515C242.96 87.6668 244.477 91.8984 244.773 92.5104C247.539 98.2336 247.137 101.175 245.654 103.724C244.475 105.751 241.171 107.416 235.642 107.527L235.448 107.537C232.96 107.645 230.569 105.063 229.156 101.464L229.08 101.265C227.778 97.8319 228.561 95.8943 230.339 94.2248L230.438 94.1332L238.315 90.3018L238.306 90.4074C238.237 91.322 238.264 92.2698 238.386 93.2496C238.63 95.2188 239.608 97.8095 241.312 101.072C241.626 101.675 242.369 101.908 242.971 101.593C243.162 101.493 242.827 100.471 242.35 99.016C241.319 95.8722 239.626 90.7104 241.15 88.4875ZM204.266 135.231C203.697 134.704 202.79 134.828 202.383 135.488C193.144 150.488 178.308 158.347 157.732 159.079C165.188 155.649 171.166 152.247 173.416 150.235L173.584 150.081C179.585 144.418 183.951 139.911 187.415 135.939L187.826 135.465C188.679 134.478 190.108 132.731 191.338 131.227C192.263 130.097 193.075 129.104 193.448 128.671L193.572 128.53C194.34 127.682 195.054 127.023 195.919 126.38C197.394 125.283 199.413 124.154 202.934 122.471L203.957 121.986C211.001 118.674 218.289 116.227 225.824 114.644C226.83 114.433 227.148 113.154 226.359 112.495L226.31 112.453C225.037 111.39 222.477 109.253 220.842 105.587C219.212 101.936 219.831 98.2829 220.459 95.1196C220.658 94.1132 219.612 93.8109 218.697 94.2738C213.676 96.8145 208.244 99.0694 202.401 101.495L202.401 101.495L202.398 101.496L202.398 101.496C200.692 102.204 198.951 102.927 197.176 103.675C195.178 104.518 192.671 104.284 189.556 103.995C188.715 103.916 187.829 103.834 186.898 103.768C183.935 103.556 181.398 103.199 176.161 102.292L171.471 101.47C166.133 100.545 162.877 100.096 159.567 99.9006L159.186 99.8795C154.767 99.6512 151.164 100.032 148.189 101.177C134.435 106.499 113.352 114.863 101.568 119.539L101.567 119.539L101.566 119.539L101.561 119.541C96.4546 121.567 93.0958 122.9 92.8382 122.991L92.1252 123.263C91.3976 123.542 90.6848 123.818 89.9812 124.092L89.5217 124.271C83.2482 126.721 77.1997 129.243 69.5838 132.602L67.8862 133.353C61.7207 136.175 58.2933 139.725 56.8815 144.397C55.8436 147.831 55.8478 150.824 56.5681 157.67L56.5941 157.912C54.3463 158.425 52.084 158.836 49.8072 159.147C33.3105 161.399 19.5608 158.796 7.63522 151.964C7.58662 151.936 7.50308 151.885 7.39305 151.819L7.38829 151.816L7.38786 151.816C6.15581 151.071 1.6679 148.358 5.51556 152.722C9.71485 157.486 37.0413 167.203 55.0595 163.555L55.5692 163.484C71.5494 161.198 82.1728 152.252 96.4102 140.261L97.0226 139.746L97.7374 139.144L97.7916 139.097L97.91 139.214C113.104 154.13 126.093 165.044 148.615 165.044L149.305 165.041C171.323 164.882 193.387 153.648 203.543 138.246L203.683 138.03L204.075 138.381C220.11 152.626 232.651 161.292 253.669 160.227C275.281 159.132 297.319 151.392 307.699 141.077C308.181 140.598 308.184 139.818 307.705 139.336C307.227 138.854 306.448 138.851 305.966 139.33C296.071 149.163 280.619 154.64 259.563 155.707C238.562 156.771 220.153 149.956 204.266 135.231ZM156.466 158.77L155.921 159.125C155.456 159.132 154.989 159.135 154.518 159.135C132.185 159.135 113.614 151.617 98.7332 136.561C98.2795 136.102 97.5485 136.071 97.0586 136.492C84.6299 147.147 71.6878 154.153 58.224 157.523C58.2184 156.999 58.2055 156.403 58.1915 155.759L58.1915 155.759C58.1082 151.922 57.9882 146.399 59.1746 144.397C61.4683 140.526 63.35 138.137 68.8964 135.598C78.016 131.701 149.222 104.895 149.222 104.895C153.996 103.108 159.791 103.422 171.37 105.428L175.478 106.149C180.98 107.105 183.604 107.478 186.723 107.7L187.076 107.724C191.642 108.019 195.245 107.16 198.131 105.944L198.976 105.587C205.714 102.73 211.949 99.8817 217.681 97.0426L217.755 97.0056L217.742 97.3401C217.657 100.221 217.822 103.714 219.21 106.825L219.335 107.104C220.2 109.018 221.304 110.346 222.257 111.491L222.257 111.492L222.257 111.492L222.26 111.494C222.342 111.594 222.424 111.691 222.503 111.788L222.602 111.907C222.808 112.158 223.187 112.495 223.187 112.495L222.59 112.638C216.038 114.209 209.057 115.883 202.91 118.774C202.041 119.182 201.326 119.507 200.706 119.789L200.706 119.789C198.389 120.842 197.403 121.29 194.682 123.25C191.183 125.772 188.18 129.531 184.606 134.004L184.606 134.004L184.606 134.005L184.605 134.005C181.348 138.082 177.616 142.753 172.602 147.623L171.896 148.29C170.384 149.717 161.674 155.383 156.466 158.77L156.466 158.77ZM95.8603 175.815C96.4315 175.447 100.374 173.522 96.8631 177.14C93.3518 180.759 66.0058 196.11 51.2443 196.96C37.0168 197.78 24.3847 191.833 13.3943 184.051L13.03 183.791L12.9574 183.885C12.4709 184.502 11.971 185.062 11.4572 185.565L11.2362 185.777C10.3053 186.652 8.69412 187.641 6.36626 188.792C5.75722 189.093 3.60522 189.37 4.71879 188.234C5.83236 187.097 8.26964 185.461 9.68907 184.523C10.6167 183.91 10.9097 183.192 11.2003 182.481C11.3544 182.104 11.5079 181.728 11.7549 181.371C12.1516 180.796 12.9459 180.667 13.5043 181.086C24.3389 189.212 36.9956 193.544 51.2443 192.724C65.5519 191.899 80.3284 185.816 95.8603 175.815ZM180.012 183.662C180.512 183.201 180.512 179.913 180.012 180.374C174.486 185.477 162.916 189.965 148.639 190.787C134.345 191.611 123.106 189.362 114.901 184.082C114.33 183.714 111.502 182.742 113.201 184.451C114.901 186.161 134.007 195.081 148.781 194.23L149.223 194.204C163.781 193.314 174.044 189.174 180.012 183.662ZM24.652 22.6482C24.652 23.5984 23.8795 24.3714 22.93 24.3714C21.9805 24.3714 21.2081 23.5982 21.2081 22.6482C21.2081 21.698 21.9805 20.9249 22.93 20.9249C23.8795 20.9249 24.652 21.698 24.652 22.6482Z" fill="#00160A"/>
</svg>
