<svg width="311" height="247" viewBox="0 0 311 247" fill="none" xmlns="http://www.w3.org/2000/svg">
<g clip-path="url(#clip0_15_1370)">
<path fill-rule="evenodd" clip-rule="evenodd" d="M255.096 225.888L255.279 225.931L255.641 226.019C261.516 227.49 267.24 229.563 272.696 232.196C275.75 233.67 278.929 235.364 282.309 235.104C283.277 235.03 284.232 234.794 285.203 234.783C288.493 234.747 291.27 237.238 294.486 237.935C297.275 238.539 300.153 237.754 303.002 237.592C305.851 237.43 309.145 238.183 310.464 240.719C310.647 241.072 310.787 241.475 310.701 241.864C310.584 242.386 310.112 242.715 309.618 242.962L309.519 243.011L309.309 243.108C305.517 244.811 301.468 246.553 297.358 246.053L297.072 246.015L296.644 245.959C292.793 245.522 288.907 246.777 285.018 246.668C276.992 246.443 268.81 245.57 261.097 243.939L260.273 243.761L259.857 243.671C246.633 240.84 239.982 242.892 233.801 243.05L233.604 243.054L233.219 243.059C230.838 243.071 222.934 243.022 220.109 243.765C218.684 244.14 217.737 241.975 218.489 240.705C219.211 239.486 220.659 238.971 221.983 238.441L222.147 238.375L222.28 238.32C223.563 237.78 224.899 236.918 225.147 235.58L225.169 235.44L225.189 235.308C225.498 233.609 227.521 232.855 229.256 232.468L229.396 232.438L230.392 232.227C233.055 231.672 235.77 231.212 238.446 231.628C239.962 231.864 245.749 228.231 247.485 226.734C249.498 224.998 252.466 225.28 255.096 225.888ZM277.225 113.656L277.009 113.727C275.197 114.25 273.464 115.047 271.9 116.104C269.227 117.91 266.975 120.455 263.93 121.517C261.826 122.251 259.455 122.188 257.392 121.343C258.106 122.899 260.09 123.441 261.789 123.265C266.753 122.748 270.136 118.065 274.598 115.825C275.582 115.331 276.618 114.96 277.683 114.701C278.127 115.711 278.569 116.73 279.01 117.758L279.008 117.77C278.668 118.02 278.359 118.311 278.093 118.644C277.071 119.922 276.816 121.861 277.727 123.222C278.641 124.588 280.315 125.005 282.02 124.954L282.021 124.948L282.637 126.463C283.662 128.996 284.68 131.573 285.689 134.195L285.607 134.239C285.362 134.363 285.119 134.488 284.876 134.615C278.247 138.088 272.241 142.937 265.065 145.051C263.733 145.443 262.331 145.738 260.962 145.507C259.593 145.276 258.257 144.421 257.794 143.109C257.28 143.145 257.23 143.905 257.449 144.373C258.67 146.985 262.385 146.972 265.148 146.165C272.535 144.008 278.817 139.215 285.622 135.6L286.12 135.337L286.905 137.432C321.077 231.076 228.895 224.145 202.404 217.269C163.127 207.075 46.4632 245.138 20.8924 217.269C10.2554 205.676 4.94857 190.418 4.02211 173.349C11.7932 170.124 18.5543 164.48 26.4769 161.494C31.452 159.619 36.8328 158.834 42.1348 159.21C44.7942 159.398 47.5138 159.906 49.7484 161.364C51.9831 162.821 53.6426 165.396 53.3946 168.056C53.2219 169.909 52.1832 171.559 51.0892 173.063C50.33 174.107 49.5226 175.128 48.542 175.966C46.6722 177.565 44.2432 178.419 41.7964 178.65C39.2799 178.888 36.6067 178.449 34.5913 176.92C32.5759 175.391 31.3957 172.628 32.1796 170.22C32.4978 169.242 33.1059 168.378 33.8219 167.642C35.2839 166.137 37.3638 165.092 39.4415 165.365C41.5192 165.637 43.4151 167.518 43.2509 169.611C43.0867 171.705 40.3892 173.275 38.6801 172.06C38.9466 171.141 37.5957 170.277 36.8761 170.907C36.2485 171.457 36.459 172.564 37.0974 173.101C37.7358 173.638 38.6269 173.739 39.4602 173.746C40.8179 173.755 42.2451 173.545 43.3263 172.722C45.7895 170.847 44.9884 166.481 42.3235 164.907C39.6585 163.333 36.1096 164.125 33.6471 166C32.4095 166.943 31.3428 168.17 30.8275 169.64C29.755 172.699 31.3905 176.261 34.0731 178.073C36.7557 179.886 40.2199 180.19 43.4139 179.673C45.2267 179.38 47.0305 178.826 48.5373 177.775C50.0267 176.735 51.1547 175.262 52.1957 173.772C53.5696 171.806 54.8808 169.624 54.905 167.223C54.9314 164.534 53.2664 162.025 51.0519 160.505C48.8373 158.986 46.1392 158.333 43.4713 158.042C35.4428 157.164 27.288 159.334 20.1311 163.084C14.6553 165.953 9.60405 169.761 3.96718 172.191C3.39418 158.74 5.50354 144.202 9.83593 129.473L10.1825 129.402C15.5344 128.285 20.9908 127.67 26.4567 127.57C30.0833 127.503 33.7577 127.669 37.2363 128.699C38.6967 129.131 40.131 129.717 41.6481 129.849C44.5583 130.101 47.521 128.662 50.3464 129.405C51.7718 129.78 52.7186 127.616 51.9665 126.345C51.2144 125.075 49.6741 124.569 48.3081 124.015C46.942 123.462 45.4698 122.546 45.2862 121.081C45.0558 119.242 42.8682 118.465 41.0595 118.078L40.3961 117.937C37.6269 117.352 34.7968 116.835 32.0092 117.269C30.4934 117.505 28.9013 118.012 27.4747 117.447C25.3455 116.604 24.706 113.871 22.9705 112.375C21.1812 110.832 18.6388 110.882 16.249 111.339C25.3712 89.2096 39.0861 67.4736 55.8393 49.1641L55.8485 49.1748C55.9448 49.187 56.041 49.1984 56.1368 49.2093C62.4602 49.9286 68.9398 49.2332 74.9678 47.1884C79.2775 45.7264 83.9511 47.7474 87.8663 50.0703C91.7815 52.3932 95.7606 55.1539 100.308 55.288C103.565 55.384 106.68 54.1037 109.825 53.2511C123.206 49.6242 137.272 53.705 150.949 55.9662C155.16 56.6625 159.9 57.0623 163.293 54.4673C162.267 52.2195 159.813 50.9207 157.378 50.528C154.943 50.1354 152.46 50.4851 149.999 50.6447C141.413 51.2015 132.684 49.3769 125.036 45.426C120.838 43.2574 115.861 43.5827 111.165 43.0852C106.468 42.5878 101.247 40.6645 99.6081 36.2251C98.1621 32.3079 94.0757 29.7652 89.9277 29.3631C85.7796 28.961 81.6316 30.4152 78.0656 32.5766C74.4996 34.7379 71.4087 37.5859 68.2335 40.2911C67.0666 41.2853 65.8473 42.2839 64.3913 42.7603C63.5695 43.0292 62.7106 43.1194 61.8441 43.1652L61.5523 43.1737C120.658 -16.2609 212.784 -32.3119 277.225 113.656ZM279.465 118.822C279.571 119.07 279.679 119.324 279.786 119.578L281.556 123.822C280.558 123.767 279.608 123.461 279.005 122.694C278.139 121.593 278.417 119.867 279.407 118.877L279.465 118.822ZM45.1603 79.9598L44.831 80.1348C44.3264 80.4071 43.8404 80.6893 43.1347 81.1164L41.4652 82.1343C39.275 83.4558 38.0826 84.0483 36.5744 84.4926C35.9085 84.6888 35.425 84.7547 34.9829 84.68C34.4924 84.5972 34.0809 84.3001 33.9493 83.9279L33.8338 83.6016L33.4892 83.6257C32.8658 83.6695 32.7338 84.3459 32.9584 84.8263C33.5509 86.0934 35.1786 86.347 36.8661 85.8544C38.5793 85.3542 39.9125 84.7037 42.3427 83.2696L43.8997 82.3415C45.9131 81.1479 46.9706 80.598 48.3075 80.0941C50.423 79.2967 52.7119 78.9628 54.9665 79.1225C56.2856 79.216 57.2872 79.4741 58.0821 79.9924C58.992 80.5858 59.5586 81.5756 59.4728 82.4966C59.4173 83.0925 59.132 83.6603 58.5493 84.4614C58.1546 85.0041 57.8503 85.3601 57.5071 85.6535C56.8028 86.2555 55.8518 86.6223 54.8079 86.7209C53.709 86.8248 52.6944 86.6019 51.9722 86.054C51.1966 85.4656 50.8088 84.444 51.0748 83.6268C51.181 83.3004 51.3897 82.9811 51.6869 82.6754C52.2876 82.0571 53.0651 81.7217 53.7611 81.813C54.4792 81.9072 55.0831 82.5557 55.0338 83.1837L55.0247 83.2547C54.9401 83.7221 54.3991 84.0768 53.9813 84.0115L53.9368 84.0022L53.9356 83.9921C53.7886 83.368 52.9394 82.9699 52.3986 83.4434C51.9051 83.8755 52.0105 84.6815 52.5023 85.0951C52.8458 85.3841 53.2628 85.4797 53.825 85.4838C54.6212 85.4896 55.278 85.3364 55.7948 84.943C57.1176 83.9361 56.7766 81.6335 55.3119 80.7686C54.0421 80.0188 52.3108 80.2857 51.0098 81.2768C50.3535 81.7767 49.8651 82.3883 49.6223 83.0808C49.0988 84.5741 49.8251 86.3591 51.2171 87.2997C52.4098 88.1056 53.9793 88.3389 55.6307 88.0716C56.5832 87.9174 57.392 87.6312 58.0598 87.1651C58.6766 86.7345 59.1505 86.1924 59.7731 85.3013C60.6196 84.0896 61.0304 83.1974 61.0408 82.179C61.0533 80.8982 60.3048 79.6466 59.157 78.8591C58.2114 78.2104 57.0547 77.8597 55.6326 77.7043C52.2191 77.3312 48.5914 78.162 45.1603 79.9598Z" fill="#F8FAFE"/>
<path fill-rule="evenodd" clip-rule="evenodd" d="M11.228 163.607C11.6919 164.918 13.0277 165.773 14.3966 166.005C15.7654 166.236 17.1676 165.941 18.4994 165.549C23.2549 164.148 27.4967 161.546 31.7463 158.939C33.9094 157.612 36.0745 156.284 38.3104 155.113C45.4673 151.363 53.6221 149.193 61.6506 150.07C64.3185 150.362 67.0166 151.014 69.2311 152.534C71.4457 154.053 73.1107 156.562 73.0839 159.252C73.06 161.652 71.7489 163.834 70.375 165.801C69.334 167.291 68.206 168.764 66.7166 169.803C65.2098 170.855 63.406 171.408 61.5932 171.702C58.3992 172.219 54.935 171.915 52.2524 170.102C49.5698 168.289 47.9343 164.727 49.0068 161.668C49.5221 160.198 50.5888 158.972 51.8264 158.029C54.2889 156.153 57.8378 155.362 60.5028 156.936C63.1677 158.509 63.9688 162.875 61.5056 164.75C60.4244 165.573 58.9972 165.784 57.6395 165.774C56.8062 165.768 55.9151 165.666 55.2767 165.129C54.6383 164.593 54.4278 163.485 55.0554 162.936C55.775 162.306 57.1259 163.169 56.8594 164.089C58.5685 165.304 61.266 163.734 61.4302 161.64C61.5944 159.546 59.6985 157.666 57.6208 157.394C55.543 157.121 53.4632 158.166 52.0012 159.67C51.2852 160.407 50.6771 161.27 50.3588 162.248C49.575 164.657 50.7552 167.419 52.7706 168.948C54.786 170.477 57.4592 170.917 59.9757 170.679C62.4224 170.448 64.8515 169.593 66.7213 167.995C67.7019 167.157 68.5093 166.136 69.2685 165.092C70.3625 163.588 71.4012 161.938 71.5739 160.085C71.8219 157.424 70.1623 154.849 67.9277 153.392C65.6931 151.935 62.9735 151.427 60.3141 151.238C55.0121 150.863 49.6313 151.648 44.6562 153.523C40.4898 155.093 36.6445 157.399 32.8049 159.701C28.2338 162.441 23.6706 165.177 18.5828 166.663C15.8193 167.469 12.1044 167.483 10.883 164.871C10.6645 164.403 10.7143 163.643 11.228 163.607Z" fill="#F8FAFE"/>
<path fill-rule="evenodd" clip-rule="evenodd" d="M142.259 193.245C136.842 200.183 122.053 194.824 115.701 190.772C109.349 186.719 111.787 182.794 111.787 180.874C111.787 178.954 111.351 176.607 110.289 174.947C109.226 173.287 92.4261 166.17 92.4261 158.353C92.4261 151.062 97.4619 144.391 104.506 141.369C115.701 136.567 121.177 139.621 131.522 143.838C141.866 148.055 141.015 158.353 141.015 158.353C141.015 158.353 149.499 183.973 142.259 193.245Z" fill="#A4BE7B"/>
<path d="M135.586 197.087C112.701 195.588 91.2676 180.841 81.1916 160.193C71.1157 139.546 72.5528 113.815 84.4287 94.1522C96.3046 74.4893 118.11 61.3514 140.973 59.5427C146.885 59.0749 152.924 59.329 158.592 61.0817C164.747 62.9853 170.279 66.5922 176.462 68.4032C184.963 70.8932 194.003 69.0144 201.644 64.528C207.326 61.1923 212.46 56.844 218.562 54.3639C225.692 51.466 234.042 52.5465 240.853 56.1332C247.664 59.7199 253.059 65.5922 257.216 72.081C269.594 91.4017 271.43 115.427 272.914 138.34C273.73 150.929 274.481 163.978 269.993 175.765C265.919 186.462 257.88 195.13 249.492 202.904C240.598 211.148 231.025 218.772 220.319 224.456C199.452 235.535 175.042 238.739 151.522 236.624C128.003 234.509 105.21 227.321 83.2629 218.588C71.013 213.713 57.8058 226.855 44.909 224.131C36.9405 222.448 31.3568 215.137 23.7842 212.135C15.6465 208.909 5.57341 211.506 0 218.268C4.87777 206.436 21.5762 201.513 32.0696 208.813C37.3797 212.507 44.4991 212.277 50.7768 210.733C57.0545 209.189 63.0628 206.489 69.4744 205.666C78.6514 204.488 87.8303 207.237 97.0531 207.972C108.335 208.872 119.615 206.749 130.734 204.637C142.711 202.361 154.687 200.085 166.664 197.81C172.443 196.712 178.32 195.58 183.522 192.83C189.38 189.732 194.144 184.602 196.807 178.524C176.86 195.278 146.881 196.16 135.586 197.087Z" fill="white"/>
<path fill-rule="evenodd" clip-rule="evenodd" d="M143.964 193.814C138.546 200.752 123.757 195.394 117.405 191.341C111.053 187.289 113.492 183.363 113.492 181.444C113.492 179.524 113.055 177.176 111.993 175.516C110.931 173.857 94.1304 166.74 94.1304 158.923C94.1304 151.632 99.1662 144.961 106.211 141.939C117.405 137.137 122.882 140.19 133.226 144.407C143.57 148.624 142.72 158.923 142.72 158.923C142.72 158.923 151.204 184.543 143.964 193.814Z" fill="#A4BE7B"/>
<path fill-rule="evenodd" clip-rule="evenodd" d="M166.414 161.436C166.58 162.142 167.364 162.849 167.959 162.435C171.062 160.27 174.178 158.099 177.541 156.365C179.707 155.249 182.025 154.278 183.712 152.517C181.667 153.515 179.251 153.363 177.023 152.902C174.796 152.44 172.612 151.691 170.341 151.557C168.396 151.442 166.425 151.792 164.637 152.569C163.561 153.036 162.505 153.704 161.954 154.741C161.402 155.778 161.533 157.246 162.496 157.916C163.535 158.638 165.205 158.299 165.93 159.336C166.345 159.93 166.248 160.73 166.414 161.436Z" fill="#A4BE7B"/>
<path fill-rule="evenodd" clip-rule="evenodd" d="M196.017 94.2752C200.66 102.611 206.571 108.563 202.807 112.348C199.543 115.63 200.682 109.92 196.979 108.695C194.521 107.882 189.276 109.559 184.685 109.366C178.361 109.101 177.486 113.276 172.777 113.054C165.45 112.708 155.479 107.889 152.414 106.702C148.735 105.278 149.837 100.343 152.414 98.0024C153.363 97.1407 156.471 99.6625 156.814 98.5082C158.09 94.2186 155.323 90.391 157.435 89.8182C158.407 89.5547 161.952 90.7171 163.294 92.0953C164.87 93.7137 166.456 96.1223 169.712 95.1431C175.741 93.3303 174.967 89.3796 179.678 89.3796C184.39 89.3796 190.548 92.8388 193.515 93.8565C196.482 94.8743 191.373 85.9393 196.017 94.2752Z" fill="#A4BE7B"/>
<path fill-rule="evenodd" clip-rule="evenodd" d="M148.138 136.313C148.754 138.154 150.018 139.766 151.45 141.074C152.79 142.298 154.925 143.342 154.659 145.139C157.314 142.326 161.286 140.818 165.135 141.16C166.44 141.276 167.722 141.591 169.028 141.693C173.827 142.067 178.33 139.571 182.497 137.156C185.489 135.422 188.482 133.688 191.475 131.954C192.168 130.51 191.631 128.706 190.56 127.516C189.488 126.326 187.982 125.633 186.489 125.057C184.872 124.432 183.187 123.901 181.454 123.866C179.762 123.831 177.549 123.979 176.938 122.398C176.127 120.3 174.148 118.701 171.93 118.352C169.712 118.004 167.339 118.919 165.926 120.667C164.464 122.478 162.074 123.174 159.891 123.971C157.245 124.936 154.702 126.183 152.317 127.683C150.318 128.941 148.251 130.696 148.138 133.059C148.09 134.064 147.818 135.359 148.138 136.313Z" fill="#A4BE7B"/>
<path fill-rule="evenodd" clip-rule="evenodd" d="M154.381 83.2473C157.524 84.1459 160.468 81.2091 163.718 80.8629C166.372 80.5801 168.996 82.0633 171.642 81.7016C172.597 81.571 173.724 80.6788 173.221 79.8546C172.928 79.3734 172.266 79.3147 171.703 79.3092C168.645 79.2793 165.587 79.2493 162.528 79.2193C161.534 79.2096 160.455 79.171 159.683 78.5426C158.076 77.2343 156.12 76.4329 154.146 75.805C151.448 74.9463 148.656 74.3773 145.835 74.1348C142.756 73.8701 139.643 73.9954 136.595 74.5067C135.399 76.0632 134.203 77.6196 133.007 79.1761C131.539 81.0867 129.57 83.2101 127.196 82.8158C124.098 82.3012 120.842 82.7961 118.035 84.2079C120.858 83.2734 123.982 83.2834 126.798 84.236C128.586 84.8407 130.24 85.808 132.047 86.3516C136.54 87.7033 141.366 86.2969 145.757 84.6429C148.533 83.5971 151.529 82.4316 154.381 83.2473Z" fill="#A4BE7B"/>
<path d="M207.702 118.756C207.774 119.377 208.17 119.906 208.571 120.385C210.594 122.8 213.193 124.84 216.233 125.648C221.86 127.143 227.908 124.063 231.582 119.538C235.256 115.013 237.039 109.278 238.672 103.678C239.143 102.061 239.843 100.199 241.462 99.7459C243.212 99.2562 244.669 97.8264 245.194 96.0836C245.72 94.3409 245.296 92.3417 244.11 90.9629C242.769 89.4039 239.877 88.9557 238.855 90.7411C238.457 91.4349 237.487 91.596 236.728 91.348C235.969 91.1 235.355 90.5493 234.713 90.0744C230.734 87.1333 225.427 86.9658 220.484 86.9146C218.919 86.8983 217.336 86.8842 215.815 87.2544C212.672 88.0197 210.13 90.3338 207.098 91.4618C203.221 92.904 198.623 92.1972 195.355 89.6569C198.904 95.2862 201.867 101.286 204.18 107.528C204.349 108.781 207.292 115.221 207.702 118.756Z" fill="white"/>
<path fill-rule="evenodd" clip-rule="evenodd" d="M128.14 96.5821C127.32 94.5839 126.09 92.2355 123.936 92.1555C123.348 92.1337 122.771 92.2982 122.191 92.397C119.098 92.9239 115.285 89.026 114.125 88.7102C112.965 88.3944 111.56 90.5862 110.09 91.2442C108.621 91.9022 107.078 92.9532 106.864 94.5519C106.693 95.831 107.437 97.175 106.987 98.3842C106.348 100.1 103.766 100.393 103.088 102.094C102.495 103.581 103.701 105.138 104.864 106.236C107.459 108.684 110.528 111.269 110.784 114.831C110.88 116.165 112.124 117.071 113.219 117.836C117.252 120.654 120.82 124.139 123.736 128.106C123.069 127.182 123.418 125.836 124.138 124.953C124.857 124.07 125.872 123.488 126.733 122.742C128.42 121.281 129.508 119.199 131.288 117.854C133.529 116.161 136.489 115.893 139.251 115.398C142.014 114.903 145.004 113.913 146.381 111.463C146.516 111.224 146.635 110.959 146.608 110.687C146.533 109.913 145.509 109.738 144.858 109.316C143.637 108.525 143.726 106.754 143.307 105.359C142.697 103.329 140.793 101.9 138.768 101.289C136.742 100.677 134.582 100.748 132.468 100.824C130.314 100.901 128.96 98.5804 128.14 96.5821Z" fill="#A4BE7B"/>
<path fill-rule="evenodd" clip-rule="evenodd" d="M251.092 183.596C249.127 184.337 246.731 183.727 245.357 182.136C244.658 181.326 243.311 181.818 242.513 182.531C241.716 183.245 240.93 184.191 239.861 184.185C238.766 184.178 237.929 183.081 237.81 181.99C237.692 180.899 238.102 179.828 238.505 178.808C237.008 179.093 235.434 179.375 233.985 178.902C232.536 178.429 231.301 176.922 231.683 175.444C231.823 174.903 232.157 174.431 232.542 174.026C233.816 172.686 235.735 171.991 237.571 172.205C238.464 172.309 238.776 171.046 238.7 170.148C238.555 168.437 238.28 166.678 238.759 165.029C239.238 163.38 240.761 161.873 242.46 162.098C244.616 162.385 245.522 164.995 245.761 167.161C245.843 167.901 246.457 168.915 247.033 168.444C248.884 166.932 251.842 167.017 253.603 168.633C254.284 169.257 254.803 170.131 254.756 171.054C254.701 172.129 253.901 173.027 253.009 173.627C252.118 174.227 251.099 174.625 250.232 175.26C252.12 176.527 254.104 178.433 253.715 180.677C253.482 182.028 252.372 183.114 251.092 183.596ZM242.756 176.297C242.803 176.515 242.85 176.734 242.897 176.952C241.318 177.746 240.831 179.731 240.517 181.473C240.988 181.829 241.643 181.366 241.98 180.881C242.718 179.82 243.066 178.543 243.607 177.368C244.148 176.194 244.989 175.038 246.228 174.678C246.744 174.528 247.29 174.528 247.816 174.425C248.938 174.203 249.909 173.527 250.843 172.868C251.364 172.499 251.915 172.093 252.129 171.491C252.606 170.144 250.936 168.827 249.533 169.084C248.13 169.342 247.113 170.542 246.289 171.708C245.465 172.875 244.633 174.152 243.324 174.719C242.944 174.884 242.508 174.98 242.119 174.841C241.729 174.701 241.43 174.261 241.562 173.868C241.694 173.476 242.34 173.359 242.524 173.73C242.852 173.579 243.008 173.137 242.848 172.813C241.183 173.11 239.518 173.407 237.854 173.704C236.939 173.867 235.99 174.044 235.237 174.589C234.483 175.133 233.99 176.159 234.35 177.017C236.766 178.617 239.943 175.605 242.756 176.297ZM246.952 176.458C245.811 176.678 245.38 178.214 245.821 179.291C246.262 180.368 247.247 181.101 248.119 181.869C248.964 182.613 250.433 182.269 251.036 181.319C251.639 180.368 251.446 179.052 250.765 178.157C250.083 177.261 249.002 176.743 247.903 176.51C247.59 176.443 247.266 176.398 246.952 176.458M243.906 169.055C243.84 167.383 243.673 165.496 242.377 164.44C241.982 164.118 241.475 164.69 241.315 165.175C240.906 166.411 240.717 167.72 240.76 169.022C240.781 169.673 240.87 170.35 241.232 170.891C241.594 171.432 242.297 171.79 242.909 171.572C243.822 171.247 243.944 170.024 243.906 169.055L243.906 169.055Z" fill="#FFB61D"/>
<path fill-rule="evenodd" clip-rule="evenodd" d="M239.366 70.953C238.801 70.5598 238.237 70.1665 237.672 69.7733C238.523 69.159 239.781 69.3394 240.582 70.0176C241.383 70.6958 241.772 71.7654 241.843 72.814C241.897 73.6135 241.721 74.5298 241.043 74.9555C240.391 75.3654 239.545 75.1644 238.805 74.9507C238.194 74.7743 237.584 74.5979 236.973 74.4214C236.332 74.2363 235.767 74.8786 235.458 75.4715C235.15 76.0643 234.794 76.7738 234.133 76.8622C233.253 76.98 232.732 75.9502 232.106 75.3199C230.281 73.4844 226.637 74.8011 224.952 72.8359C224.235 71.9989 224.131 70.7322 224.567 69.7187C225.002 68.7052 225.913 67.9433 226.937 67.5362C227.352 67.3709 227.799 67.2527 228.148 66.9735C228.498 66.6943 228.722 66.1855 228.511 65.7903C228.03 64.889 227.54 63.9578 227.441 62.9409C227.341 61.9239 227.728 60.7882 228.628 60.3071C229.499 59.8413 230.621 60.1168 231.389 60.7387C232.157 61.3606 232.636 62.2657 233.042 63.1676C233.158 63.4257 233.283 63.7015 233.523 63.8504C233.764 63.9993 234.153 63.9352 234.231 63.663C234.624 62.285 236.482 61.7124 237.753 62.3696C239.024 63.0267 239.664 64.5562 239.623 65.9888C239.609 66.4991 239.514 67.0242 239.229 67.4469C239.028 67.7439 238.744 67.9736 238.46 68.1924C237.609 68.8495 236.715 69.4528 235.788 69.9974C235.747 71.7675 237.177 73.4517 238.927 73.6946C239.521 73.777 240.232 73.6483 240.514 73.1177C240.935 72.3245 240.102 71.4658 239.366 70.953ZM236.129 68.018C237.116 67.8903 237.995 67.1398 238.278 66.1835C238.56 65.2271 238.23 64.118 237.472 63.4725C237.322 63.3451 237.147 63.2311 236.951 63.2185C236.721 63.2039 236.509 63.3295 236.313 63.4506C234.897 64.3264 233.307 65.5047 233.34 67.1719C233.375 68.9324 232.786 70.699 231.703 72.0856C231.312 72.5863 231.608 73.3389 232.05 73.7958C232.491 74.2526 233.072 74.5933 233.372 75.1538C233.581 75.5449 234.209 75.4961 234.505 75.1663C234.801 74.8365 234.851 74.3589 234.872 73.9158C234.95 72.2588 234.812 70.5916 234.461 68.9704C234.383 68.6124 234.698 68.2733 235.044 68.1545C235.39 68.0356 235.767 68.0648 236.129 68.0179M231.881 69.1277C231.288 69.4563 230.644 68.8469 230.065 68.4936C228.456 67.5122 226.143 68.7843 225.701 70.6188C225.528 71.3354 226.039 72.0753 226.694 72.4108C227.349 72.7463 228.113 72.7733 228.848 72.7934C229.339 72.8068 229.874 72.8062 230.26 72.5016C230.512 72.3022 230.66 72.0016 230.795 71.7098C231.189 70.8628 231.551 70.0014 231.881 69.1277ZM229.88 61.3639C229.303 61.3292 228.811 61.8583 228.696 62.4257C228.581 62.9931 228.752 63.5775 228.956 64.1193C229.632 65.919 230.69 67.5735 232.039 68.9407C232.363 66.4845 232.566 63.6426 230.825 61.8838C230.566 61.622 230.247 61.386 229.88 61.3639V61.3639Z" fill="#A4BE7B"/>
<path fill-rule="evenodd" clip-rule="evenodd" d="M110.266 126.911C108.704 127.769 107.698 129.555 107.774 131.339C107.806 132.111 107.94 133.073 107.286 133.482C106.746 131.614 106.999 129.53 107.971 127.846C108.211 127.43 108.507 127.025 108.929 126.799C109.352 126.573 109.926 126.573 110.266 126.911V126.911Z" fill="#00160A"/>
<ellipse cx="234.132" cy="105.564" rx="1.98843" ry="1.99284" fill="#FFB61D"/>
<path fill-rule="evenodd" clip-rule="evenodd" d="M171.9 169.372C172.12 168.432 172.549 167.415 173.445 167.063C175.42 166.288 176.967 169.3 179.082 169.462C180.237 169.551 181.271 168.758 182.413 168.563C184.306 168.24 186.277 169.924 186.259 171.848C186.244 173.48 185.044 174.904 184.938 176.532C183.869 176.346 182.669 176.785 182.118 177.722C181.568 178.659 181.853 180.048 182.813 180.555C183.773 181.062 185.184 180.354 185.217 179.268C185.236 178.681 184.907 178.141 184.82 177.561C184.734 176.981 185.1 176.231 185.678 176.319C186.799 177.041 187.404 178.486 187.134 179.793C186.863 181.1 185.736 182.185 184.422 182.402C184.018 182.469 183.588 182.465 183.231 182.665C182.622 183.007 182.457 183.787 182.221 184.446C181.763 185.724 180.772 186.839 179.488 187.272C178.204 187.706 176.648 187.364 175.786 186.317C174.923 185.27 174.936 183.55 175.925 182.622C175.315 182.312 174.689 182.954 174.116 183.328C172.672 184.269 170.516 183.323 169.911 181.706C169.307 180.089 170.043 178.183 171.358 177.068C171.779 176.712 172.313 176.257 172.146 175.731C171.498 173.684 171.412 171.462 171.9 169.372ZM178.233 177.108C177.714 179.263 177.195 181.423 176.924 183.624C176.844 184.28 176.833 185.058 177.35 185.467C177.908 185.908 178.75 185.635 179.301 185.186C180.783 183.979 181.106 181.578 179.996 180.022C179.215 178.925 179.925 177.359 180.917 176.449C181.909 175.54 183.187 174.905 183.908 173.768C184.628 172.63 184.327 170.695 182.999 170.484C181.966 170.319 180.833 170.605 180.113 171.366C179.462 172.055 179.216 173.023 178.994 173.945C178.74 174.999 178.487 176.053 178.233 177.108ZM176.425 175.538C177.398 174.995 177.562 173.638 177.312 172.549C177.027 171.302 176.351 170.149 175.403 169.292C175.178 169.089 174.92 168.894 174.618 168.865C173.802 168.787 173.417 169.837 173.307 170.652C173.146 171.851 172.994 173.122 173.485 174.228C173.976 175.333 175.37 176.127 176.425 175.538ZM171.905 181.34C172.582 182.173 173.98 181.689 174.686 180.88C175.392 180.071 175.836 178.99 176.759 178.444C177.159 178.207 176.844 177.513 176.385 177.438C175.927 177.364 175.495 177.64 175.078 177.846C174.251 178.255 173.303 178.423 172.55 178.957C171.797 179.491 171.322 180.624 171.905 181.34Z" fill="#FFB61D"/>
<path fill-rule="evenodd" clip-rule="evenodd" d="M245.194 96.0836C245.867 94.3437 245.296 92.3417 244.11 90.9629C242.769 89.4039 239.877 88.9557 238.855 90.7411C238.457 91.4349 237.487 91.596 236.728 91.348C235.969 91.1 235.355 90.5493 234.713 90.0744C230.734 87.1333 225.427 86.9658 220.484 86.9146C218.919 86.8983 217.336 86.8842 215.815 87.2544C212.672 88.0197 210.13 90.3338 207.098 91.4618C203.221 92.904 198.623 92.1972 195.355 89.6569C196.676 91.7526 200.307 98.5271 200.307 98.5271C200.307 98.5271 199.653 95.3625 200.63 95.072C202.426 94.538 204.709 95.6161 206.473 95.368C213.046 94.4431 216.524 91.2323 219.078 90.9629C236.728 89.1011 243.446 100.604 245.194 96.0836Z" fill="#A4BE7B"/>
<path fill-rule="evenodd" clip-rule="evenodd" d="M249.492 198.349C240.598 206.593 231.025 214.217 220.319 219.901C199.452 230.98 175.042 234.184 151.522 232.069C128.003 229.954 105.21 222.766 83.263 214.033C77.0562 211.563 132.864 229.241 177.594 224.944C221.146 220.761 253.63 194.514 249.492 198.349Z" fill="#A4BE7B"/>
<ellipse cx="212.543" cy="116.667" rx="2.84061" ry="2.84692" fill="#FFB61D"/>
<path d="M138.666 139.403C140.726 143.183 144.163 146.107 145.987 150.006C148.171 154.671 174.741 197.199 175.663 197.352C177.579 197.671 180.86 194.508 180.516 195.574C180.383 195.366 210.743 212.24 204.578 216.359C197.497 221.09 182.869 226.169 164.431 226.169C157.308 224.574 152.874 217.647 149.22 211.315C138.152 192.131 127.056 172.804 119.551 151.959C118.68 149.54 117.757 146.959 115.718 145.397C114.017 144.095 111.802 143.717 109.674 143.486C104.347 142.907 98.9652 143.483 93.6451 143.77C87.4352 144.106 87.4352 141.042 89.1303 140.107C91.7182 138.679 94.5341 138.126 96.5577 136.293C93.7116 137.566 92.64 138.162 89.5492 138.565C86.4584 138.967 87.89 136.438 88.0405 135.246C87.5697 137.104 84.8933 138.331 83.4054 136.885C81.4716 135.007 84.2033 130.73 86.2306 129.593C86.5757 129.4 97.8741 123.543 98.6564 123.069C97.6613 122.836 87.7282 129.829 84.4645 128.774C82.3415 128.089 84.5685 124.359 86.6241 122.03C92.9868 114.823 91.303 117.284 93.6424 114.91C94.9464 113.588 97.0567 113.645 98.9061 113.793C101.697 114.016 112.913 113.174 122.18 119.281C130.884 125.016 137.721 137.67 138.666 139.403Z" fill="white"/>
<path fill-rule="evenodd" clip-rule="evenodd" d="M253.62 26.2508C252.113 26.6615 250.856 27.8896 250.407 29.3883C250.078 30.4856 250.166 31.6603 250.29 32.7993C250.491 34.6633 250.835 36.6399 252.106 38.0157C253.485 36.7329 253.496 34.5632 253.185 32.7034C253.14 32.4298 253.089 32.1543 253.039 31.8776C252.746 30.2734 252.446 28.6315 252.996 27.1207C254.455 29.4209 254.914 32.334 254.233 34.9726L258.568 33.1826C259.382 32.8465 260.348 33.3298 260.85 34.0545C261.351 34.7791 261.5 35.6839 261.636 36.5553C261.96 38.6315 262.028 41.2647 260.183 42.2618C259.644 42.5525 258.892 43.1981 259.396 43.5451C260.903 44.583 261.304 46.8928 260.304 48.4282C259.305 49.9636 257.117 50.5439 255.452 49.7857C253.786 49.0275 252.787 47.0714 253.056 45.258L249.248 47.7006C248.899 47.9245 248.508 48.1581 248.098 48.0914C247.587 48.008 247.272 47.5007 247.026 47.0441C246.053 45.2428 245.071 43.0449 246.052 41.2477C244.416 40.8295 242.927 39.723 242.223 38.1853C241.518 36.6477 241.692 34.695 242.799 33.4175C243.906 32.1401 245.943 31.7164 247.387 32.5932C248.063 33.0036 248.571 31.8634 248.599 31.0719C248.673 28.9139 249.363 26.514 251.266 25.5023C252.14 25.0375 253.604 25.2591 253.62 26.2508ZM256.297 40.6228C257.798 41.4729 259.985 40.5681 260.451 38.9042C260.916 37.2404 259.518 35.3277 257.794 35.2714C255.718 35.2036 254.269 37.2934 253.484 39.2209C253.169 39.9933 252.025 39.7886 251.285 39.4065C250.545 39.0243 249.494 38.6603 249.008 39.3382C248.369 40.2315 247.394 40.8774 246.323 41.117C246.943 41.6125 247.171 42.3923 247.399 43.1763C247.5 43.5223 247.601 43.8692 247.737 44.1929C248.178 45.2498 249.671 46.1155 250.382 45.2177C251.628 43.643 253.08 42.2314 254.688 41.0299C255.158 40.6781 255.786 40.3333 256.297 40.6228ZM245.142 34.0665C244.371 33.8627 243.576 34.5522 243.429 35.3381C243.282 36.124 243.626 36.9243 244.087 37.5766C244.297 37.8734 244.537 38.156 244.841 38.3554C245.622 38.8684 246.665 38.7364 247.536 38.3976C247.885 38.2615 248.223 38.0957 248.561 37.93C249.064 37.6832 249.567 37.4368 250.106 37.2894C248.847 35.7255 247.081 34.5787 245.142 34.0665ZM259.05 47.1753C259.379 46.5178 259.167 45.6925 258.72 45.1095C258.272 44.5264 257.628 44.1336 256.999 43.7544L255.971 43.1338C255.575 42.8954 255.104 42.649 254.675 42.8197C253.958 43.1054 254.091 44.1554 254.367 44.8782C254.764 45.9165 255.234 47.0034 256.149 47.632C257.064 48.2606 258.553 48.1691 259.05 47.1753ZM195.292 36.2656C195.724 36.682 195.785 37.4505 195.375 37.8887C194.965 38.3268 194.135 38.2781 193.827 37.763C193.661 37.4861 193.657 37.1552 193.653 36.8261C193.652 36.7226 193.651 36.6192 193.645 36.5178C193.619 36.094 193.266 35.1159 193.174 34.8908C192.028 33.9508 191.593 32.4033 191.361 30.9378C191.188 29.8429 191.1 28.6823 191.53 27.6606C191.959 26.6389 193.052 25.8209 194.134 26.0518C195.388 26.3195 195.989 27.7251 196.392 28.945C196.722 29.9412 196.938 31.2812 196.043 31.8266C195.89 30.497 195.707 29.091 194.876 28.0434C194.348 27.3786 193.262 26.9439 192.698 27.5779C192.455 27.8503 192.397 28.237 192.37 28.6009C192.159 31.4183 193.26 34.3072 195.292 36.2656ZM193.198 42.8254L193.034 42.8507C191.563 43.0788 190.035 43.3156 188.88 41.9873C187.682 40.6096 187.265 37.6058 187.913 36.8226C188.826 35.7209 190.282 35.0707 191.715 35.1653C191.776 35.3138 191.737 35.6472 191.697 35.9837V35.9838C191.657 36.3266 191.616 36.6726 191.681 36.8298C190.688 36.3122 189.331 36.6676 188.717 37.6058C188.641 37.7221 188.574 37.8632 188.615 37.9959C188.941 39.0373 189.298 40.122 190.075 40.8862C190.853 41.6504 192.189 41.962 193.033 41.2721C193.303 41.0514 193.494 40.7574 193.685 40.4625L193.685 40.4623L193.685 40.4622C193.839 40.2247 193.993 39.9866 194.19 39.7858C194.63 39.3357 195.522 39.1889 195.798 39.7557C195.13 40.4271 194.497 41.1323 193.9 41.8676C193.758 42.043 193.616 42.3028 193.764 42.4738C194.125 42.893 194.194 43.4618 194.263 44.024C194.282 44.1803 194.301 44.3361 194.326 44.4879C194.442 45.1863 194.882 45.9792 195.588 45.9621C196.184 45.9475 196.585 45.3663 196.884 44.8495L198.008 42.9065C198.335 42.9462 198.546 43.3044 198.54 43.634C198.533 43.9636 198.366 44.2659 198.197 44.5492C197.679 45.4217 197.107 46.2626 196.486 47.0654C196.297 47.3101 196.081 47.5662 195.78 47.6367C195.468 47.7097 195.148 47.5622 194.879 47.3871C193.426 46.4395 192.709 44.4918 193.198 42.8254ZM199.604 30.7562C200.103 30.5046 200.779 30.5114 201.156 30.9247C201.988 32.941 201.429 35.4516 199.821 36.9223L199.774 36.965L199.704 37.0269C199.439 37.2639 199.165 37.5085 199.074 37.8475C198.969 38.2363 199.304 38.7472 199.685 38.6201C199.951 38.5315 200.036 38.2323 200.116 37.9484C200.133 37.887 200.151 37.8264 200.169 37.7688C200.402 37.0547 201.179 36.5627 201.922 36.6591C202.876 37.0715 204.81 38.1863 204.445 41.141C204.118 43.7842 202.814 43.6602 202.349 43.616C202.294 43.6108 202.251 43.6067 202.222 43.6084C200.96 43.6818 200.204 42.3045 199.589 41.1844L199.555 41.1226C199.266 40.5952 198.612 40.0256 198.159 40.4214C197.982 40.576 197.929 40.8262 197.896 41.059C197.846 41.4155 197.831 41.8153 198.057 42.0953C198.282 42.3754 198.831 42.3725 198.928 42.0256C199.043 43.0775 199.617 44.0937 200.521 44.6414C201.424 45.189 202.651 45.2077 203.514 44.5982C204.138 44.1579 204.524 43.4557 204.81 42.7468C205.073 42.0966 205.27 41.4103 205.285 40.709C205.32 39.003 204.252 37.424 202.876 36.4184C202.518 36.1561 202.089 35.8309 202.134 35.3881L202.337 33.4126C202.434 32.4608 202.526 31.4677 202.185 30.5742C201.844 29.6806 200.925 28.9303 199.989 29.1183C199.24 29.2688 198.772 29.9064 198.299 30.5508C197.869 31.1369 197.435 31.7287 196.781 31.9647C196.058 32.2258 196.021 33.2229 196.117 33.9872C196.149 34.2443 196.187 34.5156 196.348 34.7183C196.509 34.921 196.838 35.0127 197.028 34.8372C196.98 33.7325 197.704 32.7618 198.392 31.8972C198.74 31.4591 199.105 31.0079 199.604 30.7562ZM134.263 73.4572C135.675 72.2079 137.629 71.796 139.502 71.5956C146.08 70.8916 152.866 72.2795 158.643 75.5106C158.711 75.5486 158.779 75.587 158.847 75.6256L158.986 75.7038C160.041 76.301 161.122 76.913 162.322 76.9876C162.699 77.011 163.076 76.9799 163.453 76.9488C163.782 76.9217 164.112 76.8945 164.442 76.9036C165.231 76.9256 165.968 77.0431 166.697 77.1594C168.065 77.3773 169.403 77.5907 171.003 77.1612C173.295 76.5458 173.632 77.1489 173.876 78.3834C174.12 79.6178 173.232 80.8658 172.091 81.3907C170.95 81.9156 169.629 81.8614 168.39 81.6621C168.031 81.6044 167.673 81.5354 167.315 81.4665C166.437 81.2971 165.559 81.1277 164.666 81.126C162.901 81.1227 161.149 81.7652 159.423 82.3977C156.985 83.2915 154.6 84.1654 152.313 83.1681C151.503 82.8153 150.572 83.0655 149.727 83.3194L140.788 86.0034C138.576 86.6676 136.289 87.3392 133.994 87.0753C132.173 86.8657 130.492 86.0841 128.812 85.3025C127.118 84.5148 125.425 83.7271 123.588 83.5257C122.04 83.3561 120.472 83.6133 118.913 83.8693C116.927 84.1951 114.954 84.5188 113.053 83.9566C113.157 83.4653 113.692 83.2161 114.161 83.0403C117.027 81.9667 119.94 80.8823 122.99 80.6519C123.492 80.614 124.005 80.5968 124.52 80.5796C126.384 80.5173 128.27 80.4543 129.761 79.3986C130.851 78.6266 131.526 77.4565 132.205 76.2813C132.797 75.257 133.39 74.2288 134.263 73.4572ZM153.813 82.1081C155.667 82.6382 157.452 81.8335 159.271 81.0134C160.536 80.4433 161.817 79.8657 163.15 79.7238C164.449 79.5854 165.741 79.8699 167.031 80.1542C168.378 80.4508 169.723 80.7471 171.073 80.5625C172.029 80.4319 173.156 79.5397 172.653 78.7154C172.36 78.2342 171.698 78.1756 171.135 78.1701L161.96 78.0802C160.966 78.0704 159.887 78.0318 159.115 77.4034C157.508 76.0951 155.551 75.2938 153.578 74.6658C150.88 73.8071 148.088 73.2381 145.267 72.9956C142.188 72.7309 139.075 72.8562 136.027 73.3675L132.439 78.0369C130.97 79.9476 129.002 82.0709 126.628 81.6766C123.53 81.162 120.274 81.6569 117.467 83.0687C120.289 82.1342 123.414 82.1442 126.23 83.0968C127.056 83.3761 127.853 83.7328 128.65 84.0893C129.578 84.5047 130.506 84.9199 131.479 85.2124C135.972 86.5641 140.797 85.1577 145.189 83.5037L145.346 83.4443C148.079 82.4146 151.015 81.3078 153.813 82.1081ZM128.22 120.498C129.805 118.587 131.347 116.729 133.709 116.639C137.384 116.5 140.992 115.183 143.953 112.998C144.671 112.468 145.387 111.838 145.646 110.983C145.906 110.128 145.503 109.019 144.633 108.823C142.946 108.444 142.303 106.683 141.67 104.95L141.67 104.95C141.467 104.395 141.266 103.844 141.031 103.341C140.033 101.2 137.951 99.6018 135.628 99.193C134.747 99.0381 133.852 99.0452 132.955 99.0523C132.161 99.0586 131.366 99.0649 130.581 98.9584C128.911 98.7319 127.126 97.7498 126.82 96.0881C126.048 91.8867 121.281 88.9062 117.176 90.0576C116.007 90.3854 115.014 89.6305 113.989 88.8516C113.181 88.2367 112.352 87.6069 111.402 87.483C110.576 87.3753 109.756 87.6702 108.975 87.9603C107.214 88.6144 105.405 89.2968 104.016 90.5643C102.627 91.8318 101.742 93.8415 102.331 95.6288C102.683 96.6944 101.806 97.7699 100.879 98.3999C100.688 98.53 100.489 98.6551 100.289 98.7806C99.5218 99.263 98.7443 99.7516 98.3562 100.553C97.7714 101.76 98.3082 103.217 99.0592 104.328C99.8857 105.55 100.986 106.648 102.076 107.735C104.17 109.825 106.228 111.878 106.243 114.715L94.4664 113.772C93.125 113.665 91.5944 113.623 90.6486 114.583C90.083 115.157 89.8417 115.341 89.6003 115.525C89.1176 115.893 88.6348 116.262 85.5583 119.747C84.0674 121.435 82.4522 124.141 83.9919 124.638C85.5456 125.14 89.183 123.128 91.7036 121.733C93.0235 121.003 94.0372 120.442 94.2852 120.5C93.8957 120.736 89.9112 122.812 87.3705 124.136L87.3687 124.137L87.3661 124.138L87.3511 124.146L87.3425 124.151L87.336 124.154L87.3335 124.155L87.3286 124.158L87.3203 124.162C86.1857 124.753 85.3502 125.189 85.2729 125.232C83.8025 126.057 81.8212 129.158 83.2238 130.521C84.303 131.57 86.2441 130.679 86.5856 129.332C86.5641 129.502 86.5065 129.711 86.445 129.933C86.1945 130.837 85.8801 131.973 87.6798 131.739C89.6939 131.477 90.5258 131.101 92.1711 130.358L92.4376 130.237C92.5426 130.19 92.6509 130.141 92.7631 130.091C91.8474 130.921 90.7081 131.389 89.5248 131.875C88.8114 132.168 88.082 132.468 87.3761 132.857C86.1466 133.536 86.1466 135.758 90.6506 135.515C91.4165 135.473 92.1842 135.424 92.953 135.374H92.9531H92.9532H92.9533H92.9534H92.9535H92.9536H92.9537H92.9537C96.0578 135.174 99.1798 134.972 102.276 135.308C103.819 135.476 105.426 135.75 106.66 136.695C108.132 137.822 108.802 139.682 109.431 141.43L109.44 141.454C114.883 156.573 122.931 170.591 130.959 184.505C133.609 189.097 136.825 194.121 141.991 195.278C128.302 178.579 117.566 159.454 110.433 139.059C109.608 136.698 107.375 135.052 104.996 134.295C102.617 133.537 100.074 133.533 97.5774 133.536C95.9951 133.537 94.7092 133.767 93.4646 133.99C91.8281 134.283 90.2628 134.563 88.1886 134.295C86.5176 134.078 87.9318 133.492 89.9402 132.66L89.9403 132.66L89.9404 132.66L89.9405 132.66C91.9642 131.822 94.5909 130.734 95.2723 129.522C94.4875 128.272 92.5555 128.809 91.321 129.616C90.0865 130.423 86.2642 131.67 87.1862 130.091C88.3282 128.136 90.361 127.08 92.4093 126.015C93.0567 125.678 93.7056 125.341 94.3284 124.974C95.0088 124.574 94.4981 123.383 93.7179 123.266C92.9376 123.148 92.2194 123.669 91.6016 124.161C90.9206 124.703 90.1431 125.489 89.3404 126.3L89.3403 126.3C87.4553 128.205 85.4308 130.251 84.1878 129.616C81.4848 128.236 90.0751 123.678 94.8328 121.154L95.2579 120.929C95.4137 120.846 95.5644 120.766 95.7093 120.689C94.6295 118.825 91.7323 119.743 90.1032 121.149L89.9651 121.269L89.8459 121.372C88.2707 122.739 86.4204 124.345 84.5116 123.629C83.3771 123.203 85.0196 121.852 86.6622 120.501L86.6623 120.501C87.4836 119.826 88.3048 119.15 88.7789 118.59C89.5755 117.65 90.3974 116.688 91.4774 116.096C92.7987 115.372 94.3641 115.277 95.87 115.264C99.6191 115.23 103.372 115.6 107.042 116.367C112.383 119.913 117.001 124.549 120.531 129.908C128.772 142.419 136.844 155.042 144.915 167.664C145.007 167.809 145.175 168.086 145.396 168.452L145.399 168.458L145.4 168.458C146.585 170.422 149.289 174.901 150.137 175.007C151.075 175.125 152.047 174.341 152.734 173.732L185.723 153.152C191.086 149.806 197.02 146.326 203.285 147.14C213.433 148.458 223.728 149.657 233.871 148.292C244.013 146.926 254.136 142.716 260.708 134.854C248.834 144.334 233.245 149.006 218.127 147.616C216.069 147.427 213.995 147.133 211.918 146.838C205.655 145.949 199.371 145.057 193.462 147.041C191.942 147.552 190.401 148.245 188.857 148.94C184.489 150.906 180.095 152.884 176.09 150.754C172.453 148.82 167.902 149.821 164.283 151.789C160.664 153.758 156.106 156.445 159.275 159.853C162.444 163.26 155.826 161.706 152.132 159.885C148.437 158.064 147.571 151.71 151.345 149.137C149.656 151.061 149.712 154.916 152.181 155.586C154.65 156.256 157.245 155.035 159.275 153.476C161.573 151.712 161.252 149.44 160.966 147.41C160.659 145.239 160.391 143.344 163.405 142.637C165.47 142.153 167.599 142.303 169.731 142.453C171.675 142.59 173.622 142.727 175.526 142.383C178.666 141.816 181.336 140.029 184.022 138.231C185.701 137.108 187.385 135.98 189.196 135.143C193.905 132.965 199.243 132.841 204.447 132.721C204.753 132.713 205.058 132.706 205.363 132.699C214.879 132.465 224.58 131.663 233.345 127.946C242.111 124.228 249.903 117.15 252.368 107.936C254.396 100.351 252.478 91.8199 247.399 85.841C242.32 79.862 234.223 76.6022 226.429 77.3989C222.358 77.815 218.424 79.2499 214.514 80.676C209.151 82.6323 203.833 84.5722 198.267 83.8438C190.174 82.7846 183.963 76.3829 178.446 70.3548C185.024 71.3653 191.881 70.4802 197.988 67.8323C201.1 66.4835 204.01 64.6947 206.915 62.9092C210.885 60.4697 214.844 58.0364 219.291 56.74C230.328 53.5224 242.621 58.1831 250.683 66.395C258.744 74.607 263.092 85.8338 265.387 97.1219C266.883 104.478 267.592 111.955 268.302 119.434L268.302 119.435C268.681 123.433 269.06 127.432 269.56 131.414C269.812 133.418 270.092 135.436 270.374 137.46L270.375 137.465C272.022 149.293 273.702 161.351 269.744 172.471C266.363 181.97 259.243 189.578 252.255 196.835C242.762 206.693 232.979 216.597 220.985 223.171C209.89 229.253 197.361 232.218 184.854 234.094C175.044 235.566 165.107 236.409 155.2 235.899C134.475 234.83 114.547 227.901 95.0447 220.791C88.036 218.236 80.7135 215.606 73.3076 216.487C69.5034 216.94 65.8064 218.306 62.1366 219.663L62.1365 219.663C56.6897 221.676 51.303 223.667 45.7148 222.615C40.5785 221.648 36.4003 218.284 32.2256 214.923C27.9887 211.512 23.7553 208.104 18.5274 207.207C23.2011 206.432 27.8089 208.587 32.3382 210.704C37.5691 213.15 42.6954 215.546 47.6976 213.326C65.8855 205.252 86.7985 207.889 106.495 210.679L130.711 214.109C134.106 214.59 137.466 213.823 140.841 213.052L140.842 213.052C142.828 212.598 144.82 212.143 146.827 211.941C152.029 211.416 157.149 212.59 162.285 213.768L162.286 213.768C165.002 214.391 167.722 215.015 170.46 215.389C190.98 218.193 212.571 205.073 219.58 185.542C220.496 182.989 221.233 180.283 221.972 177.574C224.102 169.755 226.243 161.899 232.729 157.533C233.407 157.077 234.135 156.654 234.866 156.229L234.866 156.229C237.165 154.895 239.485 153.547 240.319 151.113C234.179 153.131 228.815 157.429 225.498 162.987C223.166 166.896 221.871 171.278 220.574 175.665L220.574 175.666C219.981 177.671 219.388 179.678 218.695 181.641C212.296 199.772 194.847 214.916 175.692 213.781C171.838 213.552 168.046 212.702 164.26 211.852L164.26 211.852C159.525 210.79 154.799 209.729 149.974 209.891C147.282 209.981 144.627 210.452 141.97 210.923C139.802 211.307 137.633 211.692 135.442 211.87C128.232 212.456 121.049 210.796 114.005 209.147C129.868 205.227 145.944 202.168 162.137 199.987C174.057 198.382 187.788 196.176 193.892 185.79C198.246 178.382 205.331 173.257 212.411 168.136C219.643 162.904 226.869 157.677 231.171 150.025C210.75 170.571 181.34 188.229 138.937 196.91C138.643 196.968 138.354 197.026 138.069 197.087C138.358 197.028 138.648 196.97 138.937 196.91C141.868 196.338 145.221 195.895 148.869 195.414C162.904 193.561 181.299 191.133 196.807 178.524C194.144 184.602 189.38 189.732 183.522 192.83C178.32 195.58 172.443 196.712 166.664 197.81L130.734 204.637C119.615 206.749 108.335 208.872 97.0531 207.972C93.9201 207.722 90.7921 207.24 87.6675 206.758L87.6672 206.758L87.667 206.758C81.5939 205.822 75.5337 204.888 69.4744 205.666C65.5149 206.174 61.7091 207.398 57.8988 208.624L57.8984 208.624C55.5389 209.383 53.1776 210.142 50.7768 210.733C44.4991 212.277 37.3797 212.508 32.0696 208.813C21.5762 201.513 4.87777 206.436 0 218.268C5.57341 211.506 15.6465 208.909 23.7842 212.135C27.1069 213.452 30.0466 215.599 32.9729 217.736C36.7159 220.469 40.4368 223.187 44.909 224.131C50.9879 225.415 57.1359 223.174 63.22 220.956C70.0437 218.469 76.7871 216.011 83.2629 218.588C105.21 227.321 128.003 234.509 151.522 236.624C175.042 238.739 199.452 235.535 220.319 224.456C231.025 218.772 240.598 211.148 249.492 202.904C257.88 195.13 265.919 186.462 269.993 175.765C274.481 163.978 273.73 150.929 272.914 138.34C271.43 115.427 269.594 91.4017 257.216 72.081C253.059 65.5923 247.664 59.7199 240.853 56.1332C234.042 52.5466 225.692 51.466 218.562 54.3639C214.621 55.966 211.083 58.3476 207.54 60.7323C205.599 62.0392 203.656 63.3471 201.644 64.528C194.003 69.0144 184.963 70.8932 176.462 68.4032C173.291 67.4744 170.291 66.0731 167.29 64.6716C164.44 63.3404 161.59 62.009 158.592 61.0817C152.924 59.329 146.885 59.0749 140.973 59.5427C118.11 61.3514 96.3046 74.4893 84.4287 94.1522C72.5528 113.815 71.1157 139.546 81.1916 160.194C91.2676 180.841 112.701 195.588 135.586 197.087C132.745 195.321 129.451 194.659 126.142 193.994C124.275 193.618 122.404 193.242 120.607 192.666C115.626 191.069 110.619 186.502 111.874 181.414C112.95 177.05 109.095 173.041 105.201 170.81C104.443 170.376 103.659 169.959 102.872 169.541L102.872 169.541C99.6148 167.812 96.3041 166.053 94.5654 162.88C90.82 156.045 96.6578 148.065 102.093 142.485C96.0464 145.965 91.5504 152.048 89.991 158.859C93.6273 165.18 99.4341 170.219 106.196 172.921C109.668 177.461 111.354 183.336 110.82 189.031C91.0301 176.916 77.5462 155.01 75.6231 131.849C75.164 126.32 75.3655 120.56 77.6794 115.52C82.8657 104.222 88.1937 92.7386 96.5294 83.5259C109.159 69.5679 128.472 61.9769 147.202 63.6089C165.932 65.241 183.648 76.0585 193.685 91.9915C190.024 89.9666 186.242 87.9015 182.087 87.4326C177.932 86.9636 173.263 88.4844 171.235 92.1489C169.7 94.9234 165.516 92.7307 163.304 90.4606C161.093 88.1906 156.597 86.3762 155.47 89.3411L156.599 95.8291C152.302 93.705 147.08 100.137 150.028 103.922C151.029 105.207 152.547 105.96 154.011 106.67C162.213 110.65 171.763 114.68 180.092 110.976C184.366 109.075 189.059 108.126 193.734 108.216C194.861 108.238 196.035 108.334 197.001 108.916C197.757 109.372 198.302 110.073 198.85 110.777L198.851 110.777C199.219 111.25 199.588 111.725 200.024 112.128C201.108 113.131 203.17 113.461 203.838 112.142C205.598 115.29 207.394 118.54 207.84 122.121C208.287 125.702 207.062 129.74 203.965 131.581C200.868 133.422 195.988 131.871 195.367 128.316C194.774 124.927 191.303 124.07 187.664 123.172C184.583 122.411 181.382 121.621 179.708 119.24C177.951 116.739 174.341 116.236 171.404 117.069C169.252 117.679 167.327 118.844 165.403 120.008L165.403 120.009C164.701 120.434 163.999 120.858 163.286 121.256C162.154 121.888 160.977 122.462 159.8 123.035L159.8 123.035C156.827 124.485 153.855 125.933 151.606 128.319C148.466 131.648 147.595 137.793 151.345 140.413C152.747 141.393 163.286 150.025 157.49 152.95C148.851 157.311 151.219 149.52 152.129 148.135C147.961 148.633 146.059 154.452 148.318 157.998C150.577 161.543 155.637 163.757 159.743 162.88C161.776 162.446 161.178 161.356 160.474 160.071C159.756 158.763 158.928 157.252 160.659 156.029C160.328 157.293 161.583 157.729 162.975 158.212C164.065 158.59 165.237 158.997 165.797 159.853C166.807 161.395 165.24 163.3 163.813 164.466L153.338 173.031C153.196 173.107 153.015 173.219 152.81 173.346C152.045 173.82 150.93 174.509 150.137 174.377C149.469 174.266 142.473 161.988 141.051 155.681C140.887 154.953 140.759 154.205 140.631 153.459C140.17 150.768 139.713 148.096 137.574 146.431C136.509 145.602 135.249 144.978 133.999 144.36C131.795 143.27 129.625 142.196 128.614 140.037C127.903 138.518 126.855 137.203 125.805 135.886C124.901 134.752 123.996 133.616 123.304 132.347C121.81 129.606 121.771 125.509 124.507 124.013C125.967 123.214 127.104 121.843 128.22 120.498ZM121.095 91.5863C123.25 91.6663 124.48 94.0146 125.3 96.0129C126.119 98.0112 127.473 100.332 129.628 100.254C131.742 100.178 133.901 100.108 135.927 100.719C137.952 101.331 139.857 102.76 140.466 104.79C140.584 105.179 140.661 105.598 140.738 106.017C140.938 107.098 141.137 108.177 142.017 108.747C142.205 108.869 142.423 108.97 142.641 109.07C143.18 109.32 143.714 109.567 143.767 110.118C143.794 110.39 143.675 110.655 143.541 110.893C142.163 113.344 139.173 114.333 136.411 114.829C136.013 114.9 135.611 114.967 135.208 115.033L135.207 115.034C132.81 115.431 130.366 115.836 128.447 117.285C127.488 118.01 126.729 118.949 125.969 119.89L125.969 119.89C125.32 120.694 124.67 121.5 123.893 122.173C123.593 122.432 123.275 122.672 122.956 122.912C122.361 123.36 121.766 123.808 121.297 124.384C120.577 125.267 120.229 126.613 120.896 127.537C117.98 123.57 114.411 120.085 110.378 117.266C109.284 116.502 108.039 115.596 107.943 114.262C107.707 110.978 105.081 108.524 102.639 106.243L102.638 106.242C102.431 106.049 102.226 105.858 102.024 105.667C100.86 104.569 99.654 103.012 100.247 101.525C100.584 100.681 101.389 100.184 102.193 99.6871C103.009 99.183 103.825 98.6796 104.146 97.8149C104.4 97.1326 104.274 96.4073 104.147 95.675C104.048 95.1096 103.949 94.5399 104.024 93.9826C104.151 93.0314 104.538 92.7836 105.502 92.1671C106.157 91.7475 107.08 91.1571 108.369 90.0578C110.325 88.3903 113.119 89.6496 115.538 90.7399C117.056 91.4244 118.427 92.0423 119.35 91.8278C119.921 91.6952 120.507 91.5645 121.095 91.5863ZM136.241 147.042C137.616 148.611 139.051 150.31 139.325 152.38C139.464 153.435 139.278 154.531 138.799 155.48L132.584 145.776C132.517 145.671 132.447 145.542 132.497 145.428C132.579 145.243 132.854 145.3 133.036 145.388L135.591 146.614C135.826 146.727 136.069 146.845 136.241 147.042ZM201.654 99.0638C201.599 99.5847 201.784 100.126 202.147 100.503C202.62 100.742 203.121 100.512 203.63 100.279C203.867 100.171 204.106 100.061 204.344 99.998C204.781 99.8821 205.242 99.926 205.691 99.9707L211.212 100.52C211.552 99.9926 210.856 99.408 210.266 99.1986C207.511 98.2218 204.438 98.1737 201.654 99.0638ZM231.74 109.034C229.493 112.489 225.978 115.094 222.024 116.235L221.989 117.123C226.393 116.138 230.393 113.44 232.962 109.722C233.258 109.293 233.5 108.625 233.075 108.325C232.612 107.998 232.049 108.558 231.74 109.034ZM222.859 100.235C222.32 100.085 221.592 99.9456 221.331 100.441C222.269 101.295 223.322 102.198 224.588 102.236C225.494 102.264 226.345 101.836 227.15 101.42C229.045 100.441 230.957 99.4507 232.598 98.0863C232.536 97.5103 231.786 97.2425 231.238 97.4268C230.783 97.5799 230.433 97.9269 230.087 98.2691C230.017 98.339 229.946 98.4087 229.875 98.4764C228.05 100.22 225.288 100.912 222.859 100.235ZM217.83 111.969C217.976 112.211 218.157 112.467 218.432 112.53C218.628 112.576 218.832 112.512 219.023 112.448L222.008 111.46C222.008 111.107 221.632 110.862 221.281 110.827C221.085 110.807 220.889 110.831 220.692 110.854C220.538 110.872 220.383 110.891 220.228 110.888C219.033 110.869 218.202 109.655 217.903 108.495C217.799 108.091 217.731 107.675 217.664 107.259C217.538 106.483 217.413 105.708 217.048 105.018C216.36 104.985 216.109 105.919 216.153 106.608C216.273 108.495 216.854 110.351 217.83 111.969ZM209.348 105.358C210.049 104.599 211.097 103.59 211.899 104.241C210.535 106.922 207.561 108.695 204.56 108.618C206.221 111.764 207.292 115.221 207.702 118.756C207.774 119.377 208.17 119.906 208.571 120.385C210.594 122.8 213.193 124.84 216.233 125.648C221.86 127.143 227.908 124.064 231.582 119.539C235.256 115.013 237.039 109.278 238.672 103.678C239.143 102.062 239.843 100.199 241.462 99.746C243.212 99.2564 244.669 97.8266 245.194 96.0838C245.72 94.3411 245.296 92.3418 244.11 90.963C242.769 89.404 239.877 88.9558 238.855 90.7412C238.457 91.435 237.487 91.5962 236.728 91.3482C236.114 91.1475 235.594 90.7485 235.078 90.3519L235.078 90.3518C234.956 90.2584 234.835 90.1651 234.713 90.0746C230.734 87.1335 225.427 86.966 220.484 86.9147C218.919 86.8985 217.336 86.8844 215.815 87.2546C214.045 87.6857 212.465 88.6084 210.88 89.5337C209.653 90.2508 208.422 90.9695 207.098 91.462C203.221 92.9042 198.623 92.1974 195.355 89.657C198.904 95.2863 201.867 101.286 204.18 107.528C206.105 107.587 208.04 106.775 209.348 105.358ZM156.522 89.6336C156.728 90.2965 157.034 90.9298 157.338 91.5611C157.815 92.548 158.289 93.5299 158.375 94.6119C158.517 96.3859 156.66 98.4158 155.16 97.4634C153.603 96.4747 151.304 97.4025 150.578 99.1006C149.853 100.799 150.54 102.887 151.924 104.107C152.968 105.028 154.316 105.511 155.629 105.973C157.215 106.532 159.002 107.286 160.858 108.069L160.858 108.069C165.542 110.044 170.664 112.204 174.097 111.883C175.817 111.722 179.021 109.84 180.111 109.162C182.191 107.869 184.6 106.524 186.954 107.196C189.918 108.043 193.184 107.783 195.978 106.477C197.341 105.841 198.604 107.511 199.162 108.911C199.72 110.31 200.832 112.033 202.257 111.553C203.043 111.288 203.466 110.383 203.441 109.552C203.416 108.721 203.043 107.946 202.678 107.199L196.048 93.6381C194.279 94.1346 192.709 93.1063 191.093 92.0479C189.994 91.328 188.873 90.5941 187.655 90.3167C187.043 90.1775 186.414 90.1578 185.785 90.138C185.13 90.1174 184.475 90.0969 183.842 89.9418C183.163 89.7758 182.53 89.4609 181.899 89.1468C181.13 88.7639 180.363 88.3823 179.518 88.273C177.705 88.0385 175.974 89.1164 174.654 90.3833C174.22 90.7996 173.808 91.2424 173.397 91.685C172.557 92.5892 171.718 93.4922 170.69 94.1649C169.16 95.1669 166.988 95.5266 165.57 94.3702C165.022 93.923 164.656 93.3118 164.288 92.6989C164.107 92.3957 163.925 92.0921 163.72 91.8076C162.146 89.6165 159.042 88.679 156.522 89.6336ZM150.646 135.787C151.262 137.628 152.527 139.24 153.958 140.548C154.271 140.834 154.628 141.11 154.987 141.388C156.165 142.301 157.371 143.235 157.167 144.613C159.823 141.8 163.794 140.292 167.643 140.634C168.273 140.69 168.898 140.792 169.522 140.895C170.192 141.005 170.861 141.114 171.537 141.167C176.335 141.541 180.838 139.045 185.005 136.63L193.983 131.428C194.676 129.984 194.14 128.18 193.068 126.99C191.997 125.8 190.49 125.107 188.998 124.531C187.38 123.906 185.695 123.376 183.962 123.34C183.878 123.338 183.792 123.337 183.705 123.336C183.623 123.335 183.54 123.334 183.457 123.333C181.856 123.318 179.998 123.299 179.447 121.872C178.636 119.774 176.656 118.175 174.438 117.826C172.22 117.478 169.847 118.393 168.435 120.142C167.129 121.757 165.085 122.485 163.109 123.19C162.871 123.275 162.634 123.359 162.399 123.445C159.753 124.41 157.21 125.657 154.826 127.157C152.826 128.415 150.759 130.17 150.646 132.533C150.633 132.794 150.606 133.073 150.578 133.362L150.578 133.362C150.497 134.186 150.409 135.08 150.646 135.787ZM241.027 121.639C244.761 118.721 248.031 115.086 249.956 110.751C251.881 106.415 252.366 101.332 250.692 96.8928C249.697 94.2532 247.997 91.9366 246.123 89.8308C242.869 86.175 238.612 82.8842 233.724 82.8159C232.095 82.7932 230.484 83.1336 228.89 83.4725L219.644 85.4374C224.882 85.3393 230.137 86.1948 235.075 87.9497L235.115 87.964C236.227 88.3592 237.442 88.7911 238.544 88.3766C241.249 87.3588 244.594 88.4884 246.134 90.9398C247.673 93.3911 247.242 96.9024 245.156 98.907C244.735 99.3122 244.26 99.6564 243.786 100C243.261 100.381 242.737 100.761 242.284 101.224C240.934 102.605 240.382 104.535 239.845 106.411C239.784 106.627 239.722 106.843 239.659 107.056C236.462 117.979 228.123 127.975 217.013 130.344C225.664 130.067 234.202 126.972 241.027 121.639ZM230.945 82.2645C233.775 81.9512 236.714 81.6661 239.408 82.5917C241.873 83.4385 243.888 85.2171 245.834 86.9536L248.649 89.4665C244.451 82.7635 236.695 78.452 228.798 78.4321C225.001 78.4226 221.252 79.3362 217.674 80.611C216.536 81.0166 215.412 81.4588 214.287 81.9011C213.904 82.052 213.52 82.2028 213.136 82.3523C208.958 83.9776 204.628 85.4474 200.147 85.557C195.667 85.6666 190.959 84.2371 187.998 80.865C187.867 80.7162 187.738 80.5626 187.608 80.4083C186.978 79.6573 186.334 78.8911 185.42 78.587C188.042 81.9738 190.719 85.4138 194.22 87.876C197.721 90.3383 202.235 91.7199 206.34 90.5132C208.198 89.9668 209.85 88.939 211.504 87.9098C212.257 87.4412 213.011 86.9722 213.784 86.5484C218.992 83.6958 225.046 82.9174 230.945 82.2645ZM167.55 160.867C167.716 161.573 168.501 162.28 169.095 161.866C172.199 159.701 175.314 157.53 178.677 155.796C179.038 155.61 179.404 155.428 179.77 155.245L179.771 155.245C181.599 154.334 183.443 153.415 184.848 151.947C182.803 152.946 180.387 152.794 178.16 152.332C177.448 152.185 176.741 152.008 176.035 151.832C174.528 151.455 173.023 151.079 171.477 150.988C169.532 150.873 167.561 151.223 165.773 151.999C164.698 152.467 163.641 153.135 163.09 154.172C162.538 155.209 162.669 156.677 163.632 157.346C164.08 157.658 164.646 157.772 165.202 157.884C165.936 158.032 166.654 158.177 167.066 158.767C167.341 159.16 167.391 159.643 167.442 160.129C167.468 160.378 167.494 160.628 167.55 160.867ZM214.304 127.509C213.431 126.983 212.725 126.226 212.03 125.48L208.623 121.815L209.02 127.876C209.059 128.463 209.095 129.066 208.909 129.623C208.723 130.18 208.257 130.685 207.673 130.732C207.365 130.757 207.358 131.271 207.623 131.43C207.888 131.589 208.225 131.501 208.519 131.409L216.556 128.898C217.054 128.743 217.568 128.578 217.958 128.23C216.706 128.423 215.389 128.163 214.304 127.509ZM231.315 92.5122C228.658 92.3352 226.011 92.8806 223.403 93.423C222.721 93.5649 222.033 93.7084 221.393 93.9843C219.9 94.6276 218.803 95.9221 217.763 97.1732C217.608 97.3589 217.444 97.5736 217.469 97.8141C217.512 98.2232 218.088 98.3683 218.447 98.1694C218.745 98.0042 218.933 97.7068 219.118 97.4143C219.155 97.3545 219.193 97.2948 219.232 97.2366C220.599 95.1655 223.293 94.5299 225.726 94.0613C227.787 93.6642 229.91 93.2668 231.97 93.6707C232.33 93.7413 232.533 93.1824 232.311 92.89C232.089 92.5976 231.681 92.5365 231.315 92.5122Z" fill="#00160A"/>
</g>
<defs>
<clipPath id="clip0_15_1370">
<rect width="311" height="247" fill="white"/>
</clipPath>
</defs>
</svg>
