<svg width="204" height="294" viewBox="0 0 204 294" fill="none" xmlns="http://www.w3.org/2000/svg">
<path fill-rule="evenodd" clip-rule="evenodd" d="M131.693 45.909C132.198 27.1246 108.451 -4.94289 69.5472 0.644318C26.9534 6.76143 -3.95239 55.758 2.20439 110.521L2.4389 112.624C6.21853 146.828 7.48139 173.772 0.950899 211.712C-3.93172 240.079 30.7888 302.88 107.592 292.945C184.395 283.011 226.581 190.812 190.338 147.309C141.929 89.2022 130.587 87.0217 131.693 45.909Z" fill="#F8FAFE"/>
<path fill-rule="evenodd" clip-rule="evenodd" d="M86.0812 100.675C84.7636 97.2802 82.2675 94.5077 80.1069 91.5777C74.3298 83.7434 70.7473 74.3048 69.8697 64.6067C69.4012 59.4295 71.18 34.1602 80.5872 28.2322C75.943 26.8007 71.18 25.308 67.3707 22.2876C63.5613 19.2671 60.8654 14.3291 61.8905 9.57364C63.442 2.37609 72.7795 -0.713978 79.7445 1.65171C86.7096 4.0174 91.7198 10.0023 96.3556 15.7188C100.788 15.345 101.889 8.80625 105.937 6.96104C108.668 5.71639 111.843 6.99247 114.49 8.40632C122.195 12.5208 129.411 18.1628 133.485 25.8951C137.559 33.6273 137.911 43.7207 132.721 50.7505C134.612 48.5834 138.53 51.2786 138.306 54.1473C138.082 57.0159 135.551 59.0976 133.134 60.6553C130.718 62.2129 128.017 63.828 127.062 66.5419C124.659 73.3737 120.84 79.7029 115.918 85.0121C112.911 88.2558 109.459 91.1744 107.229 94.9953C104.999 98.8162 104.254 103.951 106.855 107.529C110.314 103.843 116.277 102.807 120.774 105.109C125.272 107.412 127.923 112.858 126.963 117.823C133.231 118.362 138.862 123.333 140.179 129.49C152.887 142.314 163.267 157.443 170.662 173.92C175.355 184.379 178.841 195.333 182.317 206.258C183.676 210.533 185.053 215.012 184.295 219.433C182.757 228.413 173.027 233.703 163.989 234.766C152.736 236.089 141.01 232.803 132.079 225.823C127.308 240.675 122.546 256.899 127.969 271.525C129.131 274.657 126.808 278.215 123.774 279.606C120.74 280.998 117.248 280.795 113.919 280.564C95.2579 279.269 76.5974 277.974 57.9368 276.679C54.0264 276.408 48.6799 274.105 50.064 270.433C53.155 262.234 54.0382 253.213 52.5962 244.569C51.496 250.39 49.5883 256.059 46.9449 261.36C46.9449 261.36 37.6304 280.564 28.3412 270.708C23.0469 259.998 22.8186 247.458 24.3814 235.611C25.9441 223.765 29.1748 212.172 30.4372 200.29C31.667 188.714 31.0135 177 32.2161 165.422C33.4187 153.843 36.7428 141.986 44.637 133.438C50.8829 126.675 57.1288 119.913 63.3747 113.15C65.0564 111.329 66.829 109.446 69.1544 108.592C71.4799 107.738 74.5198 108.281 75.7158 110.453C77.1901 108.617 78.9151 106.637 81.2554 106.392C83.5958 106.146 86.0384 109.016 84.5358 110.829C87.2286 108.381 87.3988 104.07 86.0812 100.675Z" fill="white"/>
<path fill-rule="evenodd" clip-rule="evenodd" d="M135.877 129.49C148.585 142.314 158.965 157.443 166.36 173.92C171.053 184.379 174.539 195.333 178.015 206.258C179.374 210.533 180.751 215.012 179.993 219.433C178.455 228.413 168.725 233.703 159.687 234.766C148.434 236.089 137.43 232.117 128.498 225.137C123.728 239.989 118.244 256.899 123.667 271.525C124.159 272.85 125.44 274.35 124.894 275.631C124.15 277.378 121.222 278.804 119.472 279.606C119.011 279.818 120.241 275.448 120.188 269.035C120.096 258.122 115.526 220.205 126.285 222.71C152.562 228.828 172.374 227.879 172.789 221.353C174.898 188.221 134.56 123.333 135.877 129.49Z" fill="#5F8D4E"/>
<path fill-rule="evenodd" clip-rule="evenodd" d="M83.0698 100.675C82.0368 98.0135 80.2795 95.7346 78.5274 93.4623L78.5271 93.4619C78.0444 92.8359 77.5621 92.2105 77.0955 91.5777C71.3184 83.7434 67.7359 74.3048 66.8583 64.6067C66.3899 59.4295 68.1687 34.1602 77.5758 28.2322C72.9316 26.8007 68.1687 25.308 64.3593 22.2876C60.5499 19.2671 57.854 14.3291 58.8791 9.57364C60.4306 2.37609 69.7681 -0.713978 76.7332 1.65171C83.6982 4.0174 88.7084 10.0023 93.3442 15.7188C95.7857 15.5129 97.2163 13.4368 98.6853 11.3048C99.8835 9.56593 101.107 7.78993 102.926 6.96104C105.657 5.71639 108.832 6.99247 111.479 8.40632C119.184 12.5208 126.4 18.1628 130.474 25.8951C134.547 33.6273 134.9 43.7207 129.709 50.7505C131.6 48.5834 135.518 51.2786 135.294 54.1473C135.071 57.0159 132.539 59.0976 130.123 60.6553C129.994 60.7382 129.865 60.8212 129.735 60.9046C127.424 62.388 124.955 63.9724 124.051 66.5419C121.647 73.3737 117.829 79.7029 112.907 85.0121C112.107 85.8752 111.275 86.7154 110.443 87.5556L110.443 87.5559C108.149 89.8732 105.854 92.1913 104.218 94.9953C101.987 98.8162 101.242 103.951 103.844 107.529C107.303 103.843 113.265 102.807 117.763 105.109C122.261 107.412 124.912 112.858 123.952 117.823C130.219 118.362 135.85 123.333 137.168 129.49C149.876 142.314 160.255 157.443 167.65 173.92C172.344 184.379 175.83 195.333 179.305 206.258C180.665 210.533 182.041 215.012 181.284 219.433C179.746 228.413 170.015 233.703 160.977 234.766C149.724 236.089 137.998 232.803 129.067 225.823C124.297 240.675 119.534 256.899 124.958 271.525C125.438 272.82 125.323 274.187 124.808 275.444C121.276 267.762 120.629 258.993 121.574 250.585C122.526 242.108 125.016 233.892 127.494 225.731C127.905 224.377 125.758 224.02 124.358 223.828C121.872 223.487 120.068 221.367 118.514 219.396L112.194 211.38C108.115 206.207 103.412 200.655 96.9049 199.653C95.1003 199.375 93.2743 199.476 91.4455 199.578C90.3314 199.639 89.2163 199.701 88.1043 199.677C83.7861 199.585 79.5055 198.162 75.9896 195.65C75.1465 195.048 74.2909 194.293 74.1179 193.271C73.9489 192.272 74.8502 191.102 75.8073 191.356L75.8751 191.377L75.8566 191.371L75.8458 191.367C75.8329 191.363 75.8201 191.36 75.8073 191.356C72.7608 190.436 69.8598 189.035 67.2443 187.221C66.7623 186.886 66.2707 186.515 66.0223 185.984C65.4857 184.835 66.3739 183.427 67.5446 182.942C68.7153 182.457 70.0413 182.634 71.2947 182.819C69.7995 182.515 68.2577 182.191 67.0047 181.319C65.7517 180.448 64.8539 178.874 65.2419 177.396C65.6298 175.919 67.6634 175.005 68.81 176.013C68.31 174.521 69.3941 172.869 70.8129 172.192C72.2317 171.515 73.8757 171.569 75.4449 171.656C82.0289 172.019 88.5943 172.722 95.1061 173.762L94.1523 160.351C94.1134 159.804 94.0662 159.232 93.77 158.77C93.3906 158.179 92.6886 157.898 92.0307 157.654C78.7761 152.738 65.1405 148.852 51.2869 146.043L54.3904 204.25C54.4856 206.035 54.9822 208.299 56.7437 208.589C67.6886 210.393 78.4249 213.462 88.6705 217.717C90.1096 218.315 91.162 216.298 91.4269 214.761L94.0522 199.527C94.4171 205.967 93.4969 212.477 91.3616 218.562C92.9947 218.946 93.9395 216.787 94.2008 215.128L96.5717 200.074C96.9754 205.41 96.5093 210.812 95.1974 216C94.8962 217.191 94.4386 218.509 93.3258 219.027C92.384 219.466 91.2809 219.181 90.2837 218.89L55.6151 208.769C55.0701 208.609 54.5011 208.437 54.097 208.037C53.4957 207.443 53.4135 206.515 53.3671 205.671L50.4819 153.186C50.2948 149.783 50.4806 146.373 50.6663 142.97L51.6173 125.545C46.037 145.224 45.51 166.084 47.8609 186.405C50.2117 206.726 55.3752 226.611 61.0328 246.269C58.6525 242.192 56.914 237.741 55.9009 233.129C53.1337 237.094 50.2301 241.614 51.0197 246.386C52.3456 254.4 51.5001 262.764 48.5972 270.35C47.9352 272.08 49.1255 274.075 50.7553 274.953C52.385 275.83 54.3181 275.874 56.1686 275.897L80.8037 276.203C80.1242 275.34 80.3694 273.907 81.2973 273.319C81.0489 276 84.4829 277.261 87.1473 277.624C99.735 279.339 113.116 280.946 124.685 275.726C123.914 277.392 122.448 278.833 120.763 279.606C117.729 280.998 114.236 280.795 110.907 280.564L54.9254 276.679C51.015 276.408 45.6685 274.105 47.0526 270.433C50.1436 262.234 51.0268 253.213 49.5848 244.569C48.4847 250.39 46.5769 256.059 43.9335 261.36C45.0177 252.508 47.9818 243.892 52.5719 236.249C55.839 230.81 53.9568 223.888 52.2787 217.767C44.3335 188.786 43.1018 157.983 48.7077 128.46C36.7435 137.215 31.7487 152.751 30.3296 167.519C29.7363 173.694 29.6382 179.911 29.5401 186.124C29.4037 194.772 29.2673 203.413 27.7961 211.919C27.1239 215.806 26.1756 219.647 25.228 223.485C23.7307 229.548 22.2353 235.605 21.8334 241.824C21.2059 251.535 23.2739 261.196 25.3298 270.708C20.0355 259.998 19.8072 247.458 21.37 235.611C22.0872 230.174 23.1557 224.791 24.224 219.409C25.4835 213.063 26.7428 206.719 27.4258 200.29C28.0452 194.46 28.1868 188.595 28.3285 182.73C28.4681 176.949 28.6078 171.169 29.2047 165.422C30.4073 153.843 33.7314 141.986 41.6256 133.438L60.3634 113.15C62.045 111.329 63.8176 109.446 66.143 108.592C68.4685 107.738 71.5085 108.281 72.7044 110.453C74.1787 108.617 75.9037 106.637 78.244 106.392C80.5844 106.146 83.027 109.016 81.5244 110.829C84.2172 108.381 84.3874 104.07 83.0698 100.675ZM124.685 275.726C124.728 275.633 124.769 275.539 124.808 275.444C124.836 275.507 124.865 275.569 124.894 275.631C124.824 275.663 124.755 275.695 124.685 275.726ZM180.004 214.521C180.638 219.81 177.806 225.127 173.603 228.394C169.401 231.661 164.02 233.097 158.712 233.462C147.535 234.23 136.111 230.394 127.658 223.034C134.147 216.376 134.51 204.678 128.445 197.63C133.663 195.2 138.998 192.737 144.718 192.107C150.438 191.477 156.715 192.997 160.433 197.394C161.069 198.145 161.618 198.965 162.168 199.783C162.842 200.789 163.517 201.794 164.348 202.671C163.628 197.903 159.915 193.921 155.471 192.061C151.028 190.201 145.972 190.242 141.271 191.289C136.569 192.335 132.14 194.331 127.749 196.313C126.914 196.69 126.29 195.487 126.154 194.581L125.367 189.327C125.043 187.161 125.077 184.327 127.115 183.531C128.646 182.934 128.245 180.596 127.232 179.301C127.062 179.084 126.88 178.866 126.697 178.646C125.784 177.552 124.827 176.403 125.069 175.055C127.637 160.741 130.219 146.37 134.789 132.566C134.931 132.138 135.103 131.675 135.492 131.449C136.018 131.143 136.683 131.407 137.213 131.707C141.494 134.129 144.053 138.456 146.606 142.774L146.606 142.774C147.507 144.298 148.407 145.821 149.382 147.258C150.887 149.476 152.61 151.529 154.334 153.583L154.335 153.583C155.615 155.108 156.895 156.633 158.087 158.227C165.431 168.048 169.034 179.862 172.644 191.7C174.291 197.1 175.939 202.506 177.945 207.73C178.025 207.938 178.106 208.146 178.186 208.355L178.188 208.359L178.189 208.362L178.191 208.366C178.967 210.371 179.749 212.391 180.004 214.521ZM122.466 183.61C123.514 183.6 124.611 183.577 125.528 183.071C126.446 182.564 127.094 181.403 126.67 180.444C126.267 179.534 125.106 179.205 124.119 179.335C123.548 179.409 123.002 179.596 122.455 179.784C122.058 179.92 121.66 180.056 121.252 180.149C119.221 180.614 117.149 180.001 115.087 179.392C112.856 178.732 110.637 178.076 108.5 178.796C109.882 176.504 109.791 173.67 109.704 170.978C109.7 170.837 109.695 170.696 109.691 170.556C109.252 156.257 112.421 141.861 118.824 129.071C116.46 130.763 114.764 133.365 114.168 136.212C114.097 136.55 114.041 136.893 113.984 137.235L113.984 137.236C113.839 138.117 113.694 138.998 113.305 139.796C111.731 143.03 107.284 143.27 103.705 142.947C100.771 142.682 97.6974 142.296 95.3082 140.572C94.1098 139.707 93.145 138.546 92.1855 137.391L92.1855 137.391C90.9081 135.854 89.6402 134.328 87.8432 133.528C84.8626 132.2 81.6773 133.307 78.4544 134.426C75.543 135.437 72.6008 136.459 69.7512 135.707C68.1455 135.283 67.035 137.257 66.5531 138.847L64.4533 145.779C63.4737 141.99 64.6702 137.716 67.474 134.988C66.2732 134.2 66.5965 132.581 66.9166 130.979C67.2409 129.355 67.5619 127.748 66.2925 127.038C62.4607 124.892 61.7025 119.795 61.3753 115.411C56.5001 117.214 53.7186 122.489 52.8613 127.621C52.356 130.645 52.3619 133.715 52.3677 136.788C52.3718 138.929 52.3759 141.071 52.2072 143.2C66.906 146.081 81.3941 150.038 95.5176 155.03C96.3822 155.336 97.2904 155.676 97.8673 156.39C98.4878 157.157 98.6036 158.203 98.6948 159.187C99.1559 164.158 99.5912 169.336 97.8144 174.002L97.8295 159.462C97.8303 158.657 97.6929 157.649 96.9275 157.402C95.7368 157.019 95.1787 158.84 95.2769 160.088L96.1271 170.896C96.2434 172.376 96.4583 174.043 97.6475 174.929L76.2779 172.78C74.058 172.557 71.3978 172.519 70.0994 174.336C70.3131 176.074 72.3881 176.803 74.1002 177.16L87.7029 179.999C83.4463 180.88 78.9725 180.09 74.9453 178.453C74.6403 178.329 74.3362 178.2 74.0318 178.07L74.0305 178.07L74.0289 178.069L74.0287 178.069C72.7538 177.528 71.4741 176.985 70.1072 176.804C68.4129 176.58 66.4983 177.042 65.5143 178.441C71.6006 182.47 78.6739 184.994 85.9339 185.725C85.89 186.514 84.8393 186.75 84.0523 186.693C82.0045 186.543 80.0352 185.942 78.064 185.34C77.149 185.061 76.2336 184.781 75.3097 184.547C72.3957 183.807 69.1289 183.562 66.5422 185.096C72.3643 189.85 80.0413 191.502 87.4022 193.008L75.2137 192.748C77.3693 196.588 82.2059 198.003 86.5998 198.236C87.8991 198.305 89.2102 198.303 90.5207 198.301C93.6419 198.297 96.7601 198.293 99.7102 199.243C105.065 200.968 108.944 205.517 112.527 209.859L119.435 218.233C120.377 219.374 122.171 219.501 123.502 218.855C124.833 218.209 125.773 216.965 126.509 215.681C127.972 213.129 128.842 210.133 128.369 207.229C127.897 204.325 125.896 201.581 123.076 200.753C118.232 199.331 114.793 195.021 112.415 190.562C111.599 189.032 110.866 187.453 110.133 185.875C108.732 182.855 107.331 179.84 105.356 177.175C104.764 176.376 104.118 175.605 103.473 174.835C101.879 172.931 100.286 171.029 99.4966 168.7C103.555 172.631 106.999 177.196 109.666 182.179C109.956 182.72 110.274 183.303 110.833 183.554C111.191 183.715 111.597 183.714 111.989 183.71L122.466 183.61ZM121.349 61.7025C122.33 61.5748 123.105 60.8387 123.806 60.1405L127.219 56.7427C120.915 72.3797 111.913 87.4983 98.2677 97.3835C95.4973 99.3904 92.2038 101.239 88.8375 100.637C87.0741 100.321 85.4923 99.3529 84.0898 98.2372C81.169 95.9139 78.8582 92.9057 76.8821 89.7381C71.3028 80.7951 68.2048 70.2854 68.2518 59.7416C68.2989 49.1977 71.5199 38.6587 77.5478 30.0124C77.755 29.7152 77.9873 29.4032 78.3295 29.2848C78.6768 29.1647 79.057 29.2712 79.4085 29.3782C92.0427 33.223 104.556 37.4655 116.924 42.0974C118.882 42.8306 119.697 45.1374 120.053 47.1997C120.786 51.4471 120.59 55.8525 119.484 60.0182C119.23 60.975 120.368 61.8302 121.349 61.7025ZM113.105 30.0882C114.596 30.1015 115.635 32.0968 114.793 33.3276C113.95 34.5585 111.717 34.309 111.166 32.9227C110.548 31.3676 108.955 30.5235 107.452 29.7272C107.293 29.6428 107.134 29.5588 106.978 29.4746C101.927 26.7511 98.0442 22.4263 94.1802 18.1225C93.1665 16.9933 92.154 15.8657 91.1222 14.7688C89.1618 12.6848 87.1057 10.6912 84.9626 8.7961C82.6122 6.71775 80.1182 4.73419 77.2403 3.48706C74.3624 2.23992 71.0349 1.78549 68.0732 2.81729C69.4074 2.88502 70.4526 4.4071 70.038 5.67846C69.6234 6.94981 67.8824 7.56123 66.7653 6.82777C65.6482 6.09431 65.5146 4.25207 66.5142 3.36478C63.4855 4.2624 60.9406 6.66041 59.8624 9.6327C59.6498 10.2188 59.4917 10.8669 59.6862 11.4592C59.7959 11.7932 60.011 12.0898 60.2236 12.383C60.5241 12.7973 60.8196 13.2047 60.8059 13.7011C60.6966 17.6747 64.5826 21.2725 68.5311 20.8532C69.3046 20.7711 69.6161 21.5432 69.9393 22.3441C70.0936 22.7263 70.2504 23.115 70.4614 23.4207C70.8382 23.9667 71.4678 24.2709 72.0707 24.547C78.1991 27.3533 84.5404 29.6935 91.022 31.5406C91.7732 31.7546 92.8014 31.8438 93.12 31.13C93.5474 30.1721 94.7895 29.6748 95.7589 30.0734C96.7282 30.472 97.2625 31.6998 96.8939 32.6819C96.7288 33.122 97.2705 33.4787 97.7121 33.6386L119.792 41.6307C119.385 39.9948 121.461 38.3687 122.949 39.1581C124.437 39.9474 124.259 42.5801 122.678 43.1615L130.748 47.2353L132.197 35.3793C132.265 34.8254 132.044 34.0018 131.509 34.1602C130.519 34.4538 129.352 33.8933 128.961 32.9364C128.57 31.9795 129.01 30.7608 129.922 30.2754C130.624 29.9019 130.885 28.9812 130.73 28.2008C130.575 27.4205 130.095 26.7494 129.616 26.1145C124.433 19.2463 117.868 13.3991 110.338 9.24352C108.32 8.1298 105.874 7.12618 103.788 8.10753C102.581 8.67561 101.769 9.7936 100.975 10.8866L100.975 10.8873L100.974 10.888L100.974 10.8887L100.973 10.8892C100.848 11.0622 100.722 11.2346 100.596 11.4041C99.0083 13.5351 97.0436 15.3838 94.821 16.8386L101.856 24.0042C101.275 22.7466 102.16 21.0524 103.524 20.8141C104.888 20.5757 106.294 21.8694 106.172 23.25C106.05 24.6306 104.439 25.6572 103.138 25.1831C106.076 27.5595 109.329 30.0545 113.105 30.0882ZM122.061 127.147C123.13 127.225 124.216 126.582 124.663 125.606C125.109 124.631 124.886 123.388 124.129 122.628C123.182 121.68 124.278 119.908 125.611 119.77C126.943 119.632 128.153 120.484 129.221 121.294L134.369 125.195C134.993 125.668 135.693 126.375 135.421 127.11C129.541 142.938 125.676 159.515 123.949 176.314C123.809 177.676 122.498 178.678 121.153 178.922C119.807 179.166 118.433 178.824 117.108 178.485L112.372 177.272C112.05 177.189 111.713 177.099 111.474 176.868C111.132 176.539 111.08 176.018 111.051 175.544C110.089 159.367 113.413 142.954 120.592 128.43C120.899 127.809 121.371 127.096 122.061 127.147ZM111.63 117.001C110.348 116.033 110.642 113.669 112.122 113.046C108.46 113.362 105.119 114.996 101.775 116.632C98.5498 118.209 95.3215 119.788 91.7991 120.188C93.9157 121.626 94.9147 124.381 94.6278 126.926C94.3409 129.47 92.9173 131.787 91.0673 133.555C92.6512 136.592 95.2674 139.078 98.3797 140.502C99.4765 141.004 100.733 141.379 101.875 140.992C102.124 140.907 102.39 140.795 102.66 140.68L102.661 140.68L102.661 140.68L102.661 140.68C103.647 140.261 104.692 139.818 105.187 140.64C106.116 142.183 108.485 141.829 110.022 140.893C111.072 140.254 112.049 139.388 112.482 138.236C112.914 137.084 112.658 135.614 111.647 134.913C110.808 134.332 110.526 133.076 111.035 132.191C111.545 131.305 112.771 130.92 113.695 131.355C114.501 131.735 115.256 130.788 115.738 130.037C116.872 128.27 118.542 126.852 120.469 126.021C119.698 124.886 119.806 123.229 120.719 122.204C118.36 120.478 116.468 118.12 115.294 115.442C115.1 117.037 112.911 117.969 111.63 117.001ZM80.3948 110.822L80.3947 110.822L80.3947 110.823L80.3946 110.823C80.3655 111.013 80.3364 111.203 80.3136 111.392C80.2073 112.274 80.3022 113.299 81.0079 113.837C83.7007 110.569 85.2836 106.401 85.4395 102.168C85.4706 101.323 86.7511 101.445 87.5493 101.723C89.9056 102.545 92.5509 102.135 94.8365 101.133C97.1221 100.131 99.1166 98.5792 101.085 97.0435C100.508 100.882 101.01 104.876 102.517 108.452L94.7376 114.301C94.4299 114.532 94.1416 115.062 94.4941 115.216C97.4422 114.259 99.9452 112.313 102.396 110.407L102.626 110.229C105.151 108.267 107.794 106.299 110.888 105.497C113.982 104.694 117.664 105.327 119.636 107.846C120.608 109.087 121.073 110.64 121.518 112.153L122.895 116.839C123.194 117.854 123.488 118.974 123.057 119.941C122.627 120.908 121.115 121.385 120.511 120.515L117.69 116.452C116.347 114.517 114.822 112.449 112.553 111.821C110.077 111.136 107.525 112.374 105.223 113.515C101.189 115.513 97.0587 117.317 92.8517 118.919C91.5583 119.411 90.1236 118.931 88.72 118.46C87.1222 117.925 85.5647 117.403 84.3017 118.346C83.833 118.696 83.1703 118.505 82.63 118.281C78.9137 116.744 75.5845 114.279 73.0283 111.171L78.38 107.691C79.1238 107.207 80.1582 107.902 80.4108 108.753C80.6091 109.421 80.5015 110.124 80.3948 110.822ZM84.3295 131.582C81.8941 129.589 80.7172 126.172 81.4077 123.1C81.5832 122.319 80.7724 121.714 80.1172 121.256C79.4619 120.797 78.813 119.903 79.3188 119.283C79.5913 118.949 79.2198 118.481 78.8794 118.217L72.3313 113.135C71.5457 112.526 70.7356 111.887 70.2821 111.001C69.4624 109.401 67.2743 108.678 65.6644 109.477C63.3783 110.612 63.0596 113.688 63.0471 116.243C63.0442 116.845 63.2133 117.644 63.8137 117.678C65.3484 117.765 66.0748 120.15 64.8495 121.08C63.6495 121.99 64.506 123.963 65.6995 124.882C65.9599 125.082 66.2387 125.274 66.5189 125.467C67.5227 126.159 68.5448 126.863 68.8064 128.012C69.0011 128.867 68.7131 129.773 68.4318 130.659C68.08 131.766 67.7387 132.84 68.3648 133.74C69.1314 134.842 70.7664 134.735 72.0849 134.487C76.2092 133.713 80.2968 132.743 84.3295 131.582ZM113.429 184.998C116.397 184.759 119.385 184.765 122.352 185.016C122.601 185.037 122.864 185.065 123.064 185.215C123.371 185.446 123.427 185.877 123.461 186.26C123.745 189.408 124.342 192.527 125.241 195.557C125.102 195.929 124.705 196.019 124.293 196.112C124.024 196.174 123.748 196.236 123.532 196.379C122.837 196.842 123.04 197.95 123.556 198.607C123.739 198.839 123.951 199.051 124.162 199.262C124.548 199.649 124.933 200.034 125.133 200.536C118.768 198.54 114.128 192.833 111.649 186.634C111.499 186.258 111.354 185.839 111.49 185.458C111.627 185.077 112.188 184.853 112.446 185.165C112.547 185.288 112.573 185.455 112.595 185.613L113.028 188.71C113.085 189.115 113.747 189.119 113.971 188.778C114.196 188.436 114.113 187.986 114.022 187.588L113.429 184.998ZM92.7965 124.055C91.9416 121.589 89.6379 119.688 87.056 119.318C86.1112 119.183 85.0462 119.279 84.3698 119.953C82.8829 121.435 82.2954 123.695 82.6442 125.766C82.9931 127.837 84.2075 129.706 85.8089 131.063C87.0058 132.077 88.6935 132.845 90.1145 132.181C90.5376 131.984 90.8987 131.673 91.2207 131.334C93.0191 129.443 93.6515 126.522 92.7965 124.055ZM121.167 58.9959C121.869 54.104 122.522 48.8293 120.215 44.46C120.055 44.1559 119.889 43.7558 120.119 43.5003L127.361 47.0924C127.935 47.3773 128.615 47.9287 128.348 48.512C128.036 49.193 127.977 49.9457 127.918 50.6994L127.918 50.6997C127.893 51.018 127.868 51.3365 127.824 51.6498C127.557 53.5447 126.573 55.2804 125.325 56.7302C124.078 58.1801 122.569 59.3769 121.07 60.5642C121.018 60.0416 121.093 59.5157 121.167 58.9959ZM128.459 199.484C127.628 198.313 126.518 197.166 125.09 197.023C124.539 196.968 123.798 197.528 124.198 197.911C127.656 201.22 129.972 205.957 129.544 210.727C129.115 215.497 125.521 220.049 120.792 220.776C122.191 222.438 124.859 222.568 126.755 221.508C128.65 220.447 129.869 218.473 130.638 216.44C132.736 210.891 131.892 204.32 128.459 199.484ZM54.2404 144.537C59.4862 145.36 64.6045 146.836 69.7064 148.309L83.609 152.323C87.8405 153.544 92.1194 154.786 95.9352 156.987C94.1253 156.921 92.3655 156.403 90.6334 155.873C87.5709 154.936 84.5186 153.946 81.4656 152.956C71.562 149.744 61.6513 146.53 51.3616 145.1C52.0188 144.313 53.2277 144.378 54.2404 144.537ZM130.254 52.0547C129.458 52.7708 129.077 53.8391 128.849 54.8859C128.781 55.1934 128.725 55.5039 128.668 55.8143C128.531 56.5608 128.394 57.3071 128.115 58.0107C128.07 58.1259 128.02 58.2423 127.97 58.3594L127.97 58.36C127.719 58.9484 127.46 59.5568 127.647 60.1508C130.65 59.9577 133.366 57.5357 133.905 54.5719C134.085 53.5771 133.978 52.4088 133.191 51.7749C132.357 51.103 131.05 51.3386 130.254 52.0547ZM114.88 13.1444C115.226 14.1261 114.704 15.331 113.752 15.75C112.801 16.1689 111.561 15.7391 111.072 14.8206C110.534 13.8094 111.025 12.388 112.073 11.9268C113.121 11.4656 114.5 12.0636 114.88 13.1444ZM79.1341 14.0709C79.1936 13.1783 78.6337 12.2779 77.8075 11.9372C76.7559 11.5037 75.4039 12.0802 74.9876 13.1398C74.5713 14.1993 75.1687 15.5435 76.2336 15.9433C77.4838 16.4127 79.0453 15.4048 79.1341 14.0709ZM119.806 23.0625C119.835 24.1918 120.87 25.1985 121.999 25.1953C123.196 25.192 124.262 24.0399 124.175 22.8448C124.092 21.7181 123.011 20.7613 121.884 20.8175C120.757 20.8736 119.776 21.9333 119.806 23.0625ZM87.6387 24.3739C86.8205 25.3975 85.0346 25.4001 84.2134 24.3789C83.3922 23.3576 83.7762 21.6114 84.9498 21.0298C86.1235 20.4482 87.7432 21.2014 88.0564 22.4744C88.2169 23.1265 88.0579 23.8495 87.6387 24.3739ZM81.0036 41.4359C80.3112 42.5189 80.1634 43.9325 80.6167 45.1356C80.7848 45.5818 81.0352 46.0042 81.3911 46.3211C82.5327 47.3378 84.4844 46.9082 85.4454 45.719C86.4063 44.5297 86.5386 42.8516 86.2552 41.3485C86.1422 40.7493 85.934 40.1096 85.4232 39.7772C85.0677 39.5459 84.6203 39.5043 84.1974 39.5346C82.9163 39.6264 81.6959 40.3528 81.0036 41.4359ZM103.994 52.5201C103.617 52.1341 103.368 51.6363 103.213 51.1188C102.64 49.2 103.447 46.9522 105.109 45.8377C105.861 45.3336 106.83 45.0536 107.681 45.3621C108.724 45.7403 109.297 46.8796 109.495 47.9724C109.778 49.5363 109.438 51.2892 108.288 52.3848C107.137 53.4804 105.105 53.656 103.994 52.5201ZM75.1911 74.0933C75.2294 73.127 75.3078 72.1624 75.426 71.2026C75.467 70.87 75.7545 70.5842 76.087 70.5455C76.2409 72.9126 76.3127 75.285 76.3021 77.6571C75.2563 76.8897 75.1397 75.3904 75.1911 74.0933ZM114.036 63.8173C113.722 62.3783 112.643 61.1304 111.265 60.6134C111.034 60.5269 111.045 60.1579 111.239 60.0059C111.432 59.854 111.708 59.8693 111.947 59.9277C113.257 60.2481 114.068 61.5351 114.667 62.7448C114.825 63.0648 114.981 63.438 114.842 63.7667C114.702 64.0955 114.113 64.1663 114.036 63.8173ZM90.0799 273.538C89.9421 273.227 89.5923 273.079 89.2727 272.962C84.2684 271.136 78.9553 270.16 73.6293 270.091C72.8701 270.081 71.9833 270.154 71.5653 270.789C71.972 271.131 72.5559 271.131 73.0871 271.123C78.7262 271.038 84.3801 272.086 89.615 274.187C89.9307 274.313 90.2177 273.85 90.0799 273.538ZM92.8519 55.2441C92.5508 55.4924 92.2185 55.6993 91.8864 55.906C91.5114 56.1395 91.1367 56.3727 90.8073 56.6654C90.186 57.2173 89.7366 58.1099 90.0579 58.8767C90.4548 59.8239 91.7297 60.003 92.7395 59.8206C92.7816 59.813 92.824 59.805 92.8664 59.797C93.1857 59.7367 93.512 59.6752 93.8227 59.7604C94.1748 59.8569 94.4842 60.2282 94.3635 60.5731C94.2788 60.8153 94.025 60.9503 93.7863 61.0438C92.307 61.6231 90.4605 61.4075 89.363 60.2579C88.2655 59.1084 88.2378 57.0032 89.4916 56.0268L94.3896 52.212C94.3396 53.3783 93.752 54.5018 92.8519 55.2441ZM111.608 65.0914C111.912 66.8139 111.471 68.584 110.847 70.2177C108.158 77.2517 101.81 82.7643 94.4739 84.4343C91.5217 85.1064 88.2649 85.1459 85.6377 83.6395C83.0106 82.1332 81.3218 78.7451 82.4738 75.9422C83.8259 72.6524 88.0124 71.7299 91.5651 71.6552C91.8763 71.6487 92.1908 71.644 92.5074 71.6393C95.8041 71.5903 99.3234 71.538 101.709 69.3404C102.558 68.5584 103.171 67.5745 103.785 66.5887C104.302 65.7577 104.82 64.9254 105.481 64.2116C106.927 62.651 109.759 61.9053 111.029 63.6119C111.348 64.0405 111.515 64.565 111.608 65.0914ZM110.099 67.7163C110.465 66.3144 110.304 64.2977 108.872 64.0859C108.34 64.0071 107.809 64.2458 107.366 64.553C106.266 65.3172 105.561 66.4683 104.852 67.6258C104.289 68.5445 103.724 69.4671 102.957 70.2035C100.954 72.1263 97.9581 72.4665 95.1934 72.7062L89.88 73.1668C88.5248 73.2843 87.1205 73.4166 85.941 74.0952C83.7257 75.3696 82.9575 78.6276 84.3697 80.7594C85.8968 83.0647 89.081 83.5652 91.8312 83.2989C100.309 82.4781 107.943 75.9654 110.099 67.7163ZM113.126 175.47C112.838 175.503 112.538 175.422 112.306 175.247C112.15 175.129 112.024 174.97 111.945 174.79C111.689 174.205 112.035 173.434 112.642 173.238C113.249 173.041 113.98 173.461 114.116 174.086C114.251 174.71 113.761 175.397 113.126 175.47ZM122.954 175.549C122.745 175.365 122.465 175.265 122.186 175.273C121.501 175.293 120.951 176.067 121.156 176.722C121.361 177.376 122.254 177.697 122.828 177.323C123.402 176.949 123.47 176.001 122.954 175.549ZM102.293 125.714C101.581 124.894 101.642 123.516 102.423 122.763C103.205 122.009 104.582 121.998 105.374 122.74C106.221 123.533 106.232 125.046 105.398 125.852C104.563 126.657 103.053 126.59 102.293 125.714ZM92.9803 132.551C92.8171 132.989 92.8035 133.481 92.9423 133.927C93.3371 135.196 95.089 135.8 96.1802 135.043C97.2715 134.286 97.3226 132.432 96.2748 131.616C95.227 130.8 93.4444 131.306 92.9803 132.551ZM74.1367 129.324C73.8911 130.137 73.114 130.759 72.2682 130.821C71.0201 130.912 69.8542 129.672 70.0205 128.43C70.1867 127.189 71.6378 126.3 72.8178 126.717C73.8307 127.075 74.4478 128.295 74.1367 129.324Z" fill="#00160A"/>
</svg>
