<svg width="120" height="97" viewBox="0 0 120 97" fill="none" xmlns="http://www.w3.org/2000/svg">
<path fill-rule="evenodd" clip-rule="evenodd" d="M69.0677 96.7568C83.4339 96.7568 96.041 86.0257 88.9608 71.4502C81.8807 56.8747 108.188 57.3454 115.916 47.2718C125.34 34.9866 122.611 -17.1623 62.1107 14.6302C52.4193 19.723 27.5297 9.39094 19.2737 14.5175C9.55561 20.552 -4.11722 32.9087 9.55561 45.5664C16.2906 51.8013 -7.85587 67.9843 2.7198 82.48C13.039 96.6243 20.2726 83.1407 35.9834 86.0257C51.6942 88.9106 58.3983 96.7568 69.0677 96.7568Z" fill="#F8FAFE"/>
<path d="M52.3933 71.3997C52.3933 71.3997 55.7011 69.8371 56.936 68.7501C58.171 67.663 59.7062 64.9623 59.7062 64.9623C59.7062 64.9623 76.5703 77.1924 87.5663 75.4478C90.0999 75.0459 95.0365 73.3548 95.3513 70.3752C96.2109 62.239 84.3172 60.1598 86.9152 56.0339C88.5011 53.5154 93.4275 57.2637 93.4275 57.2637L113.861 67.3564C113.861 67.3564 106.802 84.8302 89.6708 85.5305C68.5976 86.3919 52.3933 71.3997 52.3933 71.3997Z" fill="white"/>
<path fill-rule="evenodd" clip-rule="evenodd" d="M36.193 2.96791C36.0012 2.8923 34.9713 1.6259 33.6637 1.39541C33.0695 1.29067 33.6088 2.05042 32.9549 2.05726C31.0073 2.07762 27.8423 1.71019 27.256 2.05726C26.8202 2.31438 27.7799 3.21265 27.256 3.25388C22.3129 3.64296 14.7718 8.59918 13.1357 11.0037C12.615 11.7689 16.8262 10.4706 16.1552 10.8489C15.4021 11.2735 14.5669 14.0537 14.0676 16.201C13.7218 17.6797 13.5042 19.5827 13.4273 21.6528C13.3633 23.44 13.3889 23.7358 13.645 24.713C13.9395 25.8059 14.17 26.1274 14.5669 25.9731C14.7078 25.9216 14.7718 25.7288 14.7718 25.3687C14.7718 25.0859 14.9254 24.2372 15.1175 23.4786L15.4504 22.1157L15.5913 22.6814C15.7705 23.3372 16.8205 25.3687 17.768 26.8474C17.8191 26.9259 18.039 26.8261 18.2372 26.3448C18.4179 25.9063 18.3446 25.2057 18.6515 24.4549C19.3506 22.7446 20.7234 20.5209 22.3129 18.7409C24.6621 16.1102 25.4415 13.0658 27.6436 10.6219C31.7531 6.06106 36.9109 3.25093 36.193 2.96791Z" fill="white"/>
<path fill-rule="evenodd" clip-rule="evenodd" d="M16.2137 11.4696C15.5544 12.0019 14.5759 16.3198 14.5591 16.3919C14.2134 17.8706 13.8801 23.0055 14.2208 23.9776C14.5614 24.9498 15.5152 21.4453 15.5152 21.4453C15.5152 21.4453 16.957 25.2047 18.2309 26.2355C18.2853 26.2795 16.7167 21.5843 16.2137 18.8434C15.5497 15.2252 16.5888 11.1666 16.2137 11.4696Z" fill="#E7EAEE"/>
<path fill-rule="evenodd" clip-rule="evenodd" d="M40.7849 87.09C42.0141 86.82 44.0882 85.8797 44.8823 85.5581C45.6764 85.2366 48.0962 81.8054 48.9669 77.9351C49.5943 75.0807 49.9144 71.0176 49.5559 70.3361C49.5029 70.2394 49.3093 68.3917 49.8249 68.9951C50.9709 70.3361 52.3313 72.4414 56.6237 68.6689C57.7929 67.6414 59.3425 66.3153 58.9345 65.143C57.7929 61.8629 52.8443 55.2582 52.0899 54.7579C51.1879 54.1597 46.6288 54.668 39.8439 52.657C32.1493 50.3765 28.9453 43.6608 25.9342 44.535C23.4991 45.242 17.6648 49.5865 16.2005 52.3378C9.28786 65.3264 17.6648 74.4277 19.5725 77.0418L21.4248 77.8451L21.4888 79.5038L21.5784 80.5453C21.7449 82.5383 21.8089 82.7183 22.7052 83.3869C24.946 85.097 29.3635 86.6914 33.3584 87.2572C35.215 87.5143 39.2484 87.4243 40.7849 87.09Z" fill="white"/>
<path fill-rule="evenodd" clip-rule="evenodd" d="M22.1533 78.8966L22.2429 79.9381C22.4094 81.9311 22.4734 82.1111 23.3697 82.7797C24.6916 83.7885 26.7711 84.7571 29.0744 85.498C30.6755 86.013 32.3847 86.4179 34.0229 86.6499C35.8795 86.9071 39.9129 86.8171 41.4494 86.4828C42.2089 86.3175 35.9617 81.389 32.2815 82.7797C29.4552 83.8476 22.7938 75.7014 25.5023 73.5732C28.5405 71.1858 22.9731 61.7693 22.7938 59.725C22.6146 57.6807 21.9086 57.1923 21.888 57.264C21.8674 57.3357 21.8674 57.5802 21.9228 58.1696C22.1617 60.7098 22.1533 78.8966 22.1533 78.8966Z" fill="#E7EAEE"/>
<path fill-rule="evenodd" clip-rule="evenodd" d="M21.4863 59.1416C21.7551 59.089 22.0155 59.2653 22.0678 59.5352C23.0342 64.5208 27.1218 67.8961 34.4312 69.6611C41.784 71.4365 46.7924 71.3407 49.4314 69.4456C49.6541 69.2856 49.488 70.6556 49.3249 70.7607C47.6037 71.8691 41.7518 73.5228 34.7685 72.0281C25.8395 70.1169 21.6471 62.5775 21.0943 59.7255C21.042 59.4556 21.2175 59.1941 21.4863 59.1416Z" fill="#A4BE7B"/>
<path fill-rule="evenodd" clip-rule="evenodd" d="M17.7628 50.1464C18.0005 50.0098 26.8689 60.2163 39.0394 62.5266C51.2099 64.8369 54.1566 63.3676 54.6303 60.2163C54.6712 59.9444 54.9238 59.7572 55.1946 59.7983C55.4654 59.8393 55.6518 60.0931 55.6109 60.365C55.0106 64.3587 49.3791 65.3087 38.8726 63.5083C28.4981 61.7306 21.3853 57.5068 17.5786 50.8259C17.4426 50.5872 17.5251 50.283 17.7628 50.1464Z" fill="#A4BE7B"/>
<path fill-rule="evenodd" clip-rule="evenodd" d="M68.8444 49.5803C68.5115 49.4646 68.153 49.2075 67.9225 48.9117L67.5384 48.436L68.8957 47.0859C70.9828 45.0286 72.5833 42.9199 73.9662 40.4126C74.4271 39.5769 75.5923 36.7867 75.5923 36.5167C75.5923 36.4267 75.7332 36.0666 75.8996 35.6938C76.1557 35.1537 76.3478 34.948 76.8984 34.6394C77.5514 34.2537 78.294 34.1251 78.6141 34.3437C79.2287 34.7551 79.2287 36.0538 78.6141 38.2911C77.9355 40.7469 77.0264 42.5085 75.1442 45.0415C74.8497 45.4272 74.2991 46.1858 73.9021 46.713C72.8394 48.1274 72.148 48.8089 71.2132 49.336C70.2913 49.8504 69.7535 49.9147 68.8444 49.5803ZM78.0379 48.4231L78.9599 48.8346C79.151 48.9232 81.2599 49.9408 83.7931 51.163C87.8772 53.1337 93.0642 55.6365 93.0958 55.6365C93.147 55.6365 93.3873 55.0785 93.4416 54.4278C93.5696 53.0263 94.0434 51.1233 94.5939 49.7989C94.85 49.2075 95.0549 48.4683 95.0549 48.404C95.0549 48.3746 94.8467 48.2903 94.5059 48.1523C94.1003 47.988 93.5067 47.7475 92.8525 47.4331C89.6259 45.8773 83.3133 42.7013 82.5323 42.2256C81.764 41.7756 81.6104 41.737 81.6104 42.0327C81.6104 42.4185 80.8293 44.2057 80.2275 45.1701C79.9074 45.6973 79.28 46.6487 78.8318 47.2788L78.0379 48.4231ZM92.8782 53.322C93.2453 53.5357 92.6093 53.8492 92.4556 53.9006C91.5509 53.9778 90.4858 53.8069 89.6131 53.2963C89.1567 52.9714 85.5638 50.9669 83.1805 49.6373C82.0909 49.0294 81.2541 48.5626 81.0854 48.4617C80.5476 48.1403 80.0354 47.7931 79.9458 47.6902C79.6769 47.3431 79.933 47.1888 80.6884 47.2531C81.1426 47.2917 92.0851 52.8604 92.8782 53.322ZM40.8286 86.9842C41.8163 86.7672 43.3495 86.1174 44.3258 85.7037C44.5645 85.6025 44.77 85.5155 44.926 85.4523C45.7201 85.1307 48.1399 81.6995 49.0105 77.8293C49.638 74.9748 49.9581 70.9117 49.5995 70.2302C49.3834 69.8356 50.6677 71.1596 51.624 72.1456C51.914 72.4445 52.1738 72.7124 52.3525 72.8918C57.9352 78.4593 66.2452 82.9339 74.8753 85.0297C79.1775 86.0841 82.2378 86.457 86.3479 86.457C93.2495 86.457 98.6913 85.094 103.634 82.0981C103.869 81.9558 104.089 81.825 104.298 81.7004C106.021 80.6761 107.048 80.0659 109.857 76.8907C113.008 73.329 115.811 65.0613 116.745 62.2069C117.155 60.9211 118.154 55.8069 118.154 54.5307C118.154 53.0197 117.629 52.3062 116.912 51.5733C115.644 50.3261 113.928 49.8761 112.507 50.4161L111.841 50.6733L111.636 49.9918C111.342 48.9632 110.727 48.1403 109.78 47.5231C108.371 46.5844 108.167 46.5202 106.899 46.5202C105.913 46.5202 105.644 46.5716 105.017 46.8673L104.287 47.2016L104.133 46.7387C103.839 45.7873 102.851 44.4608 102.084 44.0771C101.405 43.7369 100.228 43.7057 99.4083 43.8586C97.6157 44.1929 96.3353 45.0286 95.8103 46.1987C95.6567 46.5587 95.4646 46.8416 95.3878 46.8416C95.3238 46.8416 92.8013 46.1342 89.7923 44.7969C89.2848 44.5706 88.808 44.3584 88.3602 44.1591C82.9568 41.7541 81.7856 41.2329 81.892 40.5798C81.9817 40.0269 81.9561 39.7183 81.8024 39.2426C81.5335 38.4454 81.2262 38.2268 80.3555 38.2268C79.6641 38.2268 79.6641 38.2268 79.7409 37.8796C80.1507 35.9123 80.1378 34.7808 79.7025 34.0608C79.408 33.5851 79.0623 33.3922 78.2684 33.2765C77.8075 33.2122 77.5898 33.2507 77.0776 33.5336C76.7319 33.7136 76.4374 33.8422 76.4118 33.8165C76.3862 33.7908 76.4758 33.0836 76.6167 32.2478C77.6666 26.0631 76.8555 20.7344 74.1794 15.0769C74.1537 15.0228 74.124 14.9588 74.09 14.8855C73.2765 13.1316 70.0053 6.0789 60.6497 2.52023C60.2262 2.35915 59.8255 2.2034 59.4404 2.05371C56.2536 0.815001 54.135 -0.00847968 49.0233 6.58838e-05C43.294 0.00964411 41.3536 0.822975 37.5763 2.5588C37.0513 2.8031 36.5903 2.94454 36.5519 2.89311C36.5135 2.82882 36.2702 2.67452 36.027 2.54594C35.7837 2.41736 35.2587 2.09591 34.8746 1.83875C33.7734 1.09299 33.0948 0.784401 32.7491 0.861549C32.3521 0.964413 32.3521 1.29872 32.7491 1.45302C32.9155 1.5173 33.1076 1.73589 33.1844 1.95448C33.3509 2.41736 33.5429 2.46879 33.6582 2.08306C33.7094 1.94162 33.7862 1.83875 33.8246 1.86447C33.8392 1.87178 33.8879 1.8947 33.9623 1.92967C34.1495 2.01765 34.4989 2.18191 34.8746 2.36593C35.3995 2.62309 35.9757 2.89311 36.1294 2.9574C36.4111 3.06026 36.3215 3.13741 35.105 3.85745C30.3546 6.66049 26.4877 11.0193 24.3238 15.9825C23.9909 16.7283 23.6964 17.1912 23.3891 17.4483C22.608 18.1041 21.0715 19.9685 20.713 20.7014C20.5209 21.1 20.1112 21.7172 19.7911 22.0772C19.4838 22.4372 19.1509 22.9001 19.0356 23.093C18.9332 23.2987 18.8308 23.4401 18.7923 23.4144C18.7667 23.3758 18.8051 22.7458 18.8948 22.0129C19.0868 20.3028 19.0868 19.8528 18.9332 19.8142C18.7027 19.7499 18.3698 20.6499 18.229 21.7686C18.1265 22.4501 18.1009 23.4787 18.1649 24.533L18.2418 26.2046L17.3327 24.7259C17.0195 24.2307 16.7112 23.7354 16.4925 23.3842L16.4924 23.3841C16.3534 23.1608 16.2506 22.9958 16.2059 22.9258C15.873 22.4372 15.6809 21.7043 15.8217 21.46C15.8986 21.3186 15.8858 21.2543 15.7577 21.2543C15.4888 21.2543 14.9639 22.1158 14.6181 23.1058C14.4517 23.5687 14.2852 23.9544 14.234 23.9544C14.0419 23.9544 14.1316 19.3513 14.3364 17.8726C14.759 14.9539 15.873 11.3536 16.3723 11.3536C16.4748 11.3536 16.5644 11.3022 16.5644 11.2251C16.5644 10.9936 16.2315 11.0836 15.9626 11.3794C15.3608 12.0351 14.5669 14.0538 14.0675 16.2011C13.7218 17.6798 13.5042 19.5827 13.4273 21.6529C13.3633 23.4401 13.3889 23.7359 13.645 24.7131C13.9395 25.806 14.17 26.1274 14.5669 25.9731C14.7078 25.9217 14.7718 25.7288 14.7718 25.3688C14.7718 25.0859 14.9254 24.2373 15.1175 23.4787L15.4504 22.1158L15.5913 22.6815C15.7705 23.3373 16.8205 25.3688 17.768 26.8475C18.421 27.8504 18.4338 27.9147 18.6515 29.4834C18.7667 30.3706 19.1253 32.5285 19.9575 35.8481C20.6929 38.7811 24.827 41.6906 25.8592 42.4171L25.8592 42.4171C25.9952 42.5128 26.0774 42.5706 26.0908 42.5856C26.2189 42.7271 26.3981 42.8042 26.5005 42.7656C26.6158 42.7271 26.6798 42.7785 26.6798 42.9199C26.6798 43.0485 26.7694 43.2157 26.8719 43.2928C26.9999 43.3828 27.0895 43.73 27.1152 44.3343C27.1792 45.543 28.0755 47.8574 28.7669 48.616C29.2151 49.1046 30.1498 49.3103 31.1869 49.1303C31.8656 49.0275 32.0576 48.9503 31.9936 48.796C31.9552 48.6932 32.1985 48.8217 32.5314 49.0789C36.4239 52.0619 40.3676 53.8492 44.7979 54.6207C46.5137 54.9164 49.3563 55.0836 50.9056 54.9678C52.2756 54.8778 52.2756 54.8778 52.2116 55.1478C52.122 55.5079 52.2372 55.7265 54.1195 58.9281C55.6176 61.4611 55.7456 61.6283 57.4102 63.3384C60.9442 67.0029 64.7983 69.8445 69.1645 72.0432C73.2747 74.1005 79.8369 75.8106 85.8358 76.3506C91.8346 76.8906 96.1432 71.3617 96.1304 69.9474C96.1048 68.0058 95.8359 66.7329 95.1829 65.4985C94.5427 64.3027 94.1202 63.8913 92.1995 62.6055C90.0612 61.1782 88.7424 60.0082 87.8717 58.7609C87.3211 57.9766 87.1162 57.0894 87.1162 56.6137C87.1162 56.3051 87.5131 55.6107 88.1021 55.4693C88.6399 55.3279 88.7424 55.3407 89.3442 55.6364C89.7027 55.8036 90.6374 56.2408 91.4056 56.6137C92.1867 56.9737 92.9422 57.3337 93.0958 57.4108C93.5488 57.5372 93.7403 58.4276 93.8441 58.9102C93.8673 59.018 93.8861 59.1055 93.9025 59.1595C94.0818 59.8281 94.9301 60.6914 95.4774 60.9854C96.4386 61.5015 98.8068 61.5705 99.4598 60.8633C99.6263 60.6833 100.178 60.462 100.292 60.529C100.406 60.5961 100.817 61.1525 100.817 61.6025C100.83 62.374 101.227 63.0812 102.072 63.7884C103.672 65.1256 104.914 65.4471 106.169 64.8556C106.822 64.547 107.357 64.4265 107.357 64.4265C107.357 64.4265 107.891 65.1104 107.923 65.3442C108.175 67.1711 110.868 67.9369 111.585 68.0141C111.75 68.0306 112.069 67.96 112.394 67.8883L112.394 67.8883L112.394 67.8883C112.829 67.7924 113.272 67.6945 113.365 67.8001C113.548 68.0073 110.305 73.3933 109.857 74.0748C105.593 80.5037 97.2956 84.4383 87.1418 84.8497C80.5476 85.1197 72.4425 83.2682 65.4129 79.8994C60.9186 77.7264 56.9364 75.0648 52.6726 71.336C51.9299 70.6931 51.072 69.9602 50.7647 69.703C50.4574 69.4587 49.7276 68.623 49.1642 67.8515C48.2167 66.5657 47.6789 66.1028 47.6789 66.54C47.6789 66.7329 48.2935 67.9158 48.9977 69.0859C49.2794 69.5488 49.4587 69.8702 49.3947 69.8188C49.3307 69.7673 49.1258 70.6931 48.9337 71.876C48.3063 75.6691 47.2692 79.4108 46.2192 81.7381C45.643 82.9982 44.5382 83.9392 44.2053 84.1964C42.9761 85.135 41.1359 85.5569 38.5878 85.8141C35.3611 86.1355 30.6107 85.4155 26.9871 84.0525C26.0268 83.6925 23.5556 82.651 23.3891 82.5353C23.3791 82.5253 23.3224 82.1554 23.2432 81.6392C23.2209 81.4936 23.1968 81.3364 23.1714 81.1724C22.7105 77.9964 22.0702 65.7685 22.0702 60.111C22.0702 57.7709 22.0446 57.2565 21.891 57.2565C21.5709 57.2565 21.4428 57.5651 21.302 58.6709C20.9819 61.1911 21.0459 74.3448 21.3916 77.1092L21.4684 77.7393L21.0331 77.495C20.3673 77.1092 17.832 74.5248 16.9485 73.329C16.2006 72.3067 15.756 70.9974 15.4234 70.0179L15.4234 70.0176L15.4233 70.0174L15.4232 70.0171C15.3459 69.7896 15.2747 69.5798 15.2071 69.3957C13.3505 64.2268 14.0035 58.4266 16.5644 53.2063C18.7411 48.7574 21.4172 46.2887 25.3354 45.0929C25.9756 44.9001 26.539 44.6943 26.603 44.6429C26.8463 44.4114 25.2841 44.5272 24.4262 44.7972C21.6349 45.6587 18.7155 48.0117 16.7308 51.0204C13.9395 55.2379 12.6847 61.4611 13.5682 66.7714C13.773 68.0315 14.6053 70.7574 14.8358 70.9503C14.8562 70.9708 14.9615 71.1926 15.1208 71.5282C15.5612 72.4559 16.4141 74.2527 17.0253 75.0648C17.768 76.0806 20.0088 78.2922 20.9435 78.9736L21.5325 79.398L21.6221 80.4394C21.7886 82.4324 21.8526 82.6124 22.7489 83.2811C24.9896 84.9912 29.4071 86.5856 33.4021 87.1513C35.2587 87.4085 39.2921 87.3185 40.8286 86.9842ZM84.1072 74.9105C76.6679 74.2548 67.6792 70.6929 61.1747 65.1897C58.4345 62.8624 54.8749 58.3366 53.4664 55.8293C53.172 55.315 52.9543 55.0707 52.6982 55.0064C52.4293 54.9293 52.6598 54.8521 53.7609 54.6721C58.4089 53.8749 62.9288 51.9334 66.5781 49.1689L67.1159 48.7703L67.2695 49.1432C67.6152 49.9789 68.9469 50.8276 69.9328 50.8276C70.3297 50.8276 71.6614 50.2232 72.4681 49.6704L73.0187 49.2975L73.4668 49.7475C73.8765 50.159 73.9534 50.1847 74.7216 50.1847C75.6051 50.1847 76.6679 49.7861 77.2569 49.2203L77.577 48.9246L78.4861 49.5289C78.9727 49.8761 80.3299 50.6347 81.4951 51.239C83.2365 52.1391 85.0803 53.1806 86.8345 54.2606L87.1162 54.4407L86.8473 54.8007C86.5656 55.1864 86.0409 55.9193 86.0409 57.038C86.0409 58.298 87.3457 60.562 89.8435 62.1169C91.8059 63.3384 95.1829 65.7411 95.0549 69.253C95.0394 69.6772 94.5683 70.7317 93.9409 71.6832C93.5312 72.2875 92.3916 73.1876 91.3544 73.7147C89.5874 74.6019 86.476 75.1163 84.1072 74.9105ZM15.8345 17.1912C16.1803 17.2683 16.4107 17.384 16.3595 17.4355C16.1931 17.6026 15.3096 17.5255 15.1047 17.3197C14.7846 17.0111 14.8614 16.7926 15.3096 16.7026C15.54 16.664 15.8858 16.4711 16.0778 16.2782C16.2699 16.0854 16.4363 15.9954 16.4363 16.0597C16.4363 16.2268 15.7961 16.8183 15.476 16.9469C15.2712 17.0369 15.3352 17.0754 15.8345 17.1912ZM20.9307 17.3969C21.302 17.1912 21.2252 17.0497 20.7898 17.114C20.3545 17.1783 20.3289 17.1269 20.6106 16.6897C20.7258 16.5225 20.7898 16.2782 20.7642 16.1497C20.7258 15.9825 20.6362 16.0597 20.4313 16.4711C20.2776 16.7668 20.06 17.0111 19.9575 17.0111C19.6374 17.0111 19.6118 17.2683 19.9191 17.384C20.3161 17.5512 20.6234 17.5512 20.9307 17.3969ZM16.5004 10.3764C16.1931 10.4279 15.2327 10.8136 14.3877 11.2379C13.5298 11.6494 12.7999 11.9965 12.7487 11.9837C11.4427 11.8422 13.2609 9.65639 16.5644 7.41911C19.7271 5.27183 21.8654 4.14033 23.8501 3.56172C25.0921 3.2017 26.4877 3.15027 26.8847 3.446C27.1023 3.61315 27.0255 3.62601 26.078 3.63887C24.0293 3.63887 21.6605 4.69322 17.8064 7.27767C15.8089 8.6149 13.4914 10.5307 13.4914 10.8393C13.4914 10.9036 13.8627 10.775 14.3236 10.5693C15.3096 10.1193 16.3211 9.88783 16.7693 9.9907C17.243 10.1193 17.1406 10.2864 16.5004 10.3764ZM21.4556 11.4822C22.6593 11.2379 22.7105 11.2251 22.7105 11.0965C22.7105 11.0322 22.2495 10.9679 21.6733 10.9422L20.6362 10.9036L21.5965 9.81069C22.1215 9.20636 22.7361 8.60204 22.9537 8.4606C23.4275 8.15201 23.4531 7.93343 23.069 7.80485L22.7745 7.71484L23.0946 7.59912C23.2739 7.53483 23.6068 7.50911 23.8372 7.54769C24.183 7.59912 24.2598 7.5734 24.2214 7.39339C24.183 7.21338 24.0421 7.17481 23.4147 7.18766C21.5837 7.21338 20.8026 7.70198 22.2367 7.93343C22.6336 7.99772 22.9666 8.10058 22.9666 8.16487C22.9666 8.2163 22.9025 8.26773 22.8257 8.26773C22.5824 8.26773 20.5209 10.3636 20.2648 10.8779C19.8679 11.6365 20.0856 11.7522 21.4556 11.4822ZM29.9065 6.49333C29.5352 6.51905 29.4455 6.58334 29.4711 6.76335L29.4751 6.78954C29.4895 6.88475 29.4977 6.9394 29.4764 6.95593C29.4477 6.97821 29.3653 6.93126 29.1718 6.82105L29.1382 6.80193C28.895 6.67335 28.8693 6.60906 29.0102 6.50619C29.0998 6.42904 29.3431 6.31332 29.5352 6.27475L29.8937 6.18474L29.6248 5.90187C29.484 5.73471 29.4071 5.58042 29.4455 5.52899C29.548 5.42612 30.8028 5.56756 30.9821 5.709C31.0589 5.77329 31.1741 5.76043 31.2509 5.68328C31.4302 5.50327 31.6735 5.64471 31.6735 5.92758C31.6735 6.08188 31.6351 6.09474 31.5198 5.97902C31.4174 5.87615 31.3278 5.87615 31.2125 5.96616C31.1101 6.05616 31.0333 6.05616 30.9693 5.9533C30.9308 5.88901 30.6876 5.82472 30.4315 5.82472C30.1954 5.82472 30.0837 5.82472 30.0608 5.86983C30.0402 5.91036 30.0912 5.98728 30.1882 6.13331C30.3924 6.45377 30.3803 6.45476 29.9108 6.49298L29.9065 6.49333ZM27.9602 3.07312C27.9602 2.90596 27.8066 2.61023 27.6145 2.41736L27.256 2.05734L29.1766 2.13449C30.2394 2.18592 31.443 2.30164 31.8656 2.41736C32.2881 2.52023 32.7747 2.59737 32.9539 2.59737C33.2228 2.59737 33.1716 2.54594 32.6722 2.27592C31.8015 1.8259 30.6876 1.60731 28.5492 1.45302C25.9884 1.273 24.6951 1.5173 24.9384 2.1602C24.9768 2.28878 25.1817 2.35307 25.489 2.35307C26.1164 2.35307 27.1408 2.72595 27.4865 3.07312C27.8578 3.446 27.9602 3.446 27.9602 3.07312ZM21.7117 37.121C22.7489 38.4582 24.1189 39.9755 24.7592 40.4898C25.1433 40.7984 25.4762 41.0555 25.5018 41.0555C25.5146 41.0555 25.2329 40.4641 24.8744 39.744C23.4275 36.851 22.5824 33.9708 22.1855 30.6534C22.0959 29.9205 21.955 29.3034 21.8014 29.0462C21.4941 28.5319 21.4941 27.8633 21.8142 27.2332C21.9806 26.8989 22.0703 26.4746 22.0703 26.0117V25.3045L21.4556 25.9474C20.8538 26.5775 20.2776 26.8346 20.2776 26.4489C20.2776 26.166 21.2252 24.8031 21.7245 24.3788C22.1215 24.0444 22.1727 23.9287 22.3007 22.9258C22.3904 22.3215 22.5952 21.2543 22.7617 20.5471C22.9409 19.8399 23.0434 19.2356 23.0178 19.2099C22.9281 19.1198 19.9191 22.5902 19.5094 23.6973C19.4194 23.9404 19.1765 24.3659 18.9844 24.6231L18.6515 25.0523C18.6515 25.0523 18.7549 25.6534 18.8692 26.4087C18.9846 27.1719 19.0388 27.6965 19.087 28.1638C19.1516 28.7889 19.2055 29.3113 19.3813 30.1648C19.5862 31.2192 19.7911 32.1321 19.8423 32.1964C19.8807 32.2735 20.0472 32.865 20.2136 33.5208C20.5721 34.9737 21.1739 36.4138 21.7117 37.121ZM73.6717 49.2846L73.4028 49.0146C73.4028 49.0146 77.8657 43.3207 78.6654 41.2227C79.2756 39.6216 79.6348 39.1676 80.1194 39.1676C80.3904 39.1676 80.6116 39.2297 80.7141 39.384C80.8933 39.654 81.066 39.9883 80.8356 41.1327C80.4514 42.9842 79.8624 44.2057 78.0954 46.8416C77.6857 47.4459 77.1607 48.1145 76.9303 48.346C76.3925 48.8474 75.1826 49.3618 74.4783 49.4775C74.0302 49.5418 73.9021 49.5161 73.6717 49.2846Z" fill="#00160A"/>
<path d="M109.127 61.8631C110.72 57.5046 110.479 56.576 110.202 56.4852C110.202 56.4852 109.594 56.8323 109.325 57.5652C108.826 58.941 107.117 62.5413 106.476 63.1842C105.721 63.9428 105.721 63.9428 104.953 63.9428C104.184 63.9428 101.969 62.781 101.667 61.6357C101.184 59.8034 103.262 53.4378 103.314 53.0778L102.968 52.8335C102.737 53.0521 99.7395 62.1812 95.7975 59.8025C95.3461 59.5301 94.389 58.2467 94.3122 57.5652C93.8856 55.5851 95.8432 48.6611 96.1761 47.2389C96.4741 45.9659 98.0255 44.7844 99.9333 44.7844C102.866 44.7844 102.472 47.3583 103.785 48.2652C104.367 48.6671 105.324 47.9385 105.618 47.8832C107.27 47.5746 107.903 47.9339 109.114 48.899C110.049 49.6439 110.74 51.1182 111.502 51.6377C111.924 51.9263 112.373 51.5318 112.52 51.4577C113.122 51.154 114.415 51.3806 114.774 51.6377C115.299 51.8678 116.587 53.1111 116.791 53.8342C117.713 57.1115 114.801 64.377 113.701 65.74C111.882 67.996 107.534 66.2215 109.127 61.8631Z" fill="white"/>
<path fill-rule="evenodd" clip-rule="evenodd" d="M35.5148 49.9205C39.0232 52.145 42.6408 53.5979 46.7638 53.9965C50.0161 54.3051 54.4012 53.8808 57.5511 52.8522C60.2015 51.9907 63.7868 49.6042 66.1812 47.5855C70.8291 43.6767 73.7613 37.5711 75.0418 31.0907C75.221 30.1778 75.4944 27.883 75.4816 25.6071C75.4816 22.9584 74.3208 15.7201 70.8035 11.5466C63.5492 2.93865 51.6247 -0.938981 41.603 2.3742C37.9878 3.56937 34.1387 5.73478 31.2321 8.56353C27.5701 12.1509 24.8684 17.0369 23.7928 22.0258C22.666 27.2976 24.1318 33.598 26.6798 38.7669C28.7157 42.8814 32.0704 47.7218 35.5148 49.9205ZM69.7024 34.3823C67.2951 41.6471 61.021 47.0731 53.1336 48.7189C51.93 48.9632 51.0977 49.0532 49.4075 49.079C48.2167 49.1175 47.0259 49.1047 46.7826 49.079C41.264 48.4103 37.0641 46.3659 33.1972 42.4828C31.5071 40.7727 30.79 39.8469 29.7401 38.0211C28.0883 35.1281 27.2048 32.1707 26.9359 28.6091C26.014 16.4069 34.7081 6.23624 46.9491 5.18189C51.7507 4.77043 57.0773 6.2491 61.1235 9.12928C62.6216 10.1965 65.3361 12.8967 66.1812 14.1567C66.5269 14.6582 69.8816 19.5828 70.4706 22.4116C71.2261 26.0889 70.9316 30.6921 69.7024 34.3823Z" fill="white"/>
<path fill-rule="evenodd" clip-rule="evenodd" d="M75.4862 25.6071C75.4862 34.2375 71.4208 43.6728 66.1742 47.7024C63.671 49.6249 60.3998 51.9528 57.5511 52.8522C53.3763 54.1702 46.7638 53.9965 46.7638 53.9965C46.7638 53.9965 53.51 53.0909 56.0099 52.0806C63.1788 49.1835 67.0922 44.7362 69.5087 40.4691C74.2788 32.046 75.4862 25.3975 75.4862 25.6071Z" fill="#E7EAEE"/>
<path fill-rule="evenodd" clip-rule="evenodd" d="M46.9106 47.5359C43.4919 47.0988 40.0987 45.8773 37.3586 44.0643C35.7324 42.9971 33.274 40.4898 32.0832 38.7025C30.3802 36.1309 29.2535 33.3793 28.7029 30.422C28.3059 28.2747 28.3187 24.9702 28.7157 23.0544C29.1254 21.1 29.6504 19.6085 30.5851 17.7183C31.6735 15.5325 32.8259 13.9252 34.5545 12.1894C37.4994 9.23209 40.9182 7.35483 44.99 6.45477C46.3088 6.17189 51.0848 5.94045 51.2513 6.15904C51.2897 6.22332 51.5458 6.39048 51.8147 6.53192C52.0836 6.68621 52.8006 7.22625 53.3896 7.75342C54.2731 8.5249 54.67 9.0135 55.4383 10.2221C55.9633 11.0451 56.3858 11.7908 56.3858 11.8551C56.3858 11.9965 56.7956 12.2537 57.026 12.2537C57.3461 12.2537 57.5638 11.2894 57.6278 9.59211C57.6663 8.65348 57.7431 7.882 57.7943 7.882C57.9736 7.882 59.9454 8.97493 60.8673 9.59211C62.6727 10.8008 64.4782 12.498 65.8098 14.2724C66.4116 15.0696 66.5012 15.2753 66.5012 15.7639C66.5012 16.214 66.6293 16.5611 67.0262 17.2555C68.0249 19.0041 68.806 21.2028 69.2798 23.633C69.5871 25.266 69.5871 28.3519 69.267 30.062C68.3963 34.768 65.8098 39.4483 62.4423 42.4185C59.5869 44.9258 56.5523 46.4687 52.9671 47.2273C51.7379 47.4974 48.0502 47.6774 46.9106 47.5359ZM37.7555 38.7411C37.8708 38.6125 37.9476 38.4197 37.9092 38.3296C37.8976 38.3026 37.7373 38.2269 37.5026 38.1161C36.9556 37.8579 36.0045 37.4089 35.5923 36.941C33.9534 35.0637 33.3516 33.6622 32.9802 30.7692C32.6217 27.9533 32.9229 26.0496 33.5692 22.9901C33.8845 21.4976 34.7225 20.2648 35.2439 19.4978C35.5984 18.9763 35.8065 18.6701 35.6044 18.6441C35.105 18.567 35.0282 18.6055 34.5032 19.107C33.3765 20.1871 32.8643 21.0486 32.3265 22.7072C31.4942 25.3045 31.3334 32.3237 32.9802 35.488C34.6271 38.6524 37.461 39.0754 37.7555 38.7411ZM55.9633 27.9404C55.7458 29.9379 54.8237 32.8264 53.7481 34.0865C53.2488 34.678 51.4157 35.6938 49.8684 35.488C48.3739 35.2893 47.2051 34.588 46.2064 33.0836C45.3485 31.7849 44.9054 30.2086 44.6058 28.2233C44.0885 24.795 46.3472 20.8042 47.3204 19.8142C48.3063 18.7984 49.0105 18.4384 49.9068 18.4255C50.7775 18.4255 51.3409 18.6184 52.2244 19.2484C53.8378 20.3799 56.3858 24.059 55.9633 27.9404ZM38.703 17.3069C38.9591 17.0112 38.9975 16.8697 38.9207 16.3168C38.8695 15.8025 38.7671 15.5968 38.4982 15.3782C38.0244 14.9925 37.4354 14.9925 37.0001 15.4039C36.6928 15.6996 36.6544 15.8025 36.6928 16.5097C36.7312 17.2683 36.7568 17.3197 37.1793 17.5512C37.7427 17.8598 38.2933 17.7698 38.703 17.3069ZM46.6929 9.37352C44.3882 11.0322 43.3894 11.7137 42.3523 12.3566C41.5328 12.8709 41.2767 12.8837 41.2767 12.4209C41.2767 12.1766 41.456 11.9065 41.9169 11.4822L42.5571 10.8908L41.3151 10.7236C39.9195 10.5436 38.5622 10.1579 38.2677 9.86213C37.7811 9.36067 38.2037 9.24494 39.5865 9.5021C40.2012 9.60497 41.392 9.73355 42.237 9.75926L43.7736 9.82355L44.8875 9.0135C47.3332 7.2391 49.8684 6.23618 51.0848 6.54477C51.8403 6.72479 51.7507 6.93051 50.8928 7.03338C49.9068 7.1491 49.305 7.4834 46.6929 9.37352Z" fill="white"/>
<path d="M49.9836 33.7265C49.9836 33.6622 50.0605 33.5979 50.1629 33.5979C50.2653 33.5979 50.3934 33.6622 50.4318 33.7265C50.4702 33.8036 50.3934 33.8551 50.2525 33.8551C50.0989 33.8551 49.9836 33.8036 49.9836 33.7265Z" fill="white"/>
<path d="M50.752 33.6108C50.752 33.4694 51.0721 33.3408 51.4306 33.3408C51.7123 33.3537 51.7123 33.3537 51.469 33.5337C51.1873 33.7523 50.752 33.7908 50.752 33.6108Z" fill="white"/>
<path d="M48.7673 33.2764C48.7289 33.1735 48.6776 32.9935 48.6392 32.8906C48.6008 32.762 48.6648 32.6978 48.8313 32.6978C48.9721 32.6978 49.0874 32.7749 49.0874 32.8778C49.0874 32.9806 49.1258 33.1478 49.1642 33.2635C49.2154 33.4049 49.177 33.4692 49.0362 33.4692C48.9209 33.4692 48.7929 33.3792 48.7673 33.2764Z" fill="white"/>
<path d="M49.4459 32.955C49.3818 32.5693 49.5227 32.4407 49.9836 32.4407C50.1245 32.4407 50.2397 32.5693 50.291 32.7878C50.3934 33.1607 50.2269 33.3407 49.7788 33.3407C49.5739 33.3407 49.4843 33.2507 49.4459 32.955Z" fill="white"/>
<path d="M48.1398 33.0193C47.8965 32.8264 47.8965 32.8264 48.1654 32.8264C48.3319 32.8264 48.4471 32.9036 48.4471 33.0193C48.4471 33.2507 48.4471 33.2507 48.1398 33.0193Z" fill="white"/>
<path d="M50.7135 33.0065C50.5471 32.8393 50.6239 32.3378 50.8287 32.2607C51.2001 32.1193 51.3665 32.1835 51.4434 32.5179C51.4946 32.7107 51.5202 32.8779 51.4946 32.8907C51.3921 33.0065 50.7903 33.0836 50.7135 33.0065Z" fill="white"/>
<path d="M51.8531 32.7364C51.8147 32.6978 51.7762 32.5307 51.7762 32.3764C51.7762 32.1578 51.8787 32.0678 52.186 32.0035C52.4549 31.9521 52.6213 31.9778 52.6982 32.0806C52.8262 32.2864 52.8262 32.5435 52.711 32.6078C52.4805 32.7364 51.9427 32.8136 51.8531 32.7364Z" fill="white"/>
<path d="M47.5509 32.3377C47.5509 32.1834 47.6661 32.0549 47.8326 32.0163C48.1655 31.9263 48.1527 31.9134 48.2167 32.2477C48.2423 32.4406 48.1783 32.5177 47.9094 32.5435C47.6277 32.582 47.5509 32.5306 47.5509 32.3377Z" fill="white"/>
<path d="M48.524 32.3507C48.3448 32.1579 48.46 31.7979 48.7033 31.7979C48.8698 31.7979 48.9594 31.8879 48.9594 32.0422C48.9594 32.2865 48.6649 32.4922 48.524 32.3507Z" fill="white"/>
<path d="M49.2923 31.9648C49.1899 31.7205 49.4075 31.5405 49.8301 31.5405C50.0221 31.5405 50.1118 31.6177 50.1118 31.7848C50.1118 31.9263 49.9965 32.0548 49.8301 32.1063C49.4075 32.2091 49.3819 32.2091 49.2923 31.9648Z" fill="white"/>
<path d="M52.9927 31.9264C53.0311 31.8621 53.0951 31.7979 53.1335 31.7979C53.1719 31.7979 53.1591 31.8621 53.1207 31.9264C53.0823 32.0036 53.0183 32.055 52.9799 32.055C52.9414 32.055 52.9542 32.0036 52.9927 31.9264Z" fill="white"/>
<path d="M50.4446 31.7077C50.3422 31.4505 50.4702 31.322 50.88 31.2577C51.1104 31.232 51.2129 31.2834 51.2385 31.4634C51.3281 31.8877 50.5983 32.1192 50.4446 31.7077Z" fill="white"/>
<path d="M47.3716 31.4893C47.2564 31.0649 47.282 31.0264 47.6149 31.0264C47.7941 31.0264 47.935 31.0778 47.935 31.1421C47.935 31.2064 47.9734 31.3478 48.0118 31.4507C48.0502 31.5793 47.9734 31.6564 47.7557 31.695C47.5125 31.7464 47.4228 31.695 47.3716 31.4893Z" fill="white"/>
<path d="M51.6482 31.3478C51.6482 31.1164 51.7378 31.0135 51.9811 30.9492C52.3396 30.8592 52.5445 31.0392 52.5445 31.4507C52.5445 31.6178 52.4421 31.6692 52.0963 31.6692C51.6994 31.6692 51.6482 31.6307 51.6482 31.3478Z" fill="white"/>
<path d="M46.9874 31.3477C46.949 31.2448 46.9746 31.1548 47.0386 31.1548C47.1155 31.1548 47.1667 31.2448 47.1667 31.3477C47.1667 31.4505 47.1411 31.5405 47.1155 31.5405C47.0898 31.5405 47.0386 31.4505 46.9874 31.3477Z" fill="white"/>
<path d="M48.2807 31.4507C48.1015 31.2835 48.2039 30.9235 48.4344 30.8592C48.5752 30.8207 48.7161 30.8335 48.7545 30.8721C48.9082 31.0135 48.8185 31.3864 48.6265 31.4636C48.3832 31.5536 48.3832 31.5536 48.2807 31.4507Z" fill="white"/>
<path d="M52.8519 31.3607C52.711 30.9878 52.8647 30.7049 53.2232 30.6664C53.4921 30.6278 53.5689 30.6792 53.5689 30.885C53.5689 31.3093 53.4281 31.5407 53.172 31.5407C53.0311 31.5407 52.8903 31.4636 52.8519 31.3607Z" fill="white"/>
<path d="M49.1769 31.1934C49.0233 31.0519 49.0745 30.7948 49.2922 30.7176C49.5355 30.6276 50.0476 30.8848 49.9068 31.0262C49.7275 31.1805 49.2666 31.2963 49.1769 31.1934Z" fill="white"/>
<path d="M50.291 30.8719C50.1757 30.6919 50.5855 30.3833 50.9184 30.3833C51.072 30.3833 51.1361 30.4604 51.1104 30.6019C51.0592 30.859 50.4062 31.0648 50.291 30.8719Z" fill="white"/>
<path d="M46.7826 30.7821C46.7826 30.7178 46.7442 30.5763 46.7058 30.4606C46.6674 30.3449 46.6802 30.2549 46.757 30.2549C46.9235 30.2549 47.0515 30.7435 46.8979 30.8463C46.8338 30.8849 46.7826 30.8592 46.7826 30.7821Z" fill="white"/>
<path d="M47.1283 30.4862C47.0515 30.2033 47.2051 29.9976 47.4996 29.9976C47.6661 29.9976 47.8325 30.499 47.7301 30.6662C47.5892 30.8848 47.1923 30.7562 47.1283 30.4862Z" fill="white"/>
<path d="M48.0246 30.5506C47.8325 30.3578 47.9478 29.8949 48.2039 29.8306C48.3959 29.7792 48.4984 29.8434 48.6008 30.0749C48.6776 30.242 48.716 30.4092 48.6904 30.4349C48.5624 30.5506 48.1014 30.6406 48.0246 30.5506Z" fill="white"/>
<path d="M51.4818 30.5507C51.3154 30.3835 51.3922 30.2807 51.7763 30.1392C52.0964 30.0364 52.1861 30.0492 52.2501 30.2035C52.3653 30.5121 51.7251 30.8078 51.4818 30.5507Z" fill="white"/>
<path d="M52.6085 30.2549C52.4805 30.0492 52.6598 29.8691 52.9927 29.8691C53.3896 29.8691 53.5048 30.2034 53.1463 30.3063C52.7622 30.4092 52.6982 30.3963 52.6085 30.2549Z" fill="white"/>
<path d="M53.6969 29.9462C53.6969 29.7534 53.9274 29.5476 54.0298 29.6505C54.1194 29.7405 53.9402 30.1262 53.8121 30.1262C53.7481 30.1262 53.6969 30.0491 53.6969 29.9462Z" fill="white"/>
<path d="M46.6162 29.779C46.565 29.7404 46.5265 29.5733 46.5393 29.4318C46.5393 29.1875 46.5522 29.1875 46.6674 29.4704C46.7954 29.779 46.7698 29.9333 46.6162 29.779Z" fill="white"/>
<path d="M46.8594 29.5863C46.7442 29.1362 46.757 29.0977 47.0899 29.0977C47.4612 29.0977 47.6917 29.5734 47.41 29.7534C47.1155 29.9334 46.9491 29.882 46.8594 29.5863Z" fill="white"/>
<path d="M51.2642 29.8434C51.2642 29.8048 51.3282 29.5991 51.405 29.3676C51.5843 28.8533 51.9812 28.8276 52.0708 29.3291C52.1092 29.5219 52.122 29.6891 52.1092 29.7019C52.0452 29.7791 51.2642 29.8948 51.2642 29.8434Z" fill="white"/>
<path d="M47.7686 29.5218C47.7174 29.4833 47.679 29.329 47.679 29.1875C47.679 28.9818 47.7174 28.9689 47.871 29.0975C47.9735 29.1875 48.0631 29.3418 48.0631 29.4318C48.0631 29.6247 47.9094 29.6761 47.7686 29.5218Z" fill="white"/>
<path d="M52.3781 29.2648C52.3013 28.8662 52.4677 28.6862 52.8647 28.7376C53.0567 28.7633 53.1208 28.879 53.1208 29.1619C53.1208 29.4834 53.0695 29.5605 52.7878 29.5862C52.5062 29.6248 52.4421 29.5605 52.3781 29.2648Z" fill="white"/>
<path d="M53.6329 29.3163C53.4665 28.8019 53.5177 28.6476 53.8634 28.6091C54.1707 28.5705 54.2091 28.6091 54.2091 28.9434C54.2091 29.2263 54.1323 29.342 53.9402 29.3934C53.7994 29.432 53.6585 29.3934 53.6329 29.3163Z" fill="white"/>
<path d="M46.4241 28.5833C46.4241 28.339 46.4497 28.2362 46.4881 28.3648C46.5137 28.4805 46.5137 28.6862 46.4881 28.8148C46.4497 28.9305 46.4241 28.8276 46.4241 28.5833Z" fill="white"/>
<path d="M46.7441 28.7504C46.5777 28.5961 46.6545 28.0947 46.8594 28.0175C47.1539 27.9018 47.2947 28.0432 47.2947 28.4676C47.2947 28.7376 47.2307 28.8404 47.0643 28.8404C46.9362 28.8404 46.7826 28.8019 46.7441 28.7504Z" fill="white"/>
<path d="M47.5124 28.4033C47.4612 28.2104 47.4356 28.0047 47.4868 27.9661C47.6148 27.8375 47.6916 28.0433 47.6532 28.4161L47.6148 28.7762L47.5124 28.4033Z" fill="white"/>
<path d="M51.6482 28.3132C51.6482 28.1718 51.7122 28.0946 51.7762 28.1332C51.8531 28.1718 51.9043 28.3003 51.9043 28.4032C51.9043 28.5061 51.8531 28.5832 51.7762 28.5832C51.7122 28.5832 51.6482 28.4675 51.6482 28.3132Z" fill="white"/>
<path d="M52.2244 28.4804C52.0452 28.2876 52.186 27.9404 52.4805 27.8633C52.8518 27.7733 52.8646 27.7733 52.9799 28.1461C53.0567 28.3776 53.0055 28.429 52.6726 28.4804C52.4677 28.519 52.2628 28.5062 52.2244 28.4804Z" fill="white"/>
<path d="M53.4024 28.2362C53.2616 28.1076 53.3 27.6833 53.4408 27.6833C53.5177 27.6833 53.5689 27.6318 53.5689 27.5547C53.5689 27.4904 53.4921 27.4261 53.3896 27.4261C53.172 27.4261 52.9927 26.7961 53.172 26.6161C53.4024 26.3846 53.6585 26.6289 53.8122 27.259C53.9018 27.5933 53.9914 27.979 54.0298 28.1076C54.0811 28.2747 54.0298 28.3262 53.7866 28.3262C53.6201 28.3262 53.4408 28.2876 53.4024 28.2362Z" fill="white"/>
<path d="M54.0938 27.5547C54.0042 27.169 53.7737 26.3975 53.6072 25.8318C53.3512 25.0089 53.3255 24.8031 53.4664 24.7131C53.556 24.6488 53.6713 24.5974 53.7097 24.5974C53.8505 24.5974 54.3627 27.2333 54.3115 27.7476L54.2731 28.2619L54.0938 27.5547Z" fill="white"/>
<path d="M46.296 27.4903C46.296 27.2846 46.3216 27.2075 46.36 27.3361C46.3857 27.4518 46.3857 27.6318 46.36 27.7218C46.3216 27.7989 46.296 27.7089 46.296 27.4903Z" fill="white"/>
<path d="M46.5521 27.4647C46.6033 27.0146 46.9747 26.9118 47.0771 27.3232C47.1667 27.6575 47.1923 27.619 46.8082 27.7475C46.5393 27.8247 46.5137 27.799 46.5521 27.4647Z" fill="white"/>
<path d="M51.9556 27.349C51.8531 26.9761 52.0708 26.7575 52.4805 26.809C52.7878 26.8475 52.9031 27.4004 52.647 27.5676C52.3269 27.7733 52.0324 27.6833 51.9556 27.349Z" fill="white"/>
<path d="M47.2948 27.2462C47.2948 27.0276 47.3588 26.9119 47.4997 26.9119C47.6277 26.9119 47.6789 27.0019 47.6533 27.1947C47.5893 27.6062 47.2948 27.6448 47.2948 27.2462Z" fill="white"/>
<path d="M46.1552 26.7061C46.1552 26.5646 46.1936 26.5261 46.232 26.6289C46.2705 26.7189 46.2577 26.8346 46.2192 26.8732C46.1808 26.9246 46.1424 26.8475 46.1552 26.7061Z" fill="white"/>
<path d="M46.3984 26.6675C46.3984 26.4746 46.4753 26.3975 46.6673 26.3975C46.8466 26.3975 46.9106 26.4618 46.885 26.616C46.821 26.9504 46.3984 26.9889 46.3984 26.6675Z" fill="white"/>
<path d="M47.1027 26.5517C47.0131 26.3203 47.0131 26.3203 47.3972 26.2174C47.6277 26.1403 47.6789 26.1789 47.6789 26.3717C47.6789 26.6803 47.218 26.8346 47.1027 26.5517Z" fill="white"/>
<path d="M51.7379 26.3717C51.6482 26.0502 51.8147 25.8831 52.2628 25.8831C52.4805 25.8831 52.5445 25.9602 52.5445 26.2045C52.5445 26.3974 52.4677 26.526 52.3653 26.526C52.2628 26.526 52.0964 26.5645 51.994 26.6031C51.8787 26.6417 51.7891 26.5645 51.7379 26.3717Z" fill="white"/>
<path d="M52.8518 26.076C52.7494 25.8188 52.903 25.626 53.1975 25.626C53.3768 25.626 53.4408 25.716 53.4408 25.9474C53.4408 26.1789 53.3768 26.2689 53.1847 26.2689C53.0439 26.2689 52.8902 26.1789 52.8518 26.076Z" fill="white"/>
<path d="M46.2704 25.896C46.2704 25.626 46.5649 25.3174 46.6929 25.4589C46.7441 25.4974 46.7826 25.6775 46.7826 25.8446C46.7826 26.0503 46.7057 26.1403 46.5265 26.1403C46.36 26.1403 46.2704 26.0503 46.2704 25.896Z" fill="white"/>
<path d="M46.9746 25.7417C46.8722 25.4202 46.9874 25.2788 47.4228 25.2145C47.8197 25.1631 47.9477 25.5874 47.602 25.8445C47.2691 26.0888 47.0642 26.0503 46.9746 25.7417Z" fill="white"/>
<path d="M51.6099 25.6645C51.5202 25.5873 51.4818 25.1116 51.5586 25.1116C51.5715 25.1116 51.7635 25.0601 51.994 24.9959C52.3781 24.8801 52.4037 24.893 52.3909 25.2402C52.3781 25.4973 52.3013 25.6259 52.1092 25.6773C51.7635 25.7673 51.7123 25.7673 51.6099 25.6645Z" fill="white"/>
<path d="M51.1361 25.3688C51.1361 25.2788 51.1745 25.2402 51.2257 25.2788C51.2642 25.3302 51.2642 25.4074 51.2257 25.4588C51.1745 25.4974 51.1361 25.4588 51.1361 25.3688Z" fill="white"/>
<path d="M52.5701 25.163C52.6085 24.9444 53.0055 24.623 53.0951 24.7258C53.1335 24.7644 53.1975 24.9187 53.236 25.0858C53.3256 25.343 53.2872 25.3687 52.9286 25.3687C52.6213 25.3687 52.5317 25.3173 52.5701 25.163Z" fill="white"/>
<path d="M46.3984 25.1501C46.3984 25.0858 46.4625 24.9573 46.5265 24.8544C46.6289 24.7001 46.6545 24.713 46.6545 24.9573C46.6545 25.1115 46.6033 25.2401 46.5265 25.2401C46.4625 25.2401 46.3984 25.2016 46.3984 25.1501Z" fill="white"/>
<path d="M46.7826 24.8674C46.7826 24.5074 47.0515 24.3917 47.2564 24.6617C47.3844 24.8545 47.3844 24.9188 47.2564 25.0088C46.9875 25.176 46.7826 25.1246 46.7826 24.8674Z" fill="white"/>
<path d="M50.6751 24.7001C50.4446 24.443 50.4446 24.4301 50.6623 24.5073C50.7903 24.5587 50.9568 24.5973 51.0208 24.5973C51.0848 24.5973 51.1361 24.6873 51.1361 24.7901C51.1361 25.0601 50.9568 25.0344 50.6751 24.7001Z" fill="white"/>
<path d="M47.9222 24.6873C47.3716 24.263 47.2948 23.3115 47.8069 23.3115C48.1526 23.3115 48.4728 23.8516 48.4215 24.353C48.3831 24.8159 48.2295 24.9188 47.9222 24.6873Z" fill="white"/>
<path d="M51.4306 24.7645C51.4818 24.726 51.5586 24.726 51.6099 24.7645C51.6483 24.816 51.6099 24.8545 51.5202 24.8545C51.4306 24.8545 51.3922 24.816 51.4306 24.7645Z" fill="white"/>
<path d="M53.3641 24.2629C53.4025 24.1472 53.4409 24.0315 53.4409 24.0058C53.4409 23.9801 53.5049 23.9543 53.5689 23.9543C53.6458 23.9543 53.697 24.0701 53.697 24.2115C53.697 24.3658 53.6073 24.4687 53.4921 24.4687C53.3513 24.4687 53.3129 24.4044 53.3641 24.2629Z" fill="white"/>
<path d="M46.6545 24.2245C46.6545 23.9288 46.9234 23.4402 47.0771 23.4402C47.346 23.4402 47.1539 24.2631 46.8722 24.3145C46.757 24.3402 46.6545 24.3017 46.6545 24.2245Z" fill="white"/>
<path d="M49.5355 24.0829L49.1514 23.9929L49.4971 23.9029C49.8556 23.8001 50.1117 23.8772 50.1117 24.0958C50.1117 24.2244 50.0989 24.2244 49.5355 24.0829Z" fill="white"/>
<path d="M49.0874 23.4658C49.0874 22.9386 49.3819 22.8615 49.6508 23.3244C49.8301 23.6329 49.8429 23.6972 49.6764 23.6972C49.574 23.6972 49.4075 23.7358 49.2923 23.7744C49.1386 23.8387 49.0874 23.7615 49.0874 23.4658Z" fill="white"/>
<path d="M51.3153 23.646C50.7391 23.3888 50.3678 22.7073 50.3678 21.8973C50.3678 21.3187 50.419 21.1772 50.7647 20.8558C50.9824 20.6501 51.2001 20.4829 51.2641 20.4829C51.5458 20.4829 52.5829 21.473 52.9287 22.0902L53.3256 22.7973L52.9031 23.2474C52.4165 23.7617 51.8787 23.9031 51.3153 23.646Z" fill="white"/>
<path d="M48.6393 23.3114C48.6009 23.2472 48.6265 23.1829 48.6905 23.1829C48.7673 23.1829 48.8313 23.2472 48.8313 23.3114C48.8313 23.3886 48.8057 23.44 48.7801 23.44C48.7417 23.44 48.6777 23.3886 48.6393 23.3114Z" fill="white"/>
<path d="M46.9618 23.1057C47.0002 22.99 47.0386 22.8743 47.0386 22.8486C47.0386 22.8228 47.1539 22.7971 47.2947 22.7971C47.6148 22.7971 47.6276 23.0028 47.3075 23.1829C46.9618 23.3629 46.8722 23.35 46.9618 23.1057Z" fill="white"/>
<path d="M47.9734 22.9516C47.6789 22.913 47.5892 22.7458 47.7813 22.6301C47.8325 22.5915 48.063 22.5272 48.2935 22.4758C48.6392 22.3987 48.7032 22.4244 48.7032 22.643C48.7032 22.913 48.4343 23.0287 47.9734 22.9516Z" fill="white"/>
<path d="M48.9594 22.5144C48.9594 22.3602 48.9722 22.2701 48.9978 22.2959C49.0106 22.3216 49.113 22.4502 49.2026 22.5787C49.3563 22.7587 49.3435 22.7973 49.1642 22.7973C49.0362 22.7973 48.9594 22.6945 48.9594 22.5144Z" fill="white"/>
<path d="M47.1667 22.4243C47.1667 22.3472 47.2308 22.2572 47.2948 22.2186C47.3716 22.18 47.4228 22.2315 47.4228 22.3343C47.4228 22.4501 47.3716 22.5401 47.2948 22.5401C47.2308 22.5401 47.1667 22.4886 47.1667 22.4243Z" fill="white"/>
<path d="M47.6405 22.2315C47.538 21.9743 48.4471 21.6915 48.6008 21.9358C48.716 22.1415 48.6008 22.2315 48.1142 22.3344C47.8197 22.3986 47.6917 22.3729 47.6405 22.2315Z" fill="white"/>
<path d="M48.8441 21.8201C48.8441 21.6786 48.8825 21.6401 48.9209 21.7429C48.9593 21.8329 48.9465 21.9487 48.9081 21.9872C48.8697 22.0387 48.8313 21.9615 48.8441 21.8201Z" fill="white"/>
<path d="M47.7557 21.6144C47.9094 21.3315 48.3575 20.8687 48.4728 20.8687C48.6008 20.8687 48.6136 21.473 48.4856 21.5501C48.4216 21.5758 48.2167 21.6401 48.0246 21.6916C47.7429 21.7559 47.6789 21.743 47.7557 21.6144Z" fill="white"/>
<path d="M48.7801 21.3185C48.6393 20.9328 48.7033 20.7656 49.0106 20.7142C49.3307 20.6499 49.3307 20.6499 49.1258 21.0485C48.8698 21.5628 48.8826 21.5628 48.7801 21.3185Z" fill="white"/>
<path d="M48.7032 20.547C48.7032 20.5213 48.9593 20.3413 49.2794 20.1613C49.6636 19.9299 49.9325 19.8527 50.1245 19.9041C50.355 19.9813 50.291 20.0327 49.7276 20.3027C49.1002 20.5856 48.7032 20.6885 48.7032 20.547Z" fill="white"/>
<path d="M55.8096 9.15484C55.4639 8.65338 54.7341 7.84333 54.2091 7.35473C53.6841 6.86613 53.3384 6.46753 53.4408 6.46753C53.7225 6.46753 55.8737 7.059 56.4114 7.29044C56.8596 7.48331 56.8724 7.50902 56.7572 7.90762C56.6931 8.13906 56.6419 8.71767 56.6419 9.19342C56.6419 9.68202 56.6035 10.0678 56.5523 10.0678C56.4883 10.0678 56.1682 9.6563 55.8096 9.15484Z" fill="white"/>
<path d="M29.7528 48.1018C29.2278 47.8318 29.1126 47.6775 28.4468 46.3531C27.4864 44.4758 27.4608 44.0387 28.3699 45.1059C28.7285 45.5302 29.5607 46.4045 30.2138 47.0474C31.3277 48.1275 31.379 48.2046 31.0076 48.1532C30.7387 48.1146 30.6363 48.1403 30.7003 48.2432C30.854 48.4747 30.3674 48.4104 29.7528 48.1018Z" fill="white"/>
<path fill-rule="evenodd" clip-rule="evenodd" d="M51.2115 71.5278C51.1052 71.2743 51.2237 70.9824 51.4761 70.8756L51.7519 70.7581C54.4341 69.6057 55.9736 68.9134 57.0196 67.8142C58.0657 66.7149 58.1909 65.1003 58.3874 64.1179C58.4413 63.8483 59.0493 64.3218 59.3178 64.3759C59.5863 64.4301 59.7602 64.6926 59.7063 64.9622C59.47 66.1434 58.8337 67.2696 57.8093 68.3386C56.7884 69.404 54.8117 70.546 51.8609 71.7935C51.6085 71.9002 51.3178 71.7813 51.2115 71.5278Z" fill="#00160A"/>
<path fill-rule="evenodd" clip-rule="evenodd" d="M63.3404 20.2244C63.5757 20.0838 63.88 20.1613 64.0201 20.3976C65.4227 22.7637 66.1741 25.4684 66.1741 28.2824C66.1741 36.8077 59.2919 43.7187 50.8022 43.7187C48.5463 43.7187 46.3583 43.2301 44.3547 42.2992C44.1061 42.1837 43.1672 41.2643 44.1128 41.6382C45.0585 42.0122 48.7172 42.8516 50.8285 42.8516C58.7705 42.8516 64.389 36.2576 64.389 28.2824C64.389 25.649 63.3404 23.3115 63.1679 20.907C63.148 20.6283 63.1051 20.3651 63.3404 20.2244Z" fill="#00160A"/>
<path fill-rule="evenodd" clip-rule="evenodd" d="M14.2307 57.9113C14.406 57.7 14.7187 57.273 14.9291 57.449C15.7923 58.1711 16.7135 59.0076 17.6989 59.1691C18.7243 59.3371 19.9407 59.3371 21.3466 59.1662C21.6185 59.1331 21.8656 59.3277 21.8985 59.6007C21.9314 59.8737 21.7377 60.1218 21.4658 60.1549C19.9728 60.3364 18.6644 60.3364 17.5392 60.152C16.3739 59.961 15.2902 59.4455 14.2944 58.6126C14.0839 58.4366 14.0554 58.1226 14.2307 57.9113Z" fill="#00160A"/>
<path d="M24.7591 40.4899C24.1189 39.9756 22.7489 38.4583 21.7117 37.1211C21.1739 36.4139 20.5721 34.9738 20.2136 33.5209C20.0472 32.8651 19.8807 32.2737 19.8423 32.1965C19.7911 32.1322 19.5862 31.2193 19.3813 30.165C19.074 28.6734 19.139 28.1929 18.8692 26.4088C18.7549 25.6535 18.6515 25.0524 18.6515 25.0524L18.9844 24.6232C19.1765 24.366 19.4194 23.9405 19.5094 23.6974C19.9191 22.5903 22.9281 19.12 23.0178 19.21C23.0434 19.2357 22.9409 19.84 22.7617 20.5472C22.5952 21.2544 22.3904 22.3216 22.3007 22.9259C22.1727 23.9288 22.1215 24.0446 21.7245 24.3789C21.2252 24.8032 20.2776 26.1661 20.2776 26.449C20.2776 26.8347 20.8538 26.5776 21.4556 25.9475L22.0702 25.3046V26.0118C22.0702 26.4747 21.9806 26.899 21.8142 27.2333C21.494 27.8634 21.494 28.532 21.8014 29.0463C21.955 29.3035 22.0959 29.9206 22.1855 30.6536C22.5824 33.9709 23.4275 36.8511 24.8744 39.7441C25.2329 40.4642 25.5146 41.0556 25.5018 41.0556C25.4762 41.0556 25.1433 40.7985 24.7591 40.4899Z" fill="white"/>
<path fill-rule="evenodd" clip-rule="evenodd" d="M78.038 48.4232L78.9599 48.8346C79.151 48.9232 81.2599 49.9408 83.7931 51.1631C87.8772 53.1337 93.0642 55.6365 93.0958 55.6365C93.1471 55.6365 93.3873 55.0786 93.4416 54.4278C93.5696 53.0263 94.0434 51.1233 94.594 49.799C94.85 49.2075 95.0549 48.4683 95.0549 48.404C95.0549 48.3747 94.8467 48.2903 94.506 48.1523C94.1003 47.988 93.5067 47.7476 92.8526 47.4331C89.6259 45.8773 83.3133 42.7014 82.5323 42.2256C81.764 41.7756 81.6104 41.737 81.6104 42.0328C81.6104 42.4185 80.8293 44.2058 80.2275 45.1701C79.9074 45.6973 79.28 46.6488 78.8318 47.2788L78.038 48.4232ZM92.8782 53.3221C93.2453 53.5358 92.6093 53.8492 92.4556 53.9007C91.5509 53.9778 90.4858 53.807 89.6131 53.2963C89.1567 52.9714 85.5638 50.967 83.1805 49.6373C82.0909 49.0294 81.2541 48.5626 81.0854 48.4618C80.5476 48.1403 80.0354 47.7931 79.9458 47.6903C79.6769 47.3431 79.933 47.1888 80.6885 47.2531C81.1426 47.2918 92.0851 52.8605 92.8782 53.3221Z" fill="white"/>
<path d="M68.8445 49.5804C68.5116 49.4647 68.1531 49.2076 67.9226 48.9118L67.5385 48.4361L68.8957 47.086C70.9828 45.0287 72.5193 42.7804 73.9022 40.2731C74.3632 39.4373 75.7332 36.0667 75.8997 35.6939C76.1558 35.1538 76.3478 34.9481 76.8984 34.6395C77.5514 34.2538 78.2941 34.1252 78.6142 34.3438C79.2288 34.7552 79.2288 36.0539 78.6142 38.2912C77.9356 40.747 77.0265 42.5086 75.1442 45.0416C74.8497 45.4273 74.2991 46.1859 73.9022 46.7131C72.8394 48.1275 72.148 48.809 71.2133 49.3361C70.2914 49.8505 69.7536 49.9147 68.8445 49.5804Z" fill="white"/>
<path d="M73.6717 49.2845L73.4028 49.0145C73.4028 49.0145 77.8657 43.3206 78.6654 41.2226C79.2757 39.6215 79.6348 39.1675 80.1194 39.1675C80.3904 39.1675 80.6117 39.2296 80.7141 39.3839C80.8934 39.6539 81.0661 39.9882 80.8356 41.1326C80.4515 42.9841 79.8625 44.2056 78.0955 46.8415C77.6858 47.4458 77.1608 48.1144 76.9303 48.3459C76.3925 48.8473 75.1826 49.3617 74.4784 49.4774C74.0302 49.5417 73.9022 49.516 73.6717 49.2845Z" fill="white"/>
<path fill-rule="evenodd" clip-rule="evenodd" d="M81.1681 43.3307C81.4263 42.7374 81.6103 42.22 81.6103 42.0328C81.6103 41.737 81.764 41.7756 82.5323 42.2256C83.3133 42.7014 89.6259 45.8773 92.8525 47.4331C94.0561 48.0117 95.0549 48.3397 95.0549 48.404C95.0549 48.4683 80.8943 43.9597 81.1681 43.3307Z" fill="#E7EAEE"/>
<path fill-rule="evenodd" clip-rule="evenodd" d="M37.3586 44.0642C35.7324 42.997 33.274 40.4897 32.0832 38.7025C30.3802 36.1309 29.2535 33.3793 28.7029 30.4219C28.3059 28.2747 28.3187 24.9702 28.7157 23.0543C29.1254 21.0999 29.6504 19.6084 30.5851 17.7183C31.6735 15.5324 32.8259 13.9252 34.5545 12.1894C36.2496 10.4872 28.7157 17.5265 30.5851 30.1214C32.0832 40.6759 38.5215 44.8337 37.3586 44.0642Z" fill="#E7EAEE"/>
</svg>
