<svg width="125" height="99" viewBox="0 0 125 99" fill="none" xmlns="http://www.w3.org/2000/svg">
<g clip-path="url(#clip0_614_6690)">
<path fill-rule="evenodd" clip-rule="evenodd" d="M102.53 90.5379L102.604 90.5551L102.749 90.5906C105.111 91.1802 107.412 92.0112 109.605 93.0665C110.832 93.6572 112.11 94.3362 113.468 94.2321C113.857 94.2022 114.241 94.1076 114.631 94.1034C115.954 94.0889 117.07 95.0872 118.362 95.3666C119.483 95.6088 120.64 95.2942 121.785 95.2291C122.93 95.1641 124.254 95.466 124.784 96.4825C124.858 96.624 124.914 96.7857 124.88 96.9413C124.833 97.1508 124.643 97.2824 124.445 97.3817L124.405 97.4012L124.32 97.4401C122.796 98.1226 121.169 98.8208 119.517 98.6205L119.402 98.605L119.23 98.5827C117.682 98.4075 116.12 98.9107 114.557 98.867C111.331 98.7767 108.043 98.427 104.943 97.7731L104.611 97.7019L104.444 97.6658C99.129 96.5312 96.4557 97.3535 93.9716 97.4166L93.8924 97.4184L93.7375 97.4203C92.7806 97.4252 89.6038 97.4055 88.4682 97.7033C87.8953 97.8536 87.5148 96.986 87.8171 96.4769C88.1072 95.9882 88.6894 95.7818 89.2213 95.5696L89.2875 95.5431L89.3407 95.5211C89.8564 95.3046 90.3936 94.9591 90.4933 94.4229L90.5021 94.3667L90.5102 94.3136C90.6341 93.6329 91.4472 93.3306 92.1446 93.1755L92.2009 93.1632L92.6012 93.0786C93.6715 92.8562 94.7629 92.6719 95.8385 92.8389C96.4477 92.9335 98.7738 91.477 99.4714 90.8773C100.281 90.1815 101.473 90.2943 102.53 90.5379ZM111.425 45.5545L111.338 45.5829C110.61 45.7923 109.913 46.1119 109.284 46.5356C108.21 47.2595 107.305 48.2793 106.081 48.7051C105.235 48.9995 104.282 48.9743 103.453 48.6356C103.74 49.2591 104.538 49.4765 105.221 49.4057C107.216 49.1987 108.576 47.3217 110.369 46.4237C110.764 46.2256 111.181 46.0771 111.609 45.9732C111.787 46.3779 111.965 46.7866 112.142 47.1984L112.141 47.2032C112.005 47.3036 111.881 47.4203 111.774 47.5537C111.363 48.0661 111.261 48.8432 111.627 49.3886C111.994 49.9363 112.667 50.1033 113.352 50.0829L113.353 50.0805L113.6 50.6875C114.012 51.7028 114.421 52.7358 114.827 53.7867L114.794 53.8044C114.695 53.8538 114.597 53.9041 114.5 53.955C111.836 55.3471 109.422 57.2905 106.537 58.1378C106.002 58.295 105.438 58.4133 104.888 58.3206C104.338 58.2279 103.801 57.8852 103.615 57.3596C103.408 57.3741 103.388 57.6787 103.476 57.866C103.967 58.913 105.46 58.9076 106.571 58.5842C109.54 57.7198 112.065 55.7989 114.8 54.3496L115 54.2443L115.315 55.0842C129.05 92.6177 91.9997 89.8394 81.3521 87.0836C65.5655 82.9977 18.6749 98.2536 8.39723 87.0836C4.12191 82.4371 1.98895 76.3212 1.61658 69.4799C4.73999 68.1874 7.4575 65.9254 10.6418 64.7285C12.6414 63.9769 14.8042 63.6622 16.9352 63.8128C18.0041 63.8883 19.0972 64.092 19.9953 64.6761C20.8935 65.2602 21.5605 66.2922 21.4608 67.3585C21.3914 68.1013 20.9739 68.7625 20.5342 69.3654C20.2291 69.7837 19.9046 70.193 19.5104 70.529C18.7589 71.1697 17.7826 71.5122 16.7992 71.6048C15.7877 71.7001 14.7133 71.5239 13.9032 70.9111C13.0932 70.2983 12.6188 69.191 12.9339 68.2257C13.0618 67.8338 13.3062 67.4877 13.594 67.1924C14.1816 66.5894 15.0176 66.1706 15.8527 66.2799C16.6877 66.3891 17.4498 67.1427 17.3838 67.9819C17.3178 68.821 16.2336 69.4505 15.5467 68.9634C15.6538 68.5948 15.1108 68.2487 14.8216 68.5013C14.5693 68.7215 14.6539 69.1653 14.9105 69.3805C15.1671 69.5956 15.5252 69.6364 15.8602 69.6389C16.4059 69.6429 16.9795 69.5583 17.4141 69.2285C18.4041 68.477 18.0821 66.7271 17.011 66.0964C15.9399 65.4656 14.5135 65.7827 13.5237 66.5346C13.0263 66.9125 12.5976 67.4041 12.3905 67.9932C11.9594 69.2194 12.6167 70.647 13.695 71.3736C14.7732 72.1001 16.1655 72.2219 17.4493 72.0147C18.1779 71.8971 18.9029 71.6754 19.5085 71.2538C20.1072 70.8371 20.5606 70.2469 20.979 69.6496C21.5312 68.8614 22.0582 67.9868 22.0679 67.0246C22.0785 65.9466 21.4093 64.941 20.5192 64.332C19.6291 63.7231 18.5447 63.4615 17.4724 63.3447C14.2455 62.993 10.9678 63.8627 8.09124 65.3657C5.89037 66.5157 3.86012 68.042 1.5945 69.0157C1.36419 63.6246 2.21201 57.7977 3.95332 51.8939L4.09263 51.8655C6.24372 51.4177 8.43679 51.1715 10.6337 51.1312C12.0913 51.1045 13.5682 51.1711 14.9664 51.5838C15.5533 51.7571 16.1298 51.9918 16.7396 52.0446C17.9092 52.1459 19.1001 51.5691 20.2357 51.8669C20.8086 52.0171 21.1891 51.1495 20.8868 50.6405C20.5845 50.1314 19.9655 49.9286 19.4164 49.7066C18.8673 49.4846 18.2756 49.1176 18.2018 48.5303C18.1092 47.7932 17.23 47.4819 16.503 47.3268L16.2364 47.2702C15.1233 47.0357 13.9858 46.8285 12.8654 47.0025C12.2562 47.097 11.6163 47.3003 11.0428 47.0739C10.1871 46.736 9.93004 45.6406 9.23249 45.0409C8.51333 44.4225 7.49145 44.4428 6.53094 44.6259C10.1974 35.7561 15.7098 27.0441 22.4434 19.7055L22.4471 19.7097C22.4858 19.7146 22.5245 19.7192 22.563 19.7236C25.1046 20.0119 27.7089 19.7331 30.1317 18.9136C31.8639 18.3276 33.7424 19.1376 35.316 20.0686C36.8896 20.9997 38.489 22.1062 40.3169 22.1599C41.6259 22.1984 42.8778 21.6853 44.1419 21.3436C49.52 19.8899 55.1738 21.5255 60.6708 22.4318C62.3634 22.7109 64.2684 22.8711 65.6322 21.831C65.22 20.9301 64.2335 20.4095 63.2548 20.2521C62.2762 20.0947 61.2781 20.2349 60.289 20.2989C56.8378 20.5221 53.3297 19.7907 50.2556 18.2072C48.5682 17.338 46.5681 17.4684 44.6803 17.269C42.7925 17.0696 40.6941 16.2987 40.0354 14.5194C39.4542 12.9493 37.8117 11.9302 36.1445 11.769C34.4773 11.6079 32.8101 12.1907 31.3768 13.057C29.9435 13.9233 28.7012 15.0648 27.425 16.149C26.956 16.5475 26.4659 16.9478 25.8807 17.1388C25.5504 17.2465 25.2052 17.2827 24.8569 17.301L24.7396 17.3044C48.4961 -6.51752 85.5242 -12.9509 111.425 45.5545ZM112.325 47.6249C112.368 47.7246 112.411 47.8261 112.454 47.9278L113.166 49.6289C112.765 49.6069 112.383 49.4844 112.14 49.1769C111.792 48.7358 111.904 48.0439 112.302 47.6472L112.325 47.6249ZM18.1512 32.0487L18.0189 32.1188C17.8161 32.228 17.6207 32.3411 17.3371 32.5122L16.6661 32.9202C15.7857 33.4499 15.3065 33.6874 14.7003 33.8655C14.4326 33.9441 14.2383 33.9705 14.0606 33.9406C13.8635 33.9074 13.6981 33.7883 13.6452 33.6391L13.5988 33.5083L13.4603 33.518C13.2097 33.5355 13.1566 33.8067 13.2469 33.9992C13.4851 34.5071 14.1393 34.6087 14.8175 34.4113C15.5061 34.2108 16.042 33.9501 17.0188 33.3753L17.6445 33.0033C18.4538 32.5249 18.8788 32.3045 19.4162 32.1025C20.2665 31.7829 21.1864 31.649 22.0926 31.7131C22.6228 31.7506 23.0254 31.854 23.3449 32.0617C23.7106 32.2996 23.9383 32.6963 23.9038 33.0654C23.8815 33.3043 23.7669 33.5319 23.5327 33.853C23.374 34.0705 23.2517 34.2132 23.1138 34.3307C22.8307 34.5721 22.4484 34.7191 22.0289 34.7586C21.5872 34.8002 21.1794 34.7109 20.8891 34.4913C20.5774 34.2554 20.4215 33.846 20.5284 33.5184C20.5711 33.3876 20.655 33.2596 20.7744 33.1371C21.0159 32.8893 21.3284 32.7549 21.6081 32.7915C21.8967 32.8292 22.1395 33.0891 22.1197 33.3408L22.116 33.3693C22.082 33.5566 21.8646 33.6988 21.6966 33.6726L21.6787 33.6689L21.6783 33.6648C21.6192 33.4147 21.2779 33.2551 21.0605 33.4449C20.8621 33.6181 20.9045 33.9412 21.1022 34.107C21.2403 34.2228 21.4078 34.2611 21.6338 34.2627C21.9538 34.2651 22.2178 34.2037 22.4256 34.046C22.9572 33.6424 22.8202 32.7195 22.2314 32.3728C21.7211 32.0723 21.0252 32.1793 20.5023 32.5765C20.2385 32.7769 20.0422 33.022 19.9446 33.2996C19.7342 33.8981 20.0261 34.6136 20.5856 34.9906C21.065 35.3136 21.6958 35.4071 22.3596 35.2999C22.7424 35.2382 23.0675 35.1234 23.3359 34.9366C23.5838 34.764 23.7743 34.5468 24.0245 34.1896C24.3648 33.7039 24.5299 33.3463 24.5341 32.9382C24.5391 32.4248 24.2382 31.9231 23.7769 31.6075C23.3968 31.3475 22.9319 31.2069 22.3604 31.1446C20.9884 30.9951 19.5303 31.3281 18.1512 32.0487Z" fill="#F8FAFE"/>
<path fill-rule="evenodd" clip-rule="evenodd" d="M4.51288 65.5752C4.69933 66.1008 5.23622 66.4435 5.78642 66.5362C6.33661 66.6289 6.90017 66.5107 7.43548 66.3534C9.34685 65.7919 11.0518 64.7491 12.7598 63.7043C13.6292 63.1725 14.4994 62.6402 15.3981 62.1706C18.2747 60.6676 21.5523 59.7979 24.7792 60.1496C25.8515 60.2665 26.9359 60.528 27.826 61.137C28.7161 61.7459 29.3854 62.7515 29.3746 63.8295C29.365 64.7917 28.838 65.6663 28.2858 66.4545C27.8674 67.0518 27.414 67.6421 26.8154 68.0587C26.2097 68.4803 25.4847 68.702 24.7561 68.8196C23.4724 69.0269 22.08 68.905 21.0018 68.1785C19.9236 67.452 19.2662 66.0243 19.6973 64.7981C19.9044 64.209 20.3331 63.7174 20.8306 63.3395C21.8203 62.5877 23.2467 62.2705 24.3179 62.9013C25.389 63.532 25.711 65.2819 24.7209 66.0334C24.2863 66.3633 23.7127 66.4478 23.167 66.4438C22.8321 66.4414 22.4739 66.4006 22.2173 66.1854C21.9608 65.9702 21.8762 65.5265 22.1284 65.3062C22.4176 65.0537 22.9606 65.3997 22.8535 65.7683C23.5404 66.2554 24.6246 65.6259 24.6906 64.7868C24.7566 63.9476 23.9946 63.194 23.1595 63.0848C22.3244 62.9755 21.4884 63.3943 20.9008 63.9973C20.613 64.2926 20.3686 64.6387 20.2407 65.0306C19.9257 65.9959 20.4 67.1032 21.2101 67.716C22.0201 68.3288 23.0945 68.505 24.106 68.4097C25.0894 68.3171 26.0657 67.9746 26.8173 67.3339C27.2114 66.9979 27.5359 66.5887 27.8411 66.1703C28.2808 65.5674 28.6982 64.9062 28.7677 64.1634C28.8673 63.0971 28.2003 62.0651 27.3022 61.481C26.404 60.8969 25.3109 60.6933 24.242 60.6177C22.111 60.4671 19.9483 60.7818 17.9487 61.5334C16.274 62.1628 14.7285 63.0868 13.1853 64.0095L13.1853 64.0095C11.348 65.108 9.51393 66.2045 7.46898 66.7999C6.35825 67.1232 4.86514 67.1286 4.37421 66.0816C4.28638 65.8943 4.30639 65.5897 4.51288 65.5752Z" fill="#F8FAFE"/>
<path fill-rule="evenodd" clip-rule="evenodd" d="M57.1783 77.4546C55.0009 80.2352 49.0568 78.0876 46.5036 76.4633C43.9504 74.839 44.9307 73.2657 44.9307 72.4962C44.9307 71.7267 44.7553 70.7857 44.3283 70.1205C43.9013 69.4553 37.1488 66.6028 37.1488 63.4696C37.1488 60.5473 39.1728 57.8735 42.0042 56.6623C46.5036 54.7376 48.7047 55.9614 52.8624 57.6517C57.0202 59.3419 56.6782 63.4696 56.6782 63.4696C56.6782 63.4696 60.0882 73.7384 57.1783 77.4546Z" fill="#A4BE7B"/>
<path d="M54.496 78.9943C45.2979 78.3938 36.6831 72.4829 32.6333 64.2072C28.5835 55.9315 29.1611 45.6183 33.9344 37.7372C38.7076 29.8561 47.4719 24.5903 56.661 23.8654C59.0374 23.6779 61.4648 23.7797 63.7426 24.4822C66.2164 25.2452 68.4403 26.6909 70.9253 27.4168C74.3419 28.4148 77.9754 27.6617 81.0467 25.8636C83.3303 24.5266 85.394 22.7837 87.8466 21.7897C90.7124 20.6282 94.0684 21.0613 96.8059 22.4988C99.5435 23.9364 101.712 26.2901 103.383 28.8908C108.358 36.6348 109.095 46.2645 109.692 55.448C110.02 60.4941 110.322 65.724 108.518 70.4484C106.881 74.7361 103.65 78.2101 100.278 81.3261C96.7033 84.6304 92.8556 87.6862 88.5527 89.9643C80.1657 94.4047 70.3543 95.6892 60.9012 94.8414C51.4482 93.9935 42.287 91.1127 33.4658 87.6122C28.5422 85.6584 23.2338 90.9259 18.0502 89.8341C14.8475 89.1595 12.6032 86.229 9.55958 85.0258C6.2888 83.7328 2.24012 84.7739 0 87.4842C1.96052 82.7418 8.67209 80.7686 12.8897 83.6945C15.024 85.1752 17.8855 85.0828 20.4087 84.4639C22.9319 83.845 25.3468 82.7627 27.9238 82.4329C31.6123 81.9608 35.3016 83.0626 39.0085 83.3573C43.543 83.7179 48.0767 82.8672 52.5459 82.0205C57.3596 81.1084 62.1734 80.1963 66.9871 79.2842C69.3097 78.8442 71.6719 78.3906 73.7627 77.2881C76.1174 76.0465 78.0322 73.9904 79.1026 71.5541C71.0852 78.2693 59.0358 78.6228 54.496 78.9943Z" fill="white"/>
<path fill-rule="evenodd" clip-rule="evenodd" d="M57.8632 77.6826C55.6858 80.4633 49.7417 78.3156 47.1885 76.6913C44.6354 75.067 45.6156 73.4937 45.6156 72.7242C45.6156 71.9548 45.4403 71.0137 45.0132 70.3486C44.5862 69.6834 37.8337 66.8308 37.8337 63.6976C37.8337 60.7753 39.8578 58.1015 42.6892 56.8903C47.1885 54.9656 49.3897 56.1894 53.5474 57.8797C57.7051 59.57 57.3632 63.6976 57.3632 63.6976C57.3632 63.6976 60.7731 73.9664 57.8632 77.6826Z" fill="#A4BE7B"/>
<path fill-rule="evenodd" clip-rule="evenodd" d="M66.8867 64.7051C66.9535 64.9881 67.2687 65.2715 67.5075 65.1054C68.7551 64.2379 70.0072 63.3676 71.3588 62.6728C72.2294 62.2253 73.1613 61.836 73.8392 61.1302C73.0172 61.5303 72.0463 61.4695 71.1509 61.2845C70.2555 61.0996 69.3779 60.7993 68.4651 60.7456C67.6833 60.6996 66.8911 60.8397 66.1725 61.151C65.7402 61.3383 65.3155 61.6062 65.0939 62.0217C64.8724 62.4373 64.925 63.0257 65.3121 63.2942C65.7294 63.5836 66.4006 63.4478 66.6921 63.8636C66.8591 64.1016 66.8199 64.4221 66.8867 64.7051Z" fill="#A4BE7B"/>
<path fill-rule="evenodd" clip-rule="evenodd" d="M78.7848 37.7864C80.6512 41.1275 83.0268 43.5131 81.5139 45.0302C80.2022 46.3456 80.66 44.0572 79.1716 43.5661C78.1836 43.2402 76.0754 43.9124 74.2304 43.8351C71.6887 43.7286 71.3366 45.402 69.4441 45.313C66.4991 45.1746 62.4914 43.2428 61.2597 42.7674C59.781 42.1966 60.2239 40.2184 61.2597 39.2803C61.6411 38.9349 62.8903 39.9457 63.0282 39.483C63.5409 37.7637 62.4288 36.2296 63.2778 36C63.6682 35.8944 65.0931 36.3603 65.6326 36.9127C66.2661 37.5614 66.9036 38.5267 68.2123 38.1343C70.6354 37.4077 70.3242 35.8242 72.2179 35.8242C74.1117 35.8242 76.5867 37.2107 77.7793 37.6186C78.972 38.0265 76.9185 34.4453 78.7848 37.7864Z" fill="#A4BE7B"/>
<path fill-rule="evenodd" clip-rule="evenodd" d="M59.5408 54.6354C59.7886 55.3732 60.2968 56.0194 60.8723 56.5437C61.4108 57.0343 62.269 57.4527 62.1619 58.173C63.2293 57.0456 64.8255 56.4409 66.3724 56.5781C66.897 56.6246 67.4124 56.7511 67.9375 56.7918C69.8662 56.9416 71.676 55.9412 73.3508 54.9735C74.5536 54.2785 75.7564 53.5834 76.9593 52.8884C77.238 52.3095 77.0223 51.5865 76.5916 51.1095C76.161 50.6325 75.5555 50.3548 74.9556 50.1238C74.3054 49.8736 73.6282 49.6608 72.9316 49.6466C72.2517 49.6326 71.3623 49.6918 71.1167 49.0581C70.7907 48.2171 69.9951 47.5763 69.1036 47.4366C68.2121 47.2969 67.2585 47.6637 66.6907 48.3646C66.1029 49.0901 65.1424 49.3692 64.2647 49.6886C63.2014 50.0755 62.1792 50.5752 61.2208 51.1766C60.4173 51.6808 59.5862 52.3842 59.5408 53.3314C59.5215 53.7342 59.4125 54.253 59.5408 54.6354Z" fill="#A4BE7B"/>
<path fill-rule="evenodd" clip-rule="evenodd" d="M62.0504 33.3664C63.3133 33.7265 64.497 32.5494 65.8029 32.4107C66.8699 32.2973 67.9246 32.8918 68.9878 32.7468C69.3717 32.6945 69.8248 32.3369 69.6227 32.0065C69.5047 31.8137 69.2388 31.7902 69.0126 31.788C67.7833 31.7759 66.5541 31.7639 65.3249 31.7519C64.9252 31.748 64.4916 31.7325 64.1814 31.4807C63.5355 30.9563 62.749 30.6351 61.9559 30.3834C60.8713 30.0393 59.7493 29.8112 58.6156 29.714C57.3778 29.6079 56.1267 29.6581 54.9014 29.8631C54.4207 30.4869 53.94 31.1107 53.4593 31.7346C52.8692 32.5004 52.0779 33.3514 51.1238 33.1934C49.8787 32.9872 48.5698 33.1855 47.4419 33.7514C48.5762 33.3768 49.8321 33.3808 50.964 33.7626C51.6826 34.005 52.3472 34.3927 53.0735 34.6106C54.8795 35.1524 56.819 34.5887 58.584 33.9257C59.6999 33.5066 60.904 33.0394 62.0504 33.3664Z" fill="#A4BE7B"/>
<path d="M83.4814 47.5986C83.5103 47.8475 83.6697 48.0597 83.8309 48.2516C84.6438 49.2195 85.6884 50.0372 86.9105 50.3611C89.172 50.9603 91.603 49.726 93.0797 47.9123C94.5563 46.0986 95.2728 43.7996 95.9292 41.5552C96.1186 40.9073 96.4001 40.1608 97.0506 39.9792C97.7538 39.783 98.3395 39.2099 98.5507 38.5114C98.7619 37.8129 98.5918 37.0115 98.115 36.4589C97.5759 35.834 96.4135 35.6544 96.0026 36.37C95.8429 36.6481 95.4528 36.7127 95.1478 36.6133C94.8428 36.5139 94.596 36.2932 94.3378 36.1028C92.7389 34.924 90.6056 34.8568 88.6188 34.8363C87.99 34.8298 87.3535 34.8242 86.7425 34.9725C85.4792 35.2793 84.4575 36.2068 83.2387 36.6589C81.6805 37.237 79.8323 36.9537 78.519 35.9355C79.9453 38.1917 81.136 40.5966 82.0658 43.0984C82.1337 43.6008 83.3167 46.1816 83.4814 47.5986Z" fill="white"/>
<path fill-rule="evenodd" clip-rule="evenodd" d="M51.5033 38.711C51.1738 37.9101 50.6794 36.9688 49.8135 36.9368C49.5771 36.928 49.3453 36.994 49.1121 37.0336C47.8689 37.2447 46.3365 35.6824 45.8703 35.5559C45.4041 35.4293 44.8391 36.3078 44.2485 36.5715C43.6579 36.8352 43.0379 37.2565 42.9519 37.8972C42.8832 38.4099 43.1822 38.9486 43.0013 39.4333C42.7445 40.1212 41.7066 40.2385 41.434 40.9203C41.1956 41.5163 41.6804 42.1405 42.148 42.5804C43.1911 43.5616 44.4244 44.5975 44.5272 46.0254C44.5657 46.5601 45.0661 46.923 45.5061 47.2296C47.1271 48.3593 48.5613 49.756 49.7332 51.3462C49.4651 50.9759 49.6052 50.4364 49.8945 50.0823C50.1838 49.7283 50.5917 49.495 50.9378 49.1962C51.6158 48.6106 52.053 47.7759 52.7685 47.2369C53.6693 46.5584 54.8588 46.451 55.9692 46.2525C57.0796 46.0541 58.2813 45.6574 58.835 44.6752C58.8889 44.5796 58.9367 44.4735 58.9261 44.3643C58.8959 44.0542 58.4843 43.9842 58.2226 43.815C57.7319 43.4977 57.7678 42.7881 57.5993 42.2288C57.3542 41.4151 56.5889 40.8426 55.7747 40.5974C54.9605 40.3523 54.0926 40.3806 53.2428 40.4111C52.3769 40.4421 51.8328 39.5119 51.5033 38.711Z" fill="#A4BE7B"/>
<path fill-rule="evenodd" clip-rule="evenodd" d="M100.921 73.5873C100.131 73.8843 99.1685 73.6398 98.6162 73.0021C98.3351 72.6774 97.7938 72.8745 97.4733 73.1604C97.1528 73.4463 96.8369 73.8258 96.4073 73.8231C95.9673 73.8204 95.6307 73.3808 95.583 72.9435C95.5353 72.5063 95.7002 72.077 95.8621 71.6681C95.2604 71.7825 94.6279 71.8954 94.0454 71.7057C93.463 71.516 92.9666 70.9124 93.1203 70.3197C93.1765 70.1029 93.3108 69.9138 93.4654 69.7516C93.9777 69.2143 94.749 68.9356 95.4866 69.0213C95.8457 69.0631 95.9713 68.5571 95.9407 68.1971C95.8823 67.5112 95.7716 66.8062 95.9641 66.1452C96.1566 65.4842 96.769 64.8802 97.4519 64.9707C98.3184 65.0855 98.6824 66.1315 98.7786 66.9998C98.8114 67.2965 99.0583 67.7028 99.2898 67.5142C100.034 66.9082 101.223 66.9423 101.931 67.5898C102.204 67.8398 102.413 68.1903 102.394 68.5601C102.372 68.991 102.05 69.3512 101.692 69.5916C101.333 69.8321 100.924 69.9914 100.576 70.2459C101.335 70.754 102.132 71.5177 101.976 72.4172C101.882 72.9585 101.436 73.3938 100.921 73.5873ZM97.5708 70.6615C97.5897 70.7491 97.6086 70.8366 97.6275 70.9242C96.9929 71.2426 96.7972 72.0379 96.6708 72.7363C96.8602 72.8788 97.1234 72.6933 97.2589 72.4989C97.5554 72.0735 97.6952 71.5617 97.9128 71.0911C98.1303 70.6204 98.4682 70.1572 98.9664 70.0128C99.1735 69.9527 99.3931 69.9528 99.6048 69.9112C100.055 69.8225 100.446 69.5516 100.821 69.2871C101.031 69.1395 101.252 68.9768 101.338 68.7354C101.53 68.1954 100.859 67.6675 100.295 67.7708C99.7306 67.874 99.3221 68.3548 98.9908 68.8224C98.6594 69.2901 98.3252 69.8019 97.7989 70.0293C97.6464 70.0952 97.4712 70.1338 97.3147 70.0779C97.1582 70.0221 97.0377 69.8456 97.0907 69.6882C97.1438 69.5308 97.4037 69.4841 97.4777 69.6329C97.6095 69.5723 97.6722 69.395 97.6078 69.2651C96.9387 69.3842 96.2695 69.5033 95.6004 69.6223C95.2329 69.6877 94.8515 69.7588 94.5487 69.9769C94.2458 70.1951 94.0473 70.6062 94.1922 70.95C95.1633 71.5916 96.4402 70.3843 97.5708 70.6615ZM99.2573 70.7262C98.7988 70.8143 98.6256 71.4298 98.8028 71.8616C98.9799 72.2933 99.3758 72.5872 99.7265 72.8952C100.066 73.1931 100.656 73.0553 100.899 72.6744C101.141 72.2934 101.064 71.7661 100.79 71.4071C100.516 71.0481 100.081 70.8404 99.6394 70.7469C99.5137 70.7203 99.3834 70.702 99.2573 70.7262M98.0328 67.759C98.0064 67.0887 97.9394 66.3326 97.4186 65.9093C97.2598 65.7802 97.0561 66.0095 96.9917 66.2037C96.8274 66.6993 96.7514 67.224 96.7686 67.7459C96.7771 68.0068 96.8127 68.2781 96.9582 68.4949C97.1037 68.7117 97.3864 68.8552 97.6325 68.7678C97.9991 68.6376 98.0481 68.1476 98.0328 67.759L98.0328 67.759Z" fill="#FFB61D"/>
<path fill-rule="evenodd" clip-rule="evenodd" d="M96.2082 28.4388C95.9813 28.2811 95.7543 28.1235 95.5273 27.9659C95.8693 27.7197 96.3749 27.792 96.6969 28.0638C97.0189 28.3356 97.1752 28.7643 97.2038 29.1846C97.2256 29.5051 97.1547 29.8724 96.8824 30.043C96.6201 30.2073 96.2801 30.1267 95.9827 30.041C95.7372 29.9703 95.4918 29.8996 95.2464 29.8289C94.9887 29.7547 94.7615 30.0122 94.6375 30.2498C94.5135 30.4874 94.3707 30.7718 94.1049 30.8072C93.7512 30.8544 93.5419 30.4417 93.29 30.1891C92.5566 29.4534 91.0922 29.9811 90.415 29.1934C90.1266 28.8579 90.0848 28.3502 90.2599 27.944C90.435 27.5378 90.8012 27.2324 91.2125 27.0693C91.3796 27.003 91.5589 26.9556 91.6995 26.8437C91.8401 26.7318 91.9299 26.5279 91.8452 26.3695C91.6521 26.0082 91.4552 25.635 91.4151 25.2274C91.375 24.8198 91.5307 24.3646 91.8922 24.1718C92.2422 23.9851 92.6934 24.0955 93.002 24.3447C93.3105 24.594 93.5032 24.9568 93.6664 25.3183C93.7131 25.4217 93.7633 25.5323 93.8599 25.5919C93.9565 25.6516 94.113 25.626 94.1442 25.5168C94.3021 24.9645 95.0491 24.735 95.5598 24.9984C96.0706 25.2618 96.3281 25.8749 96.3116 26.449C96.3058 26.6536 96.2679 26.8641 96.153 27.0334C96.0723 27.1525 95.9583 27.2446 95.8442 27.3323C95.5018 27.5957 95.1428 27.8374 94.77 28.0557C94.7537 28.7652 95.3285 29.4402 96.0318 29.5376C96.2706 29.5706 96.5562 29.519 96.6695 29.3064C96.8389 28.9885 96.5042 28.6443 96.2082 28.4388ZM94.9072 27.2623C95.3039 27.2112 95.6572 26.9104 95.7707 26.5271C95.8843 26.1437 95.7518 25.6992 95.4469 25.4405C95.3867 25.3894 95.3164 25.3437 95.2376 25.3387C95.1453 25.3328 95.0598 25.3832 94.9811 25.4317C94.412 25.7827 93.7728 26.255 93.7861 26.9232C93.8001 27.6289 93.5636 28.3369 93.1284 28.8927C92.9712 29.0934 93.0902 29.395 93.2676 29.5781C93.4449 29.7613 93.6787 29.8978 93.799 30.1225C93.883 30.2792 94.1353 30.2597 94.2543 30.1275C94.3733 29.9953 94.3937 29.8039 94.402 29.6263C94.4334 28.9621 94.3777 28.2939 94.2367 27.6441C94.2055 27.5006 94.3321 27.3647 94.4711 27.3171C94.6101 27.2694 94.7615 27.2811 94.9072 27.2623M93.2 27.7071C92.9615 27.8389 92.7026 27.5946 92.4698 27.453C91.8233 27.0596 90.8936 27.5695 90.7158 28.3048C90.6463 28.592 90.8517 28.8886 91.115 29.023C91.3783 29.1575 91.6852 29.1683 91.9807 29.1764C92.178 29.1818 92.3932 29.1815 92.5482 29.0594C92.6496 28.9795 92.7089 28.859 92.7634 28.7421C92.9215 28.4026 93.0672 28.0573 93.2 27.7071ZM92.3953 24.5953C92.1635 24.5814 91.9659 24.7935 91.9196 25.0209C91.8733 25.2483 91.9421 25.4825 92.024 25.6997C92.2958 26.4211 92.7211 27.0842 93.2635 27.6322C93.3936 26.6477 93.4753 25.5087 92.7755 24.8037C92.6713 24.6988 92.5429 24.6042 92.3953 24.5953V24.5953Z" fill="#A4BE7B"/>
<path fill-rule="evenodd" clip-rule="evenodd" d="M44.3193 50.8671C43.6913 51.2108 43.2871 51.9269 43.3174 52.6419C43.3305 52.9514 43.3844 53.337 43.1214 53.5009C42.9044 52.7522 43.0062 51.9166 43.3966 51.2418C43.493 51.0752 43.6121 50.9128 43.7819 50.8221C43.9517 50.7315 44.1824 50.7318 44.3193 50.8671V50.8671Z" fill="#00160A"/>
<ellipse cx="94.1044" cy="42.311" rx="0.79921" ry="0.79875" fill="#FFB61D"/>
<path fill-rule="evenodd" clip-rule="evenodd" d="M69.0918 67.8858C69.18 67.5093 69.3523 67.1018 69.7126 66.9607C70.5064 66.6499 71.1282 67.8571 71.9782 67.9222C72.4424 67.9577 72.8582 67.6398 73.3171 67.5617C74.0778 67.4322 74.8703 68.1071 74.863 68.8784C74.8567 69.5325 74.3747 70.1031 74.3319 70.7559C73.9023 70.6813 73.42 70.8572 73.1986 71.2327C72.9773 71.6082 73.0922 72.1649 73.4779 72.3682C73.8636 72.5716 74.4308 72.2879 74.4443 71.8523C74.4516 71.6172 74.3193 71.4008 74.2847 71.1682C74.2502 70.9356 74.397 70.635 74.6296 70.6703C75.0798 70.9599 75.323 71.5388 75.2144 72.0628C75.1059 72.5867 74.6527 73.0216 74.1244 73.1086C73.9622 73.1353 73.7894 73.1338 73.646 73.2141C73.4012 73.3512 73.3348 73.6637 73.24 73.9276C73.056 74.4399 72.6574 74.8871 72.1413 75.0607C71.6252 75.2343 71.0001 75.0975 70.6534 74.6778C70.3067 74.2582 70.3119 73.5687 70.7095 73.1968C70.4643 73.0725 70.2127 73.3297 69.9822 73.4795C69.4017 73.8567 68.5352 73.4776 68.2922 72.8296C68.0492 72.1816 68.3453 71.4175 68.8739 70.9706C69.043 70.8278 69.2575 70.6454 69.1905 70.4346C68.9299 69.6144 68.8954 68.7237 69.0918 67.8858ZM71.637 70.9865C71.4286 71.8503 71.2197 72.7164 71.111 73.5983C71.0786 73.8611 71.0742 74.173 71.2823 74.337C71.5066 74.5138 71.8447 74.4043 72.0665 74.2242C72.662 73.7406 72.7918 72.7784 72.3457 72.1545C72.0316 71.7151 72.3173 71.0872 72.7159 70.7227C73.1146 70.3582 73.6282 70.1036 73.9178 69.6478C74.2074 69.1919 74.0863 68.4164 73.5527 68.3315C73.1373 68.2655 72.682 68.3801 72.3927 68.6853C72.1309 68.9614 72.0321 69.3493 71.9428 69.7191C71.8409 70.1415 71.739 70.564 71.637 70.9865ZM70.9102 70.3576C71.3015 70.1399 71.3672 69.5958 71.267 69.1594C71.1524 68.6597 70.8805 68.1973 70.4996 67.8539C70.4091 67.7724 70.3053 67.6943 70.184 67.6828C69.856 67.6515 69.7013 68.0725 69.6572 68.3989C69.5923 68.8795 69.5312 69.3892 69.7287 69.8322C69.9261 70.2751 70.4862 70.5934 70.9102 70.3576M69.0935 72.6829C69.3659 73.0168 69.9278 72.8228 70.2115 72.4985C70.4953 72.1742 70.6734 71.7412 71.0445 71.522C71.2054 71.427 71.0789 71.1491 70.8945 71.1191C70.71 71.0891 70.5365 71.2 70.3689 71.2826C70.0364 71.4464 69.6556 71.5138 69.3529 71.7277C69.0502 71.9416 68.8592 72.3958 69.0935 72.6829Z" fill="#FFB61D"/>
<path fill-rule="evenodd" clip-rule="evenodd" d="M98.5507 38.5114C98.8211 37.814 98.5918 37.0115 98.115 36.4589C97.5759 35.834 96.4135 35.6544 96.0026 36.37C95.8429 36.6481 95.4528 36.7127 95.1478 36.6133C94.8428 36.5139 94.596 36.2932 94.3378 36.1028C92.7389 34.924 90.6056 34.8568 88.6188 34.8363C87.99 34.8298 87.3535 34.8242 86.7425 34.9725C85.4792 35.2793 84.4575 36.2068 83.2387 36.6589C81.6805 37.237 79.8323 36.9537 78.519 35.9355C79.05 36.7754 80.5093 39.4907 80.5093 39.4907C80.5093 39.4907 80.2465 38.2223 80.6391 38.1059C81.3608 37.8919 82.2785 38.324 82.9874 38.2245C85.6293 37.8538 87.0274 36.5669 88.054 36.4589C95.1478 35.7127 97.8481 40.3232 98.5507 38.5114Z" fill="#A4BE7B"/>
<path fill-rule="evenodd" clip-rule="evenodd" d="M100.278 79.5003C96.7033 82.8046 92.8556 85.8604 88.5527 88.1385C80.1657 92.5789 70.3543 93.8634 60.9012 93.0155C51.4481 92.1677 42.2869 89.2869 33.4658 85.7864C30.9711 84.7965 53.4018 91.8821 71.3803 90.1599C88.885 88.4831 101.941 77.9631 100.278 79.5003Z" fill="#A4BE7B"/>
<ellipse cx="85.4272" cy="46.7612" rx="1.14172" ry="1.14107" fill="#FFB61D"/>
<path d="M55.7341 55.8742C56.5621 57.389 57.9433 58.561 58.6767 60.1237C59.5542 61.9935 70.2336 79.0394 70.604 79.1008C71.3743 79.2284 72.6928 77.9607 72.5548 78.3881C72.5012 78.3046 84.704 85.0678 82.2258 86.7188C79.3797 88.615 73.5005 90.6507 66.0897 90.6507C63.2269 90.0113 61.4444 87.2352 59.976 84.6972C55.5273 77.0081 51.0676 69.2616 48.0511 60.9068C47.701 59.9371 47.3302 58.9025 46.5105 58.2767C45.8269 57.7549 44.9363 57.603 44.0812 57.5104C41.9402 57.2787 39.7771 57.5096 37.6388 57.6246C35.1428 57.7589 35.1428 56.531 35.8241 56.1562C36.8643 55.584 37.996 55.3622 38.8094 54.6274C37.6655 55.1378 37.2348 55.3769 35.9925 55.5381C34.7502 55.6993 35.3256 54.6859 35.3861 54.2079C35.1969 54.9525 34.1212 55.4444 33.5231 54.8651C32.7459 54.112 33.8438 52.398 34.6586 51.9422C34.7974 51.8646 39.3385 49.5172 39.6529 49.3274C39.253 49.2337 35.2606 52.0366 33.9488 51.614C33.0955 51.3392 33.9906 49.8441 34.8168 48.9108C37.3742 46.022 36.6974 47.0084 37.6377 46.0572C38.1618 45.5271 39.01 45.5499 39.7533 45.6093C40.8751 45.6989 45.3829 45.3614 49.1076 47.8089C52.606 50.1077 55.3543 55.1794 55.7341 55.8742Z" fill="white"/>
<path fill-rule="evenodd" clip-rule="evenodd" d="M101.937 10.5215C101.332 10.6861 100.826 11.1784 100.646 11.7791C100.514 12.2189 100.549 12.6897 100.599 13.1462C100.68 13.8933 100.818 14.6856 101.329 15.237C101.883 14.7228 101.888 13.8532 101.763 13.1078C101.744 12.9981 101.724 12.8877 101.704 12.7768C101.586 12.1338 101.465 11.4758 101.687 10.8702C102.273 11.7921 102.457 12.9597 102.184 14.0173L103.926 13.2998C104.253 13.1652 104.641 13.3589 104.843 13.6493C105.045 13.9397 105.105 14.3024 105.159 14.6517C105.289 15.4838 105.317 16.5392 104.575 16.9389C104.359 17.0554 104.056 17.3142 104.259 17.4532C104.865 17.8693 105.026 18.795 104.624 19.4104C104.222 20.0258 103.343 20.2584 102.673 19.9545C102.004 19.6506 101.603 18.8666 101.71 18.1398L100.18 19.1188C100.04 19.2086 99.8824 19.3022 99.718 19.2755C99.5124 19.242 99.386 19.0387 99.2869 18.8557C98.8958 18.1337 98.5012 17.2528 98.8953 16.5324C98.2378 16.3648 97.6395 15.9213 97.3564 15.305C97.0732 14.6887 97.1432 13.906 97.5882 13.394C98.0331 12.882 98.8517 12.7122 99.432 13.0636C99.7037 13.2281 99.9081 12.7711 99.9191 12.4539C99.9489 11.5889 100.226 10.627 100.991 10.2215C101.342 10.0352 101.931 10.1241 101.937 10.5215ZM103.013 16.282C103.617 16.6227 104.496 16.26 104.683 15.5931C104.87 14.9262 104.308 14.1596 103.615 14.1371C102.781 14.1099 102.198 14.9475 101.883 15.7201C101.756 16.0297 101.296 15.9476 100.999 15.7945C100.701 15.6413 100.279 15.4954 100.084 15.7671C99.8266 16.1251 99.4347 16.384 99.0044 16.48C99.2537 16.6787 99.3451 16.9912 99.437 17.3054C99.4775 17.4441 99.5182 17.5832 99.5726 17.7129C99.7501 18.1365 100.35 18.4835 100.636 18.1237C101.137 17.4925 101.72 16.9267 102.366 16.4451C102.556 16.3041 102.808 16.1659 103.013 16.282ZM98.5297 13.6541C98.2197 13.5724 97.9001 13.8488 97.8411 14.1638C97.7821 14.4788 97.9203 14.7996 98.1057 15.061C98.1901 15.18 98.2867 15.2932 98.4087 15.3732C98.7226 15.5788 99.1419 15.5259 99.4918 15.3901C99.6323 15.3355 99.7682 15.2691 99.904 15.2027C100.106 15.1038 100.308 15.005 100.525 14.9459C100.019 14.3191 99.3089 13.8594 98.5297 13.6541ZM104.12 18.9083C104.252 18.6447 104.167 18.314 103.987 18.0803C103.807 17.8466 103.548 17.6891 103.296 17.5371L102.882 17.2884C102.723 17.1928 102.534 17.0941 102.362 17.1625C102.073 17.277 102.127 17.6978 102.238 17.9876C102.397 18.4037 102.586 18.8394 102.954 19.0913C103.322 19.3433 103.92 19.3066 104.12 18.9083ZM78.4936 14.5356C78.6672 14.7025 78.6916 15.0105 78.5268 15.1861C78.362 15.3617 78.0286 15.3422 77.9046 15.1357C77.838 15.0247 77.8365 14.8921 77.835 14.7602C77.8345 14.7187 77.834 14.6773 77.8315 14.6366C77.821 14.4668 77.6794 14.0747 77.6421 13.9845C77.1817 13.6077 77.0069 12.9875 76.9137 12.4001C76.8441 11.9613 76.8088 11.4961 76.9813 11.0866C77.1538 10.6771 77.5932 10.3492 78.028 10.4418C78.5322 10.549 78.7735 11.1124 78.9358 11.6014C79.0683 12.0007 79.1552 12.5378 78.7956 12.7563C78.7341 12.2234 78.6603 11.6599 78.3263 11.24C78.1143 10.9736 77.6775 10.7993 77.4508 11.0535C77.3534 11.1626 77.3299 11.3176 77.319 11.4635C77.2342 12.5927 77.6769 13.7506 78.4936 14.5356ZM77.652 17.1648L77.586 17.1749C76.9946 17.2663 76.3805 17.3612 75.9164 16.8289C75.4349 16.2767 75.2671 15.0727 75.5279 14.7588C75.8947 14.3172 76.48 14.0566 77.0557 14.0945C77.0805 14.1541 77.0647 14.2877 77.0487 14.4226C77.0324 14.56 77.016 14.6987 77.0422 14.7617C76.6432 14.5542 76.0976 14.6967 75.851 15.0727C75.8204 15.1194 75.7932 15.1759 75.81 15.2291C75.9411 15.6465 76.0843 16.0813 76.3968 16.3875C76.7094 16.6938 77.2465 16.8187 77.5857 16.5422C77.6942 16.4537 77.7708 16.3359 77.8477 16.2176L77.8477 16.2176L77.8478 16.2175C77.9097 16.1223 77.9716 16.0269 78.0506 15.9465C78.2276 15.7661 78.5861 15.7072 78.6968 15.9344C78.4285 16.2035 78.1739 16.4862 77.934 16.7809C77.8768 16.8512 77.82 16.9553 77.8793 17.0239C78.0245 17.1919 78.0524 17.4199 78.0799 17.6452L78.08 17.6456C78.0876 17.7081 78.0952 17.7704 78.1053 17.8311C78.1518 18.111 78.3286 18.4289 78.6124 18.422C78.8519 18.4162 79.0133 18.1832 79.1335 17.9761L79.5852 17.1973C79.7165 17.2132 79.8016 17.3568 79.7989 17.4889C79.7962 17.621 79.7289 17.7422 79.6613 17.8557C79.4529 18.2054 79.223 18.5424 78.9736 18.8642C78.8975 18.9623 78.8105 19.065 78.6896 19.0932C78.5642 19.1225 78.4355 19.0634 78.3276 18.9932C77.7437 18.6134 77.4552 17.8327 77.652 17.1648ZM80.2267 12.3273C80.4274 12.2265 80.6988 12.2292 80.8505 12.3949C81.1848 13.203 80.9601 14.2093 80.3138 14.7988C80.2984 14.8127 80.2828 14.8267 80.2671 14.8407C80.1604 14.9357 80.0502 15.0337 80.0136 15.1696C79.9716 15.3254 80.1061 15.5302 80.2594 15.4793C80.3661 15.4438 80.4001 15.3238 80.4325 15.21C80.4394 15.1854 80.4464 15.1611 80.4539 15.138C80.5473 14.8518 80.8596 14.6546 81.1583 14.6933C81.542 14.8586 82.3192 15.3054 82.1724 16.4897C82.041 17.5491 81.5169 17.4994 81.3299 17.4817C81.3079 17.4796 81.2905 17.4779 81.279 17.4786C80.7718 17.508 80.4679 16.956 80.2208 16.5071L80.2072 16.4823C80.0907 16.2709 79.8279 16.0426 79.6459 16.2012C79.5749 16.2632 79.5535 16.3635 79.5403 16.4568C79.5201 16.5997 79.514 16.7599 79.6048 16.8722C79.6955 16.9844 79.9162 16.9833 79.9548 16.8442C80.0013 17.2658 80.2319 17.6731 80.5951 17.8926C80.9583 18.1122 81.4513 18.1196 81.7982 17.8753C82.0489 17.6989 82.2043 17.4174 82.3192 17.1333C82.4247 16.8727 82.504 16.5976 82.5099 16.3165C82.5242 15.6327 82.0949 14.9998 81.542 14.5968C81.3977 14.4917 81.2255 14.3613 81.2437 14.1838L81.325 13.392C81.3641 13.0106 81.4013 12.6125 81.2641 12.2544C81.127 11.8962 80.7576 11.5955 80.3814 11.6708C80.0803 11.7312 79.8923 11.9867 79.7023 12.245C79.5294 12.4799 79.355 12.7171 79.0922 12.8117C78.8015 12.9164 78.7868 13.316 78.8251 13.6224C78.838 13.7254 78.8533 13.8341 78.918 13.9154C78.9827 13.9966 79.115 14.0334 79.1914 13.963C79.1721 13.5202 79.4631 13.1312 79.7395 12.7846C79.8795 12.6091 80.026 12.4282 80.2267 12.3273ZM53.9641 29.4423C54.5317 28.9416 55.3171 28.7765 56.07 28.6962C58.714 28.414 61.4413 28.9703 63.7633 30.2653C63.8091 30.2909 63.855 30.3168 63.901 30.3428C64.3251 30.5821 64.7596 30.8274 65.2421 30.8573C65.3936 30.8667 65.545 30.8543 65.6964 30.8418C65.8289 30.8309 65.9613 30.82 66.0939 30.8237C66.4112 30.8325 66.7075 30.8796 67.0006 30.9262C67.5501 31.0135 68.0881 31.0991 68.7311 30.9269C69.6523 30.6803 69.7879 30.922 69.8859 31.4168C69.9838 31.9115 69.627 32.4117 69.1683 32.6221C68.7097 32.8325 68.179 32.8108 67.6807 32.7309C67.5365 32.7078 67.3927 32.6801 67.2489 32.6525C66.8958 32.5846 66.5428 32.5167 66.1842 32.516C65.4748 32.5147 64.7703 32.7722 64.0768 33.0257C63.0967 33.384 62.1385 33.7343 61.219 33.3345C60.8936 33.1931 60.5194 33.2934 60.1795 33.3952L56.5868 34.4709C55.6977 34.7372 54.7783 35.0063 53.8563 34.9006C53.1242 34.8166 52.4487 34.5033 51.7734 34.19C51.0926 33.8743 50.4119 33.5586 49.6736 33.4779C49.0515 33.4099 48.4214 33.513 47.7945 33.6156C46.9964 33.7462 46.2036 33.8759 45.4394 33.6505C45.481 33.4536 45.6962 33.3538 45.8848 33.2833C47.0365 32.853 48.2073 32.4184 49.4333 32.326C49.6351 32.3108 49.8412 32.3039 50.0479 32.2971H50.0479H50.048H50.048H50.048H50.0481H50.0481H50.0481C50.7973 32.2721 51.5554 32.2468 52.1545 31.8237C52.5927 31.5143 52.8643 31.0452 53.1371 30.5742C53.3748 30.1637 53.6135 29.7516 53.9641 29.4423ZM61.8221 32.9097C62.5671 33.1221 63.2845 32.7996 64.0158 32.4709C64.5241 32.2424 65.039 32.0109 65.5746 31.954C66.0968 31.8985 66.616 32.0126 67.1348 32.1265C67.676 32.2454 68.2166 32.3642 68.7594 32.2902C69.1433 32.2378 69.5965 31.8802 69.3944 31.5499C69.2764 31.357 69.0104 31.3335 68.7842 31.3313L65.0965 31.2952C64.6968 31.2913 64.2633 31.2759 63.953 31.024C63.3071 30.4996 62.5207 30.1784 61.7276 29.9267C60.643 29.5826 59.521 29.3545 58.3872 29.2573C57.1494 29.1512 55.8984 29.2014 54.6731 29.4064L53.231 31.2779C52.6409 32.0437 51.8496 32.8948 50.8955 32.7367C49.6504 32.5305 48.3415 32.7288 47.2135 33.2947C48.3479 32.9201 49.6038 32.9242 50.7357 33.306C51.0676 33.4179 51.3879 33.5608 51.7082 33.7037L51.7082 33.7038C52.0813 33.8702 52.4543 34.0367 52.8451 34.1539C54.6511 34.6957 56.5906 34.132 58.3556 33.469L58.419 33.4452C59.5171 33.0325 60.6973 32.5889 61.8221 32.9097ZM51.5355 48.2967C52.1726 47.5308 52.7922 46.7861 53.7415 46.7502C55.2185 46.6942 56.6686 46.1664 57.8589 45.2905C58.1476 45.0781 58.4352 44.8259 58.5395 44.4832C58.6439 44.1405 58.4819 43.6957 58.1321 43.6173C57.4543 43.4655 57.1957 42.7594 56.9413 42.0651C56.8599 41.8427 56.7789 41.6216 56.6847 41.4202C56.2832 40.562 55.4464 39.9213 54.5127 39.7575C54.1589 39.6954 53.7989 39.6982 53.4386 39.7011C53.1194 39.7036 52.8 39.7061 52.4845 39.6635C51.813 39.5727 51.0955 39.179 50.9727 38.513C50.6622 36.829 48.7464 35.6344 47.0965 36.0959C46.6267 36.2273 46.2275 35.9247 45.8157 35.6125C45.4906 35.3661 45.1575 35.1137 44.7756 35.064C44.4436 35.0208 44.1141 35.139 43.8002 35.2553C43.0923 35.5175 42.3653 35.791 41.8071 36.299C41.2489 36.807 40.8929 37.6125 41.13 38.3289C41.2713 38.756 40.9189 39.1871 40.5464 39.4396C40.4695 39.4917 40.3895 39.5418 40.3093 39.5921L40.3093 39.5922L40.3092 39.5922C40.0007 39.7855 39.6882 39.9814 39.5322 40.3025C39.2972 40.7864 39.5129 41.3701 39.8148 41.8155C40.147 42.3055 40.589 42.7453 41.0272 43.1813C41.8689 44.0187 42.6961 44.8418 42.702 45.9789L37.9688 45.6009C37.4296 45.5579 36.8145 45.5413 36.4343 45.9258C36.207 46.1558 36.11 46.2296 36.013 46.3034C35.819 46.4511 35.6249 46.5987 34.3884 47.9955C33.7891 48.6724 33.1399 49.7568 33.7588 49.9561C34.3833 50.1573 35.8452 49.3507 36.8584 48.7918L36.8584 48.7917L36.8585 48.7917C37.3889 48.4991 37.7963 48.2743 37.896 48.2976C37.7394 48.3922 36.137 49.2248 35.1158 49.7553C34.65 49.9974 34.3052 50.1765 34.2737 50.1942C33.6827 50.5247 32.8863 51.7679 33.4501 52.3141C33.8838 52.7343 34.664 52.3775 34.8013 51.8374C34.7926 51.9058 34.7695 51.9892 34.7448 52.0783C34.6441 52.4408 34.5177 52.8961 35.2411 52.8022C36.0506 52.6972 36.385 52.5465 37.0462 52.2486C37.121 52.2149 37.1999 52.1793 37.2842 52.1417C36.9162 52.4742 36.4582 52.6619 35.9826 52.8568C35.6959 52.9743 35.4027 53.0944 35.119 53.2505C34.6248 53.5224 34.6248 54.413 36.4351 54.3156C36.743 54.299 37.0515 54.2791 37.3606 54.2592C38.6083 54.1789 39.8632 54.098 41.1077 54.2328C41.728 54.2999 42.3739 54.41 42.8697 54.7885C43.4615 55.2403 43.7307 55.9858 43.9836 56.6863L43.9871 56.6961C46.175 62.7558 49.4096 68.3743 52.6362 73.9511C53.7012 75.7919 54.994 77.8054 57.0704 78.2692C51.5681 71.5761 47.2533 63.9109 44.3864 55.7361C44.0545 54.7897 43.1573 54.1301 42.201 53.8265C41.2448 53.5229 40.2226 53.5212 39.2192 53.5224C38.5832 53.5231 38.0664 53.6153 37.5661 53.7045C36.9084 53.8218 36.2793 53.934 35.4456 53.8265C34.7739 53.7399 35.3424 53.505 36.1496 53.1715C36.963 52.8355 38.0188 52.3993 38.2927 51.9136C37.9773 51.4125 37.2008 51.6279 36.7046 51.9513C36.2084 52.2747 34.6721 52.7744 35.0427 52.1417C35.5017 51.3582 36.3187 50.9347 37.142 50.5079C37.4022 50.373 37.663 50.2378 37.9134 50.0908C38.1868 49.9302 37.9816 49.4531 37.6679 49.406C37.3543 49.3589 37.0657 49.5677 36.8174 49.7649C36.5436 49.9822 36.2311 50.2971 35.9085 50.6222C35.1508 51.3857 34.3372 52.2057 33.8375 51.9513C32.7511 51.398 36.2038 49.5715 38.116 48.5598L38.1161 48.5598L38.3097 48.4573L38.4684 48.3732C38.0343 47.6263 36.8699 47.9941 36.2151 48.5577L36.1117 48.647C35.4786 49.1949 34.7349 49.8385 33.9677 49.5516C33.5117 49.381 34.1719 48.8395 34.8321 48.298C35.1622 48.0273 35.4923 47.7565 35.6828 47.5322C36.003 47.1552 36.3334 46.7698 36.7674 46.5325C37.2985 46.2422 37.9277 46.2042 38.533 46.1987C40.0398 46.1851 41.5481 46.3335 43.0233 46.6408C45.1701 48.0624 47.0262 49.9205 48.445 52.0684C51.7573 57.083 55.0014 62.1422 58.2454 67.2012C58.2828 67.2596 58.3508 67.3718 58.4404 67.5197C58.9168 68.3067 60.0037 70.102 60.3446 70.1446C60.7216 70.1917 61.112 69.8775 61.3884 69.6335L74.6475 61.3846C76.803 60.0437 79.1881 58.6489 81.706 58.9751C85.785 59.5035 89.9229 59.9838 93.9995 59.4366C98.076 58.8895 102.145 57.202 104.786 54.0508C100.013 57.8504 93.7481 59.723 87.6718 59.166C86.8446 59.0902 86.0107 58.9721 85.1759 58.854C82.6586 58.4976 80.1332 58.1401 77.7579 58.9356C77.1472 59.1401 76.5279 59.418 75.9073 59.6966C74.1515 60.4847 72.3856 61.2773 70.7758 60.4236C69.3138 59.6484 67.4849 60.0496 66.0303 60.8385C64.5756 61.6274 62.7435 62.7046 64.0173 64.0704C65.291 65.4362 62.6312 64.8134 61.1461 64.0834C59.661 63.3533 59.3131 60.8068 60.83 59.7753C60.151 60.5467 60.1737 62.0919 61.166 62.3604C62.1582 62.6288 63.2012 62.1394 64.0173 61.5146C64.941 60.8074 64.8121 59.8971 64.6968 59.0834C64.5735 58.2133 64.4659 57.4535 65.6774 57.1703C66.5073 56.9763 67.3629 57.0364 68.2197 57.0965C69.0012 57.1513 69.7838 57.2063 70.549 57.0685C71.8111 56.8413 72.8842 56.1251 73.9639 55.4044C74.6385 54.9541 75.3157 54.5021 76.0433 54.1665C77.9361 53.2935 80.0818 53.244 82.1732 53.1956C82.2962 53.1928 82.419 53.1899 82.5415 53.1869C86.366 53.0933 90.2651 52.7718 93.7882 51.2818C97.3114 49.7918 100.443 46.9547 101.434 43.2617C102.249 40.2218 101.478 36.8023 99.4369 34.4058C97.3956 32.0094 94.1411 30.7029 91.0083 31.0222C89.372 31.1889 87.7909 31.7641 86.2195 32.3357C84.0638 33.1198 81.9263 33.8973 79.6891 33.6053C76.4363 33.1808 73.9402 30.6149 71.7228 28.1988C74.3665 28.6038 77.1225 28.2491 79.5773 27.1878C80.8279 26.6472 81.9977 25.9302 83.1653 25.2146C84.7607 24.2368 86.3519 23.2615 88.1394 22.7419C92.5756 21.4523 97.5166 23.3203 100.757 26.6117C103.997 29.9031 105.744 34.403 106.667 38.9274C107.268 41.8756 107.553 44.8724 107.838 47.8702C107.991 49.4729 108.143 51.0759 108.344 52.6719C108.445 53.4757 108.558 54.2846 108.672 55.0962L108.672 55.0972C109.334 59.8379 110.009 64.6708 108.418 69.128C107.059 72.9352 104.197 75.9848 101.389 78.8933C97.5733 82.8447 93.6411 86.8143 88.8204 89.4492C84.3609 91.8867 79.3251 93.0752 74.2982 93.8273C70.3552 94.4171 66.3612 94.7551 62.3796 94.5504C54.0495 94.1222 46.0398 91.345 38.2012 88.4952C35.3843 87.471 32.4411 86.4171 29.4645 86.7702C27.9354 86.9516 26.4495 87.4993 24.9745 88.0429C22.7853 88.8497 20.6202 89.6477 18.3741 89.2262C16.3097 88.8387 14.6304 87.4905 12.9524 86.1433C11.2495 84.7761 9.54794 83.41 7.44669 83.0506C9.3252 82.7401 11.1772 83.6035 12.9977 84.4522C15.1001 85.4324 17.1605 86.393 19.1711 85.5029C26.4813 82.2669 34.8868 83.3238 42.8034 84.4421L52.5365 85.817C53.901 86.0097 55.2516 85.7022 56.6083 85.3932L56.6084 85.3932C57.4068 85.2113 58.2074 85.029 59.0142 84.9479C61.1048 84.7376 63.1629 85.2083 65.2273 85.6804C66.3188 85.93 67.4122 86.18 68.5131 86.33C76.7604 87.4536 85.4386 82.1951 88.2555 74.3671C88.6239 73.3436 88.9202 72.2593 89.217 71.1732C90.0733 68.0395 90.9338 64.8907 93.5405 63.1408C93.813 62.9578 94.1058 62.7883 94.3996 62.6181C95.3234 62.0832 96.2561 61.5431 96.5912 60.5674C94.1235 61.3763 91.9673 63.0991 90.6344 65.3267C89.6971 66.8933 89.1764 68.6498 88.6552 70.4081C88.4168 71.2122 88.1784 72.0167 87.8999 72.8036C85.3281 80.0706 78.3149 86.1405 70.6157 85.6854C69.0667 85.5938 67.5425 85.2528 66.0208 84.9123C64.1177 84.4865 62.2184 84.0615 60.2788 84.1263C59.1968 84.1625 58.1298 84.3512 57.0621 84.5399C56.1907 84.694 55.3188 84.8481 54.4382 84.9194C51.5402 85.1543 48.6532 84.489 45.8219 83.8282C52.1979 82.2569 58.6591 81.0307 65.1677 80.1568C69.9588 79.5135 75.4777 78.6294 77.931 74.4664C79.6808 71.4972 82.5286 69.4429 85.374 67.3904L85.3741 67.3903C88.281 65.2935 91.1854 63.1984 92.9143 60.1313C84.7064 68.3666 72.8858 75.444 55.8426 78.9236C55.7246 78.9466 55.6083 78.9701 55.4938 78.9941C55.6103 78.9708 55.7266 78.9473 55.8426 78.9236C57.0208 78.6941 58.3685 78.5167 59.8347 78.3237L59.8349 78.3237C65.4757 77.5811 72.8692 76.6078 79.1026 71.5539C78.0322 73.9902 76.1174 76.0463 73.7627 77.288C71.6719 78.3904 69.3097 78.844 66.9871 79.2841L52.5459 82.0203C48.0767 82.8671 43.543 83.7178 39.0085 83.3572C37.7492 83.257 36.4919 83.0638 35.236 82.8707C32.7951 82.4955 30.3593 82.121 27.9238 82.4328C26.3324 82.6364 24.8028 83.1271 23.2713 83.6183L23.2712 83.6184C22.3228 83.9226 21.3737 84.2271 20.4087 84.4638C17.8855 85.0826 15.024 85.175 12.8897 83.6944C8.67209 80.7684 1.96052 82.7417 0 87.484C2.24012 84.7738 6.2888 83.7326 9.55958 85.0257C10.8951 85.5536 12.0766 86.4141 13.2528 87.2706C14.7572 88.3662 16.2528 89.4553 18.0502 89.8339C20.4935 90.3486 22.9646 89.4503 25.41 88.5614C28.1526 87.5644 30.863 86.5792 33.4658 87.6121C42.287 91.1125 51.4482 93.9934 60.9012 94.8412C70.3543 95.689 80.1657 94.4046 88.5527 89.9642C92.8556 87.6861 96.7033 84.6303 100.278 81.326C103.65 78.2099 106.881 74.7359 108.518 70.4482C110.322 65.7239 110.02 60.4939 109.692 55.4478C109.095 46.2644 108.358 36.6346 103.383 28.8907C101.712 26.29 99.5435 23.9362 96.8059 22.4987C94.0684 21.0611 90.7124 20.628 87.8466 21.7895C86.2623 22.4316 84.8403 23.3862 83.4164 24.342C82.636 24.8659 81.8551 25.3901 81.0467 25.8634C77.9754 27.6616 74.3419 28.4146 70.9253 27.4166C69.6508 27.0443 68.4449 26.4827 67.2389 25.9209C66.0934 25.3874 64.9476 24.8537 63.7426 24.4821C61.4648 23.7796 59.0374 23.6778 56.661 23.8652C47.4719 24.5902 38.7076 29.856 33.9344 37.7371C29.1611 45.6181 28.5835 55.9314 32.6333 64.2071C36.6831 72.4828 45.2979 78.3936 54.496 78.9941C53.3542 78.2865 52.03 78.021 50.7003 77.7544C49.9498 77.604 49.1976 77.4531 48.4753 77.2223C46.4734 76.5823 44.4612 74.7517 44.9654 72.7124C45.3979 70.9633 43.8486 69.3566 42.2835 68.4623C41.9788 68.2882 41.6636 68.1213 41.3472 67.9537L41.3471 67.9537C40.0381 67.2605 38.7074 66.5558 38.0086 65.284C36.5032 62.5444 38.8496 59.3459 41.0343 57.1095C38.6039 58.5042 36.7968 60.9422 36.17 63.6723C37.6315 66.2056 39.9655 68.2252 42.6833 69.3085C44.0787 71.1281 44.7564 73.4828 44.5417 75.7654C36.5876 70.9097 31.1681 62.1294 30.3951 52.8463C30.2106 50.6301 30.2916 48.3217 31.2216 46.3014C33.3062 41.773 35.4476 37.1705 38.798 33.478C43.8742 27.8834 51.6366 24.8409 59.1648 25.495C66.693 26.1492 73.8136 30.4849 77.8476 36.871C76.3762 36.0594 74.856 35.2317 73.186 35.0438C71.516 34.8558 69.6397 35.4653 68.8245 36.9341C68.2074 38.0462 66.5256 37.1673 65.6367 36.2574C64.7479 35.3476 62.9408 34.6204 62.4879 35.8087L62.9417 38.4092C61.2145 37.5578 59.1156 40.1358 60.3007 41.6529C60.7031 42.1681 61.3131 42.4697 61.9017 42.7545C65.1983 44.3495 69.0364 45.9647 72.3843 44.4802C74.1022 43.7184 75.9882 43.338 77.8673 43.3741C78.3202 43.3829 78.7924 43.4213 79.1805 43.6546C79.4844 43.8373 79.7036 44.1181 79.9238 44.4003L79.9239 44.4004C80.0719 44.59 80.2204 44.7804 80.3955 44.942C80.8312 45.344 81.6599 45.4762 81.9283 44.9477C82.636 46.2095 83.3575 47.512 83.537 48.9473C83.7166 50.3827 83.2242 52.0009 81.9795 52.7389C80.7347 53.4769 78.7733 52.8552 78.5236 51.4304C78.2856 50.072 76.8901 49.7285 75.4276 49.3684C74.1893 49.0636 72.9029 48.7469 72.2301 47.7924C71.5235 46.7901 70.0727 46.5886 68.8922 46.9224C68.0274 47.1669 67.2538 47.6338 66.4805 48.1005L66.4804 48.1005C66.1982 48.2709 65.916 48.4412 65.6294 48.6007C65.1743 48.8539 64.7013 49.0838 64.2284 49.3137L64.2283 49.3137C63.0333 49.8946 61.839 50.4752 60.9349 51.4314C59.673 52.7659 59.3229 55.2289 60.83 56.279C61.3936 56.6716 65.6294 60.1313 63.3 61.3039C59.8276 63.0519 60.7793 59.929 61.1452 59.3738C59.4699 59.5734 58.7053 61.9059 59.6133 63.327C60.5214 64.7481 62.5551 65.6353 64.2052 65.284C65.0226 65.11 64.7823 64.673 64.4991 64.1581C64.2107 63.6336 63.8778 63.0283 64.5737 62.538C64.4403 63.0447 64.9451 63.2193 65.5046 63.4129C65.9424 63.5644 66.4137 63.7275 66.6387 64.0704C67.0444 64.6888 66.4147 65.452 65.8414 65.9195L61.631 69.3526C61.5739 69.383 61.5014 69.4278 61.4187 69.4787C61.1112 69.6685 60.6632 69.9449 60.3446 69.8921C60.076 69.8475 57.2639 64.9264 56.6925 62.3983C56.6265 62.1065 56.5751 61.8069 56.5238 61.5079L56.5238 61.5077C56.3386 60.429 56.1549 59.3584 55.2952 58.691C54.8669 58.3586 54.3604 58.1087 53.8582 57.861C52.9724 57.424 52.0999 56.9936 51.6938 56.1281C51.408 55.5193 50.9867 54.9922 50.5648 54.4644C50.2014 54.0097 49.8375 53.5545 49.5595 53.046C48.959 51.9474 48.9433 50.3051 50.0429 49.7054C50.6298 49.3853 51.087 48.8358 51.5355 48.2967ZM48.6718 36.7086C49.5377 36.7407 50.0321 37.6819 50.3616 38.4829C50.6911 39.2838 51.2352 40.214 52.1011 40.1829C52.9509 40.1524 53.8188 40.1241 54.633 40.3693C55.4471 40.6145 56.2124 41.187 56.4576 42.0007C56.5046 42.1569 56.5358 42.3248 56.5668 42.4926L56.5669 42.4927C56.6471 42.9257 56.7272 43.3582 57.0809 43.5868C57.1562 43.6355 57.2441 43.6761 57.3316 43.7164C57.5481 43.8163 57.7629 43.9154 57.7844 44.1361C57.795 44.2454 57.7471 44.3515 57.6932 44.4471C57.1396 45.4293 55.9378 45.8259 54.8275 46.0244C54.6675 46.053 54.5058 46.0797 54.3436 46.1065C53.3803 46.2657 52.3977 46.428 51.6268 47.0088C51.241 47.2994 50.9361 47.676 50.6308 48.0531C50.3698 48.3755 50.1085 48.6982 49.7961 48.968C49.6756 49.0721 49.5476 49.1681 49.4198 49.2641C49.1804 49.4439 48.9414 49.6234 48.7528 49.8542C48.4635 50.2082 48.3234 50.7477 48.5915 51.118C47.4195 49.5278 45.9853 48.1311 44.3643 47.0015C43.9244 46.6949 43.424 46.3319 43.3855 45.7973C43.2906 44.4809 42.2351 43.4976 41.2535 42.5832C41.1704 42.5058 41.0878 42.4289 41.0063 42.3523C40.5386 41.9123 40.0539 41.2882 40.2922 40.6921C40.4275 40.3538 40.7512 40.1545 41.0744 39.9555C41.4025 39.7534 41.7302 39.5517 41.8595 39.2051C41.9616 38.9316 41.9109 38.6409 41.8596 38.3474C41.8201 38.1208 41.7802 37.8925 41.8102 37.6691C41.8613 37.2878 42.017 37.1885 42.4042 36.9414C42.6678 36.7732 43.0386 36.5366 43.5568 36.096C44.3429 35.4276 45.4658 35.9324 46.4381 36.3694C47.0484 36.6437 47.5994 36.8914 47.9704 36.8054C48.1997 36.7523 48.4354 36.6999 48.6718 36.7086ZM54.7594 58.9357C55.3118 59.5647 55.8888 60.2457 55.9987 61.0753C56.0547 61.4981 55.98 61.9373 55.7873 62.3178L53.2894 58.4282C53.2624 58.3862 53.2344 58.3348 53.2546 58.2891C53.2873 58.2147 53.3978 58.2376 53.4711 58.2727L54.4978 58.7641C54.5926 58.8094 54.6901 58.8568 54.7594 58.9357ZM81.0506 39.7057C81.0284 39.9145 81.1029 40.1315 81.2487 40.2827C81.4389 40.3781 81.6403 40.2862 81.8448 40.1928C81.9401 40.1493 82.036 40.1055 82.1318 40.0801C82.3073 40.0337 82.4926 40.0513 82.6732 40.0692L84.8923 40.2893C85.0289 40.078 84.7492 39.8436 84.5119 39.7597C83.4047 39.3682 82.1694 39.3489 81.0506 39.7057ZM93.1429 43.7019C92.2399 45.0864 90.8271 46.1306 89.238 46.588L89.2238 46.9441C90.994 46.5491 92.6016 45.4678 93.6341 43.9775C93.7531 43.8058 93.8506 43.538 93.6798 43.4177C93.4936 43.2866 93.2673 43.5112 93.1429 43.7019ZM89.5735 40.1751C89.357 40.1149 89.0643 40.0591 88.9593 40.2578C89.3363 40.6001 89.7596 40.9619 90.2686 40.9772C90.6328 40.9882 90.9746 40.817 91.2984 40.6501C92.0601 40.2576 92.8284 39.8608 93.4879 39.3139C93.4628 39.083 93.1615 38.9757 92.9412 39.0496C92.7583 39.1109 92.6176 39.25 92.4788 39.3872L92.4784 39.3876L92.4783 39.3876L92.438 39.4274C92.4233 39.4418 92.4085 39.4561 92.3937 39.4703C91.6601 40.1691 90.5499 40.4466 89.5735 40.1751ZM87.5523 44.8781C87.611 44.975 87.6838 45.0777 87.7943 45.1032C87.8732 45.1214 87.9548 45.0957 88.0316 45.0703L89.2317 44.6741C89.2317 44.5326 89.0804 44.4346 88.9395 44.4205C88.8606 44.4126 88.7817 44.422 88.7027 44.4313C88.6406 44.4387 88.5784 44.446 88.5161 44.445C88.0357 44.4374 87.7017 43.9506 87.5816 43.4857C87.5398 43.3237 87.5126 43.157 87.4856 42.9906L87.4856 42.9905L87.4855 42.9904C87.4349 42.6792 87.3845 42.3689 87.238 42.0923C86.9613 42.079 86.8607 42.4534 86.8783 42.7296C86.9267 43.4859 87.16 44.2296 87.5523 44.8781ZM84.1431 42.2286C84.4249 41.9244 84.8462 41.5197 85.1684 41.7808C84.6201 42.8552 83.425 43.566 82.2185 43.5352C82.8861 44.7959 83.3167 46.1815 83.4814 47.5985C83.5103 47.8474 83.6698 48.0596 83.8309 48.2515C84.6438 49.2194 85.6884 50.0371 86.9105 50.361C89.172 50.9602 91.6031 49.7259 93.0797 47.9122C94.5564 46.0985 95.2728 43.7995 95.9292 41.5551C96.1187 40.9072 96.4001 40.1607 97.0506 39.9791C97.7538 39.7829 98.3395 39.2098 98.5507 38.5113C98.7619 37.8128 98.5918 37.0114 98.115 36.4588C97.5759 35.834 96.4135 35.6543 96.0026 36.3699C95.8429 36.648 95.4528 36.7126 95.1478 36.6132C94.901 36.5328 94.6923 36.3729 94.4848 36.2139L94.4847 36.2139C94.4359 36.1764 94.387 36.139 94.3378 36.1027C92.7389 34.9239 90.6056 34.8567 88.6189 34.8362C87.9901 34.8297 87.3536 34.8241 86.7425 34.9724C86.0308 35.1452 85.3958 35.5151 84.759 35.8859C84.2655 36.1734 83.7709 36.4614 83.2388 36.6588C81.6805 37.2369 79.8323 36.9536 78.5191 35.9354C79.9453 38.1916 81.1361 40.5965 82.0659 43.0983C82.8396 43.122 83.6173 42.7964 84.1431 42.2286ZM62.9107 35.926C62.9935 36.1917 63.1164 36.4455 63.2389 36.6985C63.4304 37.0941 63.6209 37.4877 63.6556 37.9213C63.7125 38.6324 62.9664 39.446 62.3635 39.0642C61.7376 38.6679 60.8137 39.0398 60.5219 39.7204C60.2301 40.401 60.5064 41.2381 61.0627 41.7272C61.4825 42.0963 62.0242 42.2897 62.5517 42.4751C63.1893 42.6991 63.9076 43.0012 64.6536 43.3149C66.5363 44.1067 68.5949 44.9724 69.9748 44.8437C70.6659 44.7792 71.9536 44.025 72.3919 43.7532C73.2278 43.235 74.1962 42.6957 75.1422 42.9652C76.3337 43.3047 77.6464 43.2005 78.7693 42.6771C79.317 42.4219 79.8248 43.0915 80.0491 43.6523C80.2734 44.2132 80.7201 44.9039 81.2929 44.7115C81.6088 44.6053 81.7788 44.2424 81.7688 43.9094C81.7588 43.5764 81.6091 43.2656 81.4624 42.9664L78.7975 37.531C78.0863 37.73 77.4553 37.3179 76.8058 36.8936C76.3641 36.6051 75.9138 36.311 75.4239 36.1998C75.1781 36.144 74.9252 36.1361 74.6723 36.1281C74.4091 36.1199 74.1461 36.1117 73.8913 36.0495C73.6185 35.983 73.3642 35.8568 73.1106 35.7309L73.1105 35.7309C72.8013 35.5774 72.4931 35.4244 72.1536 35.3806C71.4248 35.2866 70.7293 35.7187 70.1984 36.2264C70.024 36.3933 69.8586 36.5708 69.6934 36.7482C69.3557 37.1106 69.0184 37.4725 68.6054 37.7422C67.9902 38.1438 67.1175 38.288 66.5475 37.8244C66.3271 37.6452 66.1799 37.4002 66.0323 37.1546C65.9593 37.033 65.8862 36.9113 65.804 36.7973C65.1713 35.9191 63.9237 35.5434 62.9107 35.926ZM60.549 54.4246C60.7967 55.1625 61.3049 55.8086 61.8804 56.3329C62.0061 56.4475 62.1493 56.5581 62.2936 56.6695L62.2936 56.6696C62.7671 57.0354 63.2522 57.4101 63.1701 57.9623C64.2374 56.8348 65.8336 56.2302 67.3805 56.3673C67.6338 56.3898 67.8849 56.4309 68.136 56.4719C68.405 56.516 68.674 56.56 68.9456 56.5811C70.8744 56.7308 72.6841 55.7304 74.3589 54.7627L77.9674 52.6777C78.2462 52.0987 78.0304 51.3757 77.5998 50.8987C77.1691 50.4217 76.5636 50.144 75.9637 49.9131C75.3135 49.6628 74.6364 49.45 73.9397 49.4358C73.8741 49.4344 73.8065 49.4338 73.7377 49.4331L73.7367 49.4331C73.0933 49.4268 72.3466 49.4196 72.1248 48.8473C71.7989 48.0064 71.0033 47.3655 70.1118 47.2258C69.2203 47.0861 68.2666 47.4529 67.6988 48.1538C67.1742 48.8014 66.3527 49.0933 65.5582 49.3756C65.4625 49.4096 65.3672 49.4435 65.2729 49.4778C64.2095 49.8647 63.1873 50.3644 62.229 50.9658C61.4254 51.47 60.5944 52.1734 60.549 53.1206C60.544 53.2249 60.5329 53.3371 60.5216 53.4526L60.5216 53.4527V53.4528C60.4891 53.7832 60.4539 54.1413 60.549 54.4246ZM96.8759 48.7541C98.3768 47.5847 99.6909 46.1277 100.465 44.39C101.239 42.6523 101.433 40.6149 100.761 38.8355C100.361 37.7775 99.6772 36.849 98.924 36.005C97.6163 34.5397 95.905 33.2207 93.9406 33.1934C93.2856 33.1843 92.6383 33.3207 91.9975 33.4565L88.2813 34.2441C90.3868 34.2048 92.4988 34.5477 94.4836 35.2511L94.4997 35.2568C94.9465 35.4152 95.4349 35.5883 95.8776 35.4222C96.9651 35.0142 98.3097 35.467 98.9284 36.4495C99.5471 37.432 99.374 38.8394 98.5355 39.6428C98.366 39.8053 98.1753 39.9432 97.9846 40.0811C97.7737 40.2336 97.5629 40.386 97.3812 40.5713C96.8382 41.1249 96.6164 41.8986 96.4008 42.6506C96.376 42.7372 96.3513 42.8235 96.3261 42.9092C95.0411 47.2871 91.6892 51.2937 87.224 52.2432C90.7008 52.1323 94.1325 50.8917 96.8759 48.7541ZM92.8234 32.9724C93.961 32.8468 95.1424 32.7325 96.2251 33.1035C97.2156 33.4429 98.0259 34.1558 98.8078 34.8518L99.9394 35.859C98.2521 33.1724 95.1345 31.4443 91.9607 31.4363C90.4345 31.4325 88.9275 31.7987 87.4896 32.3096C87.0321 32.4722 86.5802 32.6495 86.1283 32.8267L86.1262 32.8275C85.9727 32.8877 85.8193 32.9479 85.6656 33.0075C83.9862 33.659 82.246 34.2481 80.445 34.292C78.6441 34.336 76.7519 33.763 75.5618 32.4114C75.5092 32.3518 75.4574 32.2902 75.4053 32.2284C75.1518 31.9274 74.8932 31.6203 74.5257 31.4984C75.5795 32.8558 76.6554 34.2346 78.0626 35.2215C79.4698 36.2084 81.2843 36.7622 82.9339 36.2785C83.6807 36.0595 84.3447 35.6476 85.0095 35.2351C85.3123 35.0472 85.6152 34.8593 85.9262 34.6894C88.0193 33.5461 90.4525 33.2341 92.8234 32.9724ZM67.3433 64.4769C67.4101 64.7598 67.7253 65.0433 67.9641 64.8772C69.2117 64.0097 70.4638 63.1393 71.8154 62.4446C71.9607 62.3699 72.1077 62.2969 72.2549 62.2237L72.255 62.2236C72.99 61.8583 73.7311 61.49 74.2958 60.902C73.4738 61.3021 72.5029 61.2412 71.6075 61.0563C71.3216 60.9972 71.0376 60.9264 70.7536 60.8556C70.1481 60.7047 69.5431 60.5539 68.9217 60.5174C68.1399 60.4714 67.3477 60.6115 66.6291 60.9228C66.1968 61.1101 65.7721 61.3779 65.5506 61.7935C65.329 62.2091 65.3816 62.7975 65.7687 63.066C65.9487 63.1908 66.1759 63.2365 66.3996 63.2815C66.6944 63.3409 66.983 63.3989 67.1488 63.6353C67.2592 63.7928 67.2794 63.9864 67.2998 64.1813C67.3102 64.281 67.3207 64.3811 67.3433 64.4769ZM86.1349 51.1068C85.7842 50.896 85.5002 50.5926 85.2212 50.2934L83.8517 48.8246L84.0115 51.2541C84.0269 51.489 84.0415 51.731 83.9666 51.9542C83.8918 52.1774 83.7045 52.3799 83.4697 52.3987C83.3461 52.4087 83.3432 52.6148 83.4496 52.6783C83.5561 52.7419 83.6916 52.7067 83.81 52.6699L87.0401 51.6637C87.2403 51.6013 87.4471 51.5353 87.6036 51.3958C87.1004 51.4732 86.5712 51.3691 86.1349 51.1068ZM92.9724 37.0797C91.9043 37.0088 90.8405 37.2274 89.7923 37.4448C89.5181 37.5017 89.2417 37.5592 88.9845 37.6698C88.3844 37.9276 87.9434 38.4465 87.5252 38.9479C87.4631 39.0224 87.3972 39.1084 87.4073 39.2048C87.4244 39.3688 87.6558 39.4269 87.8002 39.3472C87.92 39.281 87.9956 39.1618 88.0698 39.0445C88.085 39.0205 88.1002 38.9966 88.1156 38.9733C88.6651 38.1432 89.7479 37.8884 90.7259 37.7006C91.5544 37.5415 92.4077 37.3822 93.2357 37.5441C93.3802 37.5724 93.4618 37.3484 93.3726 37.2312C93.2834 37.114 93.1194 37.0895 92.9724 37.0797Z" fill="#00160A"/>
</g>
<defs>
<clipPath id="clip0_614_6690">
<rect width="125" height="99" fill="white"/>
</clipPath>
</defs>
</svg>
