<svg width="72" height="72" viewBox="0 0 72 72" fill="none" xmlns="http://www.w3.org/2000/svg">
<g clip-path="url(#clip0_1005_6346)">
<path fill-rule="evenodd" clip-rule="evenodd" d="M39.5517 7.03532C39.3782 7.10507 39.1094 7.37001 38.9546 7.62398C38.1391 8.9616 39.2456 10.7034 40.4989 10.0552C41.5915 9.49035 41.6185 7.5344 40.5406 7.04319C40.1484 6.8646 39.9799 6.86319 39.5517 7.03532ZM45.0804 40.0178C44.9589 40.1394 44.8594 40.2992 44.8594 40.3729C44.8594 40.5294 45.6626 42.1542 46.3655 43.4202L46.8549 44.3012L47.3111 43.9124L47.7674 43.5234L46.884 41.7486C45.9133 39.7983 45.6004 39.4979 45.0804 40.0178ZM27.211 44.9512C26.688 45.2256 25.5938 46.2659 25.5938 46.4889C25.5938 46.5795 25.384 47.0704 25.1277 47.5798L24.6616 48.5059L25.2056 48.7236C25.7437 48.9389 25.753 48.9371 26.0819 48.5461C26.2647 48.3289 26.7517 47.9642 27.1642 47.7357L27.9141 47.3203L30.4454 47.3235C33.3009 47.3271 33.6062 47.4109 34.617 48.4685C35.9413 49.8544 36.1289 51.4145 34.9573 51.3001C34.6004 51.2653 34.4584 51.1371 34.1563 50.5769C33.3899 49.1559 32.5088 48.674 31.1925 48.9563C30.721 49.0574 30.2972 49.0527 29.7558 48.9403C28.8987 48.7624 28.148 48.8983 27.5883 49.3328C27.2639 49.5846 27.2712 49.5884 29.3461 50.2418C32.6254 51.2744 36.3533 52.0859 38.3204 52.1952L39.1641 52.2422L39.1255 51.6094C39.0367 50.1598 38.2419 48.8108 37.1799 48.3068C36.8957 48.1719 36.2459 48.0098 35.7358 47.9465C34.7179 47.8202 34.6446 47.762 33.998 46.5635C33.7617 46.1256 33.3853 45.6996 33.0232 45.4603C32.4854 45.1049 32.3139 45.0695 31.0878 45.0605C30.3477 45.0551 29.5641 44.9759 29.3464 44.8847C28.7952 44.6536 27.7143 44.6872 27.211 44.9512ZM52.3126 53.6103C52.0419 53.6839 51.8007 53.7632 51.7768 53.7867C51.7364 53.8262 53.6809 57.7921 53.8069 57.9275C53.9097 58.038 54.8438 57.5228 54.8438 57.3556C54.8438 57.1814 53.0653 53.709 52.9011 53.5625C52.8481 53.5153 52.5833 53.5368 52.3126 53.6103ZM55.0309 59.1619L54.5851 59.3841L55.0286 60.2835C55.3329 60.9006 55.5728 61.2083 55.7926 61.2634C56.1869 61.3624 56.5317 61.0978 56.5301 60.6977C56.5285 60.3714 55.7455 58.9162 55.5793 58.9309C55.5228 58.9358 55.2761 59.0399 55.0309 59.1619Z" fill="white"/>
<path fill-rule="evenodd" clip-rule="evenodd" d="M44.6484 38.4713C43.6995 38.9647 43.2136 39.8395 43.3628 40.7861C43.4132 41.1052 45.6934 45.7144 45.9271 45.9694C45.955 45.9998 46.0221 45.9048 46.0762 45.7584C46.1305 45.6121 46.3248 45.2513 46.5082 44.957L46.8416 44.4217L45.8505 42.513C45.3054 41.4632 44.8594 40.4985 44.8594 40.3694C44.8594 39.8629 45.6352 39.5811 45.951 39.9727C46.0291 40.0695 46.4861 40.8934 46.9666 41.8036L47.8405 43.4588L48.3538 43.1522C48.6361 42.9836 48.9208 42.7991 48.9862 42.7422C49.1192 42.6264 47.5125 39.4919 47.0527 38.9702C46.4498 38.2862 45.4164 38.0717 44.6484 38.4713ZM27.4219 43.2254C27.0738 43.3216 26.5407 43.5301 26.2371 43.6886L25.685 43.9767L25.6746 45.1168L25.6641 46.2567L25.9907 45.8392C26.3926 45.3256 27.3248 44.7703 27.9889 44.6491C28.3143 44.5897 28.702 44.6412 29.1139 44.7985C29.5633 44.9702 30.0897 45.0299 30.9627 45.0079C32.7589 44.9629 33.4776 45.3897 34.2799 46.9782L34.6656 47.7422L35.5648 47.8415C36.858 47.9843 37.8958 48.5314 38.4096 49.3414C38.8796 50.0824 39.2344 51.1599 39.2344 51.846C39.2344 52.3107 39.237 52.3126 39.9225 52.3126C40.3433 52.3126 40.6365 52.2443 40.6778 52.1368C40.8178 51.7702 40.4883 50.1718 40.0984 49.3261C39.8751 48.8416 39.4694 48.19 39.1968 47.8778C38.6504 47.2517 37.503 46.625 36.6328 46.4773C35.6995 46.3188 35.6154 46.2731 35.4296 45.825C35.3315 45.5877 34.9584 45.0931 34.6006 44.726C33.7237 43.8256 32.6776 43.4325 31.2306 43.4598C30.6321 43.471 29.7963 43.3815 29.3259 43.2556C28.3503 42.9945 28.2615 42.9931 27.4219 43.2254ZM28.1953 47.3791C27.9633 47.4433 27.6027 47.5642 27.394 47.6479C26.9934 47.8085 25.875 48.756 25.875 48.9349C25.875 48.9927 26.1602 49.1489 26.5089 49.2821C27.1372 49.522 27.1491 49.521 27.8724 49.1606C28.6547 48.7708 29.1756 48.7145 29.95 48.9367C30.2874 49.0335 30.6821 49.0257 31.2345 48.9117C32.61 48.6276 33.6268 49.2195 34.2155 50.6467C34.4385 51.1873 34.827 51.4069 35.2966 51.258C35.9833 51.04 35.6996 49.7159 34.73 48.6144C33.8008 47.5587 32.736 47.2183 30.8672 47.3793C30.5578 47.4059 29.925 47.3905 29.4609 47.345C28.9969 47.2996 28.4273 47.3149 28.1953 47.3791ZM53.729 53.1061C53.3866 53.29 53.0788 53.4682 53.045 53.502C53.0113 53.5357 53.4338 54.4238 53.984 55.4752C54.5342 56.5268 54.9844 57.4065 54.9844 57.43C54.9844 57.5099 53.8568 57.982 53.8037 57.9243C53.7746 57.893 53.2679 56.9425 52.6778 55.8121L51.6047 53.7571L50.8137 53.664C50.3788 53.6129 49.9984 53.5953 49.9687 53.6251C49.939 53.6548 50.1455 54.1912 50.4274 54.8169L50.9403 55.9547L50.4281 56.5531C49.3453 57.818 49.4258 59.1218 50.625 59.7408C51.1563 60.015 51.4114 60.0573 52.2146 60.005L53.1714 59.9427L53.7213 61.0364C54.4033 62.3928 54.88 62.7724 55.9139 62.7822C57.0523 62.7929 57.9128 62.0169 58.0327 60.8716C58.086 60.3639 57.9999 60.0592 57.5348 59.1071L56.9724 57.9565L57.4754 57.4231C59.2653 55.5254 58.2691 53.5001 55.6777 53.7687L54.8945 53.8499L54.623 53.3107L54.3516 52.7717L53.729 53.1061ZM55.8281 55.47C55.8281 55.6449 56.169 56.2501 56.2676 56.2501C56.3975 56.2501 56.6719 55.7791 56.6719 55.5562C56.6719 55.4738 56.482 55.4063 56.25 55.4063C56.018 55.4063 55.8281 55.435 55.8281 55.47ZM51.4737 57.9283C51.2619 58.324 51.2844 58.3594 51.747 58.3594C52.1428 58.3594 52.157 58.34 52.0057 58.0079C51.8133 57.5857 51.6686 57.5641 51.4737 57.9283ZM55.0898 59.0721C54.7999 59.2253 54.5643 59.3965 54.5664 59.4526C54.5687 59.5088 54.7743 59.9344 55.0235 60.3985C55.3473 61.0016 55.569 61.2553 55.8007 61.2882C56.1975 61.3445 56.5313 61.0888 56.5313 60.7288C56.5313 60.5003 55.7459 58.7696 55.6504 58.7875C55.6321 58.791 55.38 58.919 55.0898 59.0721Z" fill="#E3E3E3"/>
<path fill-rule="evenodd" clip-rule="evenodd" d="M31.6688 30.4031C31.3378 30.7342 31.4732 31.4187 31.9638 31.8943C32.3393 32.2583 32.5425 32.3438 33.0326 32.3438C34.1317 32.3438 35.0115 31.0777 34.3366 30.4671C34.0358 30.1949 33.457 30.1618 33.2157 30.4031C33.0845 30.5343 33.0094 30.5343 32.8782 30.4031C32.7854 30.3103 32.5133 30.2344 32.2735 30.2344C32.0337 30.2344 31.7616 30.3103 31.6688 30.4031ZM58.273 58.948C58.0498 59.1171 57.8469 59.2694 57.822 59.2862C57.7971 59.3033 57.8772 59.613 58 59.9749C58.2571 60.732 58.136 61.4443 57.6434 62.0703C56.7432 63.2149 54.7729 63.1022 54.042 61.8647C53.7737 61.4107 53.6762 61.3846 53.0549 61.6012L52.6302 61.7491L52.9832 63.1832C53.1773 63.9719 53.3822 64.6688 53.4384 64.7319C53.5761 64.8868 56.067 63.9522 57.3751 63.2551C57.9551 62.946 58.8411 62.4144 59.3438 62.0741C60.969 60.9736 60.9242 61.2156 59.7564 59.8442C59.1928 59.1822 58.7197 58.6406 58.7051 58.6406C58.6906 58.6406 58.4961 58.779 58.273 58.948Z" fill="#FD80A6"/>
<path fill-rule="evenodd" clip-rule="evenodd" d="M58.289 56.9418C58.057 57.0896 57.6788 57.3669 57.4488 57.5579L57.0304 57.9052L57.3644 58.6182C57.7178 59.3727 57.7161 59.3724 58.4396 58.8501C58.7165 58.6503 58.7813 58.6992 59.756 59.8439C60.9242 61.2157 60.9689 60.9737 59.3437 62.0742C58.8409 62.4145 57.955 62.9461 57.3749 63.2552C56.0668 63.9523 53.5759 64.8869 53.4383 64.732C53.382 64.6689 53.1764 63.969 52.9814 63.1766L52.6267 61.7359L53.1728 61.5723C53.473 61.4823 53.7187 61.385 53.7187 61.3559C53.7187 61.3269 53.5624 60.9949 53.3715 60.6182L53.0244 59.9331L52.1506 60.205C51.1261 60.524 50.9073 60.6779 50.9031 61.0836C50.9014 61.2483 51.1703 62.4833 51.5007 63.8282C52.2693 66.9563 52.1823 66.8801 54.2585 66.2501C57.7363 65.1945 62.7278 62.1805 62.7145 61.144C62.7118 60.937 62.1027 60.1135 61.0236 58.8578C60.096 57.7785 59.2593 56.8461 59.1645 56.7859C58.9041 56.6203 58.7505 56.6478 58.289 56.9418Z" fill="#FE518E"/>
<path fill-rule="evenodd" clip-rule="evenodd" d="M40.0742 49.0705C40.3084 49.5344 40.5001 50.0003 40.5001 50.1059C40.5001 50.2114 41.0822 50.6405 41.7939 51.0591C42.5055 51.4779 43.4625 52.1854 43.9205 52.6313L44.7533 53.4421L44.6637 54.2485C44.6145 54.692 44.5364 55.6876 44.4906 56.4611C44.3874 58.1969 44.6015 58.9013 45.7821 60.7091C47.3138 63.0544 47.6207 64.0055 47.1838 65.0513C46.2134 67.3737 42.321 69.2838 36.8438 70.1256C34.5779 70.4738 29.3978 70.4731 27.1407 70.1242C21.0163 69.1775 16.4532 66.6772 16.4532 64.268C16.4532 64.0221 16.646 63.3814 16.8818 62.8443C18.0854 60.1017 18.2131 57.8668 17.3788 54.1408C17.093 52.8646 16.8388 51.3699 16.8137 50.8193C16.7687 49.8327 16.7589 49.8098 16.1283 49.2286L15.4886 48.6388L15.3901 49.2962C15.2333 50.3416 15.4124 52.3905 15.8114 54.1139C16.2629 56.0646 16.4152 58.3537 16.1832 59.7001C16.0904 60.239 15.7576 61.3126 15.4439 62.0861C15.0246 63.1199 14.8718 63.6971 14.8671 64.2658C14.8377 67.7753 20.0761 70.8512 27.6978 71.7996C29.7396 72.0536 34.1641 72.0517 36.2813 71.7959C42.7261 71.0173 47.6574 68.5327 48.7324 65.5227C49.2592 64.0475 48.9008 62.5892 47.4742 60.4005C46.1225 58.3267 46.0684 58.1825 46.0747 56.672C46.0778 55.9372 46.1308 54.882 46.1926 54.3271C46.2969 53.388 46.2793 53.2746 45.9387 52.6934C45.2258 51.4768 43.3875 50.0965 40.6719 48.7388L39.6484 48.2271L40.0742 49.0705ZM24.0076 49.1667L23.476 49.7509L23.8669 49.8957C24.0819 49.9753 24.7958 50.2682 25.4532 50.5467C27.1432 51.2624 30.1548 52.228 32.4744 52.7975C35.2478 53.4784 37.8529 53.8476 40.1997 53.8919C42.0488 53.9269 42.2231 53.9083 42.4083 53.6569C42.519 53.5067 42.6094 53.2739 42.6094 53.1395C42.6094 52.5892 42.286 52.4973 40.0536 52.4128C35.9835 52.2588 31.0316 51.1359 26.4141 49.3198L24.5391 48.5826L24.0076 49.1667ZM29.5313 55.9412C29.2498 56.0963 28.8556 56.517 28.6102 56.9248C28.2821 57.4701 28.1335 57.6072 27.9774 57.5084C27.6194 57.2819 27.1536 57.3653 26.9379 57.6945C26.7524 57.9777 26.7533 58.1091 26.9453 58.8546C27.3425 60.3955 27.5786 60.5358 29.0525 60.1073C30.2519 59.7587 30.5745 59.2099 29.8944 58.6751L29.5545 58.4076L29.8637 57.8562C30.0917 57.4499 30.2634 57.3048 30.5161 57.3048C30.7983 57.3048 30.9844 57.5191 31.5663 58.5152C32.4694 60.0608 32.5809 60.1876 33.036 60.1876C33.4993 60.1876 33.7501 59.9542 33.7501 59.5226C33.7501 59.0498 32.206 56.4156 31.7281 56.0734C31.1537 55.6619 30.1486 55.6014 29.5313 55.9412ZM33.5805 60.8556C33.4632 60.9909 33.2541 61.5292 33.1157 62.0518C32.871 62.9755 32.8714 63.0098 33.1306 63.296C33.3404 63.528 33.5097 63.5753 33.9288 63.519C34.4294 63.452 34.4765 63.479 34.7318 63.9793C35.1676 64.8333 34.9814 64.9426 33.0001 64.995C31.5452 65.0337 31.3112 65.0735 31.1368 65.3121C30.8838 65.6586 30.8841 65.9672 31.1375 66.3131C31.3175 66.5588 31.5183 66.5861 33.1414 66.5861C34.7025 66.5861 35.0109 66.5475 35.4326 66.2999C36.5025 65.6713 36.7691 64.3908 36.0763 63.2085C35.7285 62.6151 35.7097 62.5243 35.9105 62.4119C36.0352 62.342 36.2058 62.1568 36.2896 62.0003C36.5424 61.5278 36.1467 61.1096 35.1931 60.8421C34.1421 60.5472 33.8455 60.5496 33.5805 60.8556ZM26.3341 60.9259C26.2581 61.0227 25.8599 61.6712 25.4488 62.3673C24.8427 63.3939 24.6914 63.7791 24.6477 64.4064C24.5536 65.7596 25.2344 66.4384 26.8559 66.6079C27.6026 66.6859 27.7032 66.7325 27.7032 66.9998C27.7032 67.4049 27.9611 67.6408 28.404 67.6408C28.8974 67.6408 30.2344 66.2986 30.2344 65.8033C30.2344 65.3197 28.884 63.9845 28.3949 63.9845C27.9515 63.9845 27.7032 64.2244 27.7032 64.6528C27.7032 64.9635 27.6583 64.981 26.9649 64.941C26.3234 64.9042 26.2207 64.8574 26.182 64.5844C26.1555 64.3979 26.4269 63.7782 26.85 63.0595C27.5593 61.8543 27.7153 61.2404 27.3938 60.9189C27.1727 60.6978 26.5096 60.7022 26.3341 60.9259Z" fill="#678490"/>
<path fill-rule="evenodd" clip-rule="evenodd" d="M23.8294 49.2266C23.5237 49.5402 22.8635 49.9991 22.3624 50.2462C21.5208 50.661 21.3439 50.6953 20.0421 50.6946C18.8015 50.6939 18.5343 50.6478 17.8094 50.3087C17.3564 50.097 16.9228 49.9628 16.8456 50.0105C16.6336 50.1414 16.8344 51.6658 17.3992 54.2109C18.2105 57.8676 18.075 60.1252 16.8818 62.8442C16.646 63.3812 16.4532 64.0219 16.4532 64.2679C16.4532 66.6771 21.0164 69.1774 27.1407 70.1241C29.3979 70.473 34.5779 70.4737 36.8438 70.1255C42.321 69.2837 46.2134 67.3736 47.1839 65.0512C47.6208 64.0053 47.3138 63.0543 45.7821 60.7089C44.6016 58.9012 44.3874 58.1968 44.4906 56.4609C44.5365 55.6875 44.6113 54.7066 44.6565 54.2812C44.733 53.5622 44.7077 53.4707 44.2964 52.98C43.8069 52.3962 42.5434 51.4602 41.3223 50.7772L40.5274 50.3324L40.6643 50.9356C40.7397 51.2675 40.7778 51.7447 40.7493 51.9961L40.6972 52.4531H41.4323C42.4877 52.4531 42.9107 52.9747 42.4084 53.6567C42.2232 53.9082 42.0488 53.9267 40.1997 53.8917C37.853 53.8474 35.2479 53.4783 32.4745 52.7974C30.1549 52.2278 27.1432 51.2623 25.4532 50.5465C24.7958 50.2681 24.0787 49.974 23.8599 49.893L23.462 49.7458L23.9939 49.201C24.2866 48.9014 24.4943 48.6562 24.4556 48.6562C24.417 48.6562 24.1351 48.9129 23.8294 49.2266ZM15.2278 50.5547C15.2289 50.9414 15.2562 51.0829 15.2886 50.8691C15.3208 50.6554 15.3199 50.339 15.2866 50.166C15.2533 49.993 15.2268 50.168 15.2278 50.5547ZM39.0604 52.4119C39.2353 52.4455 39.4884 52.4443 39.6229 52.4091C39.7573 52.374 39.6142 52.3464 39.3048 52.3479C38.9954 52.3495 38.8854 52.3783 39.0604 52.4119ZM29.5313 55.941C29.2498 56.0962 28.8556 56.5169 28.6102 56.9247C28.2822 57.4699 28.1335 57.607 27.9774 57.5083C27.6194 57.2818 27.1537 57.3652 26.9379 57.6944C26.7524 57.9776 26.7533 58.1089 26.9454 58.8545C27.3425 60.3953 27.5786 60.5357 29.0525 60.1072C30.2519 59.7586 30.5745 59.2097 29.8944 58.6749L29.5545 58.4075L29.8638 57.8561C30.0917 57.4498 30.2634 57.3047 30.5161 57.3047C30.7984 57.3047 30.9844 57.519 31.5663 58.515C32.4694 60.0607 32.5809 60.1875 33.036 60.1875C33.4994 60.1875 33.7501 59.9541 33.7501 59.5225C33.7501 59.0497 32.206 56.4155 31.7282 56.0732C31.1537 55.6618 30.1487 55.6013 29.5313 55.941ZM33.5805 60.8555C33.4632 60.9908 33.2541 61.5291 33.1157 62.0516C32.871 62.9754 32.8715 63.0097 33.1306 63.2959C33.3405 63.5279 33.5098 63.5752 33.9288 63.5189C34.4294 63.4518 34.4766 63.4788 34.7318 63.9792C35.1676 64.8332 34.9814 64.9425 33.0001 64.9949C31.5452 65.0336 31.3112 65.0734 31.1369 65.312C30.8839 65.6585 30.8842 65.967 31.1376 66.313C31.3176 66.5587 31.5184 66.5859 33.1415 66.5859C34.7025 66.5859 35.0109 66.5474 35.4327 66.2998C36.5025 65.6712 36.7692 64.3906 36.0763 63.2084C35.7285 62.615 35.7097 62.5241 35.9105 62.4118C36.0352 62.3419 36.2058 62.1567 36.2896 62.0002C36.5425 61.5277 36.1468 61.1094 35.1932 60.842C34.1422 60.5471 33.8456 60.5495 33.5805 60.8555ZM26.3341 60.9258C26.2582 61.0225 25.8599 61.6711 25.4489 62.3672C24.8428 63.3938 24.6915 63.7789 24.6477 64.4062C24.5536 65.7595 25.2344 66.4383 26.856 66.6077C27.6027 66.6858 27.7032 66.7323 27.7032 66.9997C27.7032 67.4048 27.9611 67.6406 28.4041 67.6406C28.8974 67.6406 30.2345 66.2985 30.2345 65.8032C30.2345 65.3196 28.884 63.9844 28.395 63.9844C27.9516 63.9844 27.7032 64.2243 27.7032 64.6526C27.7032 64.9634 27.6584 64.9808 26.9649 64.9409C26.3234 64.9041 26.2207 64.8572 26.1821 64.5843C26.1555 64.3978 26.4269 63.7781 26.85 63.0593C27.5594 61.8542 27.7153 61.2402 27.3938 60.9188C27.1728 60.6977 26.5096 60.702 26.3341 60.9258Z" fill="#91A2B5"/>
<path fill-rule="evenodd" clip-rule="evenodd" d="M39.5517 7.03532C39.3782 7.10507 39.1094 7.37001 38.9546 7.62398C38.1391 8.9616 39.2456 10.7034 40.4989 10.0552C41.5915 9.49035 41.6185 7.5344 40.5406 7.04319C40.1484 6.8646 39.9799 6.86319 39.5517 7.03532ZM45.0804 40.0178C44.9589 40.1394 44.8594 40.2992 44.8594 40.3729C44.8594 40.5294 45.6626 42.1542 46.3655 43.4202L46.8549 44.3012L47.3111 43.9124L47.7674 43.5234L46.884 41.7486C45.9133 39.7983 45.6004 39.4979 45.0804 40.0178ZM27.211 44.9512C26.688 45.2256 25.5938 46.2659 25.5938 46.4889C25.5938 46.5795 25.384 47.0704 25.1277 47.5798L24.6616 48.5059L25.2056 48.7236C25.7437 48.9389 25.753 48.9371 26.0819 48.5461C26.2647 48.3289 26.7517 47.9642 27.1642 47.7357L27.9141 47.3203L30.4454 47.3235C33.3009 47.3271 33.6062 47.4109 34.617 48.4685C35.9413 49.8544 36.1289 51.4145 34.9573 51.3001C34.6004 51.2653 34.4584 51.1371 34.1563 50.5769C33.3899 49.1559 32.5088 48.674 31.1925 48.9563C30.721 49.0574 30.2972 49.0527 29.7558 48.9403C28.8987 48.7624 28.148 48.8983 27.5883 49.3328C27.2639 49.5846 27.2712 49.5884 29.3461 50.2418C32.6254 51.2744 36.3533 52.0859 38.3204 52.1952L39.1641 52.2422L39.1255 51.6094C39.0367 50.1598 38.2419 48.8108 37.1799 48.3068C36.8957 48.1719 36.2459 48.0098 35.7358 47.9465C34.7179 47.8202 34.6446 47.762 33.998 46.5635C33.7617 46.1256 33.3853 45.6996 33.0232 45.4603C32.4854 45.1049 32.3139 45.0695 31.0878 45.0605C30.3477 45.0551 29.5641 44.9759 29.3464 44.8847C28.7952 44.6536 27.7143 44.6872 27.211 44.9512ZM52.3126 53.6103C52.0419 53.6839 51.8007 53.7632 51.7768 53.7867C51.7364 53.8262 53.6809 57.7921 53.8069 57.9275C53.9097 58.038 54.8438 57.5228 54.8438 57.3556C54.8438 57.1814 53.0653 53.709 52.9011 53.5625C52.8481 53.5153 52.5833 53.5368 52.3126 53.6103ZM55.0309 59.1619L54.5851 59.3841L55.0286 60.2835C55.3329 60.9006 55.5728 61.2083 55.7926 61.2634C56.1869 61.3624 56.5317 61.0978 56.5301 60.6977C56.5285 60.3714 55.7455 58.9162 55.5793 58.9309C55.5228 58.9358 55.2761 59.0399 55.0309 59.1619Z" fill="white"/>
<path fill-rule="evenodd" clip-rule="evenodd" d="M44.6484 38.4713C43.6995 38.9647 43.2136 39.8395 43.3628 40.7861C43.4132 41.1052 45.6934 45.7144 45.9271 45.9694C45.955 45.9998 46.0221 45.9048 46.0762 45.7584C46.1305 45.6121 46.3248 45.2513 46.5082 44.957L46.8416 44.4217L45.8505 42.513C45.3054 41.4632 44.8594 40.4985 44.8594 40.3694C44.8594 39.8629 45.6352 39.5811 45.951 39.9727C46.0291 40.0695 46.4861 40.8934 46.9666 41.8036L47.8405 43.4588L48.3538 43.1522C48.6361 42.9836 48.9208 42.7991 48.9862 42.7422C49.1192 42.6264 47.5125 39.4919 47.0527 38.9702C46.4498 38.2862 45.4164 38.0717 44.6484 38.4713ZM27.4219 43.2254C27.0738 43.3216 26.5407 43.5301 26.2371 43.6886L25.685 43.9767L25.6746 45.1168L25.6641 46.2567L25.9907 45.8392C26.3926 45.3256 27.3248 44.7703 27.9889 44.6491C28.3143 44.5897 28.702 44.6412 29.1139 44.7985C29.5633 44.9702 30.0897 45.0299 30.9627 45.0079C32.7589 44.9629 33.4776 45.3897 34.2799 46.9782L34.6656 47.7422L35.5648 47.8415C36.858 47.9843 37.8958 48.5314 38.4096 49.3414C38.8796 50.0824 39.2344 51.1599 39.2344 51.846C39.2344 52.3107 39.237 52.3126 39.9225 52.3126C40.3433 52.3126 40.6365 52.2443 40.6778 52.1368C40.8178 51.7702 40.4883 50.1718 40.0984 49.3261C39.8751 48.8416 39.4694 48.19 39.1968 47.8778C38.6504 47.2517 37.503 46.625 36.6328 46.4773C35.6995 46.3188 35.6154 46.2731 35.4296 45.825C35.3315 45.5877 34.9584 45.0931 34.6006 44.726C33.7237 43.8256 32.6776 43.4325 31.2306 43.4598C30.6321 43.471 29.7963 43.3815 29.3259 43.2556C28.3503 42.9945 28.2615 42.9931 27.4219 43.2254ZM28.1953 47.3791C27.9633 47.4433 27.6027 47.5642 27.394 47.6479C26.9934 47.8085 25.875 48.756 25.875 48.9349C25.875 48.9927 26.1602 49.1489 26.5089 49.2821C27.1372 49.522 27.1491 49.521 27.8724 49.1606C28.6547 48.7708 29.1756 48.7145 29.95 48.9367C30.2874 49.0335 30.6821 49.0257 31.2345 48.9117C32.61 48.6276 33.6268 49.2195 34.2155 50.6467C34.4385 51.1873 34.827 51.4069 35.2966 51.258C35.9833 51.04 35.6996 49.7159 34.73 48.6144C33.8008 47.5587 32.736 47.2183 30.8672 47.3793C30.5578 47.4059 29.925 47.3905 29.4609 47.345C28.9969 47.2996 28.4273 47.3149 28.1953 47.3791ZM53.729 53.1061C53.3866 53.29 53.0788 53.4682 53.045 53.502C53.0113 53.5357 53.4338 54.4238 53.984 55.4752C54.5342 56.5268 54.9844 57.4065 54.9844 57.43C54.9844 57.5099 53.8568 57.982 53.8037 57.9243C53.7746 57.893 53.2679 56.9425 52.6778 55.8121L51.6047 53.7571L50.8137 53.664C50.3788 53.6129 49.9984 53.5953 49.9687 53.6251C49.939 53.6548 50.1455 54.1912 50.4274 54.8169L50.9403 55.9547L50.4281 56.5531C49.3453 57.818 49.4258 59.1218 50.625 59.7408C51.1563 60.015 51.4114 60.0573 52.2146 60.005L53.1714 59.9427L53.7213 61.0364C54.4033 62.3928 54.88 62.7724 55.9139 62.7822C57.0523 62.7929 57.9128 62.0169 58.0327 60.8716C58.086 60.3639 57.9999 60.0592 57.5348 59.1071L56.9724 57.9565L57.4754 57.4231C59.2653 55.5254 58.2691 53.5001 55.6777 53.7687L54.8945 53.8499L54.623 53.3107L54.3516 52.7717L53.729 53.1061ZM55.8281 55.47C55.8281 55.6449 56.169 56.2501 56.2676 56.2501C56.3975 56.2501 56.6719 55.7791 56.6719 55.5562C56.6719 55.4738 56.482 55.4063 56.25 55.4063C56.018 55.4063 55.8281 55.435 55.8281 55.47ZM51.4737 57.9283C51.2619 58.324 51.2844 58.3594 51.747 58.3594C52.1428 58.3594 52.157 58.34 52.0057 58.0079C51.8133 57.5857 51.6686 57.5641 51.4737 57.9283ZM55.0898 59.0721C54.7999 59.2253 54.5643 59.3965 54.5664 59.4526C54.5687 59.5088 54.7743 59.9344 55.0235 60.3985C55.3473 61.0016 55.569 61.2553 55.8007 61.2882C56.1975 61.3445 56.5313 61.0888 56.5313 60.7288C56.5313 60.5003 55.7459 58.7696 55.6504 58.7875C55.6321 58.791 55.38 58.919 55.0898 59.0721Z" fill="#E3E3E3"/>
<path fill-rule="evenodd" clip-rule="evenodd" d="M23.5183 31.2182C22.1644 32.0437 22.1575 33.916 23.5045 34.9135C23.9962 35.2776 25.1226 35.2842 25.7301 34.9265C27.086 34.1283 27.1332 32.149 25.8178 31.2476C25.2252 30.8416 24.1583 30.828 23.5183 31.2182ZM40.2045 31.2569C39.5279 31.7088 39.2052 32.3966 39.2773 33.2332C39.3769 34.3883 40.2385 35.1799 41.3964 35.1799C42.5137 35.1799 43.326 34.4891 43.5398 33.3574C43.6711 32.6623 43.2532 31.7062 42.634 31.2854C41.9448 30.8171 40.8814 30.8046 40.2045 31.2569Z" fill="#605C5D"/>
<path fill-rule="evenodd" clip-rule="evenodd" d="M16.428 32.8114C13.7864 33.9244 12.5061 36.6692 13.3569 39.3953C13.6227 40.2467 14.4417 41.5126 14.9173 41.8072C15.0759 41.9055 15.3974 41.8422 16.0423 41.5857C16.539 41.3884 17.2617 41.1827 17.6484 41.1285C18.0351 41.0745 18.705 40.9138 19.137 40.7715C20.1619 40.4336 21.5759 40.3 22.3166 40.471L22.9065 40.6072L23.2021 39.9785C23.7816 38.7455 23.7854 36.7915 23.2108 35.4926C22.823 34.6156 21.6617 33.4462 20.7092 32.9733C20.0238 32.6329 19.6918 32.5633 18.5624 32.5228C17.4034 32.4812 17.1208 32.5195 16.428 32.8114ZM45.98 32.6924C43.016 33.6429 41.5164 37.1688 42.8757 39.9919C43.2843 40.8408 43.2897 40.8453 43.3033 40.3593C43.3221 39.6833 43.8458 38.8258 44.4374 38.5021C44.7939 38.3069 45.1269 38.2474 45.6457 38.2862C46.749 38.3686 47.123 38.7252 48.0864 40.6144C49.2868 42.9679 49.157 42.8449 50.038 42.4659C51.016 42.0451 52.1859 40.7795 52.5982 39.6963C53.0292 38.5638 53.0308 36.9323 52.602 35.8192C52.1852 34.7373 51.0031 33.4625 49.9468 32.956C49.2958 32.6436 48.9149 32.5652 47.8828 32.5306C47.0528 32.5027 46.3978 32.5584 45.98 32.6924Z" fill="#FF9EB6"/>
<path fill-rule="evenodd" clip-rule="evenodd" d="M18.6327 4.28576C16.2078 4.81803 14.1471 6.33903 13.2462 8.26137C12.9098 8.97898 12.8671 9.23717 12.8671 10.5469C12.8671 11.9263 12.8977 12.0882 13.3323 13.0059C13.5881 13.5462 14.0468 14.3187 14.3518 14.7225C14.6567 15.1263 14.9061 15.5029 14.9061 15.5592C14.9061 15.6155 14.7844 15.7923 14.6354 15.952C14.2119 16.4062 13.6744 17.5852 13.5709 18.2872C13.503 18.7479 13.5516 19.1476 13.7453 19.7213L14.0139 20.5167L13.0437 21.4732C12.0209 22.4818 10.7375 24.2933 10.3699 25.2475C9.7964 26.7358 9.98216 28.1417 10.893 29.2056L11.3901 29.7866L10.7773 30.7806C8.37566 34.6758 8.95644 39.3221 12.2871 42.8598L12.9862 43.6023L12.4898 44.1254C10.0636 46.6817 9.10536 50.8595 10.3309 53.5367C10.8121 54.5879 11.849 55.5756 12.8754 55.9608C13.5483 56.2134 13.9343 56.2651 14.8593 56.227C15.491 56.201 16.0461 56.1415 16.0927 56.0948C16.1394 56.0481 16.1083 55.687 16.0237 55.2924L15.8698 54.5751L14.9843 54.6578C13.3005 54.815 11.9262 53.8185 11.5259 52.1501C10.9765 49.8598 12.0364 46.7824 14.0611 44.7898C14.7696 44.0925 14.7737 44.0908 14.6132 44.5512C14.3578 45.2837 14.5148 46.5093 14.9953 47.5339C15.5383 48.6919 16.5387 49.6924 17.7186 50.2576C18.5538 50.6577 18.7542 50.6954 20.0419 50.6954C21.3462 50.6954 21.5199 50.6615 22.3747 50.2406C23.5023 49.6856 24.6156 48.5542 25.1442 47.4263C25.4806 46.7087 25.5233 46.4505 25.5233 45.1407C25.5233 43.8448 25.4788 43.5695 25.1591 42.8907C24.6668 41.8454 24.211 41.3385 23.3202 40.8459C22.6387 40.4689 22.4548 40.4321 21.3046 40.4431C20.4247 40.4514 19.7819 40.5428 19.1952 40.7428C18.7311 40.901 18.0376 41.0752 17.6538 41.1299C16.7389 41.2603 15.6906 41.6626 14.9081 42.1838L14.2773 42.6038L13.595 41.9387C11.8941 40.2804 10.8379 37.93 10.8304 35.7863C10.8252 34.2493 11.6823 32.0382 12.8692 30.5277C13.6712 29.5069 13.6491 29.2153 12.7263 28.6367C12.3733 28.4152 11.9917 28.0545 11.8782 27.835C11.1934 26.5108 12.2331 24.4158 14.7502 22.0478C15.3571 21.477 15.8919 20.8864 15.9388 20.7355C15.9937 20.5579 15.876 20.2425 15.6056 19.8423C15.1002 19.0943 15.0601 18.3789 15.4779 17.5601C15.7694 16.9886 16.8749 15.7837 17.631 15.2133C17.9735 14.955 18.0078 14.8744 17.8543 14.6895C17.7546 14.5694 17.6831 14.2174 17.6952 13.9073C17.7201 13.2728 17.7021 13.2749 16.7801 14.0146L16.1933 14.4857L15.7547 13.9577C14.5661 12.5269 14.0895 10.6815 14.5502 9.29426C15.0492 7.79225 17.195 6.08646 18.9088 5.8294C19.486 5.74292 19.5677 5.67528 20.0253 4.90718L20.5192 4.0782L19.9978 4.08931C19.711 4.0955 19.0968 4.18395 18.6327 4.28576ZM45.7992 4.90409C46.1245 5.65812 46.219 5.7657 46.5549 5.7657C47.2152 5.7657 48.6951 6.29993 49.4505 6.8111C51.5586 8.23732 52.2045 10.316 51.2038 12.4542C50.9585 12.9788 50.8069 13.4479 50.8671 13.4968C50.9272 13.5458 51.2119 13.7583 51.4997 13.9689L52.023 14.352L52.437 13.532C53.1057 12.2072 53.3447 11.1952 53.2516 10.084C52.9944 7.01712 50.1085 4.50373 46.4277 4.14092L45.4274 4.04248L45.7992 4.90409ZM51.15 20.6659C50.7112 20.8625 50.3503 21.0633 50.348 21.112C50.3456 21.1605 50.6879 21.4943 51.1085 21.8538C52.1591 22.7512 53.5393 24.4996 54.0401 25.5674C54.7272 27.0324 54.4752 27.9123 53.121 28.7764C52.4211 29.2231 52.4316 29.6158 53.1688 30.5485C55.027 32.8991 55.6086 35.7974 54.7288 38.3204C54.2862 39.5895 53.6459 40.6536 52.6853 41.7161L52.031 42.44L50.871 42.495C49.9602 42.5381 49.5342 42.6355 48.8886 42.9479C47.8965 43.4282 46.7397 44.5533 46.2799 45.4854L45.9426 46.1689L45.6894 45.6755L45.4363 45.182L44.3391 45.2471C43.7358 45.283 43.0839 45.385 42.8905 45.4737C42.4539 45.6739 42.354 46.2716 42.6994 46.617C42.9147 46.8323 43.1213 46.8511 44.3594 46.7687L45.7733 46.6744L45.7764 48.1224C45.7792 49.432 45.8186 49.651 46.1896 50.4141C46.7008 51.4654 47.8063 52.5888 48.7615 53.0268L49.4891 53.3606L49.1781 53.6938C49.007 53.8769 48.6962 54.1157 48.4874 54.2244C48.0402 54.457 46.6693 54.4882 46.4519 54.2708C46.3438 54.1628 46.272 54.3488 46.2006 54.9195C46.1356 55.4396 46.1544 55.7733 46.2543 55.8732C46.3386 55.9576 46.8346 56.0246 47.3562 56.0221C48.4129 56.0172 49.5338 55.6174 50.059 55.0583L50.3646 54.733L50.0729 54.1612C49.9125 53.8468 49.7811 53.5647 49.7811 53.5346C49.7811 53.5045 50.2532 53.5101 50.8302 53.5471C53.2058 53.6996 55.1634 52.6567 55.7538 50.9243C56.028 50.1197 56.0291 48.5321 55.7563 47.4554C55.4784 46.3586 54.5686 44.5129 53.9576 43.8066L53.4727 43.2458L54.0706 42.541C56.6765 39.4687 57.3726 36.0639 56.105 32.5905C55.8771 31.9661 55.4428 31.0599 55.1399 30.577L54.5894 29.6987L55.0155 29.2986C55.633 28.7188 55.9619 27.9095 55.9655 26.9614C55.9716 25.3722 55.089 23.7196 53.054 21.5097L51.9479 20.3081L51.15 20.6659ZM32.2733 33.2171C32.2733 34.1161 32.2408 34.2245 31.8787 34.5359C31.5965 34.7785 31.3153 34.8751 30.8906 34.8751C30.2094 34.8751 29.7602 34.6103 29.4615 34.0327C29.2176 33.5609 28.8113 33.3926 28.4209 33.6016C27.9933 33.8304 27.9403 34.2376 28.2572 34.8589C29.0537 36.4201 31.1428 36.8845 32.6501 35.8354C33.0226 35.5762 33.0327 35.5772 33.5309 35.9153C34.1256 36.3189 34.9411 36.483 35.7077 36.3535C37.2356 36.0953 38.503 34.4179 37.7114 33.7016C37.3447 33.3697 37.0356 33.4131 36.7448 33.8375C36.1442 34.7136 35.9023 34.8751 35.1889 34.8751C34.6239 34.8751 34.4402 34.8069 34.1278 34.4806C33.7952 34.1336 33.7499 33.9742 33.7499 33.152V32.2178L33.3516 32.3566C33.1041 32.443 32.8247 32.4466 32.6134 32.3666C32.2739 32.2379 32.2733 32.2395 32.2733 33.2171ZM19.998 42.1251C18.3696 42.5635 16.9248 43.4691 16.3483 44.413C15.6922 45.4871 16.1245 47.1113 17.3546 48.1941C20.0003 50.5228 24.0829 48.6614 24.1001 45.1186C24.1039 44.3526 24.0292 44.0351 23.689 43.3716C22.9953 42.0185 21.8416 41.6289 19.998 42.1251ZM49.5476 44.2875C48.3613 44.8263 47.3942 46.1601 47.1959 47.5313C47.0018 48.874 47.8037 50.6315 48.9595 51.3964C49.8235 51.9682 51.0745 52.2334 52.0158 52.0444C54.1276 51.6203 54.8792 50.0297 54.1246 47.5812C53.6102 45.9122 52.9324 44.8105 52.105 44.2992C51.5101 43.9315 50.3434 43.9263 49.5476 44.2875Z" fill="#E2AB8C"/>
<path fill-rule="evenodd" clip-rule="evenodd" d="M18.6607 5.91989C17.1251 6.2813 15.5491 7.44201 14.8317 8.74026C14.4828 9.37153 14.416 9.65039 14.4154 10.4767C14.4148 11.2925 14.4902 11.6176 14.8556 12.3751C15.5438 13.8025 15.7959 14.0458 15.4619 12.9603C15.1197 11.8479 15.117 10.9236 15.4542 10.1955C15.9259 9.17676 17.0132 8.43764 18.0402 8.43764C18.4904 8.43764 18.5224 8.40206 18.7647 7.62905C18.904 7.18425 19.1383 6.58322 19.2854 6.29311C19.5775 5.71697 19.562 5.70769 18.6607 5.91989ZM46.3121 6.01186C46.3557 6.14714 46.5339 6.76954 46.708 7.39476L47.0245 8.53158L47.6833 8.46829C48.5932 8.38097 49.2976 8.64956 50 9.35198C50.8021 10.1542 51.0238 11.0666 50.7263 12.3429C50.6133 12.828 50.5709 13.2557 50.6323 13.2937C50.6937 13.3315 50.9195 12.998 51.1344 12.5525C51.7076 11.3638 51.7637 9.9952 51.2825 8.94389C50.6549 7.57308 49.3204 6.52036 47.5409 5.99245C46.525 5.69095 46.2104 5.69587 46.3121 6.01186ZM17.2677 15.5632C16.8682 15.8909 16.3235 16.431 16.0575 16.7632C15.0693 17.9975 14.9392 18.8809 15.6095 19.8059C15.8415 20.1262 16.0313 20.4833 16.0313 20.5995C16.0313 20.7156 15.3804 21.4597 14.5847 22.2531C12.5223 24.3096 11.672 25.706 11.672 27.0363C11.672 27.6033 11.8991 27.8938 13.2095 29.004C13.64 29.3687 13.5705 29.6737 12.8467 30.5966C12.1314 31.5089 11.3304 33.1028 11.1784 33.9165C11.0834 34.4251 11.0938 34.4406 11.7635 34.7794C12.1385 34.9691 12.6794 35.2219 12.9654 35.341L13.4853 35.5577L13.8365 34.9585C15.1149 32.7773 18.2119 31.8348 20.6122 32.8965C21.3747 33.2338 22.5499 34.3184 23.0174 35.1165C23.4078 35.7825 23.4155 35.7861 23.885 35.5258L24.2153 35.3426L23.7789 35.1619C22.4015 34.5914 21.9373 32.7531 22.8858 31.6257C23.9603 30.3487 25.8862 30.5858 26.6343 32.0871L26.9708 32.7624L27.7832 31.7696C28.8901 30.4166 30.1318 29.3204 31.0696 28.8685C31.7117 28.5591 32.053 28.4905 32.9766 28.4853C34.8178 28.475 36.0648 29.2175 37.9667 31.4563C39.0107 32.6852 39.2345 32.8462 39.2345 32.3689C39.2345 32.0134 39.95 31.1993 40.4438 30.993C41.993 30.3457 43.6263 31.3854 43.6263 33.0189C43.6263 34.1048 43.0474 34.9176 42.0541 35.2266C41.7124 35.3329 41.7135 35.3355 42.194 35.5625L42.6785 35.7913L42.956 35.2277C43.36 34.407 44.4626 33.3669 45.3888 32.9328C46.1037 32.5977 46.3632 32.5548 47.672 32.5548C49.0094 32.5548 49.2252 32.5925 49.9618 32.9542C50.8511 33.3908 52.0426 34.5047 52.3093 35.1488C52.4756 35.55 52.4872 35.5538 53.0032 35.3717C53.5506 35.1786 54.9845 34.4797 54.9845 34.4062C54.9845 34.3828 54.8825 34.02 54.7578 33.6C54.4549 32.5786 54.0234 31.7523 53.2334 30.68C52.4088 29.5606 52.4189 29.2307 53.297 28.6214C53.645 28.3798 54.049 27.9409 54.1948 27.646C54.4303 27.1697 54.4408 27.025 54.2891 26.3469C54.057 25.3104 53.0407 23.8397 51.513 22.33L50.2735 21.1053L49.4812 21.3682C47.8653 21.9046 46.3835 22.1325 44.5079 22.1334C41.5133 22.1348 39.885 21.6027 35.4027 19.1575C30.2045 16.3219 27.8192 15.588 23.2032 15.4038C22.0044 15.356 20.3419 15.2381 19.5088 15.1421L17.9942 14.9673L17.2677 15.5632ZM33.7962 33.1173C33.7969 33.6587 33.8222 33.8629 33.8527 33.5713C33.8831 33.2795 33.8827 32.8365 33.8516 32.5869C33.8205 32.3371 33.7956 32.5759 33.7962 33.1173ZM10.8665 35.8595C10.8665 36.2076 10.8939 36.35 10.9275 36.1759C10.961 36.0018 10.961 35.7172 10.9275 35.5431C10.8939 35.369 10.8665 35.5115 10.8665 35.8595ZM51.3206 41.59L50.836 42.1173L51.3634 41.6327C51.6535 41.3661 51.8907 41.1289 51.8907 41.1054C51.8907 40.9979 51.7717 41.0992 51.3206 41.59ZM20.672 42.0036C18.5248 42.363 16.3223 43.8452 16.0891 45.0875C15.6907 47.211 18.0767 49.4488 20.4408 49.1688C22.565 48.9173 24.047 47.262 24.047 45.1408C24.047 42.911 22.7047 41.6632 20.672 42.0036ZM50.6044 42.3638C50.6753 42.4347 50.883 42.4692 51.0659 42.4403C51.3473 42.396 51.3276 42.3764 50.9371 42.3115C50.6576 42.2653 50.5264 42.2858 50.6044 42.3638ZM49.5704 44.3474C48.7022 44.7535 47.7977 45.7162 47.4644 46.5891C47.1348 47.4521 47.22 49.0428 47.6395 49.8613C47.9986 50.5617 48.9114 51.4067 49.6918 51.7611C50.5898 52.1688 52.0635 52.128 52.9828 51.6698C54.2524 51.0373 54.6515 49.8738 54.2244 48.05C53.8112 46.2854 52.8536 44.7247 51.8731 44.2176C51.2987 43.9206 50.3713 43.9729 49.5704 44.3474ZM13.7968 45.0803C10.9172 48.231 10.5894 53.0326 13.1678 54.2943C13.6752 54.5425 14.078 54.6268 14.729 54.6207C15.2116 54.6162 15.6424 54.5766 15.6864 54.5327C15.7303 54.4887 15.636 53.7782 15.4768 52.9538C15.1734 51.3814 15.1125 49.9226 15.3139 49.0558C15.4153 48.6197 15.3665 48.4061 14.9941 47.6547C14.6027 46.865 14.5548 46.6336 14.5548 45.5327C14.5548 44.853 14.5453 44.297 14.5337 44.297C14.5221 44.297 14.1905 44.6494 13.7968 45.0803ZM35.3204 45.651C35.7129 46.3282 35.75 46.3531 36.5212 46.4588C37.2764 46.5623 38.4425 47.1222 39.0235 47.6603C39.2555 47.8751 40.0549 48.3431 40.7999 48.7003C44.2043 50.3324 46.4063 52.3596 46.4063 53.8616C46.4063 54.308 46.6101 54.422 47.4079 54.422C47.9912 54.422 48.8957 54.038 49.2131 53.6555C49.4324 53.3912 49.4803 53.4426 48.5475 52.9428C46.6478 51.9252 45.3854 49.5326 45.6432 47.4384L45.7325 46.7125L44.3152 46.7907C42.8152 46.8733 42.4688 46.7724 42.4688 46.253C42.4688 46.0838 42.3977 46.0207 42.2646 46.0717C41.8062 46.2476 36.1347 45.54 35.2345 45.1946C35.0486 45.1233 35.0649 45.21 35.3204 45.651Z" fill="#FFD5AE"/>
<path fill-rule="evenodd" clip-rule="evenodd" d="M16.9453 8.70435C15.8688 9.20273 15.1875 10.2637 15.1875 11.4419C15.1875 12.1265 15.6393 13.7033 15.9519 14.1103C16.1404 14.3554 16.1909 14.3388 16.9346 13.7894C17.5695 13.3204 17.7187 13.1333 17.7187 12.8067C17.7187 12.451 18.1392 9.88068 18.3701 8.82445C18.4493 8.46206 18.425 8.43787 17.9813 8.44082C17.7209 8.44251 17.2547 8.56106 16.9453 8.70435ZM47.1883 8.56457C47.1005 8.7066 47.5834 11.6964 47.7333 11.9389C47.7859 12.0242 47.9078 12.094 48.004 12.094C48.1002 12.094 48.6959 12.344 49.3277 12.6494C49.9594 12.955 50.5028 13.1608 50.5351 13.1065C50.5673 13.0523 50.6694 12.64 50.7618 12.1904C51.0727 10.6779 50.4666 9.35713 49.1744 8.73163C48.5558 8.4321 47.3335 8.32931 47.1883 8.56457ZM31.9757 28.5316C30.6636 28.8697 29.3667 29.8712 27.7841 31.7687C27.047 32.6525 26.8594 32.9736 26.8594 33.3514C26.8594 34.3106 25.7993 35.2971 24.7687 35.2971C24.5316 35.2971 24.1249 35.3985 23.865 35.5225L23.3924 35.7478L23.5886 36.4717C23.8584 37.4676 23.733 38.9033 23.2917 39.867C22.9441 40.6262 22.9439 40.6289 23.2342 40.721C23.7868 40.8965 24.7899 41.9716 25.193 42.8205C25.4133 43.2846 25.5936 43.7444 25.5936 43.8425C25.5937 43.9626 25.8217 43.905 26.2938 43.6658C27.4406 43.0848 28.2413 42.9719 29.2777 43.2451C29.7838 43.3785 30.6215 43.4705 31.2306 43.4593C32.5759 43.4348 33.6704 43.8177 34.4939 44.601C34.9425 45.0278 35.2821 45.206 35.9276 45.3533C37.0725 45.6149 39.4446 45.9434 41.0252 46.0594C42.3211 46.1545 42.3242 46.1541 42.4586 45.8005C42.6208 45.3737 42.7714 45.3237 44.2617 45.2005C44.8999 45.1477 45.4219 45.0921 45.4219 45.0767C45.4219 45.0614 44.912 44.0729 44.2886 42.88C42.3021 39.0782 42.3984 39.3357 42.3984 37.8284C42.3984 37.0936 42.4519 36.3217 42.5173 36.1132C42.626 35.7664 42.5914 35.7153 42.1134 35.5155C41.8258 35.3954 41.3862 35.2971 41.1365 35.2971C40.6327 35.2971 39.8902 34.852 39.4942 34.3127C39.3524 34.1194 39.1816 33.666 39.1151 33.3053C39.0175 32.7772 38.7868 32.4075 37.9296 31.4069C36.7516 30.0317 35.8301 29.2675 34.8006 28.812C34.0646 28.4865 32.6831 28.3494 31.9757 28.5316ZM31.6406 30.3752C31.2431 30.7728 31.2913 31.2723 31.7812 31.8303C32.1508 32.2512 32.2031 32.4165 32.2031 33.1633C32.2031 33.8617 32.1418 34.0872 31.8638 34.4103C31.582 34.7378 31.4128 34.8049 30.8679 34.8049C30.1979 34.8049 30.1155 34.7463 29.2383 33.6448C29.0392 33.3947 28.468 33.4272 28.1909 33.7044C27.8773 34.0178 27.9993 34.7543 28.466 35.3661C29.2714 36.422 31.1074 36.7581 32.3785 36.0822L33.0176 35.7425L33.689 36.0822C34.4978 36.4919 35.7725 36.5437 36.4641 36.1954C37.133 35.8585 37.8024 35.1684 37.9787 34.6339C38.1883 33.999 37.8665 33.469 37.2717 33.469C36.9472 33.469 36.7796 33.592 36.4641 34.062C35.863 34.9569 34.847 35.1285 34.1684 34.4498C33.9419 34.2234 33.8906 33.9801 33.8906 33.1325C33.8906 32.3376 33.9404 32.0737 34.1017 32.0118C34.2179 31.9672 34.4175 31.7113 34.5455 31.443C34.7622 30.9886 34.7621 30.9306 34.5435 30.5971C34.2636 30.1698 33.6705 29.9881 33.3036 30.2173C33.1189 30.3326 32.9602 30.3388 32.7717 30.2378C32.3578 30.0164 31.9499 30.066 31.6406 30.3752ZM11.0562 34.5535C10.8844 34.7253 10.9727 36.9406 11.1836 37.7507C11.4671 38.839 12.2088 40.2285 13.0823 41.3083C13.9756 42.4122 14.2229 42.5546 14.7021 42.2407L15.0632 42.0041L14.5174 41.4279C13.8321 40.7046 13.5906 40.3124 13.2964 39.4455C13.0063 38.5911 12.9926 36.9555 13.2691 36.1532L13.4755 35.5537L12.9604 35.3391C12.6771 35.221 12.1524 34.9763 11.7945 34.7952C11.4365 34.6141 11.1043 34.5054 11.0562 34.5535ZM53.9325 34.9671C53.3926 35.2259 52.8705 35.4377 52.7723 35.4377C52.5479 35.4377 52.55 35.4947 52.8062 36.339C53.3742 38.2114 52.6828 40.5236 51.167 41.8211L50.6177 42.2912L51.219 42.3902C51.8193 42.4889 51.8219 42.4875 52.6825 41.5669C54.1723 39.9736 55.1395 37.6699 55.1085 35.7893C55.1022 35.4026 55.0558 34.9534 55.0055 34.7913C54.9157 34.5019 54.8956 34.5051 53.9325 34.9671ZM47.2541 43.9412C47.0746 44.1321 46.864 44.249 46.7859 44.2008C46.702 44.1489 46.6879 44.184 46.7515 44.2868C46.8295 44.4131 46.9706 44.3539 47.2655 44.0714C47.4889 43.8572 47.6719 43.6622 47.6719 43.638C47.6719 43.5342 47.5604 43.6152 47.2541 43.9412ZM35.332 47.9096C35.4674 47.9451 35.6888 47.9451 35.8242 47.9096C35.9596 47.8743 35.8488 47.8454 35.5781 47.8454C35.3074 47.8454 35.1966 47.8743 35.332 47.9096Z" fill="#FFF1E6"/>
<path fill-rule="evenodd" clip-rule="evenodd" d="M18.6607 5.91989C17.1251 6.2813 15.5491 7.44201 14.8317 8.74026C14.4828 9.37153 14.416 9.65039 14.4154 10.4767C14.4148 11.2925 14.4902 11.6176 14.8556 12.3751C15.5438 13.8025 15.7959 14.0458 15.4619 12.9603C15.1197 11.8479 15.117 10.9236 15.4542 10.1955C15.9259 9.17676 17.0132 8.43764 18.0402 8.43764C18.4904 8.43764 18.5224 8.40206 18.7647 7.62905C18.904 7.18425 19.1383 6.58322 19.2854 6.29311C19.5775 5.71697 19.562 5.70769 18.6607 5.91989ZM46.3121 6.01186C46.3557 6.14714 46.5339 6.76954 46.708 7.39476L47.0245 8.53158L47.6833 8.46829C48.5932 8.38097 49.2976 8.64956 50 9.35198C50.8021 10.1542 51.0238 11.0666 50.7263 12.3429C50.6133 12.828 50.5709 13.2557 50.6323 13.2937C50.6937 13.3315 50.9195 12.998 51.1344 12.5525C51.7076 11.3638 51.7637 9.9952 51.2825 8.94389C50.6549 7.57308 49.3204 6.52036 47.5409 5.99245C46.525 5.69095 46.2104 5.69587 46.3121 6.01186ZM17.2677 15.5632C16.8682 15.8909 16.3235 16.431 16.0575 16.7632C15.0693 17.9975 14.9392 18.8809 15.6095 19.8059C15.8415 20.1262 16.0313 20.4833 16.0313 20.5995C16.0313 20.7156 15.3804 21.4597 14.5847 22.2531C12.5223 24.3096 11.672 25.706 11.672 27.0363C11.672 27.6033 11.8991 27.8938 13.2095 29.004C13.64 29.3687 13.5705 29.6737 12.8467 30.5966C12.1314 31.5089 11.3304 33.1028 11.1784 33.9165C11.0834 34.4251 11.0938 34.4406 11.7635 34.7794C12.1385 34.9691 12.6794 35.2219 12.9654 35.341L13.4853 35.5577L13.8365 34.9585C15.1149 32.7773 18.2119 31.8348 20.6122 32.8965C21.3747 33.2338 22.5499 34.3184 23.0174 35.1165C23.4078 35.7825 23.4155 35.7861 23.885 35.5258L24.2153 35.3426L23.7789 35.1619C22.4015 34.5914 21.9373 32.7531 22.8858 31.6257C23.9603 30.3487 25.8862 30.5858 26.6343 32.0871L26.9708 32.7624L27.7832 31.7696C28.8901 30.4166 30.1318 29.3204 31.0696 28.8685C31.7117 28.5591 32.053 28.4905 32.9766 28.4853C34.8178 28.475 36.0648 29.2175 37.9667 31.4563C39.0107 32.6852 39.2345 32.8462 39.2345 32.3689C39.2345 32.0134 39.95 31.1993 40.4438 30.993C41.993 30.3457 43.6263 31.3854 43.6263 33.0189C43.6263 34.1048 43.0474 34.9176 42.0541 35.2266C41.7124 35.3329 41.7135 35.3355 42.194 35.5625L42.6785 35.7913L42.956 35.2277C43.36 34.407 44.4626 33.3669 45.3888 32.9328C46.1037 32.5977 46.3632 32.5548 47.672 32.5548C49.0094 32.5548 49.2252 32.5925 49.9618 32.9542C50.8511 33.3908 52.0426 34.5047 52.3093 35.1488C52.4756 35.55 52.4872 35.5538 53.0032 35.3717C53.5506 35.1786 54.9845 34.4797 54.9845 34.4062C54.9845 34.3828 54.8825 34.02 54.7578 33.6C54.4549 32.5786 54.0234 31.7523 53.2334 30.68C52.4088 29.5606 52.4189 29.2307 53.297 28.6214C53.645 28.3798 54.049 27.9409 54.1948 27.646C54.4303 27.1697 54.4408 27.025 54.2891 26.3469C54.057 25.3104 53.0407 23.8397 51.513 22.33L50.2735 21.1053L49.4812 21.3682C47.8653 21.9046 46.3835 22.1325 44.5079 22.1334C41.5133 22.1348 39.885 21.6027 35.4027 19.1575C30.2045 16.3219 27.8192 15.588 23.2032 15.4038C22.0044 15.356 20.3419 15.2381 19.5088 15.1421L17.9942 14.9673L17.2677 15.5632ZM33.7962 33.1173C33.7969 33.6587 33.8222 33.8629 33.8527 33.5713C33.8831 33.2795 33.8827 32.8365 33.8516 32.5869C33.8205 32.3371 33.7956 32.5759 33.7962 33.1173ZM10.8665 35.8595C10.8665 36.2076 10.8939 36.35 10.9275 36.1759C10.961 36.0018 10.961 35.7172 10.9275 35.5431C10.8939 35.369 10.8665 35.5115 10.8665 35.8595ZM51.3206 41.59L50.836 42.1173L51.3634 41.6327C51.6535 41.3661 51.8907 41.1289 51.8907 41.1054C51.8907 40.9979 51.7717 41.0992 51.3206 41.59ZM20.672 42.0036C18.5248 42.363 16.3223 43.8452 16.0891 45.0875C15.6907 47.211 18.0767 49.4488 20.4408 49.1688C22.565 48.9173 24.047 47.262 24.047 45.1408C24.047 42.911 22.7047 41.6632 20.672 42.0036ZM50.6044 42.3638C50.6753 42.4347 50.883 42.4692 51.0659 42.4403C51.3473 42.396 51.3276 42.3764 50.9371 42.3115C50.6576 42.2653 50.5264 42.2858 50.6044 42.3638ZM49.5704 44.3474C48.7022 44.7535 47.7977 45.7162 47.4644 46.5891C47.1348 47.4521 47.22 49.0428 47.6395 49.8613C47.9986 50.5617 48.9114 51.4067 49.6918 51.7611C50.5898 52.1688 52.0635 52.128 52.9828 51.6698C54.2524 51.0373 54.6515 49.8738 54.2244 48.05C53.8112 46.2854 52.8536 44.7247 51.8731 44.2176C51.2987 43.9206 50.3713 43.9729 49.5704 44.3474ZM13.7968 45.0803C10.9172 48.231 10.5894 53.0326 13.1678 54.2943C13.6752 54.5425 14.078 54.6268 14.729 54.6207C15.2116 54.6162 15.6424 54.5766 15.6864 54.5327C15.7303 54.4887 15.636 53.7782 15.4768 52.9538C15.1734 51.3814 15.1125 49.9226 15.3139 49.0558C15.4153 48.6197 15.3665 48.4061 14.9941 47.6547C14.6027 46.865 14.5548 46.6336 14.5548 45.5327C14.5548 44.853 14.5453 44.297 14.5337 44.297C14.5221 44.297 14.1905 44.6494 13.7968 45.0803ZM35.3204 45.651C35.7129 46.3282 35.75 46.3531 36.5212 46.4588C37.2764 46.5623 38.4425 47.1222 39.0235 47.6603C39.2555 47.8751 40.0549 48.3431 40.7999 48.7003C44.2043 50.3324 46.4063 52.3596 46.4063 53.8616C46.4063 54.308 46.6101 54.422 47.4079 54.422C47.9912 54.422 48.8957 54.038 49.2131 53.6555C49.4324 53.3912 49.4803 53.4426 48.5475 52.9428C46.6478 51.9252 45.3854 49.5326 45.6432 47.4384L45.7325 46.7125L44.3152 46.7907C42.8152 46.8733 42.4688 46.7724 42.4688 46.253C42.4688 46.0838 42.3977 46.0207 42.2646 46.0717C41.8062 46.2476 36.1347 45.54 35.2345 45.1946C35.0486 45.1233 35.0649 45.21 35.3204 45.651Z" fill="#F7E1AE"/>
<path fill-rule="evenodd" clip-rule="evenodd" d="M29.5312 0.209833C27.4251 0.465349 25.853 0.80749 24.3984 1.32696C22.2907 2.07972 21.2646 2.86371 20.3585 4.4134C18.9309 6.85535 18.0555 9.85643 17.7799 13.2539C17.6986 14.2552 17.7198 14.4656 17.9226 14.6683C18.0535 14.7993 18.2669 14.9084 18.3967 14.9108C18.5266 14.9132 19.0776 14.9729 19.6214 15.0437C20.165 15.1144 21.842 15.2411 23.3479 15.3255C26.3549 15.4938 27.6903 15.7098 29.6015 16.3373C30.939 16.7763 33.5992 18.0419 36.6328 19.6823C39.785 21.387 42.0233 22.0727 44.4479 22.0765C47.7473 22.0815 52.1346 20.6539 53.1571 19.2423C54.4128 17.5087 53.8263 15.5887 51.5693 14.0455C50.6093 13.3892 48.5229 12.3123 47.9162 12.16C47.7045 12.1068 47.5312 12.0133 47.5312 11.952C47.5312 11.4925 46.9137 8.41108 46.6177 7.39352C45.391 3.17702 43.9313 1.33835 41.2634 0.649286C38.8165 0.0173176 32.9341 -0.203042 29.5312 0.209833ZM31.0078 1.6549C28.6586 1.81183 25.3455 2.52269 24.0027 3.1579C22.5458 3.8471 21.505 5.05113 20.6701 7.01285C19.843 8.95671 18.9966 13.247 19.3921 13.4914C19.9309 13.8244 27.0939 14.0884 31.0384 13.9208C35.8699 13.7153 39.217 13.3331 43.5725 12.4895C45.14 12.1859 45.8966 11.979 45.9502 11.8395C45.9933 11.7269 45.9264 11.0578 45.8014 10.3527C45.0971 6.3806 43.621 3.40624 41.9246 2.54083C40.8266 1.98058 37.4227 1.51076 35.8418 1.70102C31.7985 2.18772 29.582 5.20441 29.4775 10.3623C29.4519 11.6269 29.382 12.2864 29.2574 12.4365C28.9777 12.7736 28.4454 12.7063 28.1792 12.3002C27.9793 11.9949 27.9569 11.6577 28.0231 9.94474C28.1521 6.60771 28.9445 4.42324 30.6819 2.61565C31.2031 2.0734 31.6161 1.62691 31.5999 1.62354C31.5836 1.62016 31.3171 1.63422 31.0078 1.6549ZM38.8444 5.64147C36.9282 6.59013 36.4952 9.53257 38.0565 10.9966C39.9974 12.8166 42.8918 11.3251 42.8861 8.50797C42.8814 6.18893 40.7674 4.68972 38.8444 5.64147ZM39.5198 6.93002C38.7336 7.32799 38.331 8.45524 38.6633 9.32908C39.1244 10.5421 40.6663 10.5961 41.2742 9.42049C41.7348 8.52963 41.3865 7.29311 40.5798 6.95604C39.9868 6.70826 39.9595 6.70755 39.5198 6.93002ZM45.5625 13.5783C42.9408 14.2614 36.9617 15.1002 33.4335 15.2802C32.4475 15.3304 31.6445 15.4093 31.6494 15.4554C31.6544 15.5015 32.5877 15.9967 33.7237 16.5558C34.8596 17.1151 36.5969 18.0068 37.5844 18.5376C40.796 20.2641 43.1849 20.8513 45.7588 20.547C49.074 20.1552 51.7379 19.0439 52.1423 17.884C52.5158 16.8122 51.2281 15.3578 48.8648 14.1826C47.2845 13.3968 46.6824 13.2867 45.5625 13.5783Z" fill="#5F8D4E"/>
<path fill-rule="evenodd" clip-rule="evenodd" d="M29.5312 0.209833C27.4251 0.465349 25.853 0.80749 24.3984 1.32696C22.2907 2.07972 21.2646 2.86371 20.3585 4.4134C18.9309 6.85535 18.0555 9.85643 17.7799 13.2539C17.6986 14.2552 17.7198 14.4656 17.9226 14.6683C18.0535 14.7993 18.2669 14.9084 18.3967 14.9108C18.5266 14.9132 19.0776 14.9729 19.6214 15.0437C20.165 15.1144 21.842 15.2411 23.3479 15.3255C26.3549 15.4938 27.6903 15.7098 29.6015 16.3373C30.939 16.7763 33.5992 18.0419 36.6328 19.6823C39.785 21.387 42.0233 22.0727 44.4479 22.0765C47.7473 22.0815 52.1346 20.6539 53.1571 19.2423C54.4128 17.5087 53.8263 15.5887 51.5693 14.0455C50.6093 13.3892 48.5229 12.3123 47.9162 12.16C47.7045 12.1068 47.5312 12.0133 47.5312 11.952C47.5312 11.4925 46.9137 8.41108 46.6177 7.39352C45.391 3.17702 43.9313 1.33835 41.2634 0.649286C38.8165 0.0173176 32.9341 -0.203042 29.5312 0.209833ZM31.0078 1.6549C28.6586 1.81183 25.3455 2.52269 24.0027 3.1579C22.5458 3.8471 21.505 5.05113 20.6701 7.01285C19.843 8.95671 18.9966 13.247 19.3921 13.4914C19.9309 13.8244 27.0939 14.0884 31.0384 13.9208C35.8699 13.7153 39.217 13.3331 43.5725 12.4895C45.14 12.1859 45.8966 11.979 45.9502 11.8395C45.9933 11.7269 45.9264 11.0578 45.8014 10.3527C45.0971 6.3806 43.621 3.40624 41.9246 2.54083C40.8266 1.98058 37.4227 1.51076 35.8418 1.70102C31.7985 2.18772 29.582 5.20441 29.4775 10.3623C29.4519 11.6269 29.382 12.2864 29.2574 12.4365C28.9777 12.7736 28.4454 12.7063 28.1792 12.3002C27.9793 11.9949 27.9569 11.6577 28.0231 9.94474C28.1521 6.60771 28.9445 4.42324 30.6819 2.61565C31.2031 2.0734 31.6161 1.62691 31.5999 1.62354C31.5836 1.62016 31.3171 1.63422 31.0078 1.6549ZM38.8444 5.64147C36.9282 6.59013 36.4952 9.53257 38.0565 10.9966C39.9974 12.8166 42.8918 11.3251 42.8861 8.50797C42.8814 6.18893 40.7674 4.68972 38.8444 5.64147ZM39.5198 6.93002C38.7336 7.32799 38.331 8.45524 38.6633 9.32908C39.1244 10.5421 40.6663 10.5961 41.2742 9.42049C41.7348 8.52963 41.3865 7.29311 40.5798 6.95604C39.9868 6.70826 39.9595 6.70755 39.5198 6.93002ZM45.5625 13.5783C42.9408 14.2614 36.9617 15.1002 33.4335 15.2802C32.4475 15.3304 31.6445 15.4093 31.6494 15.4554C31.6544 15.5015 32.5877 15.9967 33.7237 16.5558C34.8596 17.1151 36.5969 18.0068 37.5844 18.5376C40.796 20.2641 43.1849 20.8513 45.7588 20.547C49.074 20.1552 51.7379 19.0439 52.1423 17.884C52.5158 16.8122 51.2281 15.3578 48.8648 14.1826C47.2845 13.3968 46.6824 13.2867 45.5625 13.5783Z" fill="#5F8D4E"/>
<path fill-rule="evenodd" clip-rule="evenodd" d="M39.5517 7.03532C39.3782 7.10507 39.1094 7.37001 38.9546 7.62398C38.1391 8.9616 39.2456 10.7034 40.4989 10.0552C41.5915 9.49035 41.6185 7.5344 40.5406 7.04319C40.1484 6.8646 39.9799 6.86319 39.5517 7.03532ZM45.0804 40.0178C44.9589 40.1394 44.8594 40.2992 44.8594 40.3729C44.8594 40.5294 45.6626 42.1542 46.3655 43.4202L46.8549 44.3012L47.3111 43.9124L47.7674 43.5234L46.884 41.7486C45.9133 39.7983 45.6004 39.4979 45.0804 40.0178ZM27.211 44.9512C26.688 45.2256 25.5938 46.2659 25.5938 46.4889C25.5938 46.5795 25.384 47.0704 25.1277 47.5798L24.6616 48.5059L25.2056 48.7236C25.7437 48.9389 25.753 48.9371 26.0819 48.5461C26.2647 48.3289 26.7517 47.9642 27.1642 47.7357L27.9141 47.3203L30.4454 47.3235C33.3009 47.3271 33.6062 47.4109 34.617 48.4685C35.9413 49.8544 36.1289 51.4145 34.9573 51.3001C34.6004 51.2653 34.4584 51.1371 34.1563 50.5769C33.3899 49.1559 32.5088 48.674 31.1925 48.9563C30.721 49.0574 30.2972 49.0527 29.7558 48.9403C28.8987 48.7624 28.148 48.8983 27.5883 49.3328C27.2639 49.5846 27.2712 49.5884 29.3461 50.2418C32.6254 51.2744 36.3533 52.0859 38.3204 52.1952L39.1641 52.2422L39.1255 51.6094C39.0367 50.1598 38.2419 48.8108 37.1799 48.3068C36.8957 48.1719 36.2459 48.0098 35.7358 47.9465C34.7179 47.8202 34.6446 47.762 33.998 46.5635C33.7617 46.1256 33.3853 45.6996 33.0232 45.4603C32.4854 45.1049 32.3139 45.0695 31.0878 45.0605C30.3477 45.0551 29.5641 44.9759 29.3464 44.8847C28.7952 44.6536 27.7143 44.6872 27.211 44.9512ZM52.3126 53.6103C52.0419 53.6839 51.8007 53.7632 51.7768 53.7867C51.7364 53.8262 53.6809 57.7921 53.8069 57.9275C53.9097 58.038 54.8438 57.5228 54.8438 57.3556C54.8438 57.1814 53.0653 53.709 52.9011 53.5625C52.8481 53.5153 52.5833 53.5368 52.3126 53.6103ZM55.0309 59.1619L54.5851 59.3841L55.0286 60.2835C55.3329 60.9006 55.5728 61.2083 55.7926 61.2634C56.1869 61.3624 56.5317 61.0978 56.5301 60.6977C56.5285 60.3714 55.7455 58.9162 55.5793 58.9309C55.5228 58.9358 55.2761 59.0399 55.0309 59.1619Z" fill="white"/>
<path fill-rule="evenodd" clip-rule="evenodd" d="M31.0077 1.65491C28.6586 1.81184 25.3454 2.5227 24.0026 3.15791C22.5457 3.84711 21.505 5.05114 20.6701 7.01286C19.8429 8.95672 18.9965 13.247 19.3921 13.4915C19.9308 13.8245 27.0938 14.0884 31.0384 13.9208C35.8698 13.7153 39.217 13.3331 43.5724 12.4895C45.14 12.1859 45.8965 11.979 45.9501 11.8395C45.9933 11.7269 45.9263 11.0578 45.8013 10.3527C45.0971 6.38061 43.6209 3.40625 41.9246 2.54084C40.8266 1.98059 37.4226 1.51077 35.8417 1.70103C31.7984 2.18773 29.5819 5.20442 29.4774 10.3623C29.4518 11.6269 29.3819 12.2864 29.2573 12.4365C28.9776 12.7736 28.4454 12.7063 28.1792 12.3002C27.9792 11.9949 27.9568 11.6577 28.0231 9.94475C28.152 6.60772 28.9445 4.42325 30.6819 2.61566C31.203 2.07341 31.616 1.62692 31.5999 1.62355C31.5836 1.62017 31.3171 1.63423 31.0077 1.65491ZM38.8443 5.64148C36.9282 6.59014 36.4952 9.53258 38.0564 10.9966C39.9973 12.8166 42.8918 11.3251 42.886 8.50798C42.8814 6.18894 40.7674 4.68973 38.8443 5.64148ZM45.5624 13.5784C42.9407 14.2614 36.9616 15.1002 33.4335 15.2802C32.4474 15.3304 31.6445 15.4093 31.6494 15.4554C31.6543 15.5015 32.5876 15.9967 33.7236 16.5558C34.8596 17.1151 36.5968 18.0068 37.5843 18.5376C40.7959 20.2641 43.1848 20.8513 45.7587 20.547C49.0739 20.1553 51.7378 19.0439 52.1422 17.884C52.5157 16.8122 51.228 15.3578 48.8647 14.1826C47.2845 13.3968 46.6823 13.2867 45.5624 13.5784ZM23.662 15.4293C23.8758 15.4615 24.1922 15.4606 24.3651 15.4273C24.5381 15.394 24.3632 15.3675 23.9765 15.3685C23.5897 15.3696 23.4483 15.3969 23.662 15.4293Z" fill="#A4BE7B"/>
<path fill-rule="evenodd" clip-rule="evenodd" d="M22.6757 15.4251C22.8111 15.4605 23.0325 15.4605 23.1679 15.4251C23.3033 15.3898 23.1925 15.3608 22.9218 15.3608C22.6511 15.3608 22.5403 15.3898 22.6757 15.4251ZM51.6034 22.3946C52.1862 23.0155 52.3124 23.1271 52.3124 23.0215C52.3124 22.999 52.0119 22.6984 51.6445 22.3536L50.9765 21.7267L51.6034 22.3946ZM43.9841 22.1813C44.3148 22.2111 44.8211 22.2107 45.1091 22.1804C45.3971 22.1502 45.1265 22.1259 44.5077 22.1264C43.889 22.1269 43.6533 22.1516 43.9841 22.1813ZM32.2467 33.1173C32.2474 33.5813 32.2737 33.7542 32.305 33.5015C32.3362 33.2488 32.3357 32.8691 32.3036 32.6577C32.2714 32.4464 32.2458 32.6532 32.2467 33.1173ZM25.6359 45.1407C25.6359 45.5661 25.6622 45.7401 25.6944 45.5274C25.7266 45.3148 25.7266 44.9666 25.6944 44.754C25.6622 44.5414 25.6359 44.7153 25.6359 45.1407ZM24.0794 45.1407C24.0794 45.4114 24.1084 45.5221 24.1437 45.3868C24.1791 45.2515 24.1791 45.0299 24.1437 44.8946C24.1084 44.7593 24.0794 44.87 24.0794 45.1407ZM45.5979 48.0235C45.5994 48.3329 45.6283 48.4429 45.6619 48.2679C45.6955 48.093 45.6942 47.8399 45.659 47.7054C45.6239 47.571 45.5963 47.7142 45.5979 48.0235ZM40.6406 52.1485C40.6406 52.2388 40.435 52.322 40.1835 52.3337C39.7341 52.3544 39.7331 52.3558 40.1304 52.415C40.5334 52.4752 40.9187 52.2625 40.7366 52.0806C40.6839 52.0277 40.6406 52.0583 40.6406 52.1485ZM51.082 52.1282C51.2172 52.1637 51.4389 52.1637 51.5742 52.1282C51.7094 52.0929 51.5988 52.064 51.3281 52.064C51.0574 52.064 50.9467 52.0929 51.082 52.1282ZM50.8727 53.6776C51.0477 53.7112 51.3008 53.71 51.4352 53.6748C51.5697 53.6397 51.4265 53.6121 51.1171 53.6137C50.8077 53.6152 50.6978 53.644 50.8727 53.6776Z" fill="#E0C6B6"/>
</g>
<defs>
<clipPath id="clip0_1005_6346">
<rect width="72" height="72" fill="white"/>
</clipPath>
</defs>
</svg>
