<svg width="72" height="72" viewBox="0 0 72 72" fill="none" xmlns="http://www.w3.org/2000/svg">
<path fill-rule="evenodd" clip-rule="evenodd" d="M46.0548 33.3645C45.8685 33.9028 44.2969 40.2212 44.2969 40.4323C44.2969 41.1562 46.7632 42.6402 48.8672 43.1823C50.3308 43.5594 52.4604 43.6877 53.4227 43.4568C54.2056 43.2691 54.4677 43.0026 54.6283 42.2313C54.7109 41.8349 54.674 41.7581 54.3116 41.5706C53.6493 41.2281 52.6206 40.09 52.2094 39.2451C51.8844 38.5772 51.823 38.2548 51.794 37.0664L51.76 35.6717L50.7847 35.4239C49.4085 35.0745 47.8288 34.39 46.9049 33.7427C46.3825 33.3768 46.0949 33.2489 46.0548 33.3645ZM6.78136 45.2192C6.49814 45.4174 6.46875 45.5557 6.46875 46.6877C6.46875 47.8197 6.49814 47.958 6.78136 48.1562C7.0522 48.3461 7.88513 48.3752 13.0323 48.3752H18.9706L18.6993 47.7775C18.3548 47.0186 18.3566 46.4936 18.7062 45.7231C18.8592 45.3859 18.9844 45.0854 18.9844 45.0552C18.9844 45.0249 17.5922 45.0002 15.8906 45.0002H12.7969V45.7736C12.7969 46.3596 12.7287 46.6153 12.5156 46.8283C11.8822 47.4617 11.25 46.9348 11.25 45.7736V45.0002H9.17198C7.51866 45.0002 7.02998 45.0449 6.78136 45.2192ZM4.51547 47.03C3.906 47.3581 3.80714 47.7456 3.8018 49.8307L3.79688 51.7783L4.275 52.2564L4.75312 52.7346H13.7672H22.7812V51.6914C22.7812 51.1177 22.818 50.5526 22.8628 50.4358C22.9293 50.2622 22.8028 50.2234 22.1691 50.2234C21.7429 50.2234 21.2631 50.1533 21.103 50.0676C20.9007 49.9593 18.6822 49.9142 13.8306 49.9195C7.02956 49.9269 6.83353 49.9195 6.24234 49.6334C5.48198 49.2652 5.01511 48.538 4.92202 47.577C4.85255 46.8593 4.84692 46.8515 4.51547 47.03ZM26.8594 47.3786V47.9386L26.1211 47.9812C25.7151 48.0045 26.332 48.0248 27.4922 48.0262C28.6523 48.0277 29.2428 47.9961 28.8044 47.9559C28.1483 47.8959 27.9536 47.8144 27.7037 47.4954C27.5366 47.2823 27.2784 47.0426 27.1297 46.963C26.884 46.8317 26.8594 46.8695 26.8594 47.3786ZM7.17188 54.7601C7.17188 55.6819 8.15077 65.1851 8.29969 65.7096C8.50472 66.431 9.17297 67.1544 9.88552 67.4259C10.3989 67.6216 11.2186 67.6459 16.1248 67.6109L21.773 67.5705L22.3701 67.1486C23.4176 66.4085 23.4899 66.1415 23.9882 61.1773C24.3953 57.1205 24.4139 56.7313 24.2049 56.6117C23.7309 56.3406 23.1962 55.6357 22.96 54.9705L22.7153 54.2814H14.9435H7.17188V54.7601ZM13.9268 55.5378C13.8468 55.6874 13.7812 56.245 13.7812 56.777C13.7812 57.6874 13.7566 57.7623 13.3618 58.0544C12.5207 58.6763 12.4453 58.996 12.4453 61.9455C12.4453 64.4891 12.4608 64.6424 12.7688 65.1377C12.9468 65.4237 13.3265 65.8034 13.6125 65.9814C14.0835 66.2742 14.3004 66.3049 15.9009 66.3049C17.5531 66.3049 17.7024 66.282 18.1786 65.9557C19.1686 65.2773 19.2656 64.9196 19.2656 61.9476C19.2656 59.0472 19.1683 58.6079 18.4002 58.0401C18.0252 57.7628 18 57.6809 18 56.7377C18 55.3117 17.9308 55.2658 15.779 55.2658C14.2356 55.2658 14.0584 55.2918 13.9268 55.5378ZM15.3281 57.705C15.3281 58.3908 15.2686 58.6511 15.0709 58.83C14.9295 58.9579 14.7443 59.0627 14.6593 59.0627C14.5744 59.0627 14.3695 59.2347 14.2041 59.4451C13.9208 59.8052 13.906 59.9561 13.9478 62.0593C14.003 64.833 13.9996 64.8283 15.8749 64.8283C17.7715 64.8283 17.7188 64.911 17.7188 61.9355V59.4805L17.2617 59.2097C16.4932 58.7542 16.4531 58.6805 16.4531 57.7213V56.8127H15.8906H15.3281V57.705Z" fill="#A4BE7B"/>
<path fill-rule="evenodd" clip-rule="evenodd" d="M47.25 29.0539C46.2722 29.3158 45.5129 29.813 45.3054 30.3272C45.072 30.9062 42.75 40.147 42.75 40.4973C42.75 41.0058 43.2713 41.8434 43.9871 42.4847C46.1327 44.4074 51.057 45.6355 53.7782 44.9267C55.2478 44.5439 55.86 43.972 56.0462 42.8076L56.1361 42.2453L55.4548 42.0314L54.7734 41.8173L54.5625 42.4583C54.2537 43.3967 53.9056 43.5268 51.75 43.5092C49.6627 43.4922 48.3479 43.1901 46.5795 42.3209C45.3424 41.713 44.2969 40.8479 44.2969 40.4322C44.2969 40.2234 45.8661 33.911 46.0523 33.371C46.089 33.2647 46.4459 33.4278 47.0218 33.814C48.0025 34.4717 49.6988 35.1827 51.0255 35.492L51.8494 35.6843L52.1497 34.9734C52.3149 34.5825 52.4348 34.2535 52.4164 34.2423C52.398 34.231 51.8449 34.0818 51.1875 33.9107C49.158 33.3822 47.1684 32.2942 46.7492 31.4834C46.5808 31.1578 46.5868 31.0857 46.7982 30.895C47.2236 30.5108 48.3162 30.3302 49.7108 30.4135L51.0211 30.4917L50.1134 30.0185C49.6142 29.7583 49.014 29.3841 48.7796 29.1868C48.2919 28.7765 48.2873 28.7761 47.25 29.0539ZM55.8984 30.946C55.6664 31.0005 54.9703 31.0539 54.3516 31.0649L53.2266 31.0848L54.0561 31.426C54.5123 31.6135 54.9458 31.8272 55.0195 31.9009C55.1019 31.9833 55.3233 31.9861 55.5954 31.9081C55.8384 31.8385 56.3382 31.7814 56.706 31.7814C57.4725 31.7814 57.5345 31.6691 56.9883 31.2715C56.4171 30.8556 56.3587 30.8382 55.8984 30.946ZM12.8672 41.4817C11.9548 41.6861 11.2517 42.406 11.2506 43.1368C11.25 43.4517 11.239 43.4532 9.00914 43.4532C7.76784 43.4532 6.5918 43.5199 6.37242 43.6029C5.8552 43.7982 5.26612 44.3677 5.05561 44.8759C4.94311 45.1476 4.78645 45.2814 4.58072 45.2814C4.04255 45.2814 3.00277 46.0608 2.57878 46.7821C2.18531 47.4515 2.17969 47.493 2.17969 49.711C2.17969 51.7974 2.20402 52.0105 2.5148 52.6417C2.93091 53.487 3.71841 54.0753 4.70911 54.2809L5.46005 54.4369L5.54442 55.0974C5.59083 55.4606 5.84789 58.0044 6.11564 60.7501C6.42052 63.8768 6.69178 66.005 6.84155 66.4454C7.17764 67.4336 8.3925 68.6307 9.42328 68.9893C10.1346 69.2368 10.649 69.2579 15.9609 69.2579C21.6655 69.2579 21.7339 69.2545 22.422 68.9373C23.4077 68.4828 24.0137 67.984 24.487 67.2377C25.0657 66.3252 25.1214 66.0392 25.5168 61.9454C25.711 59.9345 25.9055 58.0272 25.9491 57.7068L26.0283 57.1247L25.4946 57.0517C25.2011 57.0115 24.8392 56.9572 24.6902 56.9307C24.4351 56.8857 24.3939 57.1376 23.982 61.246C23.4921 66.1322 23.4166 66.4091 22.3701 67.1485L21.773 67.5704L16.1248 67.6108C11.2186 67.6458 10.3989 67.6215 9.88552 67.4259C9.17297 67.1543 8.50472 66.4309 8.29969 65.7095C8.15077 65.185 7.17188 55.6818 7.17188 54.76V54.2814H14.9766H22.7812V53.5079V52.7345H13.7672H4.75312L4.275 52.2564L3.79688 51.7782V49.8723C3.79688 47.7766 3.90741 47.3456 4.52742 47.025L4.92188 46.8211V47.4802C4.92188 48.3975 5.43741 49.2436 6.22997 49.6272C6.82327 49.9144 7.01634 49.9218 13.7905 49.9186L20.7422 49.9151L19.8984 49.1507L19.0547 48.3861L13.0743 48.3806C7.89511 48.3758 7.05192 48.3457 6.78136 48.1562C6.49814 47.9579 6.46875 47.8196 6.46875 46.6876C6.46875 44.9918 6.45553 45.0001 9.17198 45.0001H11.25V45.7735C11.25 46.3595 11.3182 46.6152 11.5312 46.8282C12.1659 47.4629 12.7969 46.9348 12.7969 45.7688V44.9905L15.9622 45.0053L19.1274 45.0201L19.8041 44.2718C20.4083 43.6036 20.4704 43.475 20.3839 43.07C20.3306 42.8206 20.1884 42.4662 20.068 42.2825C19.6417 41.6316 19.1213 41.5227 16.1016 41.4526C14.5547 41.4166 13.0992 41.4296 12.8672 41.4817ZM12.9375 43.2423C12.7828 43.4288 13.1235 43.4532 15.869 43.4532C18.5726 43.4532 18.9651 43.4258 18.8947 43.2423C18.8263 43.0644 18.3672 43.0314 15.963 43.0314C13.6008 43.0314 13.0826 43.0675 12.9375 43.2423ZM26.3451 46.7323C25.7165 47.4425 25.2113 48.0266 25.2222 48.0306C25.2332 48.0344 25.6028 48.0129 26.0433 47.9828L26.8445 47.9281L26.8871 47.3431L26.9297 46.7579L27.5217 47.3556C28.0602 47.8991 28.177 47.9532 28.8127 47.9532H29.5116L29.3839 47.5077C29.18 46.7967 28.6311 46.0795 28.0374 45.748L27.4878 45.4411L26.3451 46.7323ZM13.9268 55.5377C13.8468 55.6873 13.7812 56.2449 13.7812 56.7769C13.7812 57.6873 13.7566 57.7622 13.3618 58.0543C12.5207 58.6762 12.4453 58.996 12.4453 61.9454C12.4453 64.489 12.4608 64.6423 12.7688 65.1376C12.9468 65.4236 13.3265 65.8033 13.6125 65.9814C14.0835 66.2741 14.3004 66.3048 15.9009 66.3048C17.5531 66.3048 17.7024 66.2819 18.1786 65.9556C19.1686 65.2772 19.2656 64.9195 19.2656 61.9475C19.2656 59.0471 19.1683 58.6078 18.4002 58.04C18.0252 57.7627 18 57.6808 18 56.7377C18 55.3116 17.9308 55.2657 15.779 55.2657C14.2356 55.2657 14.0584 55.2917 13.9268 55.5377ZM15.3281 57.7049C15.3281 58.3907 15.2686 58.651 15.0709 58.8299C14.9295 58.9578 14.7443 59.0626 14.6593 59.0626C14.5744 59.0626 14.3695 59.2346 14.2041 59.445C13.9208 59.8051 13.906 59.956 13.9478 62.0592C14.003 64.8329 13.9996 64.8282 15.8749 64.8282C17.7715 64.8282 17.7188 64.9109 17.7188 61.9354V59.4804L17.2617 59.2096C16.4932 58.7541 16.4531 58.6804 16.4531 57.7212V56.8126H15.8906H15.3281V57.7049Z" fill="#5F8D4E"/>
<path fill-rule="evenodd" clip-rule="evenodd" d="M32.0415 24.1738C31.8275 24.3422 31.5679 24.4159 31.3417 24.3725C30.8784 24.2841 30.5156 24.6404 30.5156 25.184C30.5156 25.5001 30.6236 25.6638 30.9727 25.8765C31.8164 26.3909 32.6767 26.1643 33.118 25.3109C33.3984 24.7685 33.383 24.5236 33.0469 24.1875C32.6959 23.8365 32.4741 23.8335 32.0415 24.1738ZM56.0994 42.8203C55.7869 44.0544 55.2843 44.5462 53.9383 44.9349C52.381 45.3845 48.768 45.0221 46.9336 44.2322C46.7293 44.1441 46.6875 44.2004 46.6875 44.5631C46.6875 44.8125 46.8082 45.1206 46.9688 45.2812C47.2441 45.5566 47.4375 45.5625 56.1094 45.5625C66.4867 45.5625 65.5312 45.7314 65.5312 43.8968C65.5312 42.3219 65.5417 42.3281 62.8834 42.3281H60.75V43.0916C60.75 43.9397 60.5208 44.2969 59.9766 44.2969C59.4323 44.2969 59.2031 43.9397 59.2031 43.0916V42.3281L58.4297 42.3105C58.0043 42.3008 57.338 42.2851 56.949 42.2754L56.2418 42.2578L56.0994 42.8203ZM44.6704 44.3156C44.2254 44.5742 44.0156 45.3306 44.0156 46.676V47.939L43.207 47.9812C42.7622 48.0044 43.6368 48.0234 45.1502 48.0234H47.9021L48.5955 48.4501C48.977 48.6848 49.4421 49.112 49.6291 49.3993L49.969 49.9219H58.608H67.2469L67.7354 49.4333L68.2239 48.9448L68.1784 46.8896L68.1328 44.8343L67.7131 44.4736L67.2933 44.1128L67.1777 44.6619C67.1141 44.9638 67.0341 45.3485 66.9999 45.5165C66.9163 45.9266 66.2929 46.6501 65.8062 46.9017C65.1982 47.2161 47.0216 47.2167 46.4138 46.9024C45.7176 46.5424 45.2406 45.7826 45.169 44.9196C45.102 44.1098 45.0768 44.0793 44.6704 44.3156ZM50.2031 52.9197C50.2031 54.7033 49.951 55.4953 49.1475 56.2359C48.799 56.5571 48.3193 56.8588 48.0815 56.9063C47.8437 56.954 47.7104 57.0313 47.7852 57.0784C47.8602 57.1255 48.0492 58.4364 48.2054 59.9917C48.5288 63.2118 48.7025 63.7318 49.668 64.3709L50.2525 64.7578L55.9583 64.7966C61.6531 64.8353 61.6653 64.8347 62.295 64.5154C62.6556 64.3324 63.1 63.9447 63.3323 63.6103C63.7335 63.0328 63.7456 62.9557 64.2793 57.6337C64.5767 54.6684 64.8218 52.0999 64.824 51.9258L64.8281 51.6094H57.5156H50.2031V52.9197ZM55.546 53.2876C54.4539 53.6199 53.334 54.6803 53.0404 55.6603C52.6691 56.8995 53.034 58.5437 53.8394 59.2601C54.0743 59.4689 54.1406 59.689 54.1406 60.2588C54.1406 61.5628 55.1378 62.5781 56.4185 62.5781C57.7464 62.5781 58.6416 61.7287 58.755 60.3613C58.8052 59.7572 58.9295 59.4193 59.2829 58.9275C60.447 57.3071 60.1948 55.2625 58.6759 54.0063C57.8389 53.314 56.4827 53.0027 55.546 53.2876ZM55.6057 54.98C55.1592 55.1606 54.5844 55.9199 54.4823 56.464C54.4143 56.827 54.4755 57.1212 54.7228 57.62L55.0547 58.2891L56.1793 58.3308C57.5983 58.3834 57.8135 58.3262 58.1147 57.8161C58.6474 56.9144 58.2802 55.5228 57.3882 55.0616C56.9353 54.8273 56.0798 54.7882 55.6057 54.98ZM55.6875 60.1875C55.6875 60.5042 56.1538 61.0312 56.4341 61.0312C56.6968 61.0312 57.0697 60.7167 57.1006 60.4687C57.1636 59.9656 57.0887 59.9062 56.3906 59.9062C55.7813 59.9062 55.6875 59.9438 55.6875 60.1875Z" fill="#FD80A6"/>
<path fill-rule="evenodd" clip-rule="evenodd" d="M31.2107 33.876C30.7767 34.332 30.1161 35.0627 29.7427 35.4998L29.0638 36.2945L29.649 36.8909C30.2848 37.5387 30.3775 37.9363 29.9771 38.2985C29.6022 38.6378 29.2324 38.5854 28.6821 38.1151C28.4144 37.8862 28.1549 37.6964 28.1054 37.6933C28.056 37.69 27.9717 37.9219 27.9179 38.2082C27.7842 38.9208 27.3671 39.701 26.7613 40.3715C26.1021 41.1012 25.5851 41.4622 24.6612 41.8376L23.9096 42.1431L24.4704 42.5938C24.9271 42.9608 25.0312 43.1338 25.0312 43.5251C25.0312 43.8563 24.9467 44.0509 24.7592 44.1513C24.3105 44.3914 24.0761 44.3225 23.4658 43.7712L22.884 43.2456L21.77 44.4392C20.3392 45.9721 19.9171 46.5844 20.0348 46.9554C20.1836 47.4242 21.6624 48.6562 22.0762 48.6562C22.5399 48.6562 22.5419 48.6541 29.0207 41.3744C33.2729 36.5964 34.3124 35.3521 34.3124 35.0397C34.3124 34.7725 34.1474 34.4952 33.7851 34.1535C33.018 33.4299 32.4773 33.0469 32.223 33.0469C32.1001 33.0469 31.6445 33.42 31.2107 33.876ZM24.8577 50.0505L24.3984 50.4606L24.3525 52.3574C24.3157 53.8833 24.3506 54.3388 24.5307 54.6871C24.9942 55.5836 24.4842 55.5469 36.4986 55.5469C46.4335 55.5469 47.4532 55.5258 47.8139 55.3127C48.4243 54.9522 48.5156 54.5778 48.5156 52.4357V50.4627L48.1045 50.0517L47.6935 49.6406H36.5052H25.3169L24.8577 50.0505ZM25.6858 50.3197C25.1718 50.8877 25.6473 52.2053 26.5919 52.8306L27.1901 53.2266L36.1002 53.2658C42.0298 53.2918 45.1946 53.2553 45.5612 53.1565C46.627 52.8697 47.3906 51.9449 47.3906 50.9414C47.3906 50.2999 47.194 50.0625 46.6626 50.0625C46.2405 50.0625 45.9435 50.4097 45.7862 51.087C45.7302 51.3283 45.5581 51.5308 45.3384 51.6143C44.7633 51.833 28.0005 51.7895 27.5624 51.5682C27.3504 51.4612 27.1386 51.1706 27.0286 50.8364C26.9284 50.5315 26.7702 50.2336 26.6771 50.1744C26.3819 49.9868 25.9266 50.0536 25.6858 50.3197ZM27.7032 57.1992C27.7032 57.2573 27.9527 59.8162 28.2576 62.8858C28.6215 66.5501 28.8828 68.6028 29.0183 68.8624C29.3084 69.418 29.9323 69.9782 30.5462 70.2347C30.9877 70.4191 31.8957 70.453 36.3822 70.4523C39.603 70.4519 41.9011 70.3943 42.2182 70.3063C42.5058 70.2264 42.9359 69.9974 43.1737 69.7972C44.0344 69.0729 44.0925 68.8115 44.6369 63.2049C44.9144 60.3465 45.1757 57.8022 45.2178 57.5508L45.294 57.0938H36.4985C31.661 57.0938 27.7031 57.1411 27.7032 57.1992ZM34.2208 59.3453C33.6169 59.5417 33.2242 59.7766 32.92 60.123L32.4843 60.6192V63.6187C32.4843 66.4505 32.5008 66.6392 32.7789 66.9928C34.1533 68.74 39.5414 68.5374 40.3052 66.7097C40.4483 66.3668 40.4998 65.5252 40.4994 63.5318C40.4988 60.3015 40.4378 60.1232 39.1252 59.5133C38.4243 59.1878 38.1113 59.1345 36.7031 59.1017C35.3941 59.0711 34.9209 59.1176 34.2208 59.3453ZM34.7796 60.7881C34.1133 61.0457 34.1002 61.1252 34.6897 61.3336C35.4429 61.5999 37.7575 61.5705 38.3906 61.2866L38.8828 61.0658L38.4609 60.8857C37.8776 60.6368 35.3449 60.5696 34.7796 60.7881ZM34.0312 64.4099V66.0866L34.4882 66.3331C35.1298 66.6793 37.6702 66.6879 38.4257 66.3465L38.9531 66.1081V64.4752V62.8421L38.2851 62.9563C37.3163 63.1216 35.0205 63.0852 34.4882 62.8959L34.0312 62.7334V64.4099Z" fill="#FFFF9D"/>
<path fill-rule="evenodd" clip-rule="evenodd" d="M31.1377 31.9056C30.8998 32.0507 30.0593 32.8801 29.27 33.7487C28.1167 35.0179 27.853 35.3859 27.928 35.622C27.9792 35.7836 28.036 36.2953 28.0541 36.7592C28.0851 37.5494 28.1216 37.632 28.6334 38.0649C29.2659 38.6002 29.5616 38.6416 29.9531 38.2501C30.3695 37.8338 30.3019 37.5635 29.6167 36.907L28.9991 36.3151L30.3879 34.7617C31.1518 33.9071 31.9019 33.1682 32.0549 33.1197C32.4157 33.0053 32.8036 33.221 33.6358 33.9995C34.1413 34.4724 34.3125 34.7348 34.3125 35.0377C34.3125 35.3723 33.3146 36.5657 28.5969 41.8739C25.4534 45.4109 22.7835 48.384 22.6638 48.4806C22.1761 48.8746 21.6472 48.6924 20.79 47.8351C20.3254 47.3705 19.9687 46.8893 19.9687 46.727C19.9687 46.4486 22.5808 43.3465 22.8345 43.3238C22.9025 43.3177 23.2033 43.5341 23.5029 43.8048C24.0965 44.3412 24.468 44.4182 24.8103 44.0761C25.1953 43.6909 25.0778 43.1933 24.4737 42.6509C23.94 42.1718 23.8687 42.1495 22.815 42.1338L21.714 42.1173L20.6655 43.3557C20.089 44.0367 19.4006 44.8469 19.136 45.1558C18.7483 45.6086 18.6424 45.8664 18.5913 46.4832C18.5051 47.5217 18.7078 47.9316 19.8308 48.9909C20.8896 49.9898 21.5331 50.2777 22.4312 50.1546L23.0304 50.0725L22.8928 50.6652C22.6716 51.6171 22.8268 54.678 23.1261 55.2658C23.6215 56.239 24.247 56.7111 25.449 57.0194L26.0776 57.1805L26.5998 62.5864C26.8869 65.5597 27.191 68.3087 27.2755 68.6955C27.4625 69.5514 28.2378 70.7203 28.9412 71.207C30.0667 71.9859 30.2031 72.0001 36.5451 72L42.3984 71.9999L43.2422 71.6001C44.1956 71.1484 45.0381 70.299 45.4449 69.3792C45.7047 68.7921 46.2669 63.7876 46.6432 58.7135L46.7578 57.169L47.49 57.0073C48.4798 56.7887 49.0626 56.4233 49.5683 55.7045C49.9913 55.1033 49.9923 55.0972 50.0373 52.8398C50.0739 51.0078 50.0389 50.4634 49.8534 49.9774C49.5741 49.2462 48.7211 48.4462 47.997 48.2363C47.6201 48.1271 44.1344 48.0933 36.2587 48.1226C27.7259 48.1542 25.0786 48.125 25.1494 47.9994C25.2004 47.9088 25.8175 47.2127 26.5206 46.4525C27.2239 45.6924 28.5782 44.1845 29.5304 43.1017C30.4826 42.0189 32.1854 40.0991 33.3145 38.8354C34.4434 37.5718 35.4753 36.3378 35.6074 36.0932C35.883 35.5831 35.9266 34.7913 35.7107 34.2163C35.5191 33.7057 34.4174 32.5636 33.617 32.0455C32.8525 31.5506 31.8157 31.4921 31.1377 31.9056ZM24.8577 50.0507L24.3984 50.4608L24.3581 52.4062C24.3215 54.1606 24.3457 54.397 24.6042 54.8123C24.7618 55.0655 25.053 55.3345 25.2515 55.4099C25.7983 55.6179 47.2747 55.5938 47.7336 55.3847C48.3789 55.0907 48.5695 54.6107 48.6316 53.1234C48.71 51.2485 48.5847 50.5319 48.0925 50.0397L47.6935 49.6408H36.5053H25.317L24.8577 50.0507ZM25.6549 50.4084C25.2103 51.0871 25.8404 52.4763 26.8117 52.9587C27.3216 53.2118 27.8229 53.2291 35.8594 53.2704C40.5387 53.2943 44.6962 53.2744 45.0984 53.226C46.4552 53.0626 47.437 52.0597 47.3619 50.9139C47.3256 50.3615 47.269 50.2609 46.9261 50.141C46.3975 49.9561 46.1136 50.1542 45.9204 50.8427C45.8225 51.1914 45.6379 51.4588 45.4179 51.57C45.151 51.7051 43.0536 51.7465 36.3804 51.748L27.6903 51.7501L27.3452 51.4049C27.1554 51.2151 27 50.9349 27 50.7822C27 50.0768 26.0458 49.8118 25.6549 50.4084ZM27.7657 58.0431C28.6892 67.671 28.7894 68.4641 29.1622 69.1003C29.4279 69.5537 29.7264 69.8223 30.26 70.0881L30.9928 70.4533H36.4539C42.3194 70.4533 42.513 70.4322 43.2891 69.7082C44.0491 68.9994 44.1254 68.6395 44.6429 63.326C44.9128 60.5558 45.1706 58.0202 45.216 57.6916L45.2985 57.0939H36.4866H27.6746L27.7657 58.0431ZM34.3292 59.2997C33.8633 59.4421 33.3606 59.7324 33.0207 60.0557L32.4689 60.5807L32.5118 63.6778C32.5541 66.7312 32.5595 66.7801 32.8943 67.1361C33.5123 67.7935 34.6162 68.1081 36.3516 68.1211C38.7669 68.1396 40.1782 67.5267 40.412 66.3581C40.4603 66.1161 40.4998 64.8028 40.4997 63.4396C40.4996 60.4066 40.4238 60.1846 39.1771 59.5617C38.422 59.1844 38.1982 59.1432 36.7162 59.1076C35.5129 59.079 34.8878 59.1292 34.3292 59.2997ZM34.7764 60.759C34.0566 60.9768 34.1061 61.145 34.9636 61.3943C35.9108 61.6697 37.6262 61.6125 38.3906 61.28L38.8828 61.066L38.4609 60.8812C37.946 60.6556 35.3971 60.5711 34.7764 60.759ZM34.0623 64.4629L34.1016 66.161L34.5234 66.3735C35.1576 66.6931 37.8821 66.666 38.4961 66.3338L38.9531 66.0867V64.4266V62.7666L38.0742 62.9508C36.9593 63.1844 36.0238 63.1841 34.9061 62.9499L34.0229 62.7649L34.0623 64.4629Z" fill="#FFCC6B"/>
<path fill-rule="evenodd" clip-rule="evenodd" d="M60.0359 40.5417C59.7712 40.9442 59.247 41.479 58.8708 41.7304L58.187 42.1875H58.695H59.2031V42.9609C59.2031 43.5469 59.2713 43.8025 59.4844 44.0156C60.1178 44.649 60.75 44.122 60.75 42.9609V42.1875H62.828C65.5411 42.1875 65.5312 42.1813 65.5312 43.8612C65.5312 44.8799 65.4861 45.1379 65.274 45.3297C65.0405 45.5411 64.1988 45.5625 56.0849 45.5625C47.6104 45.5625 47.141 45.5492 46.9202 45.3052C46.7923 45.1638 46.6875 44.8482 46.6875 44.6041C46.6875 44.2254 46.6113 44.1282 46.1706 43.944C45.8862 43.8252 45.3431 43.537 44.9637 43.3035C44.1447 42.7996 43.9199 42.8401 43.2607 43.6102C42.6601 44.3119 42.4688 45.0534 42.4688 46.6794V47.9531H43.2422H44.0156V46.4625V44.9718L44.5396 44.4585L45.0634 43.9453L45.1537 44.7532C45.2654 45.7531 45.7147 46.4536 46.4858 46.8302C47.0384 47.0999 47.3635 47.1092 56.189 47.1071L65.3203 47.1047L65.8828 46.79C66.548 46.4179 67.0781 45.4861 67.0781 44.6889C67.0781 44.0244 67.3356 43.9905 67.839 44.5889C68.1936 45.0102 68.2031 45.0743 68.2031 47.0309C68.2031 49.3187 68.0787 49.6463 67.107 49.9162C66.7772 50.0077 63.5473 50.0612 58.3066 50.0616L50.0273 50.0625L50.1152 50.5019C50.1636 50.7436 50.2031 51.06 50.2031 51.205C50.2031 51.4594 50.4592 51.4687 57.5073 51.4687C61.5247 51.4687 64.8374 51.5161 64.8689 51.5742C64.9305 51.6874 63.9277 62.0163 63.7774 62.8177C63.7277 63.0819 63.4583 63.5515 63.1785 63.8611C62.2167 64.9257 62.4126 64.8933 56.6272 64.9416C53.1146 64.9708 51.1995 64.9327 50.672 64.8232C49.7225 64.6261 48.9115 63.9516 48.5962 63.0964C48.4767 62.7727 48.2662 61.3054 48.1281 59.8359L47.8773 57.164L47.3655 57.1211L46.8536 57.0782L46.7394 58.1758C46.4944 60.5296 46.729 62.9579 47.3123 64.1091C47.7187 64.9112 48.5976 65.7354 49.4828 66.1447C50.1141 66.4365 50.3028 66.4453 56.0391 66.4453C61.5112 66.4453 61.9964 66.4256 62.6401 66.1772C63.7824 65.7368 64.9311 64.5165 65.2622 63.3916C65.337 63.1375 65.6172 60.6832 65.8848 57.9375C66.5672 50.9366 66.4293 51.6591 67.1039 51.5512C68.1933 51.377 69.0135 50.7976 69.5101 49.8515C69.7568 49.3817 69.815 48.9735 69.8635 47.3743C69.9323 45.1072 69.7379 44.2036 69.0247 43.474C68.5425 42.9809 67.6589 42.4687 67.2902 42.4687C67.1687 42.4687 67.0293 42.3579 66.9805 42.2226C66.7821 41.6725 66.3006 41.1558 65.7561 40.9085C65.2732 40.6892 64.8201 40.6462 62.9648 40.6437L60.75 40.6406V40.2973C60.75 39.7091 60.5351 39.7826 60.0359 40.5417ZM54.9041 53.6317C53.5947 54.2413 52.7356 55.7932 52.9284 57.2003C53.021 57.8747 53.6673 59.1921 53.9609 59.3049C54.0713 59.3472 54.1406 59.6276 54.1406 60.0321C54.1406 61.3906 55.1796 62.5701 56.3813 62.5758C57.0638 62.5791 58.0175 62.0766 58.3498 61.5387C58.5052 61.2876 58.6752 60.7066 58.7278 60.2479C58.795 59.6624 58.9282 59.2884 59.1753 58.9921C60.2163 57.7435 60.1986 55.877 59.1324 54.4791C58.2753 53.3553 56.3334 52.9661 54.9041 53.6317ZM55.5573 55.0133C54.4673 55.5782 54.097 56.8514 54.7439 57.8112L55.0659 58.289H56.4514C57.8077 58.289 57.843 58.2807 58.1332 57.892C58.5357 57.3529 58.5391 56.2764 58.1397 55.7416C57.4147 54.7703 56.5155 54.5167 55.5573 55.0133ZM55.6875 60.2478C55.6875 60.9537 56.5327 61.2922 57.0016 60.774C57.1296 60.6325 57.2344 60.3794 57.2344 60.2115C57.2344 59.9352 57.161 59.9062 56.4609 59.9062C55.7357 59.9062 55.6875 59.9276 55.6875 60.2478Z" fill="#FE518E"/>
<path fill-rule="evenodd" clip-rule="evenodd" d="M37.2532 0.14757C34.4088 0.821586 31.9752 3.0398 31.0766 5.77721L30.774 6.69887L29.204 6.94918C27.385 7.23929 25.2292 7.91105 23.7867 8.63766L22.7768 9.14616L22.0407 8.59084C20.2635 7.24984 18.449 6.6796 16.3125 6.79084C13.2449 6.9503 10.8292 8.4488 9.58795 10.9621C9.09534 11.9594 9.07031 12.0788 9.07031 13.423C9.07031 14.6753 9.11377 14.924 9.45225 15.6134C9.93881 16.6041 10.619 17.3969 11.6425 18.1663L12.4526 18.7752L12.2105 19.407C11.7435 20.6259 11.9507 22.2409 12.6727 23.0094L12.9569 23.312L12.1835 24.9098C11.7581 25.7886 11.302 26.967 11.17 27.5287C10.7014 29.522 11.1769 31.1304 12.4626 31.9008C12.9322 32.1822 13.0693 32.342 13.0238 32.5545C12.4221 35.3675 12.3817 36.2751 12.7877 37.8622C13.0863 39.03 13.5224 39.9696 14.1909 40.8865L14.6268 41.4841H15.7209H16.8151L16.0744 40.7009C14.1038 38.6171 13.5686 35.5243 14.6925 32.7152C14.8874 32.2279 15.0469 31.7249 15.0469 31.5975C15.0469 31.3147 14.5723 30.9979 13.9566 30.8695C13.3736 30.748 12.6633 30.043 12.6323 29.5554C12.5402 28.1042 12.9821 26.6575 14.1456 24.6C14.564 23.8603 14.9062 23.1783 14.9062 23.0845C14.9062 22.9907 14.6173 22.6449 14.2642 22.316C13.4532 21.5605 13.3372 20.9678 13.7734 19.8074C14.2838 18.4492 15.1466 17.2936 17.0646 15.3982C20.8226 11.6849 25.0874 9.28609 29.2099 8.56693C31.3452 8.19455 35.1913 8.15968 37.5469 8.49141C40.8689 8.95941 43.5997 9.96685 44.6264 11.1032C45.2679 11.8134 45.3831 12.2637 45.1111 12.9976C44.7912 13.8609 44.9439 14.0713 46.4282 14.81C47.1509 15.1697 48.183 15.7972 48.7219 16.2046C50.6461 17.6589 51.0207 18.7659 50.0227 20.047C49.7301 20.4226 49.5105 20.8275 49.5349 20.9468C49.5813 21.1745 49.6907 21.1806 50.8449 21.0194L51.5571 20.92L51.8825 20.1004C52.2616 19.146 52.2404 18.1216 51.8233 17.2486C51.2523 16.0537 49.5267 14.5682 47.5664 13.5843L46.8281 13.2137L46.825 12.4075C46.8208 11.3183 46.4771 10.6275 45.4906 9.72596L44.6709 8.97685L44.9916 8.10934C45.2076 7.52518 45.3348 6.80574 45.3814 5.90602C45.4404 4.76513 45.4057 4.4514 45.1432 3.75699C44.7203 2.63818 44.097 1.86404 43.0552 1.16316C41.8212 0.332914 40.6461 -0.00374244 39.0438 0.0138357C38.3365 0.0217107 37.5307 0.0818982 37.2532 0.14757ZM37.4435 1.75435C35.6579 2.25723 33.8812 3.64941 33.0787 5.17491C32.2937 6.66652 32.1954 6.55641 34.4146 6.66948C37.4451 6.82388 40.193 7.29343 42.2447 8.00752C42.7015 8.16657 43.1186 8.29665 43.1716 8.29665C43.3875 8.29665 43.8047 6.48709 43.8047 5.55066C43.8047 4.76668 43.7303 4.41807 43.445 3.86316C43.0349 3.06596 42.1156 2.30265 41.1027 1.91804C40.1892 1.57126 38.3811 1.4904 37.4435 1.75435ZM15.2245 8.50955C12.653 9.06826 10.5469 11.3074 10.5469 13.4826C10.5469 14.5111 11.2191 15.7374 12.256 16.6004C12.7163 16.9833 13.1451 17.2966 13.2092 17.2966C13.2732 17.2966 13.5973 16.9327 13.9293 16.4881C15.227 14.7504 18.0889 12.1654 20.4282 10.6182C21.21 10.101 21.2304 10.0722 20.9957 9.81287C20.621 9.39873 18.8692 8.61657 17.939 8.44796C16.8879 8.25741 16.3266 8.27007 15.2245 8.50955ZM39.6228 22.4586C39.7977 22.4922 40.0508 22.4909 40.1853 22.4558C40.3197 22.4206 40.1766 22.393 39.8672 22.3946C39.5578 22.3961 39.4478 22.425 39.6228 22.4586ZM32.6182 26.0226C32.506 26.0936 32.2016 26.1526 31.942 26.1539C31.5494 26.1556 31.4864 26.1975 31.5674 26.4021C31.6209 26.5375 31.7371 26.9868 31.8254 27.4008C31.9859 28.153 31.9857 28.1536 31.5298 28.561C30.9164 29.1091 30.3036 29.1045 29.6016 28.5466C28.9846 28.0564 28.9876 28.057 28.5782 28.3437C28.1118 28.6704 28.1777 29.2039 28.7513 29.7449C29.7899 30.7244 31.5935 30.6656 32.6078 29.6191C33.0771 29.1349 33.082 29.1335 34.0876 29.2096C35.1927 29.2931 35.8935 29.0549 36.5206 28.3827C36.8952 27.9811 37.2656 27.1318 37.2656 26.6745C37.2656 26.2972 36.8699 25.8748 36.5162 25.8748C36.1755 25.8748 35.7188 26.3841 35.7188 26.7644C35.7188 27.2002 35.1686 27.6957 34.5787 27.7915C33.9272 27.8972 33.4208 27.4817 33.1879 26.6499C32.9849 25.9246 32.9077 25.8395 32.6182 26.0226ZM56.4396 31.7881C54.604 31.9749 52.995 33.1362 52.1969 34.8502C51.8783 35.5346 51.8251 35.8383 51.8228 36.9841C51.8206 38.1401 51.8707 38.4277 52.1944 39.1181C52.8463 40.5088 54.0647 41.5964 55.4766 42.0481C55.7859 42.1471 56.0856 42.2979 56.1424 42.3834C56.2089 42.4836 56.2465 42.4865 56.2479 42.392C56.249 42.31 56.594 42.2371 57.0272 42.2269C57.5035 42.2157 58.0473 42.0911 58.4319 41.9049C60.1959 41.051 61.4396 38.3197 61.2685 35.6758C61.0886 32.8981 59.3428 31.4926 56.4396 31.7881ZM22.4452 32.1289C21.6266 32.4207 20.4604 33.2761 19.6767 34.1594C18.9994 34.9229 18 36.6693 18 37.0893C18 37.2037 17.8779 37.8121 17.7287 38.4414C17.5794 39.0707 17.4139 40.0129 17.3607 40.5349L17.2641 41.4841H18.054H18.8438V40.9941V40.5041L19.582 41.0669C20.8755 42.0528 22.6495 42.4162 24.0677 41.9859C26.1562 41.352 27.457 39.973 27.9172 37.9048C28.189 36.6831 28.0654 35.7246 27.4895 34.5883C26.414 32.4659 24.3388 31.4541 22.4452 32.1289ZM55.4207 33.6415C52.7188 34.9506 52.5572 38.7259 55.14 40.2011C56.1002 40.7495 56.8891 40.8606 57.6529 40.555C58.8174 40.0891 59.6326 38.3149 59.6513 36.2056C59.6644 34.7429 59.346 34.0527 58.4603 33.6239C57.6297 33.2219 56.2707 33.2297 55.4207 33.6415ZM22.6699 33.6807C22.0586 33.9462 20.6404 35.3096 20.1278 36.1244C19.2403 37.5353 19.2247 38.4548 20.0725 39.3933C20.8678 40.2735 21.5387 40.5635 22.7812 40.564C23.9766 40.5646 24.4918 40.3589 25.3592 39.5351C26.3263 38.6167 26.6972 37.4616 26.4333 36.1905C26.0144 34.1725 24.2485 32.9948 22.6699 33.6807ZM16.5938 43.242C16.7227 43.3974 17.0654 43.4529 17.8938 43.4529C18.8779 43.4529 18.9969 43.4265 18.8438 43.242C18.7148 43.0866 18.3721 43.031 17.5437 43.031C16.5596 43.031 16.4406 43.0575 16.5938 43.242Z" fill="#E2AB8C"/>
<path fill-rule="evenodd" clip-rule="evenodd" d="M47.25 29.0539C46.2722 29.3158 45.5129 29.813 45.3054 30.3272C45.072 30.9062 42.75 40.147 42.75 40.4973C42.75 41.0058 43.2713 41.8434 43.9871 42.4847C46.1327 44.4074 51.057 45.6355 53.7782 44.9267C55.2478 44.5439 55.86 43.972 56.0462 42.8076L56.1361 42.2453L55.4548 42.0314L54.7734 41.8173L54.5625 42.4583C54.2537 43.3967 53.9056 43.5268 51.75 43.5092C49.6627 43.4922 48.3479 43.1901 46.5795 42.3209C45.3424 41.713 44.2969 40.8479 44.2969 40.4322C44.2969 40.2234 45.8661 33.911 46.0523 33.371C46.089 33.2647 46.4459 33.4278 47.0218 33.814C48.0025 34.4717 49.6988 35.1827 51.0255 35.492L51.8494 35.6843L52.1497 34.9734C52.3149 34.5825 52.4348 34.2535 52.4164 34.2423C52.398 34.231 51.8449 34.0818 51.1875 33.9107C49.158 33.3822 47.1684 32.2942 46.7492 31.4834C46.5808 31.1578 46.5868 31.0857 46.7982 30.895C47.2236 30.5108 48.3162 30.3302 49.7108 30.4135L51.0211 30.4917L50.1134 30.0185C49.6142 29.7583 49.014 29.3841 48.7796 29.1868C48.2919 28.7765 48.2873 28.7761 47.25 29.0539ZM55.8984 30.946C55.6664 31.0005 54.9703 31.0539 54.3516 31.0649L53.2266 31.0848L54.0561 31.426C54.5123 31.6135 54.9458 31.8272 55.0195 31.9009C55.1019 31.9833 55.3233 31.9861 55.5954 31.9081C55.8384 31.8385 56.3382 31.7814 56.706 31.7814C57.4725 31.7814 57.5345 31.6691 56.9883 31.2715C56.4171 30.8556 56.3587 30.8382 55.8984 30.946ZM12.8672 41.4817C11.9548 41.6861 11.2517 42.406 11.2506 43.1368C11.25 43.4517 11.239 43.4532 9.00914 43.4532C7.76784 43.4532 6.5918 43.5199 6.37242 43.6029C5.8552 43.7982 5.26612 44.3677 5.05561 44.8759C4.94311 45.1476 4.78645 45.2814 4.58072 45.2814C4.04255 45.2814 3.00277 46.0608 2.57878 46.7821C2.18531 47.4515 2.17969 47.493 2.17969 49.711C2.17969 51.7974 2.20402 52.0105 2.5148 52.6417C2.93091 53.487 3.71841 54.0753 4.70911 54.2809L5.46005 54.4369L5.54442 55.0974C5.59083 55.4606 5.84789 58.0044 6.11564 60.7501C6.42052 63.8768 6.69178 66.005 6.84155 66.4454C7.17764 67.4336 8.3925 68.6307 9.42328 68.9893C10.1346 69.2368 10.649 69.2579 15.9609 69.2579C21.6655 69.2579 21.7339 69.2545 22.422 68.9373C23.4077 68.4828 24.0137 67.984 24.487 67.2377C25.0657 66.3252 25.1214 66.0392 25.5168 61.9454C25.711 59.9345 25.9055 58.0272 25.9491 57.7068L26.0283 57.1247L25.4946 57.0517C25.2011 57.0115 24.8392 56.9572 24.6902 56.9307C24.4351 56.8857 24.3939 57.1376 23.982 61.246C23.4921 66.1322 23.4166 66.4091 22.3701 67.1485L21.773 67.5704L16.1248 67.6108C11.2186 67.6458 10.3989 67.6215 9.88552 67.4259C9.17297 67.1543 8.50472 66.4309 8.29969 65.7095C8.15077 65.185 7.17188 55.6818 7.17188 54.76V54.2814H14.9766H22.7812V53.5079V52.7345H13.7672H4.75312L4.275 52.2564L3.79688 51.7782V49.8723C3.79688 47.7766 3.90741 47.3456 4.52742 47.025L4.92188 46.8211V47.4802C4.92188 48.3975 5.43741 49.2436 6.22997 49.6272C6.82327 49.9144 7.01634 49.9218 13.7905 49.9186L20.7422 49.9151L19.8984 49.1507L19.0547 48.3861L13.0743 48.3806C7.89511 48.3758 7.05192 48.3457 6.78136 48.1562C6.49814 47.9579 6.46875 47.8196 6.46875 46.6876C6.46875 44.9918 6.45553 45.0001 9.17198 45.0001H11.25V45.7735C11.25 46.3595 11.3182 46.6152 11.5312 46.8282C12.1659 47.4629 12.7969 46.9348 12.7969 45.7688V44.9905L15.9622 45.0053L19.1274 45.0201L19.8041 44.2718C20.4083 43.6036 20.4704 43.475 20.3839 43.07C20.3306 42.8206 20.1884 42.4662 20.068 42.2825C19.6417 41.6316 19.1213 41.5227 16.1016 41.4526C14.5547 41.4166 13.0992 41.4296 12.8672 41.4817ZM12.9375 43.2423C12.7828 43.4288 13.1235 43.4532 15.869 43.4532C18.5726 43.4532 18.9651 43.4258 18.8947 43.2423C18.8263 43.0644 18.3672 43.0314 15.963 43.0314C13.6008 43.0314 13.0826 43.0675 12.9375 43.2423ZM26.3451 46.7323C25.7165 47.4425 25.2113 48.0266 25.2222 48.0306C25.2332 48.0344 25.6028 48.0129 26.0433 47.9828L26.8445 47.9281L26.8871 47.3431L26.9297 46.7579L27.5217 47.3556C28.0602 47.8991 28.177 47.9532 28.8127 47.9532H29.5116L29.3839 47.5077C29.18 46.7967 28.6311 46.0795 28.0374 45.748L27.4878 45.4411L26.3451 46.7323ZM13.9268 55.5377C13.8468 55.6873 13.7812 56.2449 13.7812 56.7769C13.7812 57.6873 13.7566 57.7622 13.3618 58.0543C12.5207 58.6762 12.4453 58.996 12.4453 61.9454C12.4453 64.489 12.4608 64.6423 12.7688 65.1376C12.9468 65.4236 13.3265 65.8033 13.6125 65.9814C14.0835 66.2741 14.3004 66.3048 15.9009 66.3048C17.5531 66.3048 17.7024 66.2819 18.1786 65.9556C19.1686 65.2772 19.2656 64.9195 19.2656 61.9475C19.2656 59.0471 19.1683 58.6078 18.4002 58.04C18.0252 57.7627 18 57.6808 18 56.7377C18 55.3116 17.9308 55.2657 15.779 55.2657C14.2356 55.2657 14.0584 55.2917 13.9268 55.5377ZM15.3281 57.7049C15.3281 58.3907 15.2686 58.651 15.0709 58.8299C14.9295 58.9578 14.7443 59.0626 14.6593 59.0626C14.5744 59.0626 14.3695 59.2346 14.2041 59.445C13.9208 59.8051 13.906 59.956 13.9478 62.0592C14.003 64.8329 13.9996 64.8282 15.8749 64.8282C17.7715 64.8282 17.7188 64.9109 17.7188 61.9354V59.4804L17.2617 59.2096C16.4932 58.7541 16.4531 58.6804 16.4531 57.7212V56.8126H15.8906H15.3281V57.7049Z" fill="#5F8D4E"/>
<path fill-rule="evenodd" clip-rule="evenodd" d="M46.0548 33.3645C45.8685 33.9028 44.2969 40.2212 44.2969 40.4323C44.2969 41.1562 46.7632 42.6402 48.8672 43.1823C50.3308 43.5594 52.4604 43.6877 53.4227 43.4568C54.2056 43.2691 54.4677 43.0026 54.6283 42.2313C54.7109 41.8349 54.674 41.7581 54.3116 41.5706C53.6493 41.2281 52.6206 40.09 52.2094 39.2451C51.8844 38.5772 51.823 38.2548 51.794 37.0664L51.76 35.6717L50.7847 35.4239C49.4085 35.0745 47.8288 34.39 46.9049 33.7427C46.3825 33.3768 46.0949 33.2489 46.0548 33.3645ZM6.78136 45.2192C6.49814 45.4174 6.46875 45.5557 6.46875 46.6877C6.46875 47.8197 6.49814 47.958 6.78136 48.1562C7.0522 48.3461 7.88513 48.3752 13.0323 48.3752H18.9706L18.6993 47.7775C18.3548 47.0186 18.3566 46.4936 18.7062 45.7231C18.8592 45.3859 18.9844 45.0854 18.9844 45.0552C18.9844 45.0249 17.5922 45.0002 15.8906 45.0002H12.7969V45.7736C12.7969 46.3596 12.7287 46.6153 12.5156 46.8283C11.8822 47.4617 11.25 46.9348 11.25 45.7736V45.0002H9.17198C7.51866 45.0002 7.02998 45.0449 6.78136 45.2192ZM4.51547 47.03C3.906 47.3581 3.80714 47.7456 3.8018 49.8307L3.79688 51.7783L4.275 52.2564L4.75312 52.7346H13.7672H22.7812V51.6914C22.7812 51.1177 22.818 50.5526 22.8628 50.4358C22.9293 50.2622 22.8028 50.2234 22.1691 50.2234C21.7429 50.2234 21.2631 50.1533 21.103 50.0676C20.9007 49.9593 18.6822 49.9142 13.8306 49.9195C7.02956 49.9269 6.83353 49.9195 6.24234 49.6334C5.48198 49.2652 5.01511 48.538 4.92202 47.577C4.85255 46.8593 4.84692 46.8515 4.51547 47.03ZM26.8594 47.3786V47.9386L26.1211 47.9812C25.7151 48.0045 26.332 48.0248 27.4922 48.0262C28.6523 48.0277 29.2428 47.9961 28.8044 47.9559C28.1483 47.8959 27.9536 47.8144 27.7037 47.4954C27.5366 47.2823 27.2784 47.0426 27.1297 46.963C26.884 46.8317 26.8594 46.8695 26.8594 47.3786ZM7.17188 54.7601C7.17188 55.6819 8.15077 65.1851 8.29969 65.7096C8.50472 66.431 9.17297 67.1544 9.88552 67.4259C10.3989 67.6216 11.2186 67.6459 16.1248 67.6109L21.773 67.5705L22.3701 67.1486C23.4176 66.4085 23.4899 66.1415 23.9882 61.1773C24.3953 57.1205 24.4139 56.7313 24.2049 56.6117C23.7309 56.3406 23.1962 55.6357 22.96 54.9705L22.7153 54.2814H14.9435H7.17188V54.7601ZM13.9268 55.5378C13.8468 55.6874 13.7812 56.245 13.7812 56.777C13.7812 57.6874 13.7566 57.7623 13.3618 58.0544C12.5207 58.6763 12.4453 58.996 12.4453 61.9455C12.4453 64.4891 12.4608 64.6424 12.7688 65.1377C12.9468 65.4237 13.3265 65.8034 13.6125 65.9814C14.0835 66.2742 14.3004 66.3049 15.9009 66.3049C17.5531 66.3049 17.7024 66.282 18.1786 65.9557C19.1686 65.2773 19.2656 64.9196 19.2656 61.9476C19.2656 59.0472 19.1683 58.6079 18.4002 58.0401C18.0252 57.7628 18 57.6809 18 56.7377C18 55.3117 17.9308 55.2658 15.779 55.2658C14.2356 55.2658 14.0584 55.2918 13.9268 55.5378ZM15.3281 57.705C15.3281 58.3908 15.2686 58.6511 15.0709 58.83C14.9295 58.9579 14.7443 59.0627 14.6593 59.0627C14.5744 59.0627 14.3695 59.2347 14.2041 59.4451C13.9208 59.8052 13.906 59.9561 13.9478 62.0593C14.003 64.833 13.9996 64.8283 15.8749 64.8283C17.7715 64.8283 17.7188 64.911 17.7188 61.9355V59.4805L17.2617 59.2097C16.4932 58.7542 16.4531 58.6805 16.4531 57.7213V56.8127H15.8906H15.3281V57.705Z" fill="#A4BE7B"/>
<path fill-rule="evenodd" clip-rule="evenodd" d="M22.9546 28.9689C22.9546 29.2396 22.9836 29.3504 23.0189 29.215C23.0543 29.0796 23.0543 28.8583 23.0189 28.7228C22.9836 28.5874 22.9546 28.6982 22.9546 28.9689ZM47.5313 30.5306C47.2606 30.613 46.9307 30.7776 46.7983 30.8965C46.5869 31.086 46.5809 31.1579 46.7493 31.4834C47.1712 32.2992 49.1747 33.3924 51.2142 33.9198L52.4328 34.2348L53.0272 33.5596C53.3541 33.1882 53.9599 32.6935 54.3733 32.4601C54.7867 32.2268 55.1251 32.0115 55.1251 31.9818C55.1251 31.8344 53.8666 31.3191 52.5698 30.9353C50.9504 30.4562 48.4389 30.2544 47.5313 30.5306Z" fill="#777677"/>
<path fill-rule="evenodd" clip-rule="evenodd" d="M50.8659 21.0287C48.9428 21.411 47.6584 22.3127 47.0015 23.7412C46.5571 24.7073 46.5974 26.0169 47.1037 27.0702C47.7786 28.4742 49.6638 29.961 51.5391 30.5681C53.2001 31.106 55.745 31.0977 57.2216 30.5497C58.0943 30.2258 59.119 29.3728 59.5824 28.5846C59.9313 27.9909 59.9763 27.7769 59.9746 26.7186C59.9729 25.6772 59.9206 25.4241 59.5685 24.7514C58.6865 23.0669 56.6707 21.64 54.406 21.0972C53.0599 20.7744 52.2253 20.7583 50.8659 21.0287ZM50.9062 22.5722C48.372 23.1417 47.473 25.1235 48.8783 27.0425C50.8818 29.7784 56.2556 30.3644 58.0282 28.0404C60.0494 25.3904 55.1399 21.6209 50.9062 22.5722Z" fill="#E3E3E3"/>
<path fill-rule="evenodd" clip-rule="evenodd" d="M50.3905 22.7517C47.9189 23.6356 47.508 25.7686 49.4594 27.5847C51.7904 29.754 55.939 30.1021 57.76 28.2811C59.3524 26.6887 57.9603 24.0962 54.877 22.9122C53.7285 22.4713 51.4071 22.3882 50.3905 22.7517Z" fill="white"/>
<path fill-rule="evenodd" clip-rule="evenodd" d="M44.8315 22.4145C41.6812 23.7102 40.7639 27.5978 42.9855 30.2381C43.3523 30.6739 44.5013 31.5001 44.7408 31.5001C44.8 31.5001 44.9204 31.2335 45.0082 30.9075C45.3061 29.8005 46.7357 28.8282 48.0653 28.8282C48.3986 28.8282 48.3938 28.8129 47.8831 28.2474C46.3906 26.5955 46.2475 24.3662 47.5308 22.7629C47.7557 22.482 47.9004 22.2131 47.8526 22.1653C47.8048 22.1173 47.2857 22.0798 46.6992 22.0816C45.9081 22.084 45.4259 22.1701 44.8315 22.4145ZM19.8443 29.9735C18.8231 30.1401 17.8289 30.7071 17.0383 31.5738C15.5386 33.2177 15.381 35.7508 16.6624 37.6173C17.0702 38.2114 17.7187 38.8222 17.7187 38.6121C17.7187 38.1013 18.2503 36.3255 18.5999 35.6688C19.1658 34.6055 20.7714 32.9725 21.7969 32.4174C22.4617 32.0574 22.7223 31.9982 23.653 31.9955C24.7026 31.9924 24.7302 31.9837 24.5531 31.711C24.4527 31.5564 24.0604 31.1927 23.6814 30.903C22.5918 30.0701 21.2474 29.7444 19.8443 29.9735ZM44.8242 48.0573C45.3077 48.0849 46.0987 48.0849 46.582 48.0573C47.0655 48.0299 46.6699 48.0074 45.7031 48.0074C44.7363 48.0074 44.3409 48.0299 44.8242 48.0573ZM50.1151 52.9454C50.1154 53.7962 50.1386 54.1261 50.1666 53.6785C50.1945 53.231 50.1943 52.5349 50.166 52.1316C50.1377 51.7285 50.1148 52.0946 50.1151 52.9454Z" fill="#FF9EB6"/>
<path fill-rule="evenodd" clip-rule="evenodd" d="M32.0415 24.1738C31.8275 24.3422 31.5679 24.4159 31.3417 24.3725C30.8784 24.2841 30.5156 24.6404 30.5156 25.184C30.5156 25.5001 30.6236 25.6638 30.9727 25.8765C31.8164 26.3909 32.6767 26.1643 33.118 25.3109C33.3984 24.7685 33.383 24.5236 33.0469 24.1875C32.6959 23.8365 32.4741 23.8335 32.0415 24.1738ZM56.0994 42.8203C55.7869 44.0544 55.2843 44.5462 53.9383 44.9349C52.381 45.3845 48.768 45.0221 46.9336 44.2322C46.7293 44.1441 46.6875 44.2004 46.6875 44.5631C46.6875 44.8125 46.8082 45.1206 46.9688 45.2812C47.2441 45.5566 47.4375 45.5625 56.1094 45.5625C66.4867 45.5625 65.5312 45.7314 65.5312 43.8968C65.5312 42.3219 65.5417 42.3281 62.8834 42.3281H60.75V43.0916C60.75 43.9397 60.5208 44.2969 59.9766 44.2969C59.4323 44.2969 59.2031 43.9397 59.2031 43.0916V42.3281L58.4297 42.3105C58.0043 42.3008 57.338 42.2851 56.949 42.2754L56.2418 42.2578L56.0994 42.8203ZM44.6704 44.3156C44.2254 44.5742 44.0156 45.3306 44.0156 46.676V47.939L43.207 47.9812C42.7622 48.0044 43.6368 48.0234 45.1502 48.0234H47.9021L48.5955 48.4501C48.977 48.6848 49.4421 49.112 49.6291 49.3993L49.969 49.9219H58.608H67.2469L67.7354 49.4333L68.2239 48.9448L68.1784 46.8896L68.1328 44.8343L67.7131 44.4736L67.2933 44.1128L67.1777 44.6619C67.1141 44.9638 67.0341 45.3485 66.9999 45.5165C66.9163 45.9266 66.2929 46.6501 65.8062 46.9017C65.1982 47.2161 47.0216 47.2167 46.4138 46.9024C45.7176 46.5424 45.2406 45.7826 45.169 44.9196C45.102 44.1098 45.0768 44.0793 44.6704 44.3156ZM50.2031 52.9197C50.2031 54.7033 49.951 55.4953 49.1475 56.2359C48.799 56.5571 48.3193 56.8588 48.0815 56.9063C47.8437 56.954 47.7104 57.0313 47.7852 57.0784C47.8602 57.1255 48.0492 58.4364 48.2054 59.9917C48.5288 63.2118 48.7025 63.7318 49.668 64.3709L50.2525 64.7578L55.9583 64.7966C61.6531 64.8353 61.6653 64.8347 62.295 64.5154C62.6556 64.3324 63.1 63.9447 63.3323 63.6103C63.7335 63.0328 63.7456 62.9557 64.2793 57.6337C64.5767 54.6684 64.8218 52.0999 64.824 51.9258L64.8281 51.6094H57.5156H50.2031V52.9197ZM55.546 53.2876C54.4539 53.6199 53.334 54.6803 53.0404 55.6603C52.6691 56.8995 53.034 58.5437 53.8394 59.2601C54.0743 59.4689 54.1406 59.689 54.1406 60.2588C54.1406 61.5628 55.1378 62.5781 56.4185 62.5781C57.7464 62.5781 58.6416 61.7287 58.755 60.3613C58.8052 59.7572 58.9295 59.4193 59.2829 58.9275C60.447 57.3071 60.1948 55.2625 58.6759 54.0063C57.8389 53.314 56.4827 53.0027 55.546 53.2876ZM55.6057 54.98C55.1592 55.1606 54.5844 55.9199 54.4823 56.464C54.4143 56.827 54.4755 57.1212 54.7228 57.62L55.0547 58.2891L56.1793 58.3308C57.5983 58.3834 57.8135 58.3262 58.1147 57.8161C58.6474 56.9144 58.2802 55.5228 57.3882 55.0616C56.9353 54.8273 56.0798 54.7882 55.6057 54.98ZM55.6875 60.1875C55.6875 60.5042 56.1538 61.0312 56.4341 61.0312C56.6968 61.0312 57.0697 60.7167 57.1006 60.4687C57.1636 59.9656 57.0887 59.9062 56.3906 59.9062C55.7813 59.9062 55.6875 59.9438 55.6875 60.1875Z" fill="#FD80A6"/>
<path fill-rule="evenodd" clip-rule="evenodd" d="M38.8552 22.775C37.6679 23.4989 37.5229 24.9793 38.5437 25.9572C38.9248 26.3223 39.0695 26.3671 39.8671 26.3671C40.6674 26.3671 40.8089 26.323 41.196 25.952C42.5227 24.6809 41.6646 22.4987 39.839 22.5005C39.5451 22.5008 39.1024 22.6242 38.8552 22.775ZM23.9482 27.2671C22.7123 28.0436 22.7799 30.0713 24.0638 30.7353C24.6954 31.0619 25.7671 30.9466 26.2445 30.5006C27.2473 29.5637 27.246 28.3724 26.241 27.4335C25.7306 26.9568 24.5755 26.8729 23.9482 27.2671Z" fill="#605C5D"/>
<path fill-rule="evenodd" clip-rule="evenodd" d="M37.4434 1.75443C35.6577 2.2573 33.8811 3.64949 33.0785 5.17499C32.2906 6.67237 32.1771 6.55621 34.5419 6.67335C35.6774 6.7296 36.6756 6.79921 36.7602 6.82818C36.8448 6.85715 37.0721 6.55579 37.2655 6.15866C37.713 5.23982 38.6957 4.14323 39.3887 3.78969C40.31 3.31958 41.7568 3.50437 42.5136 4.18879C42.9877 4.61741 43.3437 5.51601 43.4418 6.53104L43.5377 7.52329L43.7216 6.68868C44.2039 4.50083 43.2293 2.72558 41.1026 1.91812C40.1891 1.57133 38.3809 1.49048 37.4434 1.75443ZM31.4199 8.30854C28.1827 8.54282 25.4993 9.38334 22.7295 11.0309C20.2752 12.491 18.9971 13.4871 16.9452 15.5389C14.872 17.6121 14.1036 18.6865 13.6931 20.0859C13.3847 21.1371 13.5152 21.6394 14.2761 22.3319C14.6226 22.6472 14.9061 23.0016 14.9061 23.1194C14.9061 23.2373 14.6249 23.7968 14.2812 24.363C13.4903 25.6656 12.7955 27.3928 12.6596 28.3934C12.4681 29.8052 12.9395 30.6222 14.1165 30.9186C14.8431 31.1016 15.1039 31.3729 15.0124 31.8506C14.9755 32.0444 15.0027 32.203 15.0731 32.203C15.1434 32.203 15.4511 32.3238 15.7566 32.4714C16.1778 32.6749 16.3124 32.6947 16.3124 32.5531C16.3124 32.2272 17.6667 30.8697 18.3783 30.4824C20.2346 29.4722 22.5945 29.8084 24.1573 31.3058C24.7552 31.8787 24.8063 31.8996 25.1554 31.7167C25.3578 31.6107 25.7448 31.2903 26.0155 31.005L26.5077 30.4861L26.0155 30.7815C24.6571 31.5969 22.9218 30.58 22.9218 28.9686C22.9218 28.171 23.3294 27.4996 24.0445 27.1197C25.2104 26.5001 26.5729 27.1147 27.0431 28.4725L27.2321 29.0187L27.8331 27.3801C28.4279 25.7584 29.1311 24.4157 29.709 23.7975C30.2669 23.201 31.3958 22.7579 32.346 22.7624C33.6363 22.7686 34.5403 23.2256 37.5341 25.3848C38.1728 25.8455 38.259 25.8781 38.0719 25.5878C37.6674 24.9608 37.6431 24.3197 37.9976 23.6331C38.405 22.8444 38.8952 22.4859 39.6753 22.4063C40.4464 22.3279 41.1438 22.6675 41.5994 23.3436C42.0517 24.0148 41.9888 25.2664 41.4754 25.8159C41.0572 26.2637 40.4829 26.5746 40.0499 26.5878C39.4262 26.6069 40.2297 26.8386 40.9569 26.8494C41.4878 26.8573 41.6288 26.9097 41.6441 27.1053C41.6547 27.2407 41.7079 26.9615 41.7623 26.4849C41.9555 24.7901 43.0633 23.2276 44.578 22.5131C45.2318 22.2047 45.5473 22.1483 46.6171 22.1483C47.6688 22.1483 47.875 22.184 47.8367 22.3592C47.809 22.4861 47.9494 22.4191 48.1883 22.1917C48.4069 21.9836 48.8607 21.6904 49.1968 21.5404C49.5397 21.3871 49.7402 21.2255 49.6539 21.1722C49.3919 21.0102 49.4799 20.7436 50.0272 20.041C51.0202 18.7664 50.6426 17.6564 48.7218 16.2046C48.1829 15.7972 47.1507 15.1698 46.4281 14.8101C44.9438 14.0714 44.7911 13.861 45.111 12.9977C45.3829 12.2638 45.2678 11.8135 44.6262 11.1033C42.8949 9.18688 36.8787 7.91366 31.4199 8.30854ZM15.2439 8.49669C14.0627 8.76599 13.0275 9.32062 12.141 10.1589C11.1997 11.0493 10.6773 12.089 10.5866 13.2531C10.5245 14.0483 10.5632 14.2189 10.9894 15.0311C11.2935 15.6108 11.7311 16.1598 12.2224 16.578L12.9842 17.2264L12.4628 16.5402C11.7737 15.633 11.5311 15.0186 11.5311 14.1802C11.5311 13.3158 11.9232 12.5191 12.6041 11.9998C13.5581 11.2721 15.4475 11.3989 17.1055 12.302L17.6877 12.619L18.5724 11.9344C19.0589 11.5578 19.858 10.9886 20.3479 10.6694C21.3489 10.0171 21.3475 9.94598 20.3202 9.34396C18.8331 8.47251 16.8223 8.13684 15.2439 8.49669ZM34.1366 29.3491C34.3107 29.3826 34.5953 29.3826 34.7694 29.3491C34.9435 29.3155 34.8011 29.2881 34.453 29.2881C34.105 29.2881 33.9625 29.3155 34.1366 29.3491ZM32.0289 31.5993C32.2039 31.6329 32.457 31.6316 32.5914 31.5965C32.7259 31.5613 32.5827 31.5337 32.2733 31.5353C31.9639 31.5368 31.854 31.5657 32.0289 31.5993ZM30.298 32.5194L29.7421 33.117L30.3397 32.5611C30.6685 32.2554 30.9374 31.9864 30.9374 31.9635C30.9374 31.857 30.8149 31.9636 30.298 32.5194ZM34.9452 33.1874C35.2473 33.4967 35.5261 33.7499 35.5648 33.7499C35.6035 33.7499 35.3879 33.4967 35.0858 33.1874C34.7838 32.878 34.5049 32.6249 34.4662 32.6249C34.4276 32.6249 34.6431 32.878 34.9452 33.1874ZM55.7561 33.5144C54.6394 33.9498 53.8217 34.7795 53.4593 35.845C53.2449 36.4757 53.2627 37.6279 53.4974 38.2853C53.9266 39.4881 55.1924 40.5132 56.4878 40.7076C58.2795 40.9761 59.6219 39.0338 59.6492 36.1333C59.6621 34.7449 59.3308 34.0454 58.4602 33.624C57.7712 33.2904 56.4662 33.2376 55.7561 33.5144ZM22.6698 33.6808C22.0585 33.9463 20.6403 35.3097 20.1277 36.1244C19.2402 37.5353 19.2246 38.4549 20.0724 39.3934C20.8679 40.2739 21.5386 40.5637 22.7811 40.5637C24.0394 40.5637 24.6789 40.2806 25.5462 39.3397C26.6061 38.1898 26.8031 36.63 26.0698 35.1914C25.3298 33.7396 23.9478 33.1255 22.6698 33.6808ZM14.106 35.7889C14.1067 36.253 14.133 36.4258 14.1643 36.1731C14.1956 35.9204 14.195 35.5407 14.1629 35.3293C14.1307 35.118 14.1051 35.3249 14.106 35.7889ZM41.3436 39.318C40.7636 39.4221 39.4074 39.5509 38.3299 39.6043L36.3709 39.7015L35.2362 40.4069C33.9673 41.1957 30.6907 42.8057 29.9896 42.985C29.6708 43.0664 29.2386 43.4378 28.5504 44.222C27.6979 45.1933 27.5992 45.3599 27.8107 45.4711C28.5795 45.8757 29.5311 47.1676 29.5311 47.8067C29.5311 48.0913 29.5827 48.0936 35.9999 48.0936H42.4686L42.4717 46.4413C42.4752 44.5309 42.6631 43.9459 43.5125 43.2L44.0382 42.7386L43.5462 42.1942C42.7249 41.285 42.57 40.753 42.7973 39.6209C42.9199 39.0105 42.9844 39.024 41.3436 39.318ZM15.8905 40.5439C15.8905 40.5681 16.0962 40.7738 16.3475 41.0009L16.8046 41.4139L16.3916 40.9569C16.0065 40.5309 15.8905 40.4352 15.8905 40.5439ZM18.8436 40.979C18.8436 41.3641 18.908 41.4699 19.1844 41.5392C19.6992 41.6684 20.368 42.4163 20.4739 42.9812L20.568 43.4828L21.1061 42.8702C21.402 42.5333 21.6469 42.2153 21.6501 42.1634C21.6535 42.1117 21.3556 41.9691 20.9882 41.8466C20.6207 41.7241 19.9879 41.372 19.5819 41.064L18.8436 40.5042V40.979ZM48.5687 52.5936C48.5687 53.4831 48.5916 53.847 48.6194 53.4022C48.6473 52.9574 48.6473 52.2298 48.6194 51.785C48.5916 51.3402 48.5687 51.7041 48.5687 52.5936Z" fill="#F7E1AE"/>
<path fill-rule="evenodd" clip-rule="evenodd" d="M37.2532 0.14757C34.4088 0.821586 31.9752 3.0398 31.0766 5.77721L30.774 6.69887L29.204 6.94918C27.385 7.23929 25.2292 7.91105 23.7867 8.63766L22.7768 9.14616L22.0407 8.59084C20.2635 7.24984 18.449 6.6796 16.3125 6.79084C13.2449 6.9503 10.8292 8.4488 9.58795 10.9621C9.09534 11.9594 9.07031 12.0788 9.07031 13.423C9.07031 14.6753 9.11377 14.924 9.45225 15.6134C9.93881 16.6041 10.619 17.3969 11.6425 18.1663L12.4526 18.7752L12.2105 19.407C11.7435 20.6259 11.9507 22.2409 12.6727 23.0094L12.9569 23.312L12.1835 24.9098C11.7581 25.7886 11.302 26.967 11.17 27.5287C10.7014 29.522 11.1769 31.1304 12.4626 31.9008C12.9322 32.1822 13.0693 32.342 13.0238 32.5545C12.4221 35.3675 12.3817 36.2751 12.7877 37.8622C13.0863 39.03 13.5224 39.9696 14.1909 40.8865L14.6268 41.4841H15.7209H16.8151L16.0744 40.7009C14.1038 38.6171 13.5686 35.5243 14.6925 32.7152C14.8874 32.2279 15.0469 31.7249 15.0469 31.5975C15.0469 31.3147 14.5723 30.9979 13.9566 30.8695C13.3736 30.748 12.6633 30.043 12.6323 29.5554C12.5402 28.1042 12.9821 26.6575 14.1456 24.6C14.564 23.8603 14.9062 23.1783 14.9062 23.0845C14.9062 22.9907 14.6173 22.6449 14.2642 22.316C13.4532 21.5605 13.3372 20.9678 13.7734 19.8074C14.2838 18.4492 15.1466 17.2936 17.0646 15.3982C20.8226 11.6849 25.0874 9.28609 29.2099 8.56693C31.3452 8.19455 35.1913 8.15968 37.5469 8.49141C40.8689 8.95941 43.5997 9.96685 44.6264 11.1032C45.2679 11.8134 45.3831 12.2637 45.1111 12.9976C44.7912 13.8609 44.9439 14.0713 46.4282 14.81C47.1509 15.1697 48.183 15.7972 48.7219 16.2046C50.6461 17.6589 51.0207 18.7659 50.0227 20.047C49.7301 20.4226 49.5105 20.8275 49.5349 20.9468C49.5813 21.1745 49.6907 21.1806 50.8449 21.0194L51.5571 20.92L51.8825 20.1004C52.2616 19.146 52.2404 18.1216 51.8233 17.2486C51.2523 16.0537 49.5267 14.5682 47.5664 13.5843L46.8281 13.2137L46.825 12.4075C46.8208 11.3183 46.4771 10.6275 45.4906 9.72596L44.6709 8.97685L44.9916 8.10934C45.2076 7.52518 45.3348 6.80574 45.3814 5.90602C45.4404 4.76513 45.4057 4.4514 45.1432 3.75699C44.7203 2.63818 44.097 1.86404 43.0552 1.16316C41.8212 0.332914 40.6461 -0.00374244 39.0438 0.0138357C38.3365 0.0217107 37.5307 0.0818982 37.2532 0.14757ZM37.4435 1.75435C35.6579 2.25723 33.8812 3.64941 33.0787 5.17491C32.2937 6.66652 32.1954 6.55641 34.4146 6.66948C37.4451 6.82388 40.193 7.29343 42.2447 8.00752C42.7015 8.16657 43.1186 8.29665 43.1716 8.29665C43.3875 8.29665 43.8047 6.48709 43.8047 5.55066C43.8047 4.76668 43.7303 4.41807 43.445 3.86316C43.0349 3.06596 42.1156 2.30265 41.1027 1.91804C40.1892 1.57126 38.3811 1.4904 37.4435 1.75435ZM15.2245 8.50955C12.653 9.06826 10.5469 11.3074 10.5469 13.4826C10.5469 14.5111 11.2191 15.7374 12.256 16.6004C12.7163 16.9833 13.1451 17.2966 13.2092 17.2966C13.2732 17.2966 13.5973 16.9327 13.9293 16.4881C15.227 14.7504 18.0889 12.1654 20.4282 10.6182C21.21 10.101 21.2304 10.0722 20.9957 9.81287C20.621 9.39873 18.8692 8.61657 17.939 8.44796C16.8879 8.25741 16.3266 8.27007 15.2245 8.50955ZM39.6228 22.4586C39.7977 22.4922 40.0508 22.4909 40.1853 22.4558C40.3197 22.4206 40.1766 22.393 39.8672 22.3946C39.5578 22.3961 39.4478 22.425 39.6228 22.4586ZM32.6182 26.0226C32.506 26.0936 32.2016 26.1526 31.942 26.1539C31.5494 26.1556 31.4864 26.1975 31.5674 26.4021C31.6209 26.5375 31.7371 26.9868 31.8254 27.4008C31.9859 28.153 31.9857 28.1536 31.5298 28.561C30.9164 29.1091 30.3036 29.1045 29.6016 28.5466C28.9846 28.0564 28.9876 28.057 28.5782 28.3437C28.1118 28.6704 28.1777 29.2039 28.7513 29.7449C29.7899 30.7244 31.5935 30.6656 32.6078 29.6191C33.0771 29.1349 33.082 29.1335 34.0876 29.2096C35.1927 29.2931 35.8935 29.0549 36.5206 28.3827C36.8952 27.9811 37.2656 27.1318 37.2656 26.6745C37.2656 26.2972 36.8699 25.8748 36.5162 25.8748C36.1755 25.8748 35.7188 26.3841 35.7188 26.7644C35.7188 27.2002 35.1686 27.6957 34.5787 27.7915C33.9272 27.8972 33.4208 27.4817 33.1879 26.6499C32.9849 25.9246 32.9077 25.8395 32.6182 26.0226ZM56.4396 31.7881C54.604 31.9749 52.995 33.1362 52.1969 34.8502C51.8783 35.5346 51.8251 35.8383 51.8228 36.9841C51.8206 38.1401 51.8707 38.4277 52.1944 39.1181C52.8463 40.5088 54.0647 41.5964 55.4766 42.0481C55.7859 42.1471 56.0856 42.2979 56.1424 42.3834C56.2089 42.4836 56.2465 42.4865 56.2479 42.392C56.249 42.31 56.594 42.2371 57.0272 42.2269C57.5035 42.2157 58.0473 42.0911 58.4319 41.9049C60.1959 41.051 61.4396 38.3197 61.2685 35.6758C61.0886 32.8981 59.3428 31.4926 56.4396 31.7881ZM22.4452 32.1289C21.6266 32.4207 20.4604 33.2761 19.6767 34.1594C18.9994 34.9229 18 36.6693 18 37.0893C18 37.2037 17.8779 37.8121 17.7287 38.4414C17.5794 39.0707 17.4139 40.0129 17.3607 40.5349L17.2641 41.4841H18.054H18.8438V40.9941V40.5041L19.582 41.0669C20.8755 42.0528 22.6495 42.4162 24.0677 41.9859C26.1562 41.352 27.457 39.973 27.9172 37.9048C28.189 36.6831 28.0654 35.7246 27.4895 34.5883C26.414 32.4659 24.3388 31.4541 22.4452 32.1289ZM55.4207 33.6415C52.7188 34.9506 52.5572 38.7259 55.14 40.2011C56.1002 40.7495 56.8891 40.8606 57.6529 40.555C58.8174 40.0891 59.6326 38.3149 59.6513 36.2056C59.6644 34.7429 59.346 34.0527 58.4603 33.6239C57.6297 33.2219 56.2707 33.2297 55.4207 33.6415ZM22.6699 33.6807C22.0586 33.9462 20.6404 35.3096 20.1278 36.1244C19.2403 37.5353 19.2247 38.4548 20.0725 39.3933C20.8678 40.2735 21.5387 40.5635 22.7812 40.564C23.9766 40.5646 24.4918 40.3589 25.3592 39.5351C26.3263 38.6167 26.6972 37.4616 26.4333 36.1905C26.0144 34.1725 24.2485 32.9948 22.6699 33.6807ZM16.5938 43.242C16.7227 43.3974 17.0654 43.4529 17.8938 43.4529C18.8779 43.4529 18.9969 43.4265 18.8438 43.242C18.7148 43.0866 18.3721 43.031 17.5437 43.031C16.5596 43.031 16.4406 43.0575 16.5938 43.242Z" fill="#E2AB8C"/>
<path fill-rule="evenodd" clip-rule="evenodd" d="M39.4454 3.7484C39.2133 3.87018 38.7819 4.19995 38.4867 4.48106C37.851 5.08645 36.9286 6.54599 37.0538 6.74849C37.1021 6.82668 37.3336 6.89067 37.5683 6.89067C38.2652 6.89067 40.7658 7.43896 42.0047 7.86351L43.1577 8.25852L43.3055 7.83482C43.6287 6.90768 43.4291 5.49117 42.8529 4.62407C42.2101 3.65671 40.4712 3.20981 39.4454 3.7484ZM13.0081 11.7455C11.1963 12.7221 11.0222 14.8693 12.605 16.7184C12.8772 17.0366 13.1441 17.2969 13.198 17.2969C13.2519 17.2969 13.564 16.9286 13.8918 16.4785C14.2196 16.0285 15.1874 14.9708 16.0426 14.1282C17.7947 12.4015 17.7822 12.5002 16.321 11.929C15.2856 11.5244 13.5924 11.4305 13.0081 11.7455ZM51.9962 22.4587C52.1702 22.4922 52.4549 22.4922 52.629 22.4587C52.8031 22.4251 52.6606 22.3977 52.3126 22.3977C51.9645 22.3977 51.8221 22.4251 51.9962 22.4587ZM31.6614 22.8053C30.4309 23.0201 29.4313 23.8711 28.6696 25.3522C28.5191 25.6447 28.0225 26.8722 27.5662 28.0802C26.8662 29.9328 26.6415 30.3736 26.1299 30.8994C25.7964 31.2421 25.3432 31.6173 25.1229 31.7331L24.7224 31.9434L25.3338 32.2458C26.1446 32.6467 27.039 33.5588 27.4861 34.4408C27.6855 34.8344 27.8705 35.1563 27.8974 35.1563C27.9244 35.1563 28.5701 34.4508 29.3325 33.5886C31.124 31.5623 31.8858 31.1874 33.1435 31.7129C33.8017 31.9879 35.3823 33.376 35.6693 33.931C35.952 34.4775 35.9556 35.5467 35.6769 36.0858C35.4878 36.4516 34.0275 38.1426 30.5999 41.9649C29.6745 42.9971 29.6324 43.0708 30.0235 42.9743C30.6915 42.8097 33.9869 41.1838 35.2729 40.3843C36.4392 39.6594 36.4492 39.6563 37.6154 39.6563C38.755 39.6563 41.7511 39.3268 42.5469 39.114C42.934 39.0105 42.9625 38.9298 43.8877 35.33L44.8329 31.6519L44.2156 31.2901C42.9104 30.5252 42.0596 29.299 41.7782 27.7771C41.694 27.3214 41.6251 26.9283 41.6251 26.9039C41.6251 26.8794 41.3501 26.8594 41.014 26.8594C39.9409 26.8594 38.9702 26.4145 37.0547 25.0445C34.2377 23.0299 33.0943 22.5552 31.6614 22.8053ZM31.9145 24.1262C31.8028 24.2607 31.6113 24.3159 31.422 24.2685C31.0176 24.167 30.3751 24.6681 30.3751 25.0849C30.3751 25.4534 30.586 25.7376 31.0904 26.0489C31.5615 26.3395 31.9839 27.6943 31.7581 28.19C31.4185 28.9355 30.3229 29.1003 29.6964 28.5001C29.1858 28.0109 28.6309 28.0068 28.3143 28.4898C28.0895 28.8332 28.0895 28.8808 28.3146 29.2984C29.1211 30.7947 31.6453 30.9208 32.8209 29.5236C33.1354 29.1499 33.2011 29.1287 33.6075 29.2704C35.1285 29.8006 37.082 28.5807 37.2333 27.0064C37.31 26.208 37.1315 25.875 36.6271 25.875C36.0636 25.875 35.8663 26.03 35.715 26.5921C35.5143 27.3374 35.0902 27.7032 34.4266 27.7032C33.7352 27.7032 33.413 27.3771 33.1914 26.4531C33.0423 25.8321 33.0499 25.6607 33.2442 25.2512C33.4985 24.7152 33.3778 24.15 32.9759 23.9957C32.5716 23.8406 32.1038 23.8981 31.9145 24.1262ZM48.9376 27.1847C48.9376 27.2089 49.1432 27.4146 49.3946 27.6417L49.8516 28.0547L49.4386 27.5977C49.0536 27.1717 48.9376 27.076 48.9376 27.1847ZM14.6238 33.0821C14.1542 34.4201 14.081 36.5324 14.4608 37.7794C14.8001 38.8938 15.3939 39.898 16.2145 40.7461C17.0058 41.5637 17.2959 41.5449 17.3003 40.6758C17.3023 40.3084 17.3672 39.7327 17.4449 39.3963C17.5807 38.8069 17.5674 38.7643 17.0736 38.2178C15.9222 36.9434 15.4386 34.868 15.9459 33.3789C16.0703 33.014 16.1719 32.6961 16.1719 32.6721C16.1719 32.6141 15.1828 32.2032 15.0427 32.2032C14.9818 32.2032 14.7934 32.5987 14.6238 33.0821Z" fill="#FFF1E6"/>
<path fill-rule="evenodd" clip-rule="evenodd" d="M57.8362 42.2096C57.6924 42.2664 57.9298 42.3126 58.3945 42.3184C58.8393 42.3238 59.2031 42.3032 59.2031 42.2727C59.2031 42.1641 58.0823 42.1124 57.8362 42.2096ZM61.7695 42.2921C62.3689 42.3186 63.3499 42.3186 63.9492 42.2921C64.5486 42.2658 64.0582 42.2442 62.8594 42.2442C61.6605 42.2442 61.1702 42.2658 61.7695 42.2921ZM54.1055 50.0273C56.4452 50.049 60.2737 50.049 62.6133 50.0273C64.953 50.0058 63.0387 49.9881 58.3594 49.9881C53.6801 49.9881 51.7659 50.0058 54.1055 50.0273ZM57.4379 51.5736C63.0571 51.6032 64.7713 51.6524 64.8665 51.7866C64.9572 51.9147 64.9748 51.905 64.9326 51.7501C64.8824 51.5661 63.9356 51.5389 57.504 51.5372L50.1328 51.5354L57.4379 51.5736ZM56.0742 53.2557C56.2483 53.2891 56.5329 53.2891 56.707 53.2557C56.8811 53.2221 56.7387 53.1946 56.3906 53.1946C56.0426 53.1946 55.9001 53.2221 56.0742 53.2557ZM58.392 56.8126C58.392 57.0833 58.421 57.194 58.4563 57.0587C58.4917 56.9234 58.4917 56.7018 58.4563 56.5665C58.421 56.4313 58.392 56.5419 58.392 56.8126ZM53.6224 64.9336C55.0778 64.9565 57.4192 64.9564 58.8255 64.9334C60.2321 64.9105 59.0414 64.8918 56.1797 64.892C53.318 64.892 52.1672 64.9107 53.6224 64.9336Z" fill="#EF6F95"/>
<path fill-rule="evenodd" clip-rule="evenodd" d="M18.4573 46.7578C18.4589 47.0672 18.4877 47.1771 18.5213 47.0022C18.5549 46.8273 18.5537 46.5741 18.5185 46.4397C18.4834 46.3053 18.4558 46.4484 18.4573 46.7578ZM27.1055 48.0524C27.2796 48.0859 27.5642 48.0859 27.7383 48.0524C27.9124 48.0188 27.7699 47.9914 27.4219 47.9914C27.0739 47.9914 26.9314 48.0188 27.1055 48.0524ZM19.2657 48.5859C19.5281 48.8566 19.7743 49.0781 19.813 49.0781C19.8516 49.0781 19.6687 48.8566 19.4063 48.5859C19.1439 48.3152 18.8976 48.0937 18.859 48.0937C18.8203 48.0937 19.0032 48.3152 19.2657 48.5859Z" fill="#D8CF8B"/>
</svg>
