<svg width="72" height="72" viewBox="0 0 72 72" fill="none" xmlns="http://www.w3.org/2000/svg">
<path fill-rule="evenodd" clip-rule="evenodd" d="M36.2106 5.52471C35.3982 5.9134 34.2614 7.09212 33.6476 8.1828C32.8844 9.53857 32.8727 9.50763 34.1865 9.61718C35.7579 9.74824 38.0193 10.1995 39.4633 10.6702C40.9043 11.1397 40.8536 11.1906 40.8472 9.28137C40.8405 7.34384 40.2998 6.24499 39.0337 5.59587C38.1608 5.14826 37.0556 5.12041 36.2106 5.52471ZM5.32261 15.9453C4.12969 16.2666 3.37889 17.0104 3.00652 18.2399C2.63639 19.4618 3.13673 20.8985 4.42683 22.318L5.14655 23.11L5.93109 21.9965C6.90408 20.6152 8.61281 18.674 9.555 17.8796C9.94594 17.55 10.2657 17.2301 10.2657 17.1689C10.2657 16.9674 8.34605 16.1676 7.36238 15.9592C6.22289 15.7178 6.16847 15.7175 5.32261 15.9453ZM48.8504 27.1943L48.4115 27.9454L48.8006 28.1753C49.525 28.6031 50.4974 29.7291 50.9395 30.652C51.2914 31.3864 51.3921 31.803 51.4418 32.7303L51.5041 33.8903L52.0679 33.2496C52.3781 32.8974 52.9409 32.4326 53.3186 32.2169L54.0054 31.8247L53.4435 30.7018C52.7902 29.3966 51.5552 27.9797 50.2737 27.0652C49.7899 26.72 49.3704 26.4389 49.3416 26.4404C49.3128 26.442 49.0917 26.7812 48.8504 27.1943ZM27.2714 28.7333C25.2216 29.305 24.3118 30.516 22.9231 34.5203C21.9225 37.4055 21.4322 38.3289 20.4087 39.255L19.5676 40.0162L20.0846 41.0577C20.5783 42.0523 20.6015 42.163 20.5977 43.5146C20.5946 44.6428 20.5306 45.0867 20.2823 45.7032C19.8331 46.8187 19.0379 47.7964 18.0279 48.4754C16.9686 49.1874 16.4404 49.3603 15.0239 49.4595C12.0768 49.6656 9.47667 47.6401 8.86059 44.6581C8.67469 43.7583 8.754 42.5345 9.05466 41.6663L9.2362 41.1419L8.45025 40.8216C8.01783 40.6455 7.65516 40.5011 7.64433 40.5008C7.55292 40.4977 7.15074 41.7832 6.97158 42.6504C6.07706 46.9812 8.0797 50.8446 12.3048 52.9388C13.8754 53.7173 15.4916 54.0495 17.6485 54.0372C18.654 54.0316 19.9614 53.9361 20.5538 53.825C21.6488 53.6199 21.9699 53.6704 22.2892 54.0977C22.4042 54.2517 22.66 54.2125 23.6954 53.8821C24.3915 53.6599 25.2212 53.3708 25.5393 53.2395L26.1175 53.0007L26.1926 51.0747C26.3106 48.0504 26.8385 45.9866 28.1962 43.2423C30.2723 39.0463 34.4119 35.3634 38.6829 33.9123C39.108 33.7678 39.4642 33.5569 39.4879 33.4357C39.5227 33.2576 39.3307 33.2086 38.4332 33.1655C37.039 33.0987 36.252 32.7366 33.3682 30.8352C30.3238 28.828 28.8068 28.305 27.2714 28.7333ZM27.8147 30.2636C27.6024 30.4759 27.3663 30.5621 27.0675 30.5363C26.5505 30.4918 26.0649 30.8501 25.9434 31.3655C25.8339 31.8304 26.2808 32.4095 26.9302 32.6444C27.3494 32.796 27.4525 32.9327 27.6994 33.6636C28.0697 34.7601 28.0589 35.0463 27.6283 35.5581C26.9305 36.3874 25.9201 36.4424 25.0616 35.6978C24.5317 35.2381 24.3714 35.2121 23.9377 35.5159C23.2603 35.9904 23.6965 36.9378 24.8674 37.535C26.1537 38.1913 28.1479 37.7086 28.9496 36.5469C29.202 36.1812 29.3878 36.0391 29.5313 36.1019C29.9271 36.2749 31.414 36.3095 31.9211 36.1576C33.4694 35.6937 34.7726 33.3529 33.9148 32.5766C33.3136 32.0325 32.4845 32.4926 32.4845 33.3703C32.4845 33.9116 31.832 34.5452 31.1412 34.6749C30.2501 34.8419 29.6997 34.4433 29.2823 33.3282L28.94 32.4142L29.2357 31.8941C29.6244 31.2104 29.6092 30.7215 29.1861 30.2985C28.7578 29.87 28.222 29.8564 27.8147 30.2636Z" fill="#FFF1E6"/>
<path fill-rule="evenodd" clip-rule="evenodd" d="M36.8714 27.2194C35.9345 27.4716 35.6886 27.6042 34.9929 28.2326C34.4727 28.7026 33.8905 29.6084 33.8905 29.9477C33.8905 30.1966 34.4381 30.6564 34.7346 30.6564C34.9095 30.6564 35.1988 30.4021 35.4989 29.9843C36.3647 28.7792 37.6434 28.3231 38.9445 28.7552C39.6105 28.9764 39.6927 28.9774 40.0126 28.7677C40.7878 28.2598 40.2368 27.4292 38.9404 27.1512C38.0564 26.9617 37.7972 26.9702 36.8714 27.2194ZM17.789 33.8738C16.2397 34.6169 15.1594 36.1972 15.778 36.8158C15.8709 36.9086 16.1209 36.9846 16.3338 36.9846C16.6339 36.9846 16.818 36.8432 17.1539 36.355C17.3921 36.0088 17.8715 35.5588 18.2193 35.355C18.7892 35.021 18.9446 34.9929 19.7968 35.0701C21.7614 35.2478 21.7012 35.2531 21.8841 34.89C22.2938 34.0776 21.3511 33.49 19.6171 33.4767C18.812 33.4705 18.479 33.5429 17.789 33.8738ZM39.434 45.8278C38.1061 46.6376 38.7016 48.6564 40.2684 48.6564C40.5934 48.6564 41.0003 48.5577 41.1725 48.4369C41.5211 48.1928 41.9062 47.5295 41.9062 47.173C41.9062 46.6946 41.451 46.0009 40.9952 45.7845C40.3821 45.4935 39.9631 45.5052 39.434 45.8278ZM43.2031 47.4691C42.9447 47.6501 42.8905 47.8217 42.8905 48.4591C42.8905 49.3285 43.2037 50.0614 43.8289 50.6549C44.2725 51.076 45.245 51.4689 45.8437 51.4689C46.8909 51.4689 48.0151 50.7499 48.5285 49.7519C49.0385 48.7602 48.7997 48.0269 47.9966 48.119C47.6821 48.155 47.5368 48.2998 47.2837 48.8293C46.8069 49.8271 46.0027 50.157 45.1377 49.7097C44.6154 49.4396 44.4028 49.0396 44.4124 48.3454C44.4174 47.9809 44.328 47.7033 44.1474 47.5227C43.8177 47.193 43.6139 47.1814 43.2031 47.4691ZM50.5546 47.6866C50.0261 47.9924 49.7874 48.4254 49.7874 49.0783C49.7874 50.0543 50.3837 50.6252 51.4031 50.6252C52.1625 50.6252 52.8749 49.8842 52.8749 49.0946C52.8749 48.2686 52.3114 47.6655 51.4642 47.5842C51.1185 47.551 50.7093 47.5971 50.5546 47.6866Z" fill="#605C5D"/>
<path fill-rule="evenodd" clip-rule="evenodd" d="M45.0533 35.45C47.5204 38.1136 48.8975 40.5401 49.0367 42.4689C49.1227 43.6608 48.7226 44.4835 47.8099 44.991C46.4911 45.7242 45.0195 45.3797 40.6856 43.3233C37.1321 41.6372 35.7588 41.4492 34.7823 42.5147C33.6463 43.7542 33.8948 45.7643 35.5284 48.5509C36.7119 50.5696 37.9451 52.029 40.8269 54.8215C42.9089 56.839 43.5815 58.5166 42.8653 59.9064C42.2039 61.1897 40.684 61.803 38.3879 61.7127L37.1524 61.6642L36.8446 62.1137C36.6752 62.3609 35.9633 63.1159 35.2624 63.7916L33.988 65.0201L34.5325 65.4773C35.9839 66.6958 38.5789 67.9675 40.878 68.5868C42.1464 68.9283 42.4852 68.959 45.0704 68.9662C47.509 68.9728 48.0418 68.9333 49.0782 68.6693C49.7356 68.5018 50.4537 68.2961 50.6739 68.212L51.0741 68.0593L50.292 67.2144C48.3432 65.1095 47.4118 63.0249 47.5654 61.112C47.8146 58.0071 50.5163 56.5328 54.0105 57.5947C54.6622 57.7927 55.6415 57.9907 56.1868 58.0347C58.5533 58.2255 60.3091 56.9399 59.8847 55.3271C59.6954 54.6084 58.8843 53.9422 57.4989 53.368C55.8708 52.6932 54.7846 51.9593 54.2551 51.1761C53.8831 50.6263 53.8413 50.4617 53.8914 49.7455C53.9339 49.1357 54.0507 48.789 54.3652 48.3393C55.2493 47.0745 56.7909 46.4065 59.7186 46.0197L61.4293 45.7936L61.1507 45.0805C60.925 44.5026 60.1394 42.9653 59.9724 42.7749C59.9505 42.7499 59.721 42.8389 59.4624 42.9726C58.1615 43.6457 56.2369 43.7819 54.8118 43.3018C52.0067 42.3568 50.3034 39.8214 50.5278 36.9248C50.5701 36.3776 50.6456 35.7981 50.6956 35.6371C50.7764 35.3759 50.6903 35.3191 49.8971 35.1111C48.1584 34.6549 47.7209 34.5877 45.9151 34.4983L44.0879 34.4077L45.0533 35.45ZM39.9041 45.533C39.399 45.596 38.7218 46.2846 38.644 46.8144C38.5488 47.4636 38.832 48.1202 39.3608 48.4757C39.9138 48.8477 40.4846 48.8849 41.0611 48.5869C41.6428 48.2861 41.9063 47.8382 41.9063 47.1507C41.9063 46.1416 40.9862 45.3981 39.9041 45.533ZM42.9691 47.5628C42.2863 48.5374 43.1483 50.5897 44.4979 51.2027C45.2718 51.5541 46.5378 51.551 47.2339 51.196C48.7524 50.4212 49.4675 48.3029 48.3086 48.0119C47.8267 47.891 47.2988 48.2556 47.1812 48.7906C47.0041 49.5965 45.9057 50.0501 45.133 49.6366C44.7702 49.4425 44.4376 48.7707 44.4376 48.2323C44.4376 47.536 44.2133 47.2502 43.6673 47.2502C43.3313 47.2502 43.1225 47.3437 42.9691 47.5628ZM50.5476 47.602C49.0131 48.384 49.6174 50.768 51.3495 50.7652C51.8611 50.7644 52.5726 50.2573 52.8354 49.7063C53.0493 49.2577 53.0527 49.1487 52.8688 48.6281C52.5148 47.6263 51.4359 47.1493 50.5476 47.602Z" fill="#DDFCFC"/>
<path fill-rule="evenodd" clip-rule="evenodd" d="M41.9765 33.1137C37.8887 33.8697 34.5672 35.5871 31.7913 38.3805C30.4388 39.7413 29.634 40.797 28.6489 42.5021C26.8466 45.6218 25.9471 49.6926 26.2788 53.2275C26.4355 54.8979 26.6855 56.2525 26.8358 56.2458C26.8874 56.2435 27.196 56.0061 27.5214 55.7184L28.1132 55.1953L27.964 54.4922C27.7255 53.3675 27.7635 50.0248 28.0304 48.6502C28.7192 45.1031 30.3378 42.0583 32.8934 39.5028C36.2626 36.1336 40.354 34.4465 45.1697 34.4407C47.047 34.4385 48.0501 34.5665 49.7647 35.0273C50.3358 35.1807 50.8184 35.2883 50.8373 35.2664C50.9114 35.1803 51.4687 34.0383 51.4687 33.9725C51.4687 33.8484 49.6069 33.346 48.3213 33.1229C46.8033 32.8596 43.3775 32.8546 41.9765 33.1137ZM60.6453 42.1719L60.0506 42.6842L60.6857 43.9476C61.9531 46.4691 62.4734 48.7026 62.4869 51.6797C62.5049 55.6499 61.4391 58.9742 59.1523 62.0809C56.6019 65.5454 52.8866 67.9096 48.5155 68.8491C46.8574 69.2055 43.4237 69.2055 41.7655 68.8491C39.2267 68.3034 36.8004 67.2317 34.8793 65.8073L33.8187 65.0209L33.1525 65.4995L32.4863 65.978L33.2098 66.5788C35.1254 68.1695 37.7562 69.4818 40.4999 70.2152C42.055 70.6309 42.2307 70.6479 45.0702 70.6556C47.8331 70.6632 48.12 70.6392 49.5234 70.2827C55.7531 68.7002 60.5439 64.5396 62.8652 58.6959C63.6789 56.6478 64.0031 55.0019 64.0857 52.5023C64.2004 49.0274 63.6316 46.2708 62.2083 43.4045C61.2646 41.5036 61.3463 41.5682 60.6453 42.1719Z" fill="#66E1E9"/>
<path fill-rule="evenodd" clip-rule="evenodd" d="M41.9902 34.6792C38.5653 35.2977 35.4432 36.9532 32.8935 39.5029C29.813 42.5835 28.1515 46.2387 27.774 50.7657C27.6932 51.7352 27.8905 54.576 28.0713 55.0472C28.13 55.2 28.3623 55.1015 29.0444 54.6345C32.206 52.47 34.7739 51.7992 36.5364 52.6775C37.7006 53.2576 38.5026 54.3891 38.8114 55.8873C39.0973 57.2738 38.7033 59.036 37.7435 60.663C37.4752 61.118 37.2949 61.5293 37.3429 61.5771C37.5357 61.7698 40.2936 61.6336 40.9122 61.4009C42.9549 60.6324 43.5668 59.0542 42.5841 57.0878C42.2287 56.3765 41.6714 55.7301 39.8678 53.9364C36.9592 51.0442 35.5637 49.1712 34.5697 46.8253C33.9577 45.3808 33.8631 43.7869 34.3411 42.9742C34.8016 42.1911 35.3007 41.8705 36.1719 41.7983C37.1523 41.7169 38.3734 42.1292 41.4404 43.577C45.1308 45.3192 46.4156 45.6055 47.6691 44.9649C49.1011 44.2333 49.3664 42.8767 48.52 40.6146C48.114 39.5294 46.5641 37.236 45.211 35.7187C43.9344 34.2871 44.0157 34.3134 41.9902 34.6792ZM59.7527 46.0617C58.0429 46.296 56.8016 46.6171 55.9615 47.0428C54.6771 47.6936 53.6759 49.2939 53.9216 50.3029C54.2008 51.45 55.1982 52.2885 57.441 53.262C59.4391 54.1293 60.1531 54.891 60.0047 55.9971C59.9047 56.7421 59.6046 57.1522 58.8245 57.6094C58.2625 57.9387 57.9668 58.0059 56.8695 58.0539C55.7576 58.1025 55.3827 58.054 54.1906 57.7077C50.6231 56.6707 48.2371 57.7701 47.6799 60.7079C47.3357 62.5231 48.3283 65.0058 50.1776 66.9543L51.2685 68.1041L52.5132 67.5208C57.5512 65.16 61.1577 60.5307 62.2499 55.0231C62.5379 53.5713 62.5776 50.1706 62.3215 48.8774C61.9507 47.0032 61.5703 45.8433 61.3322 45.8604C61.2054 45.8696 60.4947 45.9601 59.7527 46.0617Z" fill="#A4BE7B"/>
<path fill-rule="evenodd" clip-rule="evenodd" d="M33.3995 1.49291C31.4354 1.96766 29.1177 3.47403 27.8911 5.07294C27.1134 6.08656 26.3692 7.59983 26.0778 8.76013C25.8654 9.60556 25.8049 9.7033 25.4934 9.7033C24.8336 9.7033 22.2848 10.2832 20.8646 10.7564C20.0812 11.0174 18.6883 11.6079 17.7691 12.0686L16.0982 12.9063L15.5374 12.4307C14.8316 11.8321 13.1064 10.9273 12.0938 10.6244C9.49027 9.84589 6.40651 10.2055 4.10138 11.5566C3.01421 12.1939 1.43176 13.8107 0.891475 14.8361C0.187225 16.1726 -0.041431 17.1556 0.0276158 18.5489C0.076694 19.5382 0.167538 19.9241 0.527678 20.672C1.09229 21.8444 2.11744 22.9866 3.37815 23.8481C4.19321 24.4051 4.36112 24.5824 4.29348 24.8158C4.24805 24.9731 4.11038 25.48 3.98748 25.9424C3.60891 27.368 3.90085 28.7296 4.78932 29.6806L5.18279 30.1018L4.42651 31.6799C2.31516 36.0855 2.59191 39.2946 5.18434 40.4709C5.46544 40.5985 5.7083 40.707 5.72419 40.7122C5.73994 40.7176 5.63265 41.1898 5.48555 41.7616C4.75121 44.6165 5.11712 47.5664 6.49398 49.8903C7.09726 50.9082 8.69757 52.6059 9.77293 53.3683C11.5248 54.6105 13.8252 55.4711 15.8513 55.6424C16.4144 55.6901 16.8742 55.7671 16.8732 55.8138C16.8722 55.8605 16.7465 56.4998 16.5938 57.2345C16.0842 59.6873 16.3088 61.8653 17.2824 63.9142C18.5499 66.581 20.651 68.1569 23.5694 68.6297C24.7754 68.825 25.9966 68.7129 27.6329 68.2569C28.9178 67.8987 31.7616 66.5996 32.2741 66.1367C32.4285 65.9972 32.9346 65.6016 33.3985 65.2576C37.0771 62.531 39.3226 58.7338 38.8306 56.072C38.4152 53.825 37.101 52.4845 35.1787 52.3468C33.0531 52.1948 30.655 53.3124 27.1407 56.0928C25.5852 57.3234 22.8253 59.9683 22.7066 60.3418C22.568 60.7787 22.8828 61.172 23.3711 61.172C23.7366 61.172 24.049 60.9406 25.2294 59.7953C27.7267 57.3725 30.1856 55.541 32.3148 54.5181C33.4448 53.9753 33.6279 53.9299 34.6897 53.9299C35.7756 53.9299 35.8652 53.9536 36.2845 54.3517C37.2564 55.2744 37.5758 56.4961 37.2141 57.9076C36.7698 59.6416 35.8674 61.0238 34.0455 62.7608C32.0796 64.6351 29.6839 66.0124 27.1007 66.7533C26.0458 67.0559 25.6426 67.1015 24.4254 67.0562C23.1274 67.008 22.8913 66.955 21.9214 66.4941C18.545 64.8896 17.0861 60.7393 18.3909 56.4494L18.6438 55.6174L19.5727 55.525C21.2656 55.3565 22.0848 55.1318 22.2067 54.8022C22.2676 54.6375 22.2873 54.3877 22.2506 54.2471C22.1253 53.768 21.7439 53.7036 20.3617 53.9277C15.7838 54.6701 12.0952 53.6433 9.27835 50.842C6.72615 48.3042 6.01782 44.959 7.25349 41.2799C7.73119 39.8579 7.6876 39.6331 6.89068 39.4053C5.94638 39.1353 5.33073 38.7892 5.00363 38.3444C4.75037 38 4.7124 37.7538 4.72154 36.5163C4.73068 35.2705 4.78904 34.9345 5.17435 33.9105C5.41763 33.2639 5.96832 32.0765 6.39807 31.2717C7.26404 29.65 7.26643 29.5058 6.43548 28.9911C4.94218 28.0665 5.11444 26.0788 6.9278 23.3128C9.86912 18.8259 16.4175 13.8406 21.5567 12.1755C25.9847 10.741 32.8599 10.595 37.8282 11.8303C40.2526 12.433 42.2216 13.4323 43.0028 14.4566C43.3948 14.9705 43.4145 15.1556 43.2808 17.0791C43.2482 17.5499 43.2958 17.6617 43.5938 17.8134C43.7872 17.912 44.6064 18.3162 45.4146 18.7119C47.671 19.8166 48.921 20.7632 49.6643 21.9301C50.3534 23.0116 50.1962 23.8575 49.0224 25.3861C48.7455 25.7466 49.0951 26.2324 50.0828 26.8595C51.396 27.6933 52.7018 29.1178 53.4221 30.5026C53.74 31.1136 54.0001 31.6813 54.0001 31.7641C54.0001 31.847 53.803 32.0167 53.5622 32.1413C52.9195 32.4736 51.9658 33.3966 51.4889 34.1477C49.8398 36.7455 50.5922 40.5185 53.1205 42.3289C54.8598 43.5744 57.3399 43.8163 59.2426 42.926C61.3501 41.9398 62.5841 40.3186 62.5924 38.5254C62.6001 36.8785 61.9376 35.633 60.1691 33.9694C58.9409 32.8139 57.2759 31.8682 56.181 31.7039C55.8077 31.648 55.5469 31.5346 55.5469 31.4282C55.5469 31.3288 55.266 30.6874 54.9224 30.0028C54.1813 28.5258 53.0844 27.1532 51.9038 26.2256C51.4325 25.8553 51.0469 25.5184 51.0469 25.4769C51.0469 25.4354 51.189 25.1126 51.3626 24.7595C51.8243 23.8205 51.7868 22.5404 51.268 21.5275C50.4899 20.0084 48.5323 18.3808 46.0864 17.2193L45.0001 16.7033V15.8004C45.0001 14.3382 44.389 13.2822 42.9828 12.3136L42.2234 11.7906L42.5561 10.8338C43.5904 7.8597 43.1549 5.23016 41.3268 3.41174C40.4787 2.56799 39.1157 1.80805 37.8782 1.48869C36.8043 1.21166 34.5543 1.21377 33.3995 1.49291ZM33.8204 3.02178C32.0453 3.50314 30.3886 4.54967 29.3036 5.87506C28.6054 6.72824 27.7703 8.33347 27.6143 9.12238L27.5208 9.596L28.9127 9.49939C31.6356 9.31039 36.3546 9.83633 39.0235 10.6264C39.7196 10.8324 40.3932 11.0311 40.5204 11.0678C40.8954 11.1762 41.3634 9.73677 41.4489 8.21197C41.5418 6.55414 41.2925 5.75877 40.3601 4.73867C39.5794 3.88438 38.6532 3.33594 37.4717 3.02825C36.4661 2.76627 34.7737 2.76331 33.8204 3.02178ZM7.14212 12.0308C4.99857 12.5505 2.99452 14.1134 2.10268 15.9611C1.67912 16.8385 1.62708 17.0754 1.62329 18.1408C1.61977 19.1803 1.67012 19.433 2.00987 20.0795C2.22474 20.4883 2.6334 21.0804 2.91788 21.3954C3.41274 21.9432 4.92024 23.0627 5.16296 23.0627C5.22666 23.0627 5.68862 22.4774 6.18952 21.7619C7.7596 19.5192 11.7051 15.8476 14.4749 14.0518L14.8169 13.8301L14.154 13.374C13.2945 12.7827 12.2329 12.3022 11.1854 12.0302C10.1656 11.7656 8.23534 11.7658 7.14212 12.0308ZM37.7947 28.6465C37.9697 28.6801 38.2228 28.6788 38.3572 28.6437C38.4917 28.6085 38.3485 28.5809 38.0391 28.5825C37.7297 28.584 37.6198 28.6129 37.7947 28.6465ZM28.6147 32.5463C28.4614 32.662 28.1367 32.7589 27.893 32.7613L27.4501 32.7658L27.798 33.7662C28.0896 34.6048 28.1197 34.83 27.9836 35.1585C27.697 35.8505 27.2134 36.182 26.3909 36.2502C25.7066 36.3069 25.5942 36.2731 25.1409 35.8752C24.5424 35.3496 24.131 35.3193 23.8301 35.7785C23.6269 36.0888 23.6266 36.1578 23.8276 36.5465C23.9491 36.7813 24.3487 37.1501 24.7157 37.3658C25.2652 37.6888 25.5442 37.757 26.2969 37.7528C27.4059 37.7465 28.158 37.396 28.85 36.5631L29.3259 35.9902L30.0575 36.1591C31.1415 36.4093 32.1303 36.1533 32.9846 35.4013C33.735 34.7407 34.0313 34.1562 34.0313 33.336C34.0313 32.8898 33.958 32.7242 33.6797 32.5419C33.3541 32.3286 33.3023 32.3286 32.9766 32.5419C32.7471 32.6923 32.6234 32.9054 32.6201 33.1558C32.6085 34.0489 31.8152 34.734 30.7969 34.7305C29.93 34.7275 29.5967 34.4239 29.2145 33.2889C28.9075 32.3778 28.8811 32.3449 28.6147 32.5463ZM54.3516 33.4416C53.6492 33.772 52.8064 34.6936 52.4197 35.5544C52.2026 36.0376 52.1226 36.5083 52.1171 37.3361C52.1079 38.6982 52.5159 39.7191 53.4376 40.6408C54.3549 41.5581 55.3795 41.9693 56.7422 41.9669C58.0927 41.9645 58.8582 41.6667 59.8468 40.7588C61.0189 39.6823 61.3293 38.4043 60.7266 37.1345C60.5585 36.7801 59.9101 35.983 59.28 35.3557C57.458 33.5425 55.6395 32.8361 54.3516 33.4416ZM19.3711 33.4276C19.5452 33.461 19.8299 33.461 20.004 33.4276C20.1781 33.394 20.0356 33.3665 19.6876 33.3665C19.3395 33.3665 19.1971 33.394 19.3711 33.4276Z" fill="#E2AB8C"/>
<path fill-rule="evenodd" clip-rule="evenodd" d="M46.635 3.30016C45.5439 3.68912 44.5781 4.7237 44.281 5.82198C44.0525 6.6663 44.2052 7.90619 44.6247 8.61325C44.8197 8.94203 45.6765 9.97872 46.5287 10.9173C48.3467 12.9193 48.8886 13.2546 50.4385 13.336C52.0784 13.4222 52.5663 13.1851 54.773 11.23C56.7997 9.43422 57.2989 8.75064 57.4643 7.54394C57.5681 6.78695 57.2411 5.59712 56.7446 4.92466C55.547 3.30283 53.1366 2.93636 51.5637 4.13687L50.9624 4.59587L50.3667 4.06712C49.3505 3.16544 47.868 2.8607 46.635 3.30016ZM56.4207 13.2034C54.1072 14.0026 52.4531 16.2845 52.4531 18.6772C52.4531 19.693 54.0141 25.7535 54.5913 26.9786C55.6796 29.2885 58.3637 30.8233 60.9456 30.6119C62.1046 30.5171 67.8815 29.0089 68.8127 28.5581C72.3106 26.8647 73.0934 22.0331 70.3193 19.2588C69.8934 18.8332 69.2253 18.3677 68.6589 18.1023C67.8194 17.709 67.5661 17.6577 66.4453 17.6533C65.7492 17.6507 64.9185 17.7002 64.5995 17.7633C64.0235 17.8773 64.0185 17.8747 63.9302 17.4117C63.681 16.1063 62.6026 14.6049 61.3368 13.8013C59.9783 12.9389 57.9136 12.6877 56.4207 13.2034ZM43.6522 27.5484C42.33 28.0336 41.0853 29.0598 40.3944 30.2343C39.99 30.922 39.6562 32.1328 39.6562 32.9124V33.5707L40.7105 33.3195C43.7543 32.5943 46.8131 32.6047 49.7109 33.3503C51.6492 33.849 51.4688 33.8682 51.4688 33.1631C51.4688 30.9729 50.1427 28.8782 48.1248 27.881C47.1594 27.4038 46.9567 27.3567 45.7189 27.323C44.679 27.2946 44.2022 27.3466 43.6522 27.5484ZM28.1904 30.0946C28.033 30.1542 27.8235 30.3003 27.7246 30.4193C27.6007 30.5686 27.4002 30.6122 27.0775 30.5599C26.4253 30.454 25.9829 30.8985 26.0428 31.5995C26.0976 32.2416 26.5922 32.6293 27.4846 32.73C28.3251 32.8248 28.7487 32.5997 29.2094 31.8136C29.5031 31.3124 29.5448 31.1238 29.4413 30.763C29.2973 30.2611 28.6559 29.9182 28.1904 30.0946ZM12.855 37.9361C11.2179 38.52 10.054 39.5758 9.3202 41.1426C8.96752 41.8958 8.92969 42.1262 8.92969 43.5234C8.92969 44.962 8.9602 45.1348 9.36605 45.991C10.2066 47.7648 11.5951 48.8854 13.4691 49.3024C16.7511 50.0325 19.8802 47.899 20.5373 44.483C21.0045 42.0549 19.6501 39.4349 17.3368 38.2916C16.3665 37.8121 16.1558 37.7624 14.922 37.7236C13.8892 37.691 13.4016 37.7412 12.855 37.9361Z" fill="#FF9EB6"/>
<path fill-rule="evenodd" clip-rule="evenodd" d="M34.3478 2.96846C31.8109 3.39117 29.4517 5.20299 28.2852 7.62441C27.9765 8.26496 27.6905 8.94727 27.6494 9.14063L27.575 9.49219H30.2846H32.9943L33.4724 8.5306C34.1222 7.22391 35.3603 5.89402 36.3052 5.48747C37.1775 5.11228 38.1698 5.15278 39.0406 5.59927C40.3055 6.24783 40.8406 7.34569 40.8471 9.306C40.852 10.8132 40.9161 10.8148 41.2771 9.31571C41.916 6.66268 40.9593 4.59957 38.5817 3.50311C37.2442 2.88633 35.8768 2.71364 34.3478 2.96846ZM27.9844 11.1167C24.4685 11.3292 21.3245 12.1132 18.6979 13.4324C15.7475 14.9141 13.0161 16.8549 10.5275 19.2378C5.80401 23.7606 4.22536 27.6223 6.54131 28.9887C7.30687 29.4404 7.29042 29.7135 6.39689 31.4017C5.08598 33.8787 4.45162 36.1441 4.6994 37.4646C4.84818 38.2575 5.51812 38.9149 6.4485 39.1809C7.4084 39.4553 7.77656 39.7478 7.69556 40.1714C7.64592 40.4311 7.74886 40.5321 8.30883 40.773C8.67895 40.9323 9.04261 41.0625 9.11686 41.0625C9.19111 41.0625 9.45562 40.7451 9.70453 40.3571C11.7323 37.1971 16.3898 36.691 18.8858 39.3593L19.531 40.0492L20.3903 39.2715C21.4339 38.3271 21.9172 37.4203 22.923 34.5202C24.1598 30.9537 24.8743 29.8337 26.3891 29.0881C27.2005 28.6886 27.4701 28.6259 28.3259 28.6372C29.7049 28.6554 30.7589 29.1149 33.3681 30.8351C36.243 32.7308 37.0409 33.0988 38.4183 33.1647C39.2812 33.2061 39.5111 33.2636 39.5523 33.4481C39.5809 33.5755 39.615 33.335 39.6283 32.9137C39.6416 32.4923 39.7477 31.8201 39.864 31.4198C40.1296 30.5061 41.0507 29.1132 41.7615 28.5501C43.4137 27.2415 45.9193 26.8621 47.7786 27.639C48.0482 27.7516 48.3183 27.8438 48.3788 27.8438C48.4394 27.8438 48.6586 27.5541 48.8661 27.2001C49.2232 26.5908 49.232 26.533 49.0309 26.1176C48.7967 25.6343 48.8422 25.4987 49.5803 24.4771C50.231 23.5768 50.2041 22.8337 49.4814 21.7427C48.7603 20.654 46.6651 19.2251 44.3953 18.2741C43.0521 17.7112 42.9237 17.5167 43.2371 16.5198C43.6517 15.2018 43.0815 14.2 41.3349 13.1774C40.3777 12.6169 37.9135 11.8465 36.056 11.527C34.6463 11.2846 30.6579 10.9358 29.9531 10.9934C29.8371 11.0028 28.9512 11.0583 27.9844 11.1167ZM7.52343 12.0112C5.63526 12.448 4.50534 13.0805 3.26193 14.397C1.6979 16.0529 1.2389 18.1458 2.0264 20.0303C2.28262 20.6438 3.4979 21.9544 4.35937 22.5464L4.99218 22.9812L4.33969 22.2334C3.1109 20.8249 2.64558 19.4311 3.00642 18.2398C3.57989 16.3465 5.16965 15.5048 7.32319 15.9538C7.89201 16.0723 8.80608 16.3824 9.35451 16.643L10.3518 17.1165L11.3985 16.2744C11.9742 15.8113 12.9388 15.0851 13.542 14.6606C14.5765 13.9327 14.6257 13.8745 14.4094 13.6354C14.0837 13.2756 12.4445 12.4433 11.5312 12.1742C10.4342 11.8508 8.54831 11.7741 7.52343 12.0112ZM8.71875 18.6328C8.37717 18.9809 8.12939 19.2656 8.16806 19.2656C8.20673 19.2656 8.51779 18.9809 8.85937 18.6328C9.20095 18.2848 9.44873 18 9.41006 18C9.37139 18 9.06033 18.2848 8.71875 18.6328ZM36.3786 27.2689C35.4811 27.6307 34.8342 28.1402 34.3163 28.8928C33.626 29.8962 33.7823 30.6563 34.679 30.6563C35.0599 30.6563 35.2095 30.5453 35.6432 29.9417C36.325 28.9928 37.1128 28.6289 38.2276 28.748C40.0372 28.9412 40.1261 28.9313 40.3273 28.5144C40.7295 27.6815 39.9043 27.1164 38.1797 27.0437C37.3106 27.0072 36.9008 27.0584 36.3786 27.2689ZM18.6328 33.4538C17.3614 33.796 16.4057 34.4963 15.8002 35.5293C15.3927 36.2249 15.4295 36.7376 15.9054 36.9923C16.3652 37.2383 16.823 37.0342 17.2557 36.39C18.0446 35.2152 19.2568 34.7792 20.5679 35.1986C21.4104 35.4679 21.8877 35.3334 22.0245 34.788C22.1479 34.2968 21.9696 34.0216 21.3186 33.6977C20.7352 33.4076 19.2918 33.2765 18.6328 33.4538ZM53.9924 33.7253C52.7394 34.5213 52.0992 35.9303 52.1999 37.6699C52.2987 39.377 53.1727 40.6997 54.7319 41.5015C55.5629 41.929 57.2226 42.0262 58.1918 41.7043C59.5853 41.2414 60.7373 40.0289 60.9646 38.7856C61.1729 37.6464 60.1545 35.9371 58.5169 34.677C56.6835 33.2664 55.2045 32.9552 53.9924 33.7253ZM8.76093 43.5938C8.76093 44.0191 8.78723 44.1931 8.81943 43.9805C8.85164 43.7678 8.85164 43.4197 8.81943 43.207C8.78723 42.9944 8.76093 43.1684 8.76093 43.5938ZM18.8362 47.7773L18.3516 48.3047L18.8789 47.8201C19.3697 47.369 19.4709 47.25 19.3635 47.25C19.34 47.25 19.1028 47.4874 18.8362 47.7773ZM25.7041 53.1648C25.2994 53.4007 22.4842 54.2881 22.3681 54.2163C22.3083 54.1794 22.2865 54.2914 22.3199 54.4652C22.4203 54.9907 21.9701 55.2372 20.4699 55.4787C19.7075 55.6013 19.0057 55.6719 18.9105 55.6353C18.6216 55.5244 18.1039 57.5561 18.0291 59.0955C17.9051 61.647 18.5909 63.6192 20.1388 65.1618C22.5353 67.5505 25.8065 67.6782 29.9936 65.5464C31.8433 64.6048 33.0251 63.7433 34.4531 62.2962C36.9361 59.78 37.8315 57.2603 36.9304 55.3248C36.1087 53.5604 34.6704 53.422 31.8516 54.8366C30.0926 55.7191 28.0316 57.2598 25.5556 59.5427C24.5001 60.5161 23.5171 61.3125 23.3713 61.3125C23.0172 61.3125 22.6406 60.8768 22.6406 60.4672C22.6406 60.1296 23.7625 58.9369 25.7555 57.1559L26.6905 56.3203L26.4864 55.125C26.3742 54.4676 26.2512 53.7241 26.2129 53.4727C26.1385 52.9826 26.0788 52.9464 25.7041 53.1648Z" fill="#F7E1AE"/>
<path fill-rule="evenodd" clip-rule="evenodd" d="M44.9298 35.4375C45.2318 35.7469 45.5107 36 45.5494 36C45.588 36 45.3725 35.7469 45.0704 35.4375C44.7683 35.1281 44.4895 34.875 44.4508 34.875C44.4121 34.875 44.6277 35.1281 44.9298 35.4375ZM51.8907 41.3878C51.8907 41.412 52.0963 41.6177 52.3477 41.8448L52.8048 42.2578L52.3918 41.8008C52.0067 41.3748 51.8907 41.2791 51.8907 41.3878ZM54.7647 47.8477L54.3517 48.3047L54.8087 47.8917C55.0601 47.6646 55.2657 47.4588 55.2657 47.4346C55.2657 47.3259 55.1497 47.4217 54.7647 47.8477ZM26.189 50.3437C26.189 50.6145 26.2179 50.7251 26.2532 50.5898C26.2887 50.4546 26.2887 50.2329 26.2532 50.0977C26.2179 49.9624 26.189 50.073 26.189 50.3437ZM38.3204 52.4531C38.6225 52.7625 38.9013 53.0156 38.94 53.0156C38.9787 53.0156 38.7631 52.7625 38.461 52.4531C38.159 52.1437 37.8801 51.8906 37.8414 51.8906C37.8028 51.8906 38.0183 52.1437 38.3204 52.4531ZM39.797 53.9297C40.0594 54.2004 40.3056 54.4219 40.3443 54.4219C40.3829 54.4219 40.2 54.2004 39.9376 53.9297C39.6752 53.659 39.429 53.4375 39.3903 53.4375C39.3516 53.4375 39.5346 53.659 39.797 53.9297ZM43.0668 58.8516C43.0683 59.1609 43.0972 59.2709 43.1308 59.096C43.1644 58.921 43.1631 58.6679 43.128 58.5335C43.0928 58.399 43.0652 58.5422 43.0668 58.8516ZM50.3877 67.3325C50.754 67.7045 51.0048 68.0626 50.9449 68.1284C50.885 68.1944 50.9212 68.1989 51.0253 68.1387C51.1661 68.0573 51.0412 67.8532 50.5383 67.3428C50.1665 66.9652 49.8306 66.6562 49.7919 66.6562C49.7532 66.6562 50.0214 66.9606 50.3877 67.3325ZM44.4024 69.1505C44.8084 69.1789 45.473 69.1789 45.879 69.1505C46.285 69.1221 45.9528 69.0989 45.1407 69.0989C44.3286 69.0989 43.9964 69.1221 44.4024 69.1505Z" fill="#D5F4F0"/>
<path fill-rule="evenodd" clip-rule="evenodd" d="M29.8049 5.30857L29.3203 5.83592L29.8477 5.35132C30.1378 5.0847 30.375 4.84746 30.375 4.82398C30.375 4.71654 30.256 4.81779 29.8049 5.30857ZM28.0215 9.52282C28.2353 9.55503 28.5517 9.55418 28.7246 9.52085C28.8976 9.48753 28.7227 9.46109 28.3359 9.46207C27.9492 9.4632 27.8078 9.49048 28.0215 9.52282ZM31.6758 9.52254C31.8884 9.55475 32.2366 9.55475 32.4492 9.52254C32.6618 9.49034 32.4879 9.46404 32.0625 9.46404C31.6371 9.46404 31.4632 9.49034 31.6758 9.52254ZM28.3711 11.0704C28.6224 11.1016 29.0339 11.1016 29.2852 11.0704C29.5365 11.0393 29.3309 11.0137 28.8281 11.0137C28.3254 11.0137 28.1198 11.0393 28.3711 11.0704ZM31.3268 11.0707C31.5795 11.1019 31.9591 11.1013 32.1705 11.0693C32.3819 11.0371 32.175 11.0115 31.7109 11.0123C31.2469 11.013 31.074 11.0393 31.3268 11.0707ZM3.375 14.1328C3.03342 14.4808 2.78564 14.7656 2.82431 14.7656C2.86298 14.7656 3.17405 14.4808 3.51562 14.1328C3.8572 13.7847 4.10498 13.5 4.06631 13.5C4.02764 13.5 3.71658 13.7847 3.375 14.1328ZM10.3271 17.1914L9.91406 17.6484L10.3711 17.2354C10.6224 17.0083 10.8281 16.8026 10.8281 16.7784C10.8281 16.6697 10.7121 16.7654 10.3271 17.1914ZM9.91027 19.7226L8.92969 20.7422L9.94922 19.7616C10.5099 19.2223 10.9688 18.7634 10.9688 18.7421C10.9688 18.6388 10.8211 18.7757 9.91027 19.7226ZM3.08784 21.5508C3.67059 22.1716 3.79688 22.2833 3.79688 22.1777C3.79688 22.1552 3.49636 21.8545 3.12891 21.5097L2.46094 20.8828L3.08784 21.5508ZM44.1211 32.8649C44.2952 32.8984 44.5798 32.8984 44.7539 32.8649C44.928 32.8313 44.7855 32.8039 44.4375 32.8039C44.0895 32.8039 43.947 32.8313 44.1211 32.8649ZM45.6697 32.865C45.8446 32.8986 46.0977 32.8974 46.2322 32.8622C46.3666 32.8271 46.2234 32.7995 45.9141 32.801C45.6047 32.8026 45.4947 32.8314 45.6697 32.865ZM55.0915 33.2869C55.2665 33.3205 55.5196 33.3192 55.654 33.2841C55.7885 33.2489 55.6453 33.2214 55.3359 33.2229C55.0266 33.2245 54.9166 33.2533 55.0915 33.2869ZM33.1083 35.332L32.6953 35.789L33.1523 35.376C33.5783 34.991 33.6741 34.875 33.5654 34.875C33.5412 34.875 33.3354 35.0807 33.1083 35.332ZM50.5246 37.3359C50.5257 37.7226 50.553 37.8641 50.5853 37.6504C50.6175 37.4366 50.6167 37.1202 50.5834 36.9472C50.55 36.7743 50.5236 36.9492 50.5246 37.3359ZM52.0715 37.3359C52.0726 37.7226 52.0999 37.8641 52.1322 37.6504C52.1644 37.4366 52.1636 37.1202 52.1303 36.9472C52.0969 36.7743 52.0705 36.9492 52.0715 37.3359ZM56.4278 42.0072C56.6415 42.0394 56.9579 42.0386 57.1309 42.0052C57.3038 41.9719 57.1289 41.9455 56.7422 41.9464C56.3555 41.9476 56.214 41.9749 56.4278 42.0072ZM56.4278 43.5541C56.6415 43.5863 56.9579 43.5854 57.1309 43.5521C57.3038 43.5188 57.1289 43.4923 56.7422 43.4933C56.3555 43.4944 56.214 43.5217 56.4278 43.5541ZM6.65156 44.7187C6.65156 45.1441 6.67786 45.3181 6.71006 45.1054C6.74227 44.8928 6.74227 44.5446 6.71006 44.332C6.67786 44.1194 6.65156 44.2933 6.65156 44.7187ZM37.3039 56.8125C37.3039 57.1605 37.3313 57.303 37.3649 57.1289C37.3984 56.9548 37.3984 56.6702 37.3649 56.4961C37.3313 56.322 37.3039 56.4644 37.3039 56.8125ZM23.6915 59.0976L22.7109 60.1172L23.7305 59.1366C24.6774 58.2258 24.8143 58.0781 24.711 58.0781C24.6897 58.0781 24.2308 58.5368 23.6915 59.0976ZM25.8674 59.1679L25.3828 59.6953L25.9102 59.2107C26.4009 58.7596 26.5022 58.6406 26.3947 58.6406C26.3713 58.6406 26.134 58.878 25.8674 59.1679ZM17.8996 59.6953C17.9007 60.082 17.928 60.2235 17.9603 60.0097C17.9925 59.796 17.9917 59.4796 17.9584 59.3066C17.925 59.1336 17.8986 59.3086 17.8996 59.6953ZM35.3606 63.5976L34.8047 64.1953L35.4023 63.6394C35.9581 63.1225 36.0647 63 35.9582 63C35.9353 63 35.6663 63.269 35.3606 63.5976Z" fill="#FFF8D6"/>
</svg>
