<svg width="72" height="72" viewBox="0 0 72 72" fill="none" xmlns="http://www.w3.org/2000/svg">
<path fill-rule="evenodd" clip-rule="evenodd" d="M45.1071 32.1617C45.282 32.1953 45.5352 32.194 45.6696 32.1589C45.804 32.1237 45.6609 32.0962 45.3515 32.0977C45.0421 32.0993 44.9322 32.1281 45.1071 32.1617ZM25.207 33.8467C25.3424 33.8821 25.5637 33.8821 25.6992 33.8467C25.8346 33.8114 25.7238 33.7824 25.4531 33.7824C25.1824 33.7824 25.0715 33.8114 25.207 33.8467ZM35.0859 54.9122C33.9581 55.1663 33.1181 55.4782 32.3503 55.928C31.6421 56.3432 30.4323 57.4265 30.207 57.8477C30.0661 58.111 30.1 58.1178 31.0966 58.027C31.7594 57.9665 32.261 57.8387 32.4887 57.6722C33.4498 56.9692 35.5653 56.2498 36.6709 56.2498C37.1495 56.2498 37.1522 56.2465 36.8663 56.0037C36.707 55.8684 36.5221 55.5363 36.4551 55.2657C36.3127 54.6884 36.2038 54.6603 35.0859 54.9122ZM38.0795 55.1685C38.121 55.524 38.0604 55.7362 37.86 55.9366C37.5845 56.2121 37.5873 56.2139 38.3795 56.2968C39.5246 56.4164 40.831 56.8569 41.7819 57.4438C42.4602 57.8625 42.7882 57.9686 43.6184 58.0382L44.6293 58.123L44.3283 57.7002C43.9119 57.1155 43.0434 56.3509 42.3105 55.9237C41.5074 55.4555 39.7896 54.8913 38.804 54.772L38.0221 54.6772L38.0795 55.1685Z" fill="#B78E98"/>
<path fill-rule="evenodd" clip-rule="evenodd" d="M46.6875 3.85791C45.6819 4.07082 44.2024 4.59282 44.0902 4.77437C43.9778 4.95633 44.2978 5.13338 45.2362 5.40858C45.9763 5.62571 46.2038 5.63851 46.7721 5.49549C47.6168 5.28272 49.8328 5.28413 50.7204 5.49788C53.312 6.12226 55.4561 8.21194 55.7581 10.4078C55.9315 11.6689 55.3022 13.6519 54.2958 15.0158L53.8517 15.6175L53.2325 15.1916C52.8921 14.9573 52.5616 14.7658 52.4982 14.7661C52.4348 14.7663 52.2442 15.0512 52.0746 15.3993L51.7665 16.032L52.6371 16.621C54.3491 17.7792 55.4516 19.1318 55.6424 20.3079C55.7145 20.752 55.4035 21.6385 54.9673 22.2321C54.6794 22.6239 54.95 23.1105 55.7809 23.6953C56.9844 24.5424 59.1274 26.6401 59.7655 27.5957C61.0335 29.4946 60.9935 30.6359 59.6134 31.9268C59.0603 32.4442 58.7813 32.8146 58.7813 33.0314C58.7813 33.2411 59.1296 33.7309 59.7551 34.4005C60.8278 35.5492 61.9809 37.6654 62.3127 39.0938C62.5655 40.1828 62.5342 42.219 62.2476 43.3125C61.9508 44.4452 61.23 45.9896 60.4958 47.0659C59.8655 47.9898 58.3305 49.5084 57.3554 50.1728C55.0414 51.7492 51.7236 52.759 47.7725 53.0896C46.8311 53.1683 46.6472 53.2277 46.46 53.5134C46.2067 53.9 46.3059 54.3583 46.687 54.5622C46.9585 54.7075 49.0569 54.5527 50.6748 54.2679C51.1275 54.1882 51.5123 54.1427 51.5295 54.1669C51.5468 54.1911 51.9126 54.6539 52.3422 55.1953C55.7393 59.4762 57.4596 63.881 56.5324 65.924C56.187 66.6848 55.4555 67.0365 53.6562 67.3068C52.148 67.5333 48.1194 67.5579 45.8438 67.3545C41.9223 67.004 37.6068 66.043 35.6305 65.08C34.3097 64.4366 33.75 63.8837 33.75 63.2225C33.75 61.8993 35.0334 60.8261 37.4512 60.1275C40.7144 59.1846 44.8008 59.3955 47.9904 60.6717C49.1204 61.1236 49.433 61.1236 49.7291 60.6717C49.9524 60.3309 49.95 60.2921 49.683 59.9334C49.1714 59.2457 46.3056 58.3249 43.8954 58.0736C42.764 57.9558 42.4664 57.8665 41.7681 57.4355C39.1893 55.8437 35.218 55.8754 32.7509 57.5076C32.2348 57.8489 31.8918 57.9428 30.6711 58.0769C27.8414 58.3875 24.8489 59.3934 24.6733 60.0927C24.5435 60.6101 24.8247 61.0313 25.3 61.0313C25.5197 61.0313 26.064 60.8701 26.5095 60.6729C28.2014 59.9247 31.7667 59.3596 33.5743 59.5533L34.4629 59.6485L33.8564 60.1116C33.2088 60.6061 32.6006 61.3983 32.3407 62.0859C32.1095 62.6977 32.1323 63.8613 32.385 64.3501C32.6409 64.8447 33.7374 65.8893 34.2425 66.1195C34.4357 66.2075 34.5938 66.3261 34.5938 66.383C34.5938 66.5031 32.8543 66.8354 30.4454 67.1756C28.2627 67.4837 21.6373 67.5269 20.25 67.242C19.0962 67.005 18.4564 66.6941 18.0827 66.1884C17.6506 65.6035 17.6714 63.4403 18.1215 62.1563C18.5593 60.9076 19.4791 59.088 20.3886 57.6717L21.1461 56.492L22.491 56.5716C24.1309 56.6686 24.5622 56.5936 24.8451 56.1617C25.04 55.8643 25.0409 55.7933 24.8526 55.506C24.6551 55.2046 24.4933 55.1732 22.3403 55.0198C19.5309 54.8196 17.7299 54.3943 15.9278 53.5053C11.6151 51.3781 9.0082 47.0797 9.56494 43.0137C9.80934 41.2289 10.4971 39.4525 11.4779 38.0739C12.0866 37.218 12.0972 36.7689 11.5158 36.4504C9.97247 35.6051 9.56255 35.0649 9.56255 33.8752C9.56255 33.3923 9.6818 32.7385 9.85392 32.2788C10.2575 31.2001 11.5528 29.2833 12.916 27.7473C13.5466 27.0368 14.0625 26.3368 14.0625 26.1916C14.0625 26.0464 13.8738 25.7468 13.6432 25.5258C13.4126 25.3049 13.1205 24.8538 12.9944 24.5233C12.7987 24.011 12.7903 23.8168 12.9374 23.2036C13.1533 22.304 13.9319 21.1326 15.0382 20.0434C15.507 19.5819 15.8907 19.1541 15.8907 19.0931C15.8907 19.0319 15.7086 18.7304 15.4858 18.4231L15.081 17.8643L14.4095 18.4554L13.7378 19.0465L12.9807 18.2069C12.5642 17.7451 11.9887 16.8958 11.7016 16.3198C11.2149 15.3429 11.1797 15.1867 11.1797 13.9966C11.1797 12.8403 11.2228 12.6332 11.6385 11.789C12.7995 9.43046 15.5793 7.8826 18.6642 7.87712C20.0182 7.87458 21.0447 7.4866 21.1859 6.92396C21.2312 6.74368 21.2427 6.57085 21.2116 6.53977C21.1806 6.50869 20.5807 6.40955 19.8787 6.31955C15.858 5.80388 11.8134 7.79991 10.1089 11.1412C8.80852 13.6898 9.43683 16.658 11.8401 19.3208L12.6529 20.2215L12.1678 21.0272C11.1377 22.7378 10.9741 24.3743 11.7088 25.6182L12.0599 26.2128L11.2218 27.2041C7.56722 31.5264 6.89841 35.1501 9.40856 37.029L9.93787 37.4252L9.39042 38.4699C7.06758 42.9027 7.4917 47.3783 10.6054 51.2892C12.4586 53.6169 15.1404 55.2957 18.211 56.0502C18.7524 56.1832 19.2148 56.3072 19.2385 56.3259C19.2624 56.3446 19.0564 56.7122 18.7809 57.143C17.9888 58.3813 16.9414 60.5727 16.5193 61.875C16.2161 62.8106 16.1286 63.3607 16.1168 64.4063C16.0987 66.0029 16.287 66.6228 17.0375 67.4371C18.1592 68.6541 20.0807 69.0969 24.2579 69.1016C28.166 69.1058 32.7135 68.5655 35.9532 67.7119C36.9737 67.443 37.3399 67.4013 37.711 67.5117C38.607 67.7782 41.3321 68.3416 42.7049 68.5444C49.68 69.5744 55.4647 69.2544 57.1855 67.7436C59.6577 65.573 58.3323 60.3634 53.7921 54.405L53.2969 53.7552L54.3868 53.3689C56.7234 52.5406 58.4354 51.5077 60.0982 49.9231C62.5574 47.5799 64.125 44.1578 64.125 41.1328C64.125 38.701 63.0751 35.9055 61.3806 33.8251L60.7709 33.0764L61.1254 32.7452C63.3723 30.6466 62.2689 27.0333 58.3628 23.6983C57.7743 23.1957 57.1818 22.7035 57.0463 22.6044C56.8185 22.4377 56.8162 22.385 57.0172 21.904C57.1367 21.618 57.2344 20.9865 57.2343 20.5006C57.2341 19.4333 56.7368 18.2766 55.847 17.2754C55.5272 16.9154 55.2657 16.5787 55.2657 16.5272C55.2657 16.4756 55.4471 16.1689 55.6688 15.8456C56.8927 14.0612 57.4321 12.3505 57.3466 10.5242C57.2969 9.46027 57.222 9.1696 56.7546 8.2239C55.8203 6.33362 54.0844 4.90697 51.7635 4.12243C50.4467 3.67721 48.1149 3.55571 46.6875 3.85791ZM51.8204 33.5235C50.1885 33.9213 48.3833 35.3087 47.6646 36.7175C47.2558 37.5188 46.9685 38.7616 46.9705 39.7209C46.9774 43.2347 49.7852 46.0346 53.2829 46.0156C58.027 45.9897 61.0537 41.0667 58.9219 36.8438C57.6098 34.2444 54.6122 32.8428 51.8204 33.5235ZM35.8594 34.6819C35.6661 34.7927 35.2989 34.8621 35.0435 34.8362L34.5793 34.7892L34.665 35.8516C34.7384 36.7606 34.7107 36.9778 34.4733 37.3549C33.8333 38.3716 32.1954 38.4548 31.4379 37.5091C31.2376 37.2592 31.0091 36.9757 30.9298 36.8789C30.6893 36.5853 30.1198 36.6733 29.8786 37.0413C29.6839 37.3386 29.6812 37.4368 29.8557 37.8499C30.6479 39.7252 33.4969 40.2826 35.1197 38.8799L35.6385 38.4314L36.0653 38.6917C36.6585 39.0534 36.7303 39.0299 37.0983 38.3544C37.4021 37.7966 37.4073 37.7487 37.1778 37.6172C36.3927 37.1675 35.9936 36.0813 36.1705 34.8758C36.2047 34.6434 36.2277 34.4593 36.2218 34.4669C36.2159 34.4745 36.0528 34.5713 35.8594 34.6819ZM40.0568 36.1055C39.9437 36.2408 39.7807 36.5176 39.6945 36.7206C39.5489 37.0636 39.5775 37.1156 40.1019 37.4588C40.4122 37.6619 40.7166 37.8281 40.7786 37.8281C40.9041 37.8281 41.3438 36.8033 41.3438 36.5112C41.3438 36.2413 40.8762 35.8594 40.5459 35.8594C40.3899 35.8594 40.1699 35.9701 40.0568 36.1055ZM17.3975 36.4275C14.8644 36.8533 12.6424 39.1451 12.2229 41.7644C11.4704 46.4633 16.1798 50.2864 20.6694 48.6214C24.909 47.0491 26.1622 41.6109 23.0447 38.3146C22.1734 37.3933 20.7213 36.6223 19.4766 36.4199C18.5308 36.2663 18.3523 36.2669 17.3975 36.4275ZM30.7893 57.0586L30.3047 57.5859L30.8321 57.1013C31.3229 56.6502 31.4241 56.5313 31.3167 56.5313C31.2932 56.5313 31.056 56.7686 30.7893 57.0586ZM43.3125 56.5753C43.3125 56.5995 43.5181 56.8052 43.7696 57.0323L44.2266 57.4453L43.8136 56.9883C43.4286 56.5623 43.3125 56.4666 43.3125 56.5753Z" fill="#E2AB8C"/>
<path fill-rule="evenodd" clip-rule="evenodd" d="M44.2268 32.4247C43.5928 32.7554 43.2996 33.059 43.0145 33.6798C42.5143 34.7688 42.744 35.8765 43.631 36.6554C45.3696 38.1818 47.9381 37.0658 47.95 34.7788C47.958 33.2592 46.8786 32.2021 45.3209 32.2041C44.9511 32.2047 44.4587 32.3039 44.2268 32.4247ZM24.0368 34.2834C23.0687 34.9055 22.6238 36.0181 22.9132 37.0928C23.3248 38.6215 24.9851 39.4695 26.4049 38.8762C27.471 38.4308 28.0246 37.6118 28.0246 36.4802C28.0246 35.0151 27.0499 34.0104 25.5419 33.9213C24.7802 33.8761 24.6047 33.9185 24.0368 34.2834Z" fill="#605C5D"/>
<path fill-rule="evenodd" clip-rule="evenodd" d="M35.4715 32.2749C35.2005 32.4687 35.0824 32.4759 34.6637 32.3246C34.2262 32.1664 34.1313 32.1783 33.7858 32.4352C33.3502 32.7592 33.2057 33.521 33.5068 33.9079C33.8276 34.32 34.7664 34.8751 35.1428 34.8751C35.9468 34.8751 37.1249 33.8232 37.1249 33.1056C37.1249 32.3528 36.0899 31.8328 35.4715 32.2749Z" fill="#FD80A6"/>
<path fill-rule="evenodd" clip-rule="evenodd" d="M38.3068 37.0259C37.9278 37.2441 37.2247 38.0604 36.9496 38.6018C36.597 39.2958 36.3815 40.6375 36.4766 41.5473C36.5978 42.7068 37.2085 43.9388 38.0895 44.8008L38.8198 45.5156L38.2999 46.0664C37.5705 46.8396 36.937 47.874 36.5631 48.9026C36.3873 49.386 36.2288 49.7815 36.2108 49.7815C36.1928 49.7815 36 49.5126 35.7826 49.184C35.565 48.8553 35.0917 48.2699 34.7307 47.8832C34.3374 47.4617 33.9704 46.8847 33.8147 46.4432C32.6506 43.1412 28.5324 41.8768 25.6992 43.9513C25.1339 44.3653 25.0312 44.5125 25.0312 44.9088C25.0312 45.5851 25.7835 46.9894 26.4988 47.6489C27.5522 48.6198 28.4248 48.9802 29.8903 49.0494C31.0278 49.1031 31.2649 49.0688 32.1173 48.7278L33.0713 48.3461L33.4953 48.7473C34.7936 49.9762 35.8782 52.0966 36.225 54.0836C36.4918 55.6116 36.6209 55.9375 37.034 56.1258C37.47 56.3243 37.9327 56.0912 38.0528 55.6123C38.1009 55.4207 37.9991 54.6925 37.8267 53.9943C37.2991 51.8592 37.5628 49.7135 38.5425 48.1689L38.9856 47.4706L39.2555 47.8174C39.9052 48.6523 40.7648 49.399 41.483 49.7521C42.1761 50.093 42.4135 50.133 43.7344 50.133C45.0765 50.133 45.2814 50.097 45.9844 49.7372C46.9361 49.2502 48.0938 48.1478 48.0938 47.7286C48.0938 47.3082 47.0742 45.8173 46.4735 45.359C45.48 44.6011 44.4593 44.2418 43.2778 44.2341C42.6786 44.23 42.1881 44.2148 42.1879 44.2004C42.1876 44.1859 42.2883 43.7429 42.4117 43.216C42.6734 42.098 42.6035 41.1523 42.1747 40.0061C41.5402 38.3104 39.2034 36.5098 38.3068 37.0259ZM38.5315 38.9818C37.9018 40.0065 37.809 41.6079 38.3206 42.622C38.6227 43.2205 39.3259 43.9773 39.8216 44.2371C40.1811 44.4253 40.2105 44.4138 40.476 43.9789C40.8067 43.4372 41.0607 42.5652 41.0617 41.9672C41.0639 40.7826 40.2542 39.3524 39.2521 38.7708L38.8166 38.518L38.5315 38.9818ZM27.8429 44.5691C27.649 44.6281 27.2845 44.7828 27.0329 44.9129C26.5867 45.1437 26.5805 45.1594 26.7826 45.5502C27.6841 47.2937 29.895 48.0764 31.6758 47.2826C32.0432 47.1187 32.3438 46.9393 32.3438 46.8838C32.3438 46.8282 32.184 46.5103 31.989 46.1773C31.2213 44.8675 29.3051 44.1243 27.8429 44.5691ZM42.0664 45.8564C41.4783 46.0359 40.5 46.644 40.5 46.8298C40.5 47.1238 41.5239 48.0816 42.1564 48.3793C43.0612 48.8051 44.2658 48.8074 45.2361 48.3849C45.6366 48.2106 46.0686 47.9528 46.196 47.812C46.4136 47.5716 46.3957 47.5205 45.8992 46.9711C45.6085 46.6493 45.1152 46.2557 44.8028 46.0964C44.148 45.7623 42.7698 45.6413 42.0664 45.8564Z" fill="#5F8D4E"/>
<path fill-rule="evenodd" clip-rule="evenodd" d="M38.5314 38.9814C37.9017 40.0061 37.8089 41.6075 38.3205 42.6216C38.6226 43.2201 39.3258 43.9769 39.8215 44.2367C40.181 44.425 40.2103 44.4134 40.4758 43.9785C40.8066 43.4368 41.0606 42.5648 41.0615 41.9668C41.0638 40.7822 40.2541 39.352 39.252 38.7704L38.8165 38.5176L38.5314 38.9814ZM27.8428 44.5687C27.6489 44.6277 27.2844 44.7824 27.0328 44.9125C26.5866 45.1433 26.5804 45.159 26.7825 45.5498C27.684 47.2933 29.8949 48.076 31.6757 47.2822C32.0431 47.1183 32.3436 46.9389 32.3436 46.8834C32.3436 46.8278 32.1839 46.5099 31.9888 46.1769C31.2212 44.8671 29.305 44.1239 27.8428 44.5687ZM42.0663 45.856C41.4782 46.0355 40.4999 46.6436 40.4999 46.8294C40.4999 47.1234 41.5238 48.0812 42.1563 48.3789C43.0611 48.8047 44.2657 48.807 45.236 48.3845C45.6365 48.2102 46.0685 47.9524 46.1959 47.8116C46.4135 47.5712 46.3956 47.5201 45.8991 46.9707C45.6084 46.6489 45.1151 46.2553 44.8027 46.096C44.1478 45.7619 42.7697 45.6409 42.0663 45.856ZM47.3829 48.7615L46.8983 49.2889L47.4257 48.8043C47.7158 48.5377 47.953 48.3004 47.953 48.277C47.953 48.1695 47.8341 48.2708 47.3829 48.7615ZM29.7069 49.1786C29.9195 49.2108 30.2677 49.2108 30.4804 49.1786C30.693 49.1464 30.519 49.1201 30.0936 49.1201C29.6683 49.1201 29.4943 49.1464 29.7069 49.1786ZM43.3475 50.3036C43.5602 50.3358 43.9084 50.3358 44.121 50.3036C44.3336 50.2714 44.1597 50.2451 43.7343 50.2451C43.3089 50.2451 43.1349 50.2714 43.3475 50.3036Z" fill="#A4BE7B"/>
<path fill-rule="evenodd" clip-rule="evenodd" d="M30.7178 0.211695C26.3306 0.979367 22.9732 3.21165 21.4734 6.35827C21.1372 7.06379 20.917 7.34687 20.6017 7.47891C19.7897 7.8188 17.6414 9.35373 16.7997 10.1954C15.1194 11.8757 14.4163 13.495 14.5105 15.4671C14.5603 16.509 14.6419 16.8469 15.0366 17.6486C16.4187 20.4564 20.2813 22.5489 25.8751 23.5204C27.3804 23.782 28.1582 23.8253 31.2892 23.8218C35.3331 23.8174 37.0953 23.6151 40.408 22.7748C48.4684 20.7304 53.4922 16.2276 52.5894 11.8571C52.0183 9.09301 49.5079 6.84962 45.4657 5.49132C44.3426 5.11388 44.2062 5.02543 43.6332 4.30318C42.2778 2.59459 39.679 0.943789 37.4064 0.347539C36.1535 0.018898 32.2702 -0.0599927 30.7178 0.211695ZM31.2892 1.76982C25.3506 2.68712 22.0427 6.12793 21.5177 11.9336C21.4522 12.6576 21.4332 13.5854 21.4755 13.9955C21.5495 14.7114 21.5785 14.755 22.2021 15.09C23.2248 15.6391 24.7408 16.1335 26.4656 16.4805C27.8484 16.7586 28.475 16.7995 31.2892 16.7962C34.6587 16.7922 35.9551 16.651 38.4602 16.0156C41.0464 15.3595 43.7927 14.1496 44.9565 13.1533L45.5259 12.6659L45.3937 11.9229C45.0728 10.12 44.0886 7.74709 42.9897 6.12737C40.542 2.51893 36.4075 0.979226 31.2892 1.76982ZM45.64 7.68774C46.2293 9.06052 46.7513 10.8285 46.9779 12.2198C47.0788 12.8401 47.0572 13.0539 46.8593 13.3926C46.2909 14.3655 43.2669 16.113 40.7111 16.9458C34.2745 19.0428 25.9928 18.8282 21.5287 16.4488C20.0923 15.6833 20.0465 15.5951 19.9929 13.4913C19.9675 12.4929 20.0168 11.2235 20.1026 10.6705C20.1884 10.1175 20.2294 9.63582 20.194 9.60024C20.07 9.47621 18.7669 10.4662 17.8484 11.3822C16.0723 13.1534 15.5179 15.1149 16.316 16.8049C16.9969 18.2467 18.9717 19.7889 21.2778 20.6797C24.307 21.8497 26.956 22.277 31.2189 22.2838C35.5522 22.2905 38.2185 21.89 41.9064 20.6781C48.5845 18.4837 52.1599 14.8188 50.8985 11.4611C50.4381 10.2356 49.0071 8.84705 47.3204 7.98924C46.6243 7.63515 45.9094 7.3013 45.7317 7.24716L45.4085 7.14887L45.64 7.68774Z" fill="#FFCC6B"/>
<path fill-rule="evenodd" clip-rule="evenodd" d="M42.7499 9.99678C39.6822 11.5608 36.1362 12.357 31.6997 12.4778C27.9054 12.5812 24.8852 12.16 22.5147 11.1967L21.673 10.8547L21.5853 11.5797C21.537 11.9785 21.5174 12.8426 21.5417 13.5L21.5858 14.6953L22.4999 15.1484C24.6411 16.2096 27.5969 16.7655 31.1483 16.7748C36.5275 16.7887 41.4633 15.5228 44.6132 13.3213C45.058 13.0105 45.4202 12.6546 45.4184 12.5304C45.4091 11.9285 44.6204 9.13208 44.4667 9.15641C44.4118 9.16513 43.6394 9.54327 42.7499 9.99678Z" fill="#5F8D4E"/>
<path fill-rule="evenodd" clip-rule="evenodd" d="M31.8215 1.69165C28.3126 2.13406 25.3463 3.63129 23.7502 5.76528C22.8326 6.99223 22.0398 8.79054 21.7308 10.3459C21.6326 10.8399 21.7201 10.8991 23.4066 11.4787C25.6263 12.2416 27.2126 12.4458 30.8672 12.4388C34.5693 12.4316 35.7496 12.292 38.6719 11.5161C41.1408 10.8607 44.4398 9.39664 44.4361 8.95789C44.4337 8.65371 43.7402 7.28867 43.0952 6.3185C41.6661 4.16876 39.4715 2.58912 37.0465 1.9646C35.7472 1.63006 33.3168 1.50307 31.8215 1.69165ZM45.8566 8.18332C46.3275 9.32112 46.8844 11.3471 47.0354 12.4721C47.1325 13.1944 47.1271 13.2084 46.5238 13.8114C44.6348 15.6996 40.4599 17.3727 35.8344 18.0954C33.6398 18.4383 28.7736 18.4376 26.7891 18.0942C23.8616 17.5876 21.1211 16.5353 20.3537 15.6232C19.9751 15.1734 19.9688 15.134 19.9688 13.2337C19.9688 12.171 20.0364 10.9358 20.1191 10.4886C20.2018 10.0414 20.2344 9.64048 20.1917 9.59773C20.0676 9.47384 18.0447 11.0833 17.4284 11.7961C15.133 14.451 15.6105 17.2799 18.7009 19.3345C20.5704 20.5773 23.3441 21.5241 26.6057 22.0328C28.9927 22.4052 33.8641 22.3703 36.4922 21.9622C42.124 21.0875 46.7441 19.1299 49.2891 16.54C50.599 15.207 51.097 14.1998 51.1051 12.8671C51.1133 11.5332 50.7457 10.7655 49.5311 9.57889C48.6522 8.72037 46.7529 7.55234 45.7429 7.24929C45.4365 7.15746 45.4383 7.17307 45.8566 8.18332ZM51.1691 8.80418C51.8728 9.71164 52.3332 10.5128 52.5284 11.1701C52.7598 11.9493 52.8029 13.7234 52.6031 14.2489C52.4835 14.5632 52.5344 14.6334 53.166 15.026L53.8602 15.4576L54.0795 14.9359C54.3931 14.1894 54.6986 12.8221 54.701 12.1544C54.7079 10.2602 53.4327 8.78435 51.5447 8.50128L50.8538 8.39764L51.1691 8.80418ZM14.6752 11.6846C13.9988 11.8806 12.8548 12.9874 12.5771 13.7144C12.1254 14.8973 12.4775 16.7319 13.4618 18.3217L13.7915 18.8544L14.3981 18.3267L15.0046 17.7993L14.7233 17.1635C14.1421 15.8498 14.2687 13.9056 15.0302 12.4452C15.2318 12.0585 15.4183 11.6946 15.4446 11.6367C15.5045 11.5039 15.2426 11.5202 14.6752 11.6846ZM33.8573 30.7202C32.3501 31.2976 31.4862 32.2225 29.1883 35.7187C27.3388 38.5327 26.7524 39.1601 25.3477 39.8276C24.8643 40.0572 24.4695 40.2551 24.4703 40.2671C24.4712 40.2791 24.5661 40.5996 24.6813 40.9793C25.1303 42.4597 24.8456 44.5844 24.0064 46.0164C23.4738 46.9252 22.1996 48.0509 21.1302 48.5576C20.2244 48.9867 20.1001 49.0077 18.4849 49.0077C16.8124 49.0077 16.7762 49.0009 15.7322 48.4849C14.3621 47.8078 13.366 46.8136 12.6928 45.4515C12.2344 44.5239 12.1693 44.2576 12.1188 43.1057C12.0559 41.6689 12.2802 40.6145 12.8785 39.533C13.0656 39.1945 13.2188 38.8759 13.2188 38.8248C13.2188 38.7736 12.9035 38.4964 12.518 38.2087L11.8173 37.6855L11.4805 38.219C8.88232 42.3348 8.97682 46.3797 11.7561 50.0146C14.2339 53.2552 18.2851 54.978 23.439 54.9832C24.4975 54.9842 24.6109 55.0123 24.8655 55.3359C25.203 55.7648 25.379 55.7694 27.8034 55.4128C30.3018 55.0452 35.4843 53.6953 35.9021 53.3033C36.2169 53.008 34.4648 49.7909 33.4944 48.8822L33.0598 48.4753L32.3151 48.8109C31.6908 49.092 31.3428 49.1465 30.1641 49.1474C28.9314 49.1482 28.6585 49.1018 27.9537 48.7715C26.4069 48.0464 24.8906 46.1398 24.8906 44.9196C24.8906 43.709 27.8196 42.4923 29.7657 42.8948C31.5318 43.2598 32.9795 44.364 33.6884 45.8866C33.8755 46.2883 34.0292 46.6999 34.0299 46.8013C34.0307 46.9026 34.3385 47.3139 34.714 47.7154C35.0896 48.1167 35.5959 48.7237 35.839 49.064C36.1353 49.4784 36.2813 49.5979 36.2813 49.4258C36.2813 48.9581 37.3779 46.91 38.0083 46.2L38.6284 45.5018L37.9821 44.8641C36.6521 43.5518 36.0391 41.6131 36.4379 39.9807L36.6442 39.1363L36.128 38.8393L35.6118 38.5422L35.3489 38.8328C34.6064 39.6538 32.9064 40.0103 31.6952 39.5988C30.1064 39.0592 29.1022 37.364 30.0166 36.7649C30.4822 36.4599 30.8152 36.5951 31.4223 37.336C32.0089 38.0519 32.6117 38.2421 33.4748 37.9834C34.2525 37.7506 34.5938 37.2522 34.5938 36.3501C34.5938 35.2003 34.4717 34.8357 33.9583 34.4531C33.1477 33.8488 32.9878 33.198 33.4925 32.5563C33.7749 32.1974 33.8531 32.1744 34.5453 32.2458C34.9566 32.2883 35.3294 32.2644 35.3737 32.1927C35.5002 31.9879 36.4687 32.0405 36.7964 32.2701C37.4157 32.7038 37.3386 33.4816 36.598 34.2745C36.1955 34.7053 36.184 34.7546 36.2724 35.6769C36.3773 36.7713 36.5359 37.1286 37.0356 37.3959C37.3582 37.5686 37.431 37.551 37.8488 37.1995C38.2448 36.8662 38.3909 36.8247 38.9159 36.8967C39.4823 36.9743 39.5342 36.9537 39.6703 36.5958C40.0206 35.6745 40.6906 35.4505 41.1913 36.0873C41.5017 36.4817 41.4799 36.8471 41.1012 37.5981C40.9081 37.9808 40.9192 38.023 41.3221 38.4419C41.9098 39.0529 42.4167 40.1283 42.6021 41.1568C42.7279 41.856 42.7166 42.225 42.5434 43.0552C42.4252 43.6221 42.3283 44.1067 42.3283 44.1321C42.3281 44.1577 42.5022 44.1414 42.7149 44.0961C43.3097 43.9694 44.6894 44.2494 45.5535 44.6723C46.9096 45.3357 48.4022 47.2028 48.1675 47.9422C48.0088 48.4422 46.9073 49.3988 45.9844 49.8381C45.1615 50.2301 44.9372 50.2734 43.7344 50.2734C42.5337 50.2734 42.3059 50.2295 41.4844 49.8401C40.5626 49.4032 39.8212 48.7946 39.2791 48.0294L38.9845 47.6136L38.6865 48.0997C38.0367 49.1596 37.7834 50.0834 37.7196 51.6255L37.6577 53.1181L39.1843 53.3521C42.4848 53.8579 46.2656 54.0278 46.2656 53.6702C46.2656 53.2446 46.7604 53.052 48.0938 52.9579C51.0837 52.7468 54.5981 51.7484 56.6016 50.5407C59.8998 48.5527 62.1542 45.1071 62.3956 41.6848C62.5738 39.1606 61.5302 36.3993 59.6332 34.3753L59.0223 33.7235L58.3957 34.3501L57.7691 34.9767L58.2968 35.6641C60.3193 38.2987 60.1487 41.9149 57.8942 44.196C56.5238 45.5825 54.8155 46.2155 52.7854 46.0888C49.2593 45.8689 46.5307 42.6551 46.8864 39.1411L46.9741 38.2744L46.2471 38.1184C45.0072 37.8525 43.9342 37.1706 42.6993 35.8637C38.3372 31.2471 37.5158 30.6417 35.5078 30.5628C34.7714 30.534 34.2013 30.5883 33.8573 30.7202Z" fill="#FFFF9D"/>
<path fill-rule="evenodd" clip-rule="evenodd" d="M46.8984 5.53471L46.1952 5.69882L46.9687 6.02577C48.192 6.54299 49.5453 7.38773 50.4363 8.18999C50.8882 8.59668 51.163 8.8093 51.0472 8.66221C50.8443 8.40487 50.8624 8.39882 51.536 8.49993C54.1823 8.89677 55.3167 11.2756 54.2982 14.2924C54.1456 14.7445 54.0431 15.1367 54.0705 15.1641C54.1598 15.2534 54.8904 14.0117 55.2566 13.1483C55.5554 12.4438 55.6146 12.084 55.6151 10.9686C55.6157 9.76963 55.5745 9.55405 55.2128 8.86569C54.7225 7.93223 53.6034 6.81538 52.6319 6.28973C51.087 5.45385 48.6309 5.13041 46.8984 5.53471ZM17.2533 8.02152C14.6279 8.46266 12.5001 9.99758 11.5021 12.1704C11.2526 12.7132 11.1821 13.1179 11.1827 14.0031C11.1833 15.0356 11.2323 15.2384 11.7212 16.2273C12.0386 16.8696 12.5852 17.6614 13.0551 18.16L13.8515 19.0048L14.3437 18.4671L14.8359 17.9295L14.3205 18.4026L13.8049 18.8757L13.4684 18.3323C12.4774 16.7321 12.1239 14.9008 12.577 13.7143C12.8754 12.933 14.0169 11.8734 14.7819 11.6674C15.0859 11.5855 15.3909 11.5533 15.46 11.5959C15.5289 11.6387 15.716 11.4619 15.8758 11.2034C16.2549 10.59 17.4245 9.49387 18.5273 8.7186C19.0107 8.37885 19.4062 8.04993 19.4062 7.98777C19.4062 7.84869 18.1667 7.8681 17.2533 8.02152ZM52.0596 10.3327C52.2278 10.6791 52.3896 10.9384 52.419 10.9088C52.4827 10.8453 51.9145 9.70298 51.8193 9.70298C51.7831 9.70298 51.8913 9.98633 52.0596 10.3327ZM14.3791 15.6795C14.3807 15.9889 14.4095 16.0989 14.4431 15.9239C14.4767 15.749 14.4754 15.4959 14.4403 15.3614C14.4051 15.227 14.3776 15.3702 14.3791 15.6795ZM51.3435 16.6671C50.8882 17.3357 49.4013 18.71 48.4118 19.377C44.0866 22.2919 37.9504 23.9061 31.1949 23.9061C25.0378 23.9061 19.9985 22.5316 16.9568 20.0227L16.0001 19.2337L15.629 19.5081C15.0502 19.9358 13.6834 21.6193 13.3416 22.3255C12.7266 23.596 12.8466 24.6475 13.6975 25.4423C14.3022 26.0072 14.1945 26.4714 13.216 27.5173C10.9692 29.9191 9.56158 32.397 9.56299 33.9477C9.56355 34.5274 9.94619 35.3322 10.3889 35.6843C10.5143 35.7843 10.913 36.0214 11.2747 36.2112C11.9734 36.5781 12.1588 36.8866 12.018 37.4477C11.9442 37.7418 12.0291 37.8651 12.5748 38.257C12.929 38.5113 13.2187 38.7787 13.2187 38.8514C13.2187 38.924 13.4995 38.671 13.8426 38.2894C14.5286 37.5265 15.8079 36.7746 16.9267 36.4766C18.4032 36.0834 20.0168 36.2957 21.5843 37.0897C22.4854 37.546 23.7895 38.8787 24.1223 39.6837L24.3816 40.3106L25.3041 39.8527C25.8114 39.6008 26.4163 39.2286 26.6484 39.0254C26.9928 38.7239 27.0057 38.6944 26.7187 38.8645C25.4647 39.6076 23.5411 38.9527 22.9712 37.5886C22.6901 36.9156 22.7329 35.802 23.0652 35.1506C23.9457 33.4249 26.6003 33.29 27.6772 34.9165C27.9934 35.3939 28.0546 35.6408 28.0546 36.4385C28.0546 36.9621 28.0953 37.3466 28.1449 37.2929C28.1945 37.2392 28.8486 36.2504 29.5985 35.0958C31.1015 32.7811 32.3033 31.4633 33.3984 30.9289C33.9865 30.6419 34.3085 30.5862 35.3671 30.5879C37.3259 30.5913 37.7864 30.8693 40.6619 33.7833C42.6902 35.8388 42.978 36.0848 42.8126 35.6211C42.5791 34.9663 42.5688 34.6746 42.7561 34.0003C43.0618 32.8994 44.1823 32.0623 45.3504 32.0623C46.1979 32.0623 46.8048 32.3308 47.3427 32.9434C48.9563 34.7811 47.7438 37.4463 45.2943 37.4463H44.5312L45.0331 37.7038C45.3092 37.8454 45.8402 38.0296 46.2131 38.1133C46.5862 38.1968 46.9393 38.3408 46.9981 38.4334C47.0614 38.5326 47.1059 38.4372 47.1072 38.1996C47.1107 37.5367 47.9159 36.0496 48.6995 35.2589C49.9498 33.9971 51.5377 33.3314 53.2968 33.3314C54.9956 33.3314 56.3482 33.8704 57.6459 35.0647C58.0769 35.4615 58.2752 35.6116 58.0863 35.3983L57.7431 35.0106L58.3558 34.3863C58.6927 34.0429 59.037 33.8012 59.1209 33.849C59.2047 33.8967 59.1311 33.7791 58.957 33.5877C58.7829 33.3962 58.6406 33.1258 58.6406 32.9868C58.6406 32.8477 58.9948 32.4096 59.4278 32.013C59.8608 31.6164 60.3037 31.1204 60.4121 30.9106C61.2219 29.3449 59.578 26.7249 56.0741 23.9971C54.6821 22.9133 54.5997 22.6993 55.1989 21.7264C55.8573 20.6575 55.6205 19.5657 54.4471 18.2607C53.89 17.6411 51.999 16.17 51.763 16.1727C51.7172 16.1733 51.5283 16.3957 51.3435 16.6671ZM46.8716 39.7264C46.8723 40.1905 46.8986 40.3633 46.93 40.1106C46.9612 39.8579 46.9607 39.4782 46.9286 39.2668C46.8964 39.0555 46.8708 39.2623 46.8716 39.7264ZM59.6651 39.7264C59.6663 40.1131 59.6935 40.2546 59.7259 40.0408C59.7581 39.8271 59.7573 39.5107 59.7239 39.3377C59.6906 39.1648 59.6642 39.3397 59.6651 39.7264ZM48.6562 44.2264C48.9186 44.4971 49.1648 44.7186 49.2035 44.7186C49.2422 44.7186 49.0592 44.4971 48.7968 44.2264C48.5344 43.9557 48.2882 43.7342 48.2495 43.7342C48.2108 43.7342 48.3938 43.9557 48.6562 44.2264ZM57.7176 44.3319L57.3046 44.7889L57.7616 44.3759C58.1876 43.9909 58.2834 43.8748 58.1747 43.8748C58.1505 43.8748 57.9447 44.0804 57.7176 44.3319ZM59.3361 48.3397L58.8515 48.867L59.3788 48.3824C59.6689 48.1158 59.9062 47.8786 59.9062 47.8551C59.9062 47.7477 59.7872 47.8489 59.3361 48.3397ZM37.8944 53.7999C38.0729 54.5027 38.2726 54.6975 38.8181 54.7009C39.4887 54.7048 40.8502 55.1271 41.9875 55.6836C42.8699 56.1154 43.3307 56.4605 44.0518 57.229C44.5643 57.7754 45.0986 58.2186 45.2448 58.2186C46.0799 58.2186 49.1602 59.2726 49.6826 59.7371C50.0516 60.0654 49.9461 60.7586 49.4881 61.0144C49.1541 61.2008 49.038 61.1813 48.0575 60.7732C46.3567 60.0651 44.872 59.7603 42.6796 59.6693C40.3288 59.5717 38.698 59.7601 37.0245 60.3223C35.0499 60.986 33.7499 62.1219 33.7499 63.1839C33.7499 64.4922 37.1578 65.9839 41.9765 66.7849C44.9701 67.2827 46.6938 67.4183 49.9218 67.41C55.5905 67.3956 56.7676 66.8753 56.7175 64.4061C56.6705 62.0944 54.9318 58.5377 52.1423 55.0464L51.4615 54.1946L50.4456 54.3708C49.8868 54.4677 48.8253 54.5903 48.0868 54.6432C46.9273 54.7262 46.7112 54.7066 46.5048 54.5002C46.3731 54.3686 46.2656 54.1806 46.2656 54.0823C46.2656 53.9487 45.6872 53.8802 43.9804 53.8116C42.7236 53.7609 40.8409 53.5932 39.7968 53.4385C38.7527 53.2839 37.8607 53.1571 37.8147 53.1568C37.7686 53.1564 37.8044 53.4458 37.8944 53.7999ZM34.4958 53.8092C31.5884 54.7574 27.1417 55.6844 25.4882 55.6866C25.1269 55.6872 25.0312 55.7456 25.0312 55.9654C25.0312 56.5339 24.4694 56.7025 22.7502 56.6499L21.164 56.6014L20.4237 57.7264C18.772 60.2363 17.795 62.7675 17.7912 64.5467C17.7876 66.2837 18.2252 66.733 20.356 67.1792C21.7116 67.4631 27.2075 67.4989 29.3202 67.2374C31.2796 66.995 34.1793 66.5274 34.3403 66.428C34.4141 66.3823 34.2323 66.1849 33.9364 65.9891C32.5178 65.0504 31.9596 64.0993 32.1055 62.8679C32.2206 61.8952 32.6235 61.1892 33.5422 60.3495L34.3351 59.6248L32.7418 59.6277C30.2928 59.6319 28.3965 59.9647 26.6654 60.6942C26.1919 60.8936 25.6601 61.0904 25.4833 61.1316C24.7657 61.2986 24.3079 60.2224 24.8775 59.707C25.2777 59.3449 27.1529 58.6559 28.596 58.3411C29.8545 58.0663 29.878 58.0535 30.6264 57.2265C31.809 55.9197 33.6897 54.9689 35.5167 54.754L36.2386 54.6692L36.119 54.0297C36.0534 53.678 35.9839 53.3791 35.9646 53.3658C35.9454 53.3524 35.2844 53.5518 34.4958 53.8092ZM35.5577 67.86C33.8461 68.3115 31.2041 68.7299 28.8984 68.9148C26.5768 69.101 26.2123 69.1604 26.3819 69.325C27.0641 69.9871 30.5057 71.3309 32.5546 71.7352C34.0978 72.0398 38.9806 71.9969 40.4999 71.6653C42.5459 71.219 45.0108 70.2388 46.3086 69.3555L46.7032 69.0871L45.1836 68.9207C42.9219 68.6732 40.3499 68.2411 38.8006 67.8485C37.1928 67.4409 37.1463 67.4411 35.5577 67.86Z" fill="#F7E1AE"/>
<path fill-rule="evenodd" clip-rule="evenodd" d="M46.6875 3.85791C45.6819 4.07082 44.2024 4.59282 44.0902 4.77437C43.9778 4.95633 44.2978 5.13338 45.2362 5.40858C45.9763 5.62571 46.2038 5.63851 46.7721 5.49549C47.6168 5.28272 49.8328 5.28413 50.7204 5.49788C53.312 6.12226 55.4561 8.21194 55.7581 10.4078C55.9315 11.6689 55.3022 13.6519 54.2958 15.0158L53.8517 15.6175L53.2325 15.1916C52.8921 14.9573 52.5616 14.7658 52.4982 14.7661C52.4348 14.7663 52.2442 15.0512 52.0746 15.3993L51.7665 16.032L52.6371 16.621C54.3491 17.7792 55.4516 19.1318 55.6424 20.3079C55.7145 20.752 55.4035 21.6385 54.9673 22.2321C54.6794 22.6239 54.95 23.1105 55.7809 23.6953C56.9844 24.5424 59.1274 26.6401 59.7655 27.5957C61.0335 29.4946 60.9935 30.6359 59.6134 31.9268C59.0603 32.4442 58.7813 32.8146 58.7813 33.0314C58.7813 33.2411 59.1296 33.7309 59.7551 34.4005C60.8278 35.5492 61.9809 37.6654 62.3127 39.0938C62.5655 40.1828 62.5342 42.219 62.2476 43.3125C61.9508 44.4452 61.23 45.9896 60.4958 47.0659C59.8655 47.9898 58.3305 49.5084 57.3554 50.1728C55.0414 51.7492 51.7236 52.759 47.7725 53.0896C46.8311 53.1683 46.6472 53.2277 46.46 53.5134C46.2067 53.9 46.3059 54.3583 46.687 54.5622C46.9585 54.7075 49.0569 54.5527 50.6748 54.2679C51.1275 54.1882 51.5123 54.1427 51.5295 54.1669C51.5468 54.1911 51.9126 54.6539 52.3422 55.1953C55.7393 59.4762 57.4596 63.881 56.5324 65.924C56.187 66.6848 55.4555 67.0365 53.6562 67.3068C52.148 67.5333 48.1194 67.5579 45.8438 67.3545C41.9223 67.004 37.6068 66.043 35.6305 65.08C34.3097 64.4366 33.75 63.8837 33.75 63.2225C33.75 61.8993 35.0334 60.8261 37.4512 60.1275C40.7144 59.1846 44.8008 59.3955 47.9904 60.6717C49.1204 61.1236 49.433 61.1236 49.7291 60.6717C49.9524 60.3309 49.95 60.2921 49.683 59.9334C49.1714 59.2457 46.3056 58.3249 43.8954 58.0736C42.764 57.9558 42.4664 57.8665 41.7681 57.4355C39.1893 55.8437 35.218 55.8754 32.7509 57.5076C32.2348 57.8489 31.8918 57.9428 30.6711 58.0769C27.8414 58.3875 24.8489 59.3934 24.6733 60.0927C24.5435 60.6101 24.8247 61.0313 25.3 61.0313C25.5197 61.0313 26.064 60.8701 26.5095 60.6729C28.2014 59.9247 31.7667 59.3596 33.5743 59.5533L34.4629 59.6485L33.8564 60.1116C33.2088 60.6061 32.6006 61.3983 32.3407 62.0859C32.1095 62.6977 32.1323 63.8613 32.385 64.3501C32.6409 64.8447 33.7374 65.8893 34.2425 66.1195C34.4357 66.2075 34.5938 66.3261 34.5938 66.383C34.5938 66.5031 32.8543 66.8354 30.4454 67.1756C28.2627 67.4837 21.6373 67.5269 20.25 67.242C19.0962 67.005 18.4564 66.6941 18.0827 66.1884C17.6506 65.6035 17.6714 63.4403 18.1215 62.1563C18.5593 60.9076 19.4791 59.088 20.3886 57.6717L21.1461 56.492L22.491 56.5716C24.1309 56.6686 24.5622 56.5936 24.8451 56.1617C25.04 55.8643 25.0409 55.7933 24.8526 55.506C24.6551 55.2046 24.4933 55.1732 22.3403 55.0198C19.5309 54.8196 17.7299 54.3943 15.9278 53.5053C11.6151 51.3781 9.0082 47.0797 9.56494 43.0137C9.80934 41.2289 10.4971 39.4525 11.4779 38.0739C12.0866 37.218 12.0972 36.7689 11.5158 36.4504C9.97247 35.6051 9.56255 35.0649 9.56255 33.8752C9.56255 33.3923 9.6818 32.7385 9.85392 32.2788C10.2575 31.2001 11.5528 29.2833 12.916 27.7473C13.5466 27.0368 14.0625 26.3368 14.0625 26.1916C14.0625 26.0464 13.8738 25.7468 13.6432 25.5258C13.4126 25.3049 13.1205 24.8538 12.9944 24.5233C12.7987 24.011 12.7903 23.8168 12.9374 23.2036C13.1533 22.304 13.9319 21.1326 15.0382 20.0434C15.507 19.5819 15.8907 19.1541 15.8907 19.0931C15.8907 19.0319 15.7086 18.7304 15.4858 18.4231L15.081 17.8643L14.4095 18.4554L13.7378 19.0465L12.9807 18.2069C12.5642 17.7451 11.9887 16.8958 11.7016 16.3198C11.2149 15.3429 11.1797 15.1867 11.1797 13.9966C11.1797 12.8403 11.2228 12.6332 11.6385 11.789C12.7995 9.43046 15.5793 7.8826 18.6642 7.87712C20.0182 7.87458 21.0447 7.4866 21.1859 6.92396C21.2312 6.74368 21.2427 6.57085 21.2116 6.53977C21.1806 6.50869 20.5807 6.40955 19.8787 6.31955C15.858 5.80388 11.8134 7.79991 10.1089 11.1412C8.80852 13.6898 9.43683 16.658 11.8401 19.3208L12.6529 20.2215L12.1678 21.0272C11.1377 22.7378 10.9741 24.3743 11.7088 25.6182L12.0599 26.2128L11.2218 27.2041C7.56722 31.5264 6.89841 35.1501 9.40856 37.029L9.93787 37.4252L9.39042 38.4699C7.06758 42.9027 7.4917 47.3783 10.6054 51.2892C12.4586 53.6169 15.1404 55.2957 18.211 56.0502C18.7524 56.1832 19.2148 56.3072 19.2385 56.3259C19.2624 56.3446 19.0564 56.7122 18.7809 57.143C17.9888 58.3813 16.9414 60.5727 16.5193 61.875C16.2161 62.8106 16.1286 63.3607 16.1168 64.4063C16.0987 66.0029 16.287 66.6228 17.0375 67.4371C18.1592 68.6541 20.0807 69.0969 24.2579 69.1016C28.166 69.1058 32.7135 68.5655 35.9532 67.7119C36.9737 67.443 37.3399 67.4013 37.711 67.5117C38.607 67.7782 41.3321 68.3416 42.7049 68.5444C49.68 69.5744 55.4647 69.2544 57.1855 67.7436C59.6577 65.573 58.3323 60.3634 53.7921 54.405L53.2969 53.7552L54.3868 53.3689C56.7234 52.5406 58.4354 51.5077 60.0982 49.9231C62.5574 47.5799 64.125 44.1578 64.125 41.1328C64.125 38.701 63.0751 35.9055 61.3806 33.8251L60.7709 33.0764L61.1254 32.7452C63.3723 30.6466 62.2689 27.0333 58.3628 23.6983C57.7743 23.1957 57.1818 22.7035 57.0463 22.6044C56.8185 22.4377 56.8162 22.385 57.0172 21.904C57.1367 21.618 57.2344 20.9865 57.2343 20.5006C57.2341 19.4333 56.7368 18.2766 55.847 17.2754C55.5272 16.9154 55.2657 16.5787 55.2657 16.5272C55.2657 16.4756 55.4471 16.1689 55.6688 15.8456C56.8927 14.0612 57.4321 12.3505 57.3466 10.5242C57.2969 9.46027 57.222 9.1696 56.7546 8.2239C55.8203 6.33362 54.0844 4.90697 51.7635 4.12243C50.4467 3.67721 48.1149 3.55571 46.6875 3.85791ZM51.8204 33.5235C50.1885 33.9213 48.3833 35.3087 47.6646 36.7175C47.2558 37.5188 46.9685 38.7616 46.9705 39.7209C46.9774 43.2347 49.7852 46.0346 53.2829 46.0156C58.027 45.9897 61.0537 41.0667 58.9219 36.8438C57.6098 34.2444 54.6122 32.8428 51.8204 33.5235ZM35.8594 34.6819C35.6661 34.7927 35.2989 34.8621 35.0435 34.8362L34.5793 34.7892L34.665 35.8516C34.7384 36.7606 34.7107 36.9778 34.4733 37.3549C33.8333 38.3716 32.1954 38.4548 31.4379 37.5091C31.2376 37.2592 31.0091 36.9757 30.9298 36.8789C30.6893 36.5853 30.1198 36.6733 29.8786 37.0413C29.6839 37.3386 29.6812 37.4368 29.8557 37.8499C30.6479 39.7252 33.4969 40.2826 35.1197 38.8799L35.6385 38.4314L36.0653 38.6917C36.6585 39.0534 36.7303 39.0299 37.0983 38.3544C37.4021 37.7966 37.4073 37.7487 37.1778 37.6172C36.3927 37.1675 35.9936 36.0813 36.1705 34.8758C36.2047 34.6434 36.2277 34.4593 36.2218 34.4669C36.2159 34.4745 36.0528 34.5713 35.8594 34.6819ZM40.0568 36.1055C39.9437 36.2408 39.7807 36.5176 39.6945 36.7206C39.5489 37.0636 39.5775 37.1156 40.1019 37.4588C40.4122 37.6619 40.7166 37.8281 40.7786 37.8281C40.9041 37.8281 41.3438 36.8033 41.3438 36.5112C41.3438 36.2413 40.8762 35.8594 40.5459 35.8594C40.3899 35.8594 40.1699 35.9701 40.0568 36.1055ZM17.3975 36.4275C14.8644 36.8533 12.6424 39.1451 12.2229 41.7644C11.4704 46.4633 16.1798 50.2864 20.6694 48.6214C24.909 47.0491 26.1622 41.6109 23.0447 38.3146C22.1734 37.3933 20.7213 36.6223 19.4766 36.4199C18.5308 36.2663 18.3523 36.2669 17.3975 36.4275ZM30.7893 57.0586L30.3047 57.5859L30.8321 57.1013C31.3229 56.6502 31.4241 56.5313 31.3167 56.5313C31.2932 56.5313 31.056 56.7686 30.7893 57.0586ZM43.3125 56.5753C43.3125 56.5995 43.5181 56.8052 43.7696 57.0323L44.2266 57.4453L43.8136 56.9883C43.4286 56.5623 43.3125 56.4666 43.3125 56.5753Z" fill="#E2AB8C"/>
<path fill-rule="evenodd" clip-rule="evenodd" d="M55.7258 10.9688C55.7258 11.3168 55.7532 11.4591 55.7868 11.2852C55.8203 11.1112 55.8203 10.8263 55.7868 10.6524C55.7532 10.4784 55.7258 10.6207 55.7258 10.9688ZM21.4076 13.2188C21.4076 13.4895 21.4366 13.6003 21.4719 13.4649C21.5074 13.3294 21.5074 13.1081 21.4719 12.9727C21.4366 12.8373 21.4076 12.9481 21.4076 13.2188ZM54.211 18C54.513 18.3094 54.7919 18.5625 54.8306 18.5625C54.8692 18.5625 54.6537 18.3094 54.3516 18C54.0495 17.6906 53.7707 17.4375 53.732 17.4375C53.6933 17.4375 53.9089 17.6906 54.211 18ZM13.2188 18.4922C13.4812 18.7629 13.7274 18.9844 13.7661 18.9844C13.8048 18.9844 13.6218 18.7629 13.3594 18.4922C13.097 18.2215 12.8508 18 12.8121 18C12.7734 18 12.9564 18.2215 13.2188 18.4922ZM55.5795 20.5313C55.5795 20.802 55.6085 20.9128 55.6438 20.7774C55.6792 20.6419 55.6792 20.4206 55.6438 20.2852C55.6085 20.1498 55.5795 20.2606 55.5795 20.5313ZM13.2188 25.0753C13.2188 25.0995 13.4245 25.3052 13.6758 25.5323L14.1328 25.9453L13.7198 25.4883C13.3348 25.0624 13.2188 24.9666 13.2188 25.0753ZM13.4924 27.1055L13.0078 27.6328L13.5352 27.1482C13.8253 26.8816 14.0625 26.6444 14.0625 26.6209C14.0625 26.5135 13.9436 26.6147 13.4924 27.1055ZM59.8271 31.6758L59.4141 32.1328L59.8711 31.7198C60.2971 31.3348 60.3928 31.2188 60.2841 31.2188C60.2599 31.2188 60.0542 31.4245 59.8271 31.6758ZM48.7177 35.1914L48.3047 35.6485L48.7617 35.2354C49.0132 35.0083 49.2188 34.8026 49.2188 34.7784C49.2188 34.6697 49.1028 34.7655 48.7177 35.1914ZM13.9856 38.1446L13.4297 38.7422L14.0274 38.1863C14.5831 37.6694 14.6897 37.5469 14.5833 37.5469C14.5603 37.5469 14.2913 37.8159 13.9856 38.1446ZM22.9219 38.1797C23.1843 38.4504 23.4305 38.6719 23.4692 38.6719C23.5079 38.6719 23.3249 38.4504 23.0625 38.1797C22.8001 37.909 22.5539 37.6875 22.5152 37.6875C22.4765 37.6875 22.6595 37.909 22.9219 38.1797ZM32.5916 39.7557C32.7665 39.7893 33.0196 39.788 33.1541 39.7529C33.2885 39.7177 33.1453 39.6902 32.836 39.6917C32.5266 39.6933 32.4166 39.7221 32.5916 39.7557ZM36.3167 40.9922C36.3183 41.3016 36.3471 41.4116 36.3807 41.2366C36.4143 41.0617 36.413 40.8086 36.3779 40.6741C36.3427 40.5397 36.3152 40.6828 36.3167 40.9922ZM62.4777 41.1328C62.4789 41.5196 62.5061 41.661 62.5385 41.4473C62.5707 41.2335 62.5699 40.9171 62.5365 40.7441C62.5032 40.5712 62.4768 40.7461 62.4777 41.1328ZM9.45734 44.086C9.45888 44.3953 9.48771 44.5053 9.52132 44.3304C9.55493 44.1554 9.55367 43.9023 9.51851 43.7679C9.48335 43.6334 9.45579 43.7766 9.45734 44.086ZM34.5879 47.7071C34.9327 48.0745 35.2333 48.375 35.2558 48.375C35.3614 48.375 35.2498 48.2487 34.6289 47.666L33.961 47.0391L34.5879 47.7071ZM12.2344 50.8097C12.2344 50.8338 12.4401 51.0396 12.6914 51.2667L13.1485 51.6797L12.7354 51.2227C12.3504 50.7967 12.2344 50.701 12.2344 50.8097ZM37.5795 51.4688C37.5795 51.7395 37.6085 51.8501 37.6438 51.7149C37.6792 51.5796 37.6792 51.358 37.6438 51.2227C37.6085 51.0874 37.5795 51.1981 37.5795 51.4688ZM47.7071 54.6594C47.8423 54.6948 48.064 54.6948 48.1992 54.6594C48.3345 54.6241 48.2239 54.5951 47.9532 54.5951C47.6824 54.5951 47.5718 54.6241 47.7071 54.6594ZM23.0243 55.0859C23.2739 55.117 23.7169 55.1174 24.0086 55.0871C24.3003 55.0565 24.0961 55.0312 23.5547 55.0305C23.0133 55.03 22.7745 55.0548 23.0243 55.0859ZM21.9727 56.632C22.1853 56.6642 22.5335 56.6642 22.7461 56.632C22.9587 56.5998 22.7848 56.5735 22.3594 56.5735C21.934 56.5735 21.7601 56.5998 21.9727 56.632ZM32.1649 59.5859C32.4145 59.617 32.8575 59.6174 33.1493 59.5871C33.4409 59.5565 33.2367 59.5312 32.6953 59.5305C32.1539 59.53 31.9151 59.5548 32.1649 59.5859ZM41.3789 59.5868C41.669 59.6171 42.1437 59.6171 42.4336 59.5868C42.7237 59.5565 42.4864 59.5316 41.9063 59.5316C41.3262 59.5316 41.089 59.5565 41.3789 59.5868ZM32.9063 65.1797C33.1687 65.4504 33.4149 65.6719 33.4536 65.6719C33.4923 65.6719 33.3093 65.4504 33.0469 65.1797C32.7845 64.909 32.5383 64.6875 32.4996 64.6875C32.4609 64.6875 32.6439 64.909 32.9063 65.1797ZM21.9727 67.4563C22.1081 67.4917 22.3294 67.4917 22.4649 67.4563C22.6003 67.421 22.4895 67.392 22.2188 67.392C21.9481 67.392 21.8373 67.421 21.9727 67.4563ZM26.8242 67.4587C26.9983 67.4921 27.283 67.4921 27.4571 67.4587C27.6312 67.4251 27.4887 67.3976 27.1407 67.3976C26.7926 67.3976 26.6502 67.4251 26.8242 67.4587ZM47.0742 67.4587C47.2483 67.4921 47.533 67.4921 47.7071 67.4587C47.8812 67.4251 47.7387 67.3976 47.3907 67.3976C47.0426 67.3976 46.9002 67.4251 47.0742 67.4587ZM51.9978 67.4588C52.1727 67.4924 52.4259 67.4912 52.5603 67.456C52.6947 67.4209 52.5516 67.3933 52.2422 67.3948C51.9328 67.3964 51.8229 67.4252 51.9978 67.4588ZM45.9509 69.0057C46.1259 69.0393 46.379 69.038 46.5134 69.0029C46.6479 68.9677 46.5047 68.9402 46.1953 68.9417C45.886 68.9433 45.776 68.9721 45.9509 69.0057Z" fill="#F7E1AE"/>
</svg>
