<svg width="72" height="72" viewBox="0 0 72 72" fill="none" xmlns="http://www.w3.org/2000/svg">
<path fill-rule="evenodd" clip-rule="evenodd" d="M32.4844 11.8544C31.85 12.0525 30.419 13.4918 29.9119 14.4419L29.5215 15.173L30.0538 15.2584C31.8584 15.5482 33.6784 15.9729 34.8204 16.3707L36.1342 16.8284L36.2953 16.3403C36.5323 15.6222 36.3864 13.9701 36.0235 13.2621C35.3701 11.9874 33.9133 11.4079 32.4844 11.8544ZM4.59632 19.9711C3.48426 20.3048 2.62279 21.4997 2.61576 22.7182C2.61084 23.5576 3.11216 24.6888 3.86268 25.5322L4.35557 26.0859L4.67381 25.7185C4.84888 25.5164 5.38551 24.877 5.86616 24.2976C6.34682 23.7182 7.27677 22.7762 7.93265 22.2041C9.26676 21.0404 9.26577 21.0613 8.01562 20.501C6.6524 19.89 5.47466 19.7075 4.59632 19.9711ZM23.2734 32.0871C21.6737 32.6946 20.8988 33.7462 19.6279 37.0347C18.5982 39.6989 18.1074 40.5003 17.0679 41.2155L16.4655 41.6299L16.7435 42.1012L17.0215 42.5722L18.1347 42.5651C19.1448 42.5586 19.3466 42.6067 20.3133 43.0844C22.7016 44.2648 24.696 47.0535 25.675 50.5821L25.9168 51.4531L26.4936 51.1601C26.8107 50.9991 27.388 50.6645 27.7761 50.417C28.4393 49.994 28.5824 49.9619 30.1441 49.885C31.0583 49.84 31.8359 49.7734 31.8724 49.7369C31.9088 49.7007 31.806 49.2685 31.6439 48.7768C30.2479 44.5404 31.0812 39.7742 33.5007 38.1573C33.8661 37.9131 34.2332 37.6905 34.3162 37.6629C34.4115 37.6311 34.433 37.4002 34.3747 37.0354L34.2824 36.4582L33.4619 36.3838C32.3297 36.2811 31.4571 35.8402 29.25 34.2554C26.785 32.4854 25.8854 32.04 24.6458 31.976C24.1231 31.949 23.5055 31.9991 23.2734 32.0871ZM24.0387 33.4083C23.937 33.5308 23.7351 33.5974 23.5846 33.558C23.1668 33.4488 22.65 33.7068 22.501 34.099C22.3061 34.6115 22.5485 35.1169 23.1197 35.3893C23.8854 35.7545 23.9071 36.1997 23.1926 36.8862C22.869 37.1971 22.4392 37.8052 22.2376 38.2375C21.9199 38.9185 21.8707 39.2112 21.8692 40.4297C21.867 42.0382 22.1182 43.0407 22.7696 44.0242C23.6573 45.3645 25.1187 45.6564 27.3642 44.9421C28.6796 44.5236 29.4924 43.9862 29.9684 43.2205C30.8323 41.831 30.0001 38.8536 28.2734 37.1564C27.6964 36.5892 26.5385 36.0034 25.9904 36.0014C25.2688 35.9987 24.991 35.4196 25.3828 34.7344C25.6614 34.247 25.642 33.6967 25.3365 33.4202C25.0111 33.1258 24.2788 33.119 24.0387 33.4083ZM5.78362 42.3678C5.34515 43.4689 5.21029 44.234 5.20649 45.6424C5.20045 47.9298 5.79979 49.2972 7.57574 51.0469C9.21009 52.6569 10.8028 53.4303 13.2021 53.7791L13.8182 53.8687L13.7187 53.407C13.4453 52.1385 13.228 50.7817 13.2237 50.3148L13.2187 49.7936L12.1219 49.796C10.6364 49.7992 9.65995 49.4243 8.60146 48.4443C7.4752 47.4016 7.00101 46.4023 6.91888 44.8983C6.87276 44.0542 6.91959 43.5469 7.09199 43.0196C7.22207 42.6222 7.30898 42.2802 7.28521 42.2596C7.26159 42.239 6.97977 42.0898 6.65901 41.928L6.07584 41.6341L5.78362 42.3678Z" fill="#FFF1E6"/>
<path fill-rule="evenodd" clip-rule="evenodd" d="M29.7439 8.24265C28.2172 8.61179 26.9002 9.37553 25.6546 10.6142C24.4155 11.8464 23.8846 12.6569 23.3975 14.0597C23.0359 15.1015 23.202 15.0173 20.7577 15.3969C19.1714 15.6433 17.3361 16.2235 15.6628 17.0077L14.5118 17.5471L13.8683 17.0153C12.9378 16.2463 12.1396 15.8107 10.8973 15.3936C6.88247 14.0458 2.37853 15.7761 0.615375 19.3436C0.0864844 20.4137 0.0703125 20.4904 0.0703125 21.9302C0.0703125 23.324 0.0973125 23.4655 0.514688 24.2579C1.07873 25.329 1.75683 26.1138 2.78733 26.8884L3.60169 27.5005L3.36164 28.1995C3.12623 28.8856 3.03511 29.5998 3.07406 30.4537C3.08489 30.6902 3.30525 31.2351 3.56386 31.6646L4.03397 32.4452L3.23241 34.0701C2.05017 36.4667 1.70255 38.243 2.13412 39.6834C2.33705 40.361 3.2137 41.3835 3.79941 41.626C4.10934 41.7544 4.20834 41.8704 4.14577 42.0319C3.54867 43.5706 3.36445 45.9946 3.72248 47.6036C4.63767 51.7174 8.41598 54.8462 13.1746 55.4311L14.489 55.5926L15.0844 56.7185C15.9103 58.2807 17.5245 59.9738 18.8765 60.6962C19.847 61.2147 19.9621 61.2422 21.1641 61.2413C22.2054 61.2404 22.5349 61.1842 23.0234 60.924C24.3741 60.2046 25.1086 59.1718 25.7493 57.0911C26.2043 55.6132 26.201 52.9417 25.7417 51.1172C24.8025 47.3869 22.7194 44.3273 20.3233 43.1584C19.4408 42.728 19.2209 42.6797 18.1422 42.6797H16.9424L16.6009 42.0052C16.1644 41.143 15.243 40.295 14.2277 39.821C13.5404 39.4999 13.2443 39.4483 12.0938 39.4483C10.9356 39.4483 10.6491 39.4989 9.94092 39.8296C7.06416 41.1724 6.0473 44.8315 7.81073 47.4956C8.76783 48.9416 10.6618 49.8781 12.3787 49.7537C13.3177 49.6858 13.3594 49.7259 13.3594 50.6976C13.3594 51.2455 13.6534 52.9314 13.8715 53.6351C13.9489 53.8846 13.8959 53.8968 13.0968 53.8133C10.1032 53.5004 7.10381 51.4701 5.84311 48.903C4.9268 47.0376 4.82386 44.8974 5.5537 42.8907C5.76464 42.3106 5.94605 41.5833 5.95687 41.2743C5.97656 40.714 5.97487 40.7123 5.21423 40.4677C4.31227 40.1777 3.86437 39.7948 3.64317 39.1246C3.27909 38.0214 3.91711 35.8842 5.29059 33.6058C6.17358 32.1412 6.19242 31.8405 5.4308 31.3698C2.56191 29.5967 7.89089 22.9063 15.3281 18.9442C16.9072 18.103 19.0124 17.3341 20.667 16.9944C22.4232 16.6337 26.902 16.4886 28.9724 16.725C32.9316 17.1773 36.024 18.1974 37.4338 19.516C38.3241 20.3488 38.4941 20.8844 38.162 21.8083C37.9803 22.3133 37.9489 22.5778 38.0513 22.7402C38.13 22.8648 38.7094 23.2341 39.339 23.5607C39.9686 23.8873 40.6976 24.2867 40.9591 24.4484L41.4349 24.7423L41.987 24.1762L42.5391 23.6102L42.1875 23.3438C41.9941 23.1973 41.3888 22.8409 40.8421 22.5518L39.8483 22.0262L39.9081 21.305C39.9956 20.2506 39.5506 19.3179 38.493 18.3387L37.6467 17.5553L38.0535 16.4066C38.3986 15.4324 38.4604 15.0438 38.4607 13.8487C38.4609 12.5406 38.4279 12.3724 38.0005 11.5042C36.6841 8.83033 33.1266 7.42492 29.7439 8.24265ZM30.3829 9.71584C28.4823 10.0886 26.3223 11.722 25.4104 13.4762C24.5486 15.1337 24.4178 14.9911 26.8919 15.0918C30.0379 15.2199 33.2747 15.7967 35.2775 16.5862C35.6806 16.7451 36.0634 16.8751 36.1283 16.8751C36.1929 16.8751 36.3963 16.4162 36.5798 15.8555C37.0256 14.4944 37.0271 13.1233 36.584 12.2083C35.6494 10.2783 32.9819 9.20622 30.3829 9.71584ZM6.99792 16.5914C5.90513 16.7869 4.98881 17.1413 4.11427 17.7064C3.1493 18.3301 2.52942 19.0344 1.99884 20.1094C1.4857 21.1494 1.46109 22.6846 1.94288 23.5962C2.34731 24.3614 3.0285 25.1171 3.83723 25.6979L4.46948 26.1519L5.03916 25.3975C6.49856 23.4643 9.01111 21.1638 11.4961 19.4852C12.2889 18.9497 12.9375 18.4629 12.9375 18.4035C12.9375 18.2374 12.1018 17.6482 11.3203 17.2633C10.0745 16.6496 8.25427 16.3667 6.99792 16.5914ZM34.8074 34.5235C34.6473 34.879 34.5293 35.5668 34.4866 36.3925L34.4191 37.6992L33.9088 37.9623C32.9234 38.4704 32.0503 39.6285 31.5361 41.1095C31.1089 42.3401 30.945 45.0915 31.2072 46.6323C31.7386 49.7564 33.3242 52.8849 35.1908 54.4922C36.2112 55.371 36.3495 55.3917 35.9539 54.6063C35.7664 54.2342 35.4452 53.4626 35.2403 52.8915C35.0353 52.3206 34.7507 51.6878 34.6078 51.4853C33.6824 50.1739 32.8366 47.74 32.5973 45.6994C32.1612 41.983 33.6185 38.9532 35.8421 38.9532C36.1481 38.9532 36.4231 38.8792 36.4532 38.7888C36.4833 38.6984 36.2651 38.1447 35.9682 37.5583C35.5658 36.7637 35.3815 36.1701 35.2444 35.2266L35.0605 33.961L34.8074 34.5235ZM24.6094 35.4376C24.4934 35.5125 24.2298 35.5748 24.0238 35.5761C23.6874 35.5779 23.6595 35.6162 23.7492 35.9517C23.8345 36.2708 23.7538 36.4204 23.1947 36.9795C22.5631 37.6111 21.9375 38.8708 21.9375 39.5109C21.9375 40.0502 22.8762 40.4933 23.1342 40.0759C23.1829 39.9973 23.2815 39.9693 23.3535 40.0139C23.4255 40.0584 23.4844 39.9212 23.4844 39.709C23.4844 39.117 24.0352 38.1124 24.5232 37.815C24.7639 37.6682 25.2084 37.5478 25.5111 37.5475C26.1281 37.5469 27.188 38.0944 27.4243 38.5357C27.5251 38.7242 27.7187 38.8126 28.0315 38.8126C29.0305 38.8126 29.1338 37.9729 28.2305 37.1944C27.434 36.5079 26.9415 36.2573 26.0156 36.0674C25.3897 35.939 25.2336 35.8504 25.1972 35.6029C25.1491 35.2749 24.9484 35.2185 24.6094 35.4376ZM18.7414 38.2501C18.7414 38.5981 18.7688 38.7406 18.8024 38.5665C18.8359 38.3924 18.8359 38.1077 18.8024 37.9337C18.7688 37.7596 18.7414 37.902 18.7414 38.2501ZM17.0859 44.3197C16.048 44.8912 15.2778 46.145 14.9671 47.7685C14.7104 49.1101 14.7123 50.1423 14.9745 51.6453C15.4107 54.1469 16.4478 56.3461 17.9346 57.9221C21.1258 61.305 24.2999 59.7651 24.5703 54.7032C24.7871 50.6438 22.4613 45.8105 19.6646 44.5084C18.8518 44.13 17.5971 44.0382 17.0859 44.3197ZM67.8248 46.7579C67.8255 47.2219 67.8518 47.3948 67.8832 47.1421C67.9144 46.8894 67.9139 46.5097 67.8818 46.2983C67.8496 46.087 67.824 46.2938 67.8248 46.7579Z" fill="#E2AB8C"/>
<path fill-rule="evenodd" clip-rule="evenodd" d="M62.9414 15.7652C59.7235 16.2344 57.0201 17.6538 54.6253 20.1309C53.9264 20.854 52.9777 22.0179 52.5172 22.7175L51.6798 23.9895L51.3496 22.9722C50.8751 21.5107 49.9204 19.9713 48.6802 18.6685C47.2322 17.1471 46.6486 16.7345 45.9448 16.7345C45.2407 16.7345 44.526 17.1658 44.2915 17.7322C44.1828 17.9945 44.107 18.8392 44.0991 19.8755C44.0877 21.3664 44.0452 21.6623 43.7688 22.1798C43.5937 22.5073 42.343 23.8629 40.9789 25.2032C39.6191 26.5396 38.1004 28.1708 37.6045 28.8282C35.6056 31.4771 34.9538 33.7532 35.5137 36.1285C35.7202 37.0047 36.3651 38.3907 36.5662 38.3907C36.6211 38.3907 36.8381 38.1304 37.0486 37.8123L37.4314 37.234L37.1196 36.2644C36.7152 35.0065 36.7782 33.5122 37.2883 32.2596C37.9802 30.5612 38.868 29.4425 41.9082 26.4376C43.5124 24.8521 44.9217 23.3966 45.0403 23.2032C45.5262 22.4103 45.724 21.4596 45.7199 19.9381C45.7177 19.0977 45.777 18.393 45.8541 18.3454C46.0678 18.2132 48.0477 20.2123 48.7154 21.2345C49.8303 22.9411 50.3715 24.7202 50.3293 26.5394C50.3087 27.4308 50.3472 27.6391 50.5619 27.7962C51.1938 28.2583 51.4552 28.023 52.3843 26.1564C53.4653 23.9843 54.4847 22.542 56.0213 21.0102C58.4538 18.5854 60.7612 17.5211 64.2249 17.2267C65.3159 17.1339 65.813 17.2786 65.8119 17.6886C65.8116 17.8212 65.3939 18.3411 64.8837 18.8439C63.2675 20.4366 62.1985 22.1649 61.5897 24.1691C61.3227 25.0485 61.2878 25.4201 61.3458 26.7657C61.4203 28.4937 61.6376 29.2349 62.5527 30.8836C63.0746 31.8238 64.488 33.4928 64.9896 33.7612C65.4343 33.9992 65.797 33.7715 66.1813 33.0132C66.6906 32.0081 67.8169 30.9355 68.9474 30.3789C70.2132 29.7559 70.319 29.8714 69.8018 31.3097C69.4386 32.3202 69.4046 32.5815 69.4016 34.3829C69.3989 36.1114 69.465 36.6864 69.9434 39.0939C70.3947 41.3647 70.4756 42.0234 70.4138 42.9258C70.3136 44.3899 69.7286 45.6547 68.7065 46.6173C67.9958 47.2865 67.9551 47.3637 67.8615 48.2179C67.7474 49.2584 67.7436 49.2577 68.9894 48.4308C69.9153 47.8161 70.7578 46.8663 71.2379 45.8958C72.1735 44.0045 72.2293 42.3624 71.4848 38.6439C71.0663 36.5543 70.9687 35.753 70.9655 34.3829C70.9621 32.8784 71.0026 32.5907 71.3403 31.7295C71.7887 30.5851 71.8175 29.9058 71.4432 29.2922C70.8087 28.2514 69.8474 28.1628 68.1903 28.9922C67.0737 29.5511 65.6677 30.7247 65.2702 31.4298C65.1186 31.6987 65.0931 31.6894 64.6925 31.2189C64.0932 30.5152 63.3249 29.0095 63.0743 28.0475C62.4075 25.4868 63.3883 22.7203 65.887 20.115C67.2326 18.712 67.3596 18.5029 67.3589 17.693C67.3575 15.976 65.8892 15.3353 62.9414 15.7652Z" fill="#FE518E"/>
<path fill-rule="evenodd" clip-rule="evenodd" d="M62.8593 17.3945C61.113 17.688 59.1205 18.5274 57.5853 19.6162C55.6826 20.9657 53.5254 23.7388 52.2419 26.4853C51.902 27.2129 51.5204 27.8478 51.3941 27.8964C50.5976 28.2021 50.1666 27.711 50.2923 26.641C50.4826 25.022 49.622 22.4334 48.3241 20.7207C47.5854 19.746 45.9986 18.2202 45.8639 18.3549C45.8152 18.4036 45.7702 19.1505 45.764 20.0147C45.7548 21.2843 45.6929 21.7388 45.4415 22.3813C45.0258 23.4437 44.5926 23.949 42.1622 26.2072C37.6106 30.4359 36.1819 33.2753 37.1388 36.1903L37.434 37.0894L39.0021 35.5043C42.4107 32.0587 46.3427 30.377 50.9932 30.3756C55.4115 30.3743 59.4353 31.9691 62.5952 34.9739C65.5698 37.8025 67.3518 41.4376 67.8035 45.5978C67.8938 46.4293 68.0089 47.1095 68.0594 47.1095C68.2981 47.1095 69.5157 45.7052 69.8236 45.0751C70.5831 43.5202 70.5956 42.3646 69.8911 38.8859C69.1394 35.1748 69.1017 33.2227 69.7471 31.4175C70.2463 30.0208 70.2398 30.0939 69.8642 30.0939C68.8655 30.0939 67.0346 31.5369 66.2345 32.9546C65.5313 34.2006 65.0513 34.1834 63.9488 32.8728C62.4782 31.1244 61.7316 29.6515 61.3615 27.7671C61.1583 26.7331 61.1452 26.3673 61.2792 25.4486C61.6109 23.1725 62.8749 20.8018 64.785 18.873C65.35 18.3024 65.8124 17.7903 65.8124 17.7351C65.8124 17.4182 65.3921 17.2984 64.3428 17.3161C63.7203 17.3267 63.0526 17.3619 62.8593 17.3945ZM39.6561 26.3673C39.08 26.9474 38.6401 27.422 38.6788 27.422C38.7175 27.422 39.2206 26.9474 39.7968 26.3673C40.3729 25.7873 40.8128 25.3126 40.7741 25.3126C40.7354 25.3126 40.2323 25.7873 39.6561 26.3673ZM24.1887 33.4276C24.0002 33.5596 23.6512 33.6509 23.4131 33.6303C22.438 33.5462 22.1843 34.6771 23.048 35.2574C23.9068 35.8342 24.7967 35.6222 25.3039 34.7195C25.6256 34.1473 25.6029 33.7795 25.2228 33.3994C24.9458 33.1224 24.6114 33.1315 24.1887 33.4276ZM35.1964 34.5236C35.1975 34.9103 35.2248 35.0518 35.2571 34.838C35.2893 34.6243 35.2885 34.3079 35.2551 34.1349C35.2218 33.9619 35.1954 34.1369 35.1964 34.5236ZM25.6613 41.1181C25.145 41.3429 24.4542 42.1062 24.1903 42.7428C24.0085 43.1821 24.0167 43.2295 24.3182 43.4735C24.771 43.8403 25.7701 43.8085 27.0137 43.3877C28.1252 43.0117 28.6569 42.5952 28.7185 42.0524C28.7509 41.7663 28.6356 41.6387 28.0546 41.3173C27.2702 40.8836 26.371 40.8088 25.6613 41.1181ZM44.4919 41.763C44.0043 41.9601 43.5934 42.5986 43.5959 43.1559C43.6031 44.7316 45.7636 46.217 47.3074 45.7075C48.6886 45.2516 48.7409 43.5872 47.4099 42.4478C46.5603 41.7205 45.3184 41.4291 44.4919 41.763ZM54.6887 47.712C53.5288 48.4914 53.9086 50.1489 55.468 51.113C56.0481 51.4716 56.3007 51.5392 57.059 51.5392C57.8994 51.5392 57.9883 51.5081 58.3708 51.0799C59.1089 50.2538 58.8867 49.1297 57.8015 48.2009C56.8167 47.358 55.5188 47.1541 54.6887 47.712Z" fill="#FD80A6"/>
<path fill-rule="evenodd" clip-rule="evenodd" d="M30.7636 9.70289C28.0696 10.1758 25.8366 12.0025 24.9781 14.4358L24.7752 15.0109L27.0477 15.0877C28.2977 15.1299 29.4785 15.2024 29.6719 15.2491C29.9005 15.3041 29.9372 15.2953 29.7767 15.2234C29.5543 15.1238 29.5822 15.0246 30.0579 14.2188C31.2268 12.2396 32.8438 11.3354 34.3267 11.8318C35.633 12.2692 36.2747 13.2359 36.4137 14.9765L36.5036 16.1015L36.6909 15.3161C36.9883 14.0689 36.8507 12.6888 36.3479 11.8754C35.3675 10.2897 32.8967 9.3284 30.7636 9.70289ZM6.16122 16.7929C3.844 17.4571 1.91111 19.4361 1.60848 21.4545C1.41948 22.7146 2.15776 24.3173 3.37965 25.2992L3.94257 25.7516L3.39597 24.9059C2.77454 23.9443 2.47347 22.946 2.61184 22.3047C2.88395 21.0427 3.8627 20.0603 5.02103 19.8867C5.86126 19.7607 7.00159 20.0215 8.22418 20.6195L9.20617 21.0996L9.56012 20.8183C9.75475 20.6636 10.5922 20.0769 11.4209 19.5146C12.2497 18.9522 12.9299 18.4453 12.9326 18.388C12.9417 18.1935 11.4534 17.2976 10.6117 16.9909C9.56772 16.6104 7.17006 16.5038 6.16122 16.7929ZM22.6901 16.7279C20.0465 17.0323 18.4022 17.5121 15.9609 18.6914C13.1169 20.0654 10.5541 21.8876 8.17989 24.224C5.80445 26.5616 4.71095 28.3398 4.71095 29.865C4.71095 30.6743 4.72459 30.7031 5.37892 31.2788C5.7572 31.6118 6.04689 31.9887 6.04689 32.1479C6.04689 32.3026 5.84748 32.7422 5.60378 33.1247C4.80432 34.3793 3.9392 36.3326 3.72418 37.3683C3.35617 39.1401 3.77762 40.0266 5.16432 40.3974C5.83482 40.5767 6.27976 41.041 6.13731 41.4124C6.08106 41.5588 6.23842 41.7163 6.64918 41.9246C6.97529 42.09 7.28129 42.286 7.32911 42.3602C7.37692 42.4346 7.45665 42.3334 7.50629 42.1352C7.65029 41.5616 9.03067 40.2542 9.94093 39.8294C10.6484 39.4992 10.9371 39.4479 12.0967 39.4466C13.3247 39.4454 13.5125 39.483 14.364 39.9022C14.8978 40.1651 15.5413 40.6294 15.8783 40.995L16.4642 41.6307L17.0644 41.2178C17.3946 40.9907 17.7559 40.6928 17.8675 40.5557C18.0516 40.3296 18.0444 40.3177 17.7891 40.4272C16.6312 40.9235 15.436 40.4936 14.7607 39.3378C14.3764 38.6798 14.3355 38.5009 14.3767 37.6567C14.4456 36.2453 15.1929 35.3906 16.3581 35.3906C17.6189 35.3906 18.6608 36.527 18.8283 38.0849L18.9141 38.8827L19.6528 36.9753C21.1665 33.0669 22.206 31.9921 24.4719 31.9921C25.383 31.9921 25.6596 32.0561 26.4652 32.4528C26.9798 32.706 27.7694 33.1833 28.2199 33.5134C28.6705 33.8434 29.4749 34.4229 30.0076 34.8015L30.976 35.4896L30.5736 34.8814C30.2539 34.3983 30.1614 34.0819 30.1241 33.3436C30.069 32.2529 30.3414 31.6161 31.078 31.1132C32.9199 29.856 35.3129 32.4597 34.3761 34.7017C34.0691 35.4364 33.6478 35.8371 32.9857 36.0234C32.4471 36.175 32.4343 36.1905 32.7656 36.289C32.959 36.3467 33.3861 36.4 33.7149 36.4077C34.2647 36.4207 34.3141 36.4527 34.3322 36.8085C34.343 37.0211 34.3979 36.7148 34.4541 36.1277C34.5201 35.4398 34.6804 34.8136 34.9051 34.3661C35.0969 33.9843 35.3353 33.3256 35.4347 32.9024C35.9061 30.8975 37.1588 28.9582 39.5957 26.4607L41.293 24.7214L40.7603 24.3851C40.4674 24.2002 39.7485 23.8118 39.1628 23.522C38.0167 22.9548 37.7959 22.6394 38.0915 21.9907C39.0519 19.883 36.2128 17.9617 30.7266 17.0068C28.8464 16.6796 24.4391 16.5266 22.6901 16.7279ZM6.81498 23.2382L6.1172 23.9765L6.85548 23.2787C7.54145 22.6301 7.65831 22.4999 7.55326 22.4999C7.53104 22.4999 7.19889 22.8322 6.81498 23.2382ZM28.782 38.4435C28.6508 38.6439 28.3985 38.8443 28.2216 38.8886L27.8999 38.9695L28.2938 39.7698C29.1206 41.4497 28.9688 42.5314 27.8246 43.1112C26.9587 43.5501 25.3967 43.9157 24.8764 43.8015C24.0542 43.6209 23.3438 42.2107 23.3438 40.7591C23.3438 40.1184 23.328 40.091 23.0274 40.2042C22.6076 40.3624 22.1049 40.1607 21.9317 39.765C21.7004 39.2361 21.8829 41.8752 22.1337 42.6859C22.4462 43.696 23.096 44.6067 23.778 44.9901C24.5412 45.419 25.8365 45.4218 27.2109 44.9977C29.7423 44.2166 30.6679 42.9402 30.2306 40.8333C30.0542 39.9841 29.5754 38.801 29.2215 38.3403C29.0294 38.0902 29.0108 38.0945 28.782 38.4435ZM32.8271 38.7069L32.4141 39.164L32.8711 38.7509C33.2971 38.3659 33.3928 38.2499 33.2841 38.2499C33.2599 38.2499 33.0542 38.4555 32.8271 38.7069ZM35.1269 39.092C32.9524 39.7476 31.9541 43.6907 32.9766 47.5856C33.3426 48.9796 34.5042 51.6052 34.678 51.4312C34.7065 51.4027 34.6403 50.9406 34.5306 50.4044C33.8611 47.1285 34.3114 43.2584 35.7091 40.2757C36.0238 39.6041 36.2813 39.0318 36.2813 39.0039C36.2813 38.9149 35.5222 38.9729 35.1269 39.092ZM16.9934 44.4404C13.7626 46.1471 14.2652 53.9077 17.8614 57.8425C20.0905 60.2816 22.4889 60.3403 23.7204 57.9856C24.7541 56.009 24.84 53.2467 23.9549 50.4404C22.5581 46.0114 19.3133 43.2147 16.9934 44.4404ZM22.3594 44.6483C22.6218 44.919 22.868 45.1405 22.9067 45.1405C22.9454 45.1405 22.7624 44.919 22.5 44.6483C22.2376 44.3776 21.9914 44.1562 21.9527 44.1562C21.914 44.1562 22.097 44.3776 22.3594 44.6483ZM5.10751 45.5624C5.10751 46.0651 5.13311 46.2709 5.16418 46.0194C5.1954 45.768 5.1954 45.3568 5.16418 45.1054C5.13311 44.8539 5.10751 45.0597 5.10751 45.5624ZM31.3594 49.8059C31.0113 49.8582 30.2462 49.9056 29.6592 49.9114C28.5521 49.9222 28.4127 49.981 26.0514 51.4314C25.9138 51.5158 25.91 51.751 26.0341 52.5233C26.2288 53.7374 26.1099 56.0474 25.7987 57.0937C25.6721 57.519 25.3865 58.2286 25.1642 58.6703C24.9417 59.1122 24.8068 59.5027 24.8643 59.5383C25.3263 59.8237 27.5905 60.2324 29.0391 60.2917C30.9946 60.3718 32.5595 60.1324 34.3481 59.4796C35.3911 59.099 37.4313 57.9571 37.6232 57.6463C37.7665 57.4146 36.4085 55.4351 35.8322 55.0357C34.5451 54.1438 32.9575 52.0807 32.2817 50.4217L31.9922 49.7108L31.3594 49.8059ZM7.30661 50.9413C7.88936 51.5622 8.01564 51.6738 8.01564 51.5682C8.01564 51.5457 7.71498 51.2451 7.34767 50.9002L6.6797 50.2733L7.30661 50.9413Z" fill="#F7E1AE"/>
<path fill-rule="evenodd" clip-rule="evenodd" d="M31.4178 30.992C29.9802 31.6335 29.7049 33.7602 30.8815 35.1347C31.7702 36.1729 33.0779 36.2713 33.8779 35.3602C34.4057 34.7591 34.5034 34.3982 34.4265 33.3342C34.3029 31.6264 32.7338 30.4047 31.4178 30.992ZM15.5048 35.6609C14.7962 36.0224 14.4156 36.7564 14.4172 37.7577C14.4215 40.2164 17.0288 41.5487 18.336 39.7601C18.7777 39.1558 18.8213 37.7389 18.4235 36.9172C17.8322 35.6956 16.5329 35.1364 15.5048 35.6609ZM24.5233 37.8065C24.2824 37.958 23.9388 38.3844 23.7598 38.7544C23.3419 39.6176 23.3073 41.2026 23.6823 42.306L23.9377 43.0575L24.3466 42.3414C25.1825 40.8776 26.6224 40.4508 28.0438 41.2452C28.4214 41.4563 28.7533 41.6061 28.7814 41.5781C28.8094 41.55 28.7047 41.114 28.5488 40.6091C28.2313 39.5812 27.4661 38.4523 26.7581 37.9671C26.1068 37.5208 25.0932 37.4479 24.5233 37.8065ZM47.3615 40.957C46.9986 41.2423 46.9348 41.6941 47.2117 42.0174C47.3923 42.2282 47.8643 42.3888 48.922 42.5996C50.6015 42.934 51.064 42.9579 51.3001 42.7218C51.5271 42.4948 51.5143 41.8377 51.2791 41.6425C51.1454 41.5316 47.9484 40.7812 47.6092 40.7812C47.5959 40.7812 47.4845 40.8604 47.3615 40.957ZM51.2838 43.3692C50.2886 43.7359 49.6747 44.5608 49.919 45.203C49.9941 45.4007 50.1153 45.5624 50.1882 45.5624C50.2612 45.5624 50.4175 45.5996 50.5358 45.645C50.6691 45.696 50.9423 45.5359 51.2551 45.2231C51.8454 44.6328 52.2771 44.5834 52.7208 45.0556C52.9896 45.3418 53.0232 45.4869 52.9436 46.0173C52.871 46.5021 52.9024 46.6946 53.0835 46.8757C53.5665 47.3588 54.2079 47.0604 54.4258 46.2513C54.9223 44.4073 53.0722 42.7101 51.2838 43.3692ZM54.9359 44.1321C54.4329 44.6879 54.6427 45.0037 56.7593 46.8776C57.6288 47.6472 58.5001 47.5263 58.5001 46.6358C58.5001 46.3446 55.7547 43.8749 55.4309 43.8749C55.2867 43.8749 55.0639 43.9907 54.9359 44.1321Z" fill="#605C5D"/>
<path fill-rule="evenodd" clip-rule="evenodd" d="M54.4218 32.3935C54.4218 32.4206 54.7367 33.1105 55.1216 33.9263C56.9359 37.7729 57.101 40.703 55.5611 41.7287C54.4331 42.4801 52.9277 41.9536 50.6952 40.027C47.994 37.696 46.8458 36.8569 46.0342 36.6209C45.2892 36.4044 45.2504 36.4072 44.6069 36.7265C43.3545 37.3478 42.9287 39.0724 43.4415 41.4462L43.6308 42.322L44.0292 41.9868C44.6056 41.5016 45.3634 41.4139 46.2858 41.7253L47.0514 41.9837L46.9988 41.6255C46.9643 41.3908 47.0484 41.1747 47.2423 40.9992C47.534 40.7352 47.5658 40.7363 49.3244 41.0693C51.1665 41.4181 51.6093 41.6348 51.6093 42.1876C51.6093 42.5027 51.1409 43.0344 50.871 43.0254C50.7744 43.0222 49.9796 42.8719 49.1051 42.6913L47.5149 42.3631L47.7975 42.664C48.1346 43.0227 48.5156 43.8904 48.5156 44.2995C48.5156 45.6156 46.7549 46.3145 45.304 45.5741L44.7101 45.2712L45.1946 46.2255C45.461 46.7503 45.9989 47.7085 46.3897 48.3548C47.4056 50.035 47.7096 50.918 47.6428 51.9946C47.5774 53.0472 47.283 53.5155 46.4034 53.9649C44.9531 54.7059 42.6165 54.1673 40.3593 52.5717C39.4419 51.9232 37.175 49.7103 36.4457 48.7512L35.9296 48.0726L35.8855 48.5064C35.8611 48.7449 35.9472 49.4615 36.0767 50.099C37.3894 56.5631 42.521 61.3498 49.1484 62.292C50.1218 62.4304 52.1718 62.4906 52.1718 62.3808C52.1718 62.3495 51.9204 61.7958 51.613 61.1503C50.2707 58.3313 50.2852 55.9483 51.6539 54.4577C52.4164 53.6273 53.1354 53.304 54.2283 53.3C55.2743 53.2962 56.0488 53.555 57.1633 54.2802C59.3338 55.6928 61.3092 55.8769 62.2915 54.758C63.1179 53.8167 62.7838 52.7131 61.3183 51.5438C59.3284 49.9561 58.5572 48.7065 58.9092 47.6402C59.1207 46.9991 59.9796 46.1855 60.7211 45.9241C61.9298 45.498 62.536 45.4989 65.587 45.9309L66.2757 46.0283L66.1761 45.1489C65.6582 40.5714 62.4958 36.0238 58.2187 33.7063C56.956 33.0222 54.4218 32.1458 54.4218 32.3935ZM51.1171 43.3811C49.9779 43.9161 49.4503 44.9382 50.0384 45.4705C50.4265 45.8217 50.8882 45.7527 51.3018 45.2813C51.5661 44.98 51.7986 44.8594 52.1156 44.8594C52.7292 44.8594 52.9309 45.1515 52.8294 45.8932C52.7249 46.6547 52.9997 47.1094 53.5643 47.1094C54.6724 47.1094 54.9254 45.1615 53.96 44.0621C53.2114 43.2095 52.0663 42.9353 51.1171 43.3811ZM54.7649 44.2197C54.6347 44.4184 54.5771 44.6838 54.6287 44.8464C54.7623 45.2674 57.3814 47.5313 57.7348 47.5313C58.1285 47.5313 58.4999 47.1076 58.4999 46.6585C58.4999 46.3814 58.1883 46.0247 57.1288 45.0895C55.6178 43.7555 55.1757 43.5928 54.7649 44.2197ZM54.8383 47.5665C54.3369 47.8193 54.1701 48.0009 54.0077 48.4706C53.8118 49.0373 53.8194 49.0873 54.2227 49.8768C55.3481 52.0801 58.5975 52.3345 58.8782 50.2413C59.0254 49.1443 57.9854 47.867 56.6111 47.4569C55.7014 47.1855 55.5787 47.1931 54.8383 47.5665Z" fill="#DDFCFC"/>
<path fill-rule="evenodd" clip-rule="evenodd" d="M48.8672 30.5237C46.7051 30.8158 44.1174 31.7432 42.2473 32.8962C37.2666 35.9666 34.3125 41.2884 34.3125 47.1904C34.3125 50.8527 35.2869 53.8793 37.4782 57.0236C39.7927 60.3446 43.2256 62.602 47.5312 63.6343C48.8288 63.9454 51.8633 64.0621 53.2775 63.8553C56.9611 63.3166 60.0498 61.8225 62.6603 59.3164C64.1727 57.8644 65.0606 56.6921 65.9455 54.9785C67.295 52.366 67.7812 50.3575 67.7812 47.3969C67.7812 44.349 67.2862 42.1756 66.0184 39.6565C63.7078 35.0658 59.6593 31.9304 54.5625 30.7843C53.1513 30.4669 50.2646 30.3348 48.8672 30.5237ZM54.4219 32.3954C54.4219 32.4237 54.7024 33.0408 55.0454 33.7665C55.8443 35.4575 56.3489 36.9733 56.5557 38.3041C57.0137 41.25 55.4002 42.7944 53.0214 41.6869C52.1807 41.2957 51.6779 40.9146 49.5703 39.0717C47.6805 37.4191 46.8963 36.8771 46.0242 36.6206C45.3336 36.4174 45.2533 36.4212 44.6569 36.6852C43.4744 37.2082 43.0072 38.5936 43.3239 40.6383C43.4258 41.2971 43.5149 42.251 43.5215 42.7579C43.5337 43.6949 43.9107 44.6321 44.3845 44.9032C44.4939 44.9659 44.83 45.5038 45.1313 46.0985C45.4326 46.6933 45.9989 47.7086 46.3897 48.355C47.4057 50.035 47.7097 50.9181 47.6429 51.9948C47.5775 53.0473 47.283 53.5156 46.4034 53.9651C45.3085 54.5245 43.5585 54.3374 41.8359 53.4769C40.335 52.7271 37.7087 50.4146 36.3912 48.6826L35.9297 48.076L35.8855 48.5081C35.8612 48.7458 35.9473 49.4617 36.0768 50.0991C37.3895 56.5632 42.5211 61.35 49.1484 62.2922C50.1218 62.4305 52.1719 62.4907 52.1719 62.3809C52.1719 62.3497 51.9204 61.7959 51.613 61.1504C50.2708 58.3315 50.2852 55.9484 51.654 54.4578C52.4164 53.6274 53.1354 53.3041 54.2284 53.3002C55.2743 53.2964 56.0489 53.5551 57.1634 54.2803C59.3339 55.6929 61.3093 55.877 62.2915 54.7582C63.1157 53.8196 62.785 52.718 61.3264 51.5436C59.4397 50.0243 58.6585 48.8625 58.8473 47.856C58.9804 47.1471 59.9152 46.1893 60.7257 45.9317C62.0333 45.5159 62.6898 45.5156 65.5871 45.93L66.2757 46.0285L66.1762 45.149C65.6582 40.5715 62.4959 36.024 58.2188 33.7065C56.9502 33.0191 54.4219 32.1461 54.4219 32.3954Z" fill="#5F8D4E"/>
<path fill-rule="evenodd" clip-rule="evenodd" d="M64.6539 17.2555C64.8289 17.2891 65.082 17.2878 65.2164 17.2526C65.3509 17.2175 65.2077 17.1899 64.8983 17.1915C64.5889 17.193 64.479 17.2218 64.6539 17.2555ZM61.2154 26.367C61.2161 26.831 61.2424 27.0039 61.2737 26.7512C61.3049 26.4985 61.3044 26.1188 61.2723 25.9074C61.2401 25.696 61.2145 25.9029 61.2154 26.367ZM64.2655 33.2576C64.5279 33.5283 64.7741 33.7498 64.8128 33.7498C64.8515 33.7498 64.6685 33.5283 64.4061 33.2576C64.1437 32.9869 63.8975 32.7654 63.8588 32.7654C63.8201 32.7654 64.0031 32.9869 64.2655 33.2576ZM67.8138 47.9529C67.8138 48.2236 67.8427 48.3343 67.878 48.199C67.9135 48.0637 67.9135 47.8421 67.878 47.7068C67.8427 47.5715 67.8138 47.6822 67.8138 47.9529Z" fill="#E87194"/>
<path fill-rule="evenodd" clip-rule="evenodd" d="M36.882 13.9219C36.882 14.2699 36.9094 14.4123 36.943 14.2383C36.9765 14.0644 36.9765 13.7794 36.943 13.6055C36.9094 13.4315 36.882 13.5739 36.882 13.9219ZM7.84153 16.5526C8.01647 16.5862 8.26959 16.5849 8.40403 16.5498C8.53847 16.5146 8.39531 16.487 8.08594 16.4886C7.77656 16.4901 7.66659 16.519 7.84153 16.5526ZM3.08616 18.5274L2.60156 19.0547L3.12891 18.5701C3.41902 18.3035 3.65625 18.0663 3.65625 18.0428C3.65625 17.9353 3.53728 18.0366 3.08616 18.5274ZM8.35833 23.9414L7.94531 24.3985L8.40234 23.9854C8.65378 23.7583 8.85938 23.5526 8.85938 23.5284C8.85938 23.4197 8.74336 23.5155 8.35833 23.9414ZM30.9797 44.4375C30.9797 44.8629 31.006 45.0369 31.0382 44.8242C31.0704 44.6116 31.0704 44.2634 31.0382 44.0508C31.006 43.8382 30.9797 44.0121 30.9797 44.4375ZM34.2201 47.1797C34.2205 47.7985 34.2453 48.0341 34.275 47.7034C34.3048 47.3726 34.3043 46.8664 34.2741 46.5784C34.2439 46.2904 34.2195 46.561 34.2201 47.1797Z" fill="#DEC99B"/>
</svg>
