<svg width="20" height="20" viewBox="0 0 20 20" fill="none" xmlns="http://www.w3.org/2000/svg">
<g clip-path="url(#clip0_614_6714)">
<path d="M12.0833 16.6668C12.0833 17.2193 11.8638 17.7492 11.4731 18.1399C11.0824 18.5306 10.5525 18.7501 10 18.7501C9.44747 18.7501 8.91756 18.5306 8.52686 18.1399C8.13616 17.7492 7.91667 17.2193 7.91667 16.6668M18.75 14.5834H1.25V14.3751L1.95667 13.6184C3.3934 12.0788 4.30739 10.1248 4.56833 8.03511L4.84833 5.79845C5.00512 4.54268 5.61519 3.38742 6.56387 2.54983C7.51254 1.71224 8.73448 1.25 10 1.25C11.2655 1.25 12.4875 1.71224 13.4361 2.54983C14.3848 3.38742 14.9949 4.54268 15.1517 5.79845L15.4317 8.03594C15.6928 10.1253 16.6068 12.079 18.0433 13.6184L18.75 14.3751V14.5834Z" stroke="black"/>
</g>
<defs>
<clipPath id="clip0_614_6714">
<rect width="20" height="20" fill="white"/>
</clipPath>
</defs>
</svg>
