<svg width="20" height="20" viewBox="0 0 20 20" fill="none" xmlns="http://www.w3.org/2000/svg">
<circle cx="10" cy="10" r="10" fill="#5F8D4E"/>
<path fill-rule="evenodd" clip-rule="evenodd" d="M8.54504 8.8042H8.48206C6.74329 8.8042 5.33337 8.17797 5.33337 7.40479C5.33337 6.63231 6.74329 6.00537 8.48206 6.00537C10.2208 6.00537 11.6308 6.63231 11.6308 7.40479C11.6308 7.65738 11.481 7.89458 11.2179 8.0982C10.0725 8.108 9.07681 8.38928 8.54504 8.8042Z" fill="white"/>
<path d="M8.55413 8.80432H8.48206C6.74329 8.80432 5.33337 8.17809 5.33337 7.40491V11.6032C5.33337 12.3728 6.73279 13.0026 8.48206 13.0026C10.2313 13.0026 11.6308 12.3728 11.6308 11.6032V10.8965C11.516 10.9021 11.3991 10.9048 11.2809 10.9048C9.54212 10.9048 8.13221 10.2779 8.13221 9.50543C8.13221 9.25004 8.28614 9.01144 8.55413 8.80572V8.80432Z" fill="#C9FF85"/>
<path d="M11.2109 6.70585C10.3933 6.20127 9.44159 5.95724 8.48206 6.00614C6.73979 6.00614 5.33337 6.63588 5.33337 7.40556C5.33337 7.81839 5.7392 8.18923 6.38294 8.45512" stroke="#3E3E3E" stroke-width="0.8" stroke-linecap="round" stroke-linejoin="round"/>
<path d="M6.38294 12.6533C5.7392 12.3874 5.33337 12.0166 5.33337 11.6038V7.40552" stroke="#3E3E3E" stroke-width="0.8" stroke-linecap="round" stroke-linejoin="round"/>
<path d="M6.38294 10.5542C5.7392 10.2883 5.33337 9.91747 5.33337 9.50464" stroke="#3E3E3E" stroke-width="0.8" stroke-linecap="round" stroke-linejoin="round"/>
<path d="M11.2809 10.8978C13.0197 10.8978 14.4296 10.2716 14.4296 9.49842C14.4296 8.72524 13.0197 8.099 11.2809 8.099C9.54211 8.099 8.1322 8.72524 8.1322 9.49842C8.1322 10.2716 9.54211 10.8978 11.2809 10.8978Z" fill="white"/>
<path d="M11.2809 10.8978C13.0197 10.8978 14.4296 10.2716 14.4296 9.49841V13.6967C14.4296 14.4663 13.0302 15.0961 11.2809 15.0961C9.53162 15.0961 8.1322 14.4663 8.1322 13.6967V9.49841C8.1322 10.2716 9.54211 10.8978 11.2809 10.8978Z" fill="#C9FF85"/>
<path d="M11.2809 10.8978C13.0197 10.8978 14.4296 10.2716 14.4296 9.49842C14.4296 8.72524 13.0197 8.099 11.2809 8.099C9.54211 8.099 8.1322 8.72524 8.1322 9.49842C8.1322 10.2716 9.54211 10.8978 11.2809 10.8978Z" stroke="#3E3E3E" stroke-width="0.8" stroke-linecap="round" stroke-linejoin="round"/>
<path d="M8.1322 9.49841V13.6967C8.1322 14.4663 9.53162 15.0961 11.2809 15.0961C13.0302 15.0961 14.4296 14.4663 14.4296 13.6967V9.49841" stroke="#3E3E3E" stroke-width="0.8" stroke-linecap="round" stroke-linejoin="round"/>
<path d="M14.4296 11.5975C14.4296 12.3672 13.0302 12.997 11.2809 12.997C9.53162 12.997 8.1322 12.3672 8.1322 11.5975" stroke="#3E3E3E" stroke-width="0.8" stroke-linecap="round" stroke-linejoin="round"/>
</svg>
