<svg width="20" height="20" viewBox="0 0 20 20" fill="none" xmlns="http://www.w3.org/2000/svg">
<path d="M9.99996 1.66675C14.6 1.66675 18.3333 5.40008 18.3333 10.0001C18.3333 14.6084 14.6 18.3334 9.99996 18.3334C5.39163 18.3334 1.66663 14.6084 1.66663 10.0001C1.66663 5.40008 5.39163 1.66675 9.99996 1.66675ZM13.2083 7.25841C13.3 6.96675 13.0333 6.69175 12.7416 6.78341L8.47496 8.11675C8.29996 8.17508 8.15829 8.30841 8.10829 8.48341L6.77496 12.7584C6.68329 13.0417 6.95829 13.3167 7.24163 13.2251L11.4916 11.8917C11.6666 11.8417 11.8083 11.7001 11.8583 11.5251L13.2083 7.25841Z" fill="#666666"/>
</svg>
