<svg width="24" height="24" viewBox="0 0 24 24" fill="none" xmlns="http://www.w3.org/2000/svg">
<path d="M6.106 7.05299C6.86163 6.24697 7.77454 5.6045 8.78832 5.1653C9.80209 4.72609 10.8952 4.49948 12 4.49948C13.1048 4.49948 14.1979 4.72609 15.2117 5.1653C16.2255 5.6045 17.1384 6.24697 17.894 7.05299L20.5 9.99999C21.5 11 22.724 12 24 12C22.724 12 21.5 13 20.5 14L17.894 16.947C17.1384 17.753 16.2255 18.3955 15.2117 18.8347C14.1979 19.2739 13.1048 19.5005 12 19.5005C10.8952 19.5005 9.80209 19.2739 8.78832 18.8347C7.77454 18.3955 6.86163 17.753 6.106 16.947L3.5 14C2.5 13 1.276 12 0 12C1.276 12 2.5 11 3.5 9.99999L6.106 7.05299Z" stroke="#BDBDBD"/>
<path d="M9.5 12C9.5 11.337 9.76339 10.7011 10.2322 10.2322C10.7011 9.76339 11.337 9.5 12 9.5C12.663 9.5 13.2989 9.76339 13.7678 10.2322C14.2366 10.7011 14.5 11.337 14.5 12C14.5 12.663 14.2366 13.2989 13.7678 13.7678C13.2989 14.2366 12.663 14.5 12 14.5C11.337 14.5 10.7011 14.2366 10.2322 13.7678C9.76339 13.2989 9.5 12.663 9.5 12Z" stroke="#BDBDBD"/>
</svg>
