<svg width="25" height="25" viewBox="0 0 25 25" fill="none" xmlns="http://www.w3.org/2000/svg">
<g clip-path="url(#clip0_195_1085)">
<path d="M18.1298 17.9724C18.2955 17.8224 18.455 17.6656 18.6078 17.5024L21.2138 14.5564C22.2138 13.5564 23.4378 12.5564 24.7138 12.5564C23.4378 12.5564 22.2138 11.5564 21.2138 10.5564L18.6078 7.60943C17.1599 6.06508 15.1638 5.15071 13.0487 5.063C10.9336 4.97529 8.86856 5.72125 7.29781 7.14043M16.0108 19.3534C14.4769 20.0393 12.7672 20.2297 11.12 19.8981C9.47271 19.5665 7.96988 18.7294 6.82081 17.5034L4.21381 14.5564C3.21381 13.5564 1.98981 12.5564 0.713806 12.5564C1.98981 12.5564 3.21381 11.5564 4.21381 10.5564L5.62181 8.96443M1.21381 1.05643L24.2138 24.0564M14.4818 14.3244C14.9507 13.8555 15.2141 13.2196 15.2141 12.5564C15.2141 11.8933 14.9507 11.2573 14.4818 10.7884C14.0129 10.3195 13.3769 10.0561 12.7138 10.0561C12.0507 10.0561 11.4147 10.3195 10.9458 10.7884" stroke="#BDBDBD"/>
</g>
<defs>
<clipPath id="clip0_195_1085">
<rect width="24" height="24" fill="white" transform="translate(0.713806 0.556427)"/>
</clipPath>
</defs>
</svg>
