<svg width="24" height="24" viewBox="0 0 24 24" fill="none" xmlns="http://www.w3.org/2000/svg">
<path d="M23.7666 9.6498H22.8V9.6H12V14.4H18.7818C17.7924 17.1942 15.1338 19.2 12 19.2C8.0238 19.2 4.8 15.9762 4.8 12C4.8 8.0238 8.0238 4.8 12 4.8C13.8354 4.8 15.5052 5.4924 16.7766 6.6234L20.1708 3.2292C18.0276 1.2318 15.1608 0 12 0C5.373 0 0 5.373 0 12C0 18.627 5.373 24 12 24C18.627 24 24 18.627 24 12C24 11.1954 23.9172 10.41 23.7666 9.6498Z" fill="#FFC107"/>
<path d="M1.38361 6.4146L5.32621 9.306C6.39301 6.6648 8.97661 4.8 12 4.8C13.8354 4.8 15.5052 5.4924 16.7766 6.6234L20.1708 3.2292C18.0276 1.2318 15.1608 0 12 0C7.39081 0 3.39361 2.6022 1.38361 6.4146Z" fill="#FF3D00"/>
<path d="M12 24C15.0996 24 17.916 22.8138 20.0454 20.8848L16.3314 17.742C15.1266 18.6546 13.629 19.2 12 19.2C8.87882 19.2 6.22862 17.2098 5.23022 14.4324L1.31702 17.4474C3.30302 21.3336 7.33622 24 12 24Z" fill="#4CAF50"/>
<path d="M23.7666 9.64978H22.8V9.59998H12V14.4H18.7818C18.3066 15.7422 17.4432 16.8996 16.3296 17.7426C16.3302 17.742 16.3308 17.742 16.3314 17.7414L20.0454 20.8842C19.7826 21.123 24 18 24 12C24 11.1954 23.9172 10.41 23.7666 9.64978Z" fill="#1976D2"/>
</svg>
