<svg width="20" height="20" viewBox="0 0 20 20" fill="none" xmlns="http://www.w3.org/2000/svg">
<path d="M7.61236 17.3111V14.763C7.61236 14.1125 8.14352 13.5852 8.79874 13.5852H11.1939C11.5085 13.5852 11.8103 13.7093 12.0328 13.9302C12.2553 14.151 12.3803 14.4506 12.3803 14.763V17.3111C12.3783 17.5815 12.4851 17.8415 12.677 18.0334C12.8689 18.2254 13.1301 18.3333 13.4025 18.3333H15.0366C15.7997 18.3353 16.5323 18.0357 17.0727 17.5006C17.613 16.9656 17.9167 16.2391 17.9167 15.4815V8.22234C17.9167 7.61034 17.6434 7.02983 17.1706 6.63718L11.6117 2.22985C10.6448 1.45709 9.2593 1.48204 8.3212 2.28911L2.88922 6.63718C2.39399 7.01825 2.098 7.60049 2.08337 8.22234V15.4741C2.08337 17.0532 3.37286 18.3333 4.96352 18.3333H6.56028C7.12606 18.3333 7.58587 17.8801 7.58997 17.3185L7.61236 17.3111Z" fill="#666666"/>
</svg>
