<svg width="20" height="20" viewBox="0 0 20 20" fill="none" xmlns="http://www.w3.org/2000/svg">
<path d="M10 19C12.3869 19 14.6761 18.0518 16.364 16.364C18.0518 14.6761 19 12.3869 19 10C19 7.61305 18.0518 5.32387 16.364 3.63604C14.6761 1.94821 12.3869 1 10 1C7.61305 1 5.32387 1.94821 3.63604 3.63604C1.94821 5.32387 1 7.61305 1 10C1 12.3869 1.94821 14.6761 3.63604 16.364C5.32387 18.0518 7.61305 19 10 19Z" stroke="#5F8D4E" stroke-width="1.71429" stroke-linecap="round" stroke-linejoin="round"/>
<path d="M7.92303 14.1536H12.0769" stroke="#5F8D4E" stroke-width="1.71429" stroke-linecap="round" stroke-linejoin="round"/>
<path d="M9.99997 14.154V9.30786H8.61536" stroke="#5F8D4E" stroke-width="1.71429" stroke-linecap="round" stroke-linejoin="round"/>
<path d="M10.0001 6.19231C9.90828 6.19231 9.82023 6.15584 9.75532 6.09092C9.6904 6.02601 9.65393 5.93796 9.65393 5.84615C9.65393 5.75435 9.6904 5.6663 9.75532 5.60139C9.82023 5.53647 9.90828 5.5 10.0001 5.5" stroke="#5F8D4E" stroke-width="1.71429" stroke-linecap="round" stroke-linejoin="round"/>
<path d="M10 6.19231C10.0918 6.19231 10.1799 6.15584 10.2448 6.09092C10.3097 6.02601 10.3462 5.93796 10.3462 5.84615C10.3462 5.75435 10.3097 5.6663 10.2448 5.60139C10.1799 5.53647 10.0918 5.5 10 5.5" stroke="#5F8D4E" stroke-width="1.71429" stroke-linecap="round" stroke-linejoin="round"/>
</svg>
