<svg width="16" height="16" viewBox="0 0 16 17" fill="none" xmlns="http://www.w3.org/2000/svg">
<g clip-path="url(#clip0_841_2499)">
<path d="M2.2857 11.9287L0.571411 15.9287H15.4286L13.7143 11.9287H2.2857Z" fill="white"/>
<path d="M13.1429 6.21439C13.1429 9.64296 8.00003 13.643 8.00003 13.643C8.00003 13.643 2.85718 9.64296 2.85718 6.21439C2.85718 3.41325 5.19889 1.07153 8.00003 1.07153C10.8012 1.07153 13.1429 3.41325 13.1429 6.21439Z" fill="#5F8D4E"/>
<path d="M7.99993 7.92857C8.45459 7.92857 8.89062 7.74796 9.21211 7.42647C9.5336 7.10498 9.71422 6.66894 9.71422 6.21429C9.71422 5.75963 9.5336 5.32359 9.21211 5.0021C8.89062 4.68061 8.45459 4.5 7.99993 4.5C7.54527 4.5 7.10924 4.68061 6.78775 5.0021C6.46626 5.32359 6.28564 5.75963 6.28564 6.21429C6.28564 6.66894 6.46626 7.10498 6.78775 7.42647C7.10924 7.74796 7.54527 7.92857 7.99993 7.92857Z" fill="white"/>
<path d="M13.1429 6.21439C13.1429 9.64296 8.00003 13.643 8.00003 13.643C8.00003 13.643 2.85718 9.64296 2.85718 6.21439C2.85718 3.41325 5.19889 1.07153 8.00003 1.07153C10.8012 1.07153 13.1429 3.41325 13.1429 6.21439Z" stroke="#666666" stroke-width="1.2" stroke-linecap="round" stroke-linejoin="round"/>
<path d="M7.99993 7.92857C8.45459 7.92857 8.89062 7.74796 9.21211 7.42647C9.5336 7.10498 9.71422 6.66894 9.71422 6.21429C9.71422 5.75963 9.5336 5.32359 9.21211 5.0021C8.89062 4.68061 8.45459 4.5 7.99993 4.5C7.54527 4.5 7.10924 4.68061 6.78775 5.0021C6.46626 5.32359 6.28564 5.75963 6.28564 6.21429C6.28564 6.66894 6.46626 7.10498 6.78775 7.42647C7.10924 7.74796 7.54527 7.92857 7.99993 7.92857Z" stroke="#666666" stroke-width="1.2" stroke-linecap="round" stroke-linejoin="round"/>
</g>
<defs>
<clipPath id="clip0_841_2499">
<rect width="16" height="16" fill="white" transform="translate(0 0.5)"/>
</clipPath>
</defs>
</svg>
