<svg width="88" height="60" viewBox="0 0 88 60" fill="none" xmlns="http://www.w3.org/2000/svg">
<path opacity="0.956" fill-rule="evenodd" clip-rule="evenodd" d="M43.6425 0.00437459C44.8865 -0.0566146 45.6271 0.520115 45.8647 1.73456C45.9969 3.61716 45.9491 5.49153 45.7213 7.35768C44.9812 8.59967 44.0016 8.81594 42.7823 8.0065C42.6446 7.80191 42.5252 7.58563 42.4238 7.35768C42.3282 5.29111 42.3282 3.2244 42.4238 1.15783C42.678 0.589755 43.0842 0.205221 43.6425 0.00437459Z" fill="black"/>
<path opacity="0.958" fill-rule="evenodd" clip-rule="evenodd" d="M35.0403 4.18573C35.551 4.25277 36.0288 4.42104 36.474 4.69037C37.8935 6.02132 39.2076 7.43906 40.4166 8.94375C40.5681 10.8099 39.7317 11.5549 37.9076 11.1786C36.45 9.80885 35.0403 8.3911 33.6783 6.9252C33.2245 5.53066 33.6786 4.61756 35.0403 4.18573Z" fill="black"/>
<path opacity="0.973" fill-rule="evenodd" clip-rule="evenodd" d="M52.2443 4.3299C54.159 4.19552 54.8996 5.06061 54.4665 6.92518C53.2044 8.33875 51.8902 9.70848 50.5239 11.0344C48.2895 11.7671 47.4054 10.9741 47.8716 8.65537C49.3142 7.18053 50.7716 5.7387 52.2443 4.3299Z" fill="black"/>
<path opacity="0.992" fill-rule="evenodd" clip-rule="evenodd" d="M40.4882 21.1993C39.6824 21.7036 38.8701 21.7277 38.051 21.2714C36.2365 19.3491 34.2532 17.643 32.1012 16.1529C32.0056 22.8815 32.0056 29.6099 32.1012 36.3384C32.8229 37.0159 33.4919 37.7369 34.1084 38.5012C34.683 39.6989 34.3725 40.5881 33.1765 41.1685C32.5277 41.2451 31.9543 41.0768 31.4561 40.6639C28.758 37.8783 26.034 35.1149 23.2841 32.3734C17.5974 32.3013 11.9104 32.2772 6.22327 32.3013C10.3762 41.8368 17.1624 48.7815 26.5815 53.1357C28.0058 53.6932 29.4394 54.2218 30.8826 54.7217C31.4245 55.2589 31.7113 55.9077 31.7428 56.6682C30.9864 57.8319 29.9351 58.1443 28.5887 57.6053C18.3515 53.9903 10.4902 47.478 5.00464 38.0686C-0.109302 28.6913 -1.30399 18.8387 1.42044 8.51122C2.15692 7.79881 3.04107 7.39034 4.07275 7.28567C18.2377 4.79362 30.4001 8.61445 40.5599 18.7482C41.0475 19.5824 41.0236 20.3995 40.4882 21.1993Z" fill="#010100"/>
<path opacity="0.994" fill-rule="evenodd" clip-rule="evenodd" d="M37.3342 57.5332C36.4482 55.0238 35.9464 52.4286 35.8288 49.7473C35.385 42.4276 36.8186 35.5069 40.1299 28.9851C41.0651 27.3911 41.9969 25.8051 42.9255 24.227C47.381 18.141 52.9724 13.407 59.6996 10.0251C67.9292 6.31381 76.4357 5.49673 85.2191 7.57396C86.0305 7.71757 86.5801 8.17405 86.8679 8.9437C90.2733 24.8623 85.9961 38.2954 74.0364 49.2427C63.5058 58.3302 51.4628 61.262 37.9077 58.0378C37.6462 57.9427 37.455 57.7744 37.3342 57.5332Z" fill="#010100"/>
<path fill-rule="evenodd" clip-rule="evenodd" d="M9.80747 9.95303C12.1557 9.91294 14.4973 10.0091 16.8325 10.2414C16.8565 13.7982 16.8325 17.3548 16.7608 20.9109C13.296 17.4264 9.83142 13.9421 6.36664 10.4577C7.53165 10.2663 8.67859 10.0981 9.80747 9.95303Z" fill="#B1B870"/>
<path fill-rule="evenodd" clip-rule="evenodd" d="M73.1762 9.95304C76.0598 9.85875 78.9271 10.027 81.7783 10.4577C77.5967 14.6631 73.4152 18.8683 69.2336 23.0736C69.138 18.9404 69.138 14.8072 69.2336 10.674C70.5537 10.3859 71.8678 10.1457 73.1762 9.95304Z" fill="#5F8D4E"/>
<path fill-rule="evenodd" clip-rule="evenodd" d="M20.2733 10.9623C23.1318 11.6002 25.8558 12.6095 28.4453 13.9902C28.6126 20.2375 28.6364 26.4855 28.517 32.7339C25.793 29.9944 23.069 27.255 20.345 24.5155C20.2733 19.998 20.2494 15.4803 20.2733 10.9623Z" fill="#B1B870"/>
<path fill-rule="evenodd" clip-rule="evenodd" d="M54.3948 38.0686C54.2516 31.2684 54.2039 24.4438 54.2515 17.5947C57.619 14.8672 61.3944 12.8487 65.5775 11.5391C65.7449 16.5847 65.7687 21.6311 65.6492 26.6782C61.865 30.4598 58.1135 34.2567 54.3948 38.0686Z" fill="#5F8D4E"/>
<path fill-rule="evenodd" clip-rule="evenodd" d="M3.92933 12.9809C9.20513 18.2146 14.4619 23.4772 19.6998 28.7689C14.7776 28.865 9.85517 28.865 4.93291 28.7689C3.43729 23.5874 3.10281 18.3247 3.92933 12.9809Z" fill="#B1B870"/>
<path fill-rule="evenodd" clip-rule="evenodd" d="M81.6348 32.8781C75.9234 32.9259 70.2364 32.8779 64.574 32.7339C71.0684 26.1305 77.5917 19.5462 84.1437 12.9809C85.2135 19.6687 84.4967 26.1569 81.9932 32.4455C81.9392 32.6534 81.8197 32.7976 81.6348 32.8781Z" fill="#5F8D4E"/>
<path fill-rule="evenodd" clip-rule="evenodd" d="M40.4883 21.1992C41.3551 22.1667 42.1674 23.176 42.9256 24.2271C41.997 25.8051 41.0651 27.3911 40.1299 28.9851C36.8187 35.5069 35.385 42.4276 35.8288 49.7473C35.9464 52.4286 36.4482 55.0239 37.3342 57.5332C35.4532 57.3541 33.5894 57.0658 31.7429 56.6681C31.7113 55.9077 31.4246 55.2589 30.8826 54.7216C29.4395 54.2218 28.0058 53.6932 26.5816 53.1356C17.1625 48.7815 10.3763 41.8368 6.22333 32.3013C11.9105 32.2772 17.5974 32.3013 23.2841 32.3734C26.0341 35.1148 28.7581 37.8782 31.4561 40.6639C31.9543 41.0768 32.5278 41.2451 33.1765 41.1685C34.3725 40.588 34.683 39.6988 34.1084 38.5011C33.4919 37.7368 32.823 37.0159 32.1013 36.3384C32.0056 29.6098 32.0056 22.8814 32.1013 16.1528C34.2532 17.643 36.2366 19.3491 38.0511 21.2713C38.8701 21.7276 39.6824 21.7036 40.4883 21.1992Z" fill="#B1B870"/>
<path fill-rule="evenodd" clip-rule="evenodd" d="M54.2516 17.5947C54.204 24.4438 54.2518 31.2684 54.395 38.0686C54.3864 38.1469 54.3387 38.1949 54.2516 38.2128C54.0608 31.3162 54.0608 24.4436 54.2516 17.5947Z" fill="#2B2D1D"/>
<path fill-rule="evenodd" clip-rule="evenodd" d="M50.6674 20.6225C50.8345 27.6632 50.8584 34.7282 50.7391 41.8173C47.0593 45.5181 43.3796 49.2186 39.6998 52.9194C37.9441 40.2651 41.6 29.4994 50.6674 20.6225Z" fill="#5F8D4E"/>
<path fill-rule="evenodd" clip-rule="evenodd" d="M64.574 32.7339C70.2365 32.8779 75.9235 32.9259 81.6348 32.878C75.9238 33.0699 70.189 33.0699 64.4307 32.878C64.4484 32.7905 64.4962 32.7425 64.574 32.7339Z" fill="#5C5E3C"/>
<path fill-rule="evenodd" clip-rule="evenodd" d="M71.7426 46.4312C64.8366 46.4791 57.9549 46.4311 51.0976 46.2871C54.2706 43.0239 57.4725 39.7798 60.7033 36.5547C67.1075 36.4346 73.5113 36.4586 79.9146 36.6268C77.714 40.3304 74.99 43.5985 71.7426 46.4312Z" fill="#5F8D4E"/>
<path fill-rule="evenodd" clip-rule="evenodd" d="M17.1192 39.7988C19.2247 39.7547 19.8698 40.716 19.0546 42.6825C18.0688 43.3283 17.1609 43.2321 16.3306 42.3941C15.8571 41.2823 16.1199 40.4172 17.1192 39.7988Z" fill="#030302"/>
<path fill-rule="evenodd" clip-rule="evenodd" d="M21.4202 43.5475C21.9005 43.5237 22.3784 43.5478 22.8539 43.6196C25.9207 45.8345 29.266 47.5167 32.8897 48.666C33.7189 49.293 33.934 50.086 33.5348 51.045C32.8753 51.8991 32.0389 52.1154 31.0259 51.6938C27.4648 50.504 24.1673 48.8218 21.1335 46.6474C20.1098 45.4979 20.2055 44.4645 21.4202 43.5475Z" fill="#030302"/>
<path fill-rule="evenodd" clip-rule="evenodd" d="M51.0973 46.287C57.9546 46.431 64.8363 46.479 71.7424 46.4311C64.8366 46.623 57.907 46.623 50.954 46.4311C50.9718 46.3436 51.0195 46.2956 51.0973 46.287Z" fill="#5B5E3B"/>
<path fill-rule="evenodd" clip-rule="evenodd" d="M47.3699 50.0358C53.9412 49.8439 60.5361 49.8439 67.1547 50.0358C67.137 50.1233 67.0892 50.1713 67.0114 50.18C60.4885 50.0359 53.9414 49.9879 47.3699 50.0358Z" fill="#5B5E3B"/>
<path fill-rule="evenodd" clip-rule="evenodd" d="M47.3701 50.0357C53.9415 49.9879 60.4887 50.0359 67.0115 50.1799C59.4098 55.0445 51.1422 56.7747 42.2088 55.3705C43.8881 53.5376 45.6085 51.7594 47.3701 50.0357Z" fill="#5F8D4E"/>
</svg>
