<svg width="24" height="25" viewBox="0 0 24 25" fill="none" xmlns="http://www.w3.org/2000/svg">
<g clip-path="url(#clip0_590_5968)">
<path d="M10.5 2L10.319 2.543C10.1418 3.0745 9.90138 3.58281 9.60298 4.057C9.20251 4.68804 8.6553 5.2128 8.00804 5.5865C7.36078 5.96019 6.63271 6.17171 5.88598 6.203C5.3265 6.22422 4.7665 6.17823 4.21798 6.066L3.65698 5.951L2.15698 8.549L2.53698 8.978C2.91098 9.4 3.22998 9.862 3.48998 10.354C3.83624 11.0163 4.01709 11.7526 4.01709 12.5C4.01709 13.2474 3.83624 13.9837 3.48998 14.646C3.22849 15.1411 2.90854 15.6031 2.53698 16.022L2.15698 16.451L3.65698 19.049L4.21698 18.934C4.76615 18.8216 5.32684 18.7756 5.88698 18.797C6.63354 18.8285 7.36141 19.04 8.00848 19.4137C8.65555 19.7874 9.20261 20.3121 9.60298 20.943C9.89898 21.413 10.14 21.922 10.319 22.457L10.5 23H13.5L13.681 22.457C13.86 21.921 14.101 21.414 14.397 20.943C14.7974 20.312 15.3447 19.7872 15.9919 19.4135C16.6392 19.0398 17.3673 18.8283 18.114 18.797C18.6735 18.7758 19.2335 18.8218 19.782 18.934L20.343 19.049L21.843 16.451L21.463 16.022C21.0915 15.6031 20.7715 15.1411 20.51 14.646C20.1637 13.9837 19.9829 13.2474 19.9829 12.5C19.9829 11.7526 20.1637 11.0163 20.51 10.354C20.77 9.862 21.089 9.4 21.463 8.978L21.843 8.549L20.343 5.951L19.783 6.066C19.2338 6.17838 18.6731 6.22437 18.113 6.203C17.3664 6.17155 16.6386 5.95995 15.9915 5.58627C15.3444 5.21259 14.7974 4.6879 14.397 4.057C14.0986 3.58282 13.8582 3.07451 13.681 2.543L13.5 2H10.5Z" stroke="#1B1B1B"/>
<path d="M15.502 12.5C15.502 13.4288 15.1331 14.3196 14.4763 14.9763C13.8196 15.6331 12.9288 16.002 12 16.002C11.0713 16.002 10.1805 15.6331 9.52376 14.9763C8.86701 14.3196 8.49805 13.4288 8.49805 12.5C8.49805 11.5713 8.86701 10.6805 9.52376 10.0238C10.1805 9.36701 11.0713 8.99805 12 8.99805C12.9288 8.99805 13.8196 9.36701 14.4763 10.0238C15.1331 10.6805 15.502 11.5713 15.502 12.5Z" stroke="#1B1B1B"/>
</g>
<defs>
<clipPath id="clip0_590_5968">
<rect width="24" height="24" fill="white" transform="translate(0 0.5)"/>
</clipPath>
</defs>
</svg>
