<svg width="312" height="350" viewBox="0 0 312 350" fill="none" xmlns="http://www.w3.org/2000/svg">
<g clip-path="url(#clip0_691_6015)">
<rect width="312" height="350" fill="white"/>
<g clip-path="url(#clip1_691_6015)">
<path fill-rule="evenodd" clip-rule="evenodd" d="M-3.65419 26.5513C12.9668 54.18 62.5615 87.7546 72.3306 88.4963C103.233 90.8422 147.227 96.0322 186.52 97.4255L187.709 97.4666C201.591 97.9326 220.435 97.9788 244.24 97.605C248.936 93.4012 253.318 90.4108 257.386 88.634L257.707 88.4963C259.884 87.5756 265.498 81.7145 279.636 75.6976C283.525 74.0421 295.027 77.742 303.069 74.7957L303.461 74.6489C309.958 72.1703 320.67 65.7369 335.597 55.3488C335.507 55.1068 335.414 54.865 335.319 54.6235C335.672 55.2135 336.019 55.8058 336.362 56.4006C336.704 56.9937 379.776 152.188 331.241 201.106C311.221 241.614 179.348 235.009 94.1496 301.274C-71.2359 310.906 -11.7809 13.0424 -3.65419 26.5513Z" fill="#A4BE7B"/>
<path fill-rule="evenodd" clip-rule="evenodd" d="M272.762 159.378C270.872 156.11 268.977 152.807 265.914 150.487C264.648 149.528 263.085 148.821 261.547 148.402C260.136 148.019 258.625 148.131 257.083 148.406C255.196 148.744 253.376 149.153 251.639 149.924C249.167 151.021 247.079 152.675 245.364 154.731C242.864 157.728 240.823 160.887 242.358 165.118C242.934 166.707 244.963 167.966 246.67 167.691C247.7 167.525 248.782 167.652 249.84 167.688C250.734 167.719 251.631 167.894 252.52 167.852C254.057 167.779 255.585 167.52 257.122 167.464C259.042 167.392 260.966 167.446 262.889 167.446C263.573 167.446 264.275 167.543 264.938 167.425C266.097 167.219 267.3 167.035 268.364 166.567C270.987 165.411 273.844 163.086 272.762 159.378Z" fill="white"/>
<path fill-rule="evenodd" clip-rule="evenodd" d="M107.38 165.097C107.38 165.097 111.902 165.513 117.664 163.241C123.425 160.969 124.862 156.842 124.862 156.842C124.862 156.842 123.624 150.921 122.456 149.532C121.226 148.07 118.92 147.993 117.664 148.586C116.488 149.142 114.073 149.631 112.447 152.188C111.591 153.533 112.094 156.081 110.693 160.032C110.17 161.505 107.38 165.097 107.38 165.097Z" fill="white"/>
<path fill-rule="evenodd" clip-rule="evenodd" d="M45.1544 161.377C45.1544 161.377 58.4732 166.048 65.7146 167.491C72.956 168.935 86.2748 169.574 86.2748 169.574C86.2748 169.574 97.0511 152.877 101.027 142.13C105.003 131.384 107.97 110.931 107.97 110.931C107.97 110.931 96.9358 114.575 93.0283 120.195C89.1209 125.814 92.3717 136.217 86.2748 142.13C79.0666 149.121 67.9519 141.97 58.2307 146.52C48.5095 151.07 45.1544 161.377 45.1544 161.377Z" fill="white"/>
<path fill-rule="evenodd" clip-rule="evenodd" d="M91.5742 205.315C106.143 206.605 158.866 188.387 170.52 175.834C174.168 171.906 177.503 164.093 174.079 160.259C163.736 148.675 118.801 133.47 127.7 112.942C130.672 106.085 149.092 101.205 149.092 101.205C149.092 101.205 152.327 99.5955 152.771 98.8201C153.214 98.0446 151.376 97.2104 151.376 97.2104L170.52 97.5294C170.52 97.5294 170.272 102.284 167.773 104.186C160.863 109.445 152.771 109.445 151.376 117.026C149.428 127.612 168.822 142.473 179.206 148.17C205.556 162.624 217.128 171.827 306.953 177.991C323.53 189.934 289.605 240.788 235.248 213.435C156.964 229.739 79.6314 204.257 91.5742 205.315Z" fill="white" stroke="black" stroke-width="2"/>
<path fill-rule="evenodd" clip-rule="evenodd" d="M221.948 27.0584C230.583 34.8957 255.102 72.1626 259.56 81.487C259.795 81.9793 260.75 85.4752 260.75 85.4752C260.75 85.4752 251.109 87.3957 245.67 89.695C240.232 91.9943 230.579 97.8546 230.579 97.8546C230.579 97.8546 202.794 98.1259 184.638 97.5164C150.117 96.3574 108.628 95.7111 84.0372 89.695C78.6963 88.3883 64.0772 78.3779 59.8746 72.0957C55.3973 65.4029 63.1595 56.1513 71.9587 47.4851C96.5215 23.2936 155.102 -33.6172 221.948 27.0584Z" fill="#FFB61D"/>
<path d="M272.567 34.7701C271.232 35.5066 268.946 34.7692 267.692 35.4231C265.158 36.7439 262.628 34.195 259.978 35.1426C258.286 35.7475 256.626 36.3254 254.866 36.5183C253.631 36.6536 252.427 37.4531 251.202 37.4892C249.503 37.5394 248.106 38.4129 246.775 39.5376C245.535 40.5852 244.417 41.8746 243.204 42.9797C242.768 43.3769 242.226 43.6819 241.703 43.7892C240.926 43.9487 239.027 43.8859 238.236 43.9342C236.849 44.019 235.462 44.1867 234.075 44.1885C232.687 44.1903 213.253 49.7302 211.025 51.1847C210.863 51.2902 210.684 51.3509 210.513 51.4325C210.605 51.2697 210.679 51.0831 210.791 50.948C211.858 49.6558 212.808 48.8175 214.033 47.8647C215.653 46.6044 217.454 45.6819 219.244 44.8636C220.656 44.2187 222.165 43.9258 223.638 43.5234C224.947 43.1658 226.259 42.7955 227.583 42.5712C229.169 42.3026 230.768 42.0896 232.365 42.028C233.678 41.9773 235.008 42.3672 236.311 42.2315C238.223 42.0322 241.232 41.6495 243.105 41.1128C243.803 40.9129 244.574 40.2291 244.988 39.4682C245.81 37.9575 246.955 37.01 248.155 36.3751C249.248 35.7963 250.545 35.8743 251.75 35.6435C252.871 35.4287 253.991 35.202 255.109 34.9553C256.066 34.744 257.047 34.6155 257.965 34.2364C259.183 33.7335 260.339 32.9847 261.543 32.4165C262.178 32.1171 262.892 32.0849 263.509 31.744C265.119 30.854 289.581 24.8484 292.041 25.8818C294.501 26.9152 290.725 29.6825 289.581 29.5685C288.418 29.4526 287.232 29.6757 286.06 29.8069C284.734 29.9555 283.395 30.0499 282.095 30.3845C280.83 30.71 279.593 31.2565 278.369 31.804C277.122 32.3622 275.905 33.0318 274.679 33.6686C274.005 34.0187 273.341 34.4019 272.567 34.7701Z" fill="white"/>
<path d="M209.045 49.8092C208.496 47.8897 210.075 47.006 211.042 45.6604C213.187 42.674 216.216 40.7723 219.509 39.2725C220.937 38.622 222.38 37.9759 223.871 37.5011C225.663 36.9305 227.514 36.5452 229.339 36.0779C229.595 36.0125 229.844 35.8949 230.102 35.8744C230.794 35.8194 231.461 35.2483 231.566 35.1802C231.975 34.9145 232.42 34.5073 232.56 34.0613C232.891 33.0088 233 31.8888 233.297 30.8236C233.839 28.8828 235.348 27.7845 237.033 26.9685C239.102 25.9667 241.225 25.0723 243.352 24.1982C246.029 23.0982 248.739 22.0779 251.426 21.0006C253.93 19.9965 256.375 18.8134 258.94 18.0061C260.194 17.6113 261.661 17.8898 263.032 17.8731C263.083 17.8725 263.134 17.9738 263.185 18.0277C263.095 18.0998 263.016 18.2046 262.913 18.2393C260.168 19.1653 257.403 20.0389 254.678 21.0197C252.798 21.6964 250.979 22.5424 249.115 23.2667C248.336 23.5695 247.48 23.6822 246.712 24.0056C245.103 24.6826 243.538 25.4649 241.936 26.1601C240.758 26.6714 239.518 27.0482 238.362 27.6019C236.796 28.3518 235.152 29.1088 234.638 30.9869C234.446 31.6863 234.716 32.5367 234.451 33.1855C234.081 34.0901 233.547 35.0261 232.832 35.6706C231.359 36.9979 229.477 37.5648 227.561 37.9993C226.395 38.2638 225.266 38.7126 224.092 38.9247C221.726 39.3522 219.553 40.2799 217.468 41.4021C214.59 42.9514 211.773 44.6313 210.209 47.5099C209.784 48.2904 209.607 49.2045 209.306 50.0535C209.274 50.1445 209.17 50.2104 209.1 50.2879C209.099 50.146 209.099 50.0042 209.045 49.8092Z" fill="white"/>
<path d="M207.256 48.7478C207.136 48.2033 207.001 47.7096 207.017 47.2207C207.049 46.2119 207.067 45.1873 207.258 44.2015C207.982 40.4648 210.655 38.1194 213.331 35.7478C215.581 33.7537 217.902 31.8011 219.273 29.0079C219.808 27.9196 219.736 26.8506 219.707 25.6784C219.638 22.8942 218.11 20.946 216.202 19.3387C214.245 17.69 212.023 16.345 209.865 14.9478C207.168 13.2015 204.873 11.1182 203.409 8.19153C202.532 6.43955 202.968 2.95996 204.416 1.621C204.766 1.29696 205.321 1.04264 205.787 1.03479C206.321 1.0258 206.582 1.50496 206.455 2.07518C206.429 2.19324 206.37 2.37034 206.285 2.3991C205.137 2.78808 204.018 5.72849 204.804 6.84268C205.372 7.64841 205.577 8.75091 206.236 9.44324C207.538 10.8101 209.011 12.0213 210.469 13.2297C212.908 15.252 215.462 17.1423 217.833 19.2395C219.608 20.8086 220.88 22.8595 221.385 25.1638C221.64 26.3279 221.412 27.7017 220.856 28.8947C219.726 31.32 217.963 33.192 215.94 34.922C213.546 36.9689 210.897 38.8413 209.374 41.6996C208.69 42.9824 208.227 44.4521 208.006 45.8896C207.833 47.0088 208.196 48.2087 208.298 49.3748C208.312 49.5393 208.193 49.7154 208.136 49.8862C208.002 49.7844 207.833 49.7068 207.742 49.5756C207.574 49.334 207.451 49.0609 207.256 48.7478Z" fill="white"/>
<path fill-rule="evenodd" clip-rule="evenodd" d="M183.128 68.3851V97.2701L214.93 98.3055H224.14V69.5701H226.95L214.741 61.1744C214.741 61.1744 214.741 57.9061 214.478 55.4368C213.852 54.1522 211.965 53.9351 210.743 53.7031C209.521 53.4712 207.708 53.1863 207.708 54.1522C207.708 55.1181 207.708 57.9061 207.708 57.9061L199.43 56.6342L183.128 68.3851Z" fill="white"/>
<path fill-rule="evenodd" clip-rule="evenodd" d="M209.372 98.1245L214.93 98.3055L213.286 66.7989L209.864 64.2881L209.372 98.1245Z" fill="#E7EAEE"/>
<path fill-rule="evenodd" clip-rule="evenodd" d="M187.926 117.519C188.163 116.977 188.703 116.346 188.574 115.913C188.309 115.022 187.871 114.015 187.18 113.447C184.148 110.953 180.922 108.799 176.943 107.991C174.837 107.563 172.932 107.814 171.087 108.817C169.717 109.562 169.603 110.7 170.783 111.638C171.42 112.145 172.058 112.65 172.709 113.137C175.478 115.211 178.548 116.674 181.901 117.502C183.168 117.816 184.476 118.036 185.777 118.117C186.445 118.159 187.138 117.802 187.926 117.519" fill="white"/>
<path fill-rule="evenodd" clip-rule="evenodd" d="M197.283 58.0443C194.415 57.9713 177.424 70.8236 177.045 70.6067C176.665 70.3898 193.23 57.8868 195.633 56.2177C196.88 55.3517 198.173 55.3979 199.482 56.3215C201.306 57.6085 212.602 64.781 214.123 65.4963C215.872 66.3187 226.287 68.7191 225.746 69.3818C225.438 69.557 223.9 69.6945 223.432 69.6324C223.298 69.6146 223.029 69.7354 223.014 69.8248C222.545 72.6129 223.332 95.158 223.441 96.2928C223.461 96.5035 223.676 96.7538 223.87 96.8796C224.661 97.3927 225.532 97.335 226.437 97.3699L226.588 97.3767C228.181 97.4595 229.622 97.1257 230.968 96.4284C232.725 95.5183 234.405 94.4579 236.107 93.4456C237.899 92.3807 239.668 91.2787 241.466 90.2246C243.952 88.7666 246.664 87.8027 249.357 86.8329C250.989 86.2452 252.723 85.923 254.428 85.5598C255.905 85.2453 257.405 85.0412 258.894 84.7891L258.929 84.7862L260.39 84.8224C260.177 84.3796 259.984 83.9262 259.749 83.4958C258.931 81.9991 258.06 80.5304 257.282 79.0135C256.366 77.2263 255.595 75.3631 254.64 73.5982C252.494 69.6331 250.292 65.6979 248.077 61.7703C245.973 58.0376 243.825 54.3289 241.691 50.613C241.411 50.1246 241.087 49.6608 240.802 49.1749C240.73 49.0512 240.727 48.8866 240.692 48.7407C240.817 48.8351 240.975 48.9061 241.062 49.0276C242.121 50.4976 243.226 51.939 244.211 53.4574C246.996 57.7471 249.783 62.0368 252.463 66.3917C253.874 68.6847 255.068 71.1114 256.351 73.4827C257.239 75.1237 258.132 76.7627 258.981 78.4233C259.416 79.2732 259.762 80.1688 260.148 81.0435L260.776 82.4758C261.09 83.1915 261.41 83.9047 261.754 84.6058C261.828 84.7561 262.309 84.8551 262.515 84.7695C264.826 83.8086 267.213 82.9758 269.398 81.7775C272.875 79.8698 276.167 77.6243 279.635 75.6976C281.231 74.8114 283.016 74.1643 284.795 73.745C286.015 73.4573 287.275 73.2427 288.69 73.5729C290.986 74.1084 293.079 75.1069 295.294 75.7884C296.796 76.2506 298.354 76.3041 299.979 76.1795C303.095 75.9404 305.471 74.1186 308.109 72.8547C309.856 72.0177 311.544 71.0553 313.251 70.1372C317.05 68.0948 320.84 66.0361 324.642 64.0015C326.935 62.7748 329.245 61.5807 331.548 60.3721C331.78 60.25 332.003 60.0989 332.249 60.0151L332.499 59.9297C332.721 59.8569 332.956 59.7971 333.036 59.8756L333.121 59.962C333.52 60.3813 333.73 60.8284 332.923 61.232C331.132 62.1282 329.367 63.0771 327.598 64.0182C325.3 65.2409 323.014 66.4842 320.715 67.7053C318.506 68.8791 316.283 70.0282 314.074 71.2023C311.747 72.4391 309.432 73.6986 307.105 74.937C305.627 75.724 304.212 76.7824 302.632 77.1814C301.196 77.5442 299.746 78.2372 298.08 77.7177L297.907 77.6595C295.857 76.9217 293.631 76.6866 291.546 76.0286C289.886 75.5049 288.202 75.1468 286.515 75.2806C284.567 75.4349 282.586 75.7479 280.731 76.34C277.747 77.2926 275.223 79.1418 272.74 81.026L272.01 81.579C269.895 83.1714 267.729 84.6917 265.114 85.4286C264.44 85.6186 263.773 85.8357 263.116 86.0777C263.066 86.0962 255.725 86.3147 247.812 89.0555C240.301 91.6576 232.195 96.7882 232.216 96.8404C232.766 98.2196 268.294 95.7487 269.14 95.8236C270.183 95.9161 271.229 95.9773 272.275 96.0375C272.663 96.0599 273.054 96.0219 273.443 96.0449C274.453 96.1045 275.462 96.19 276.472 96.2497C276.86 96.2726 277.252 96.2347 277.64 96.2571C278.686 96.3172 279.73 96.4019 280.776 96.4621C281.164 96.4845 281.556 96.4466 281.944 96.4695C282.954 96.5291 283.963 96.6136 284.973 96.6747C285.326 96.696 285.682 96.661 286.035 96.6813C287.081 96.7415 288.126 96.8217 289.173 96.8825C289.525 96.903 289.88 96.8729 290.233 96.8933C291.314 96.956 292.393 97.0375 293.474 97.0995C293.827 97.1198 294.183 97.0855 294.536 97.106C295.582 97.1667 296.627 97.248 297.673 97.3091C298.026 97.3297 298.381 97.2977 298.734 97.3181C299.815 97.3805 300.895 97.4621 301.976 97.5242C302.328 97.5444 302.684 97.5273 303.038 97.5273C303.935 97.5273 304.833 97.5052 305.729 97.5369C306.162 97.5522 306.589 97.6993 307.023 97.7337C308.138 97.8222 309.254 97.8856 310.371 97.9492C310.688 97.9673 311.009 97.9362 311.326 97.9548C312.407 98.0181 313.487 98.0981 314.568 98.1614C314.806 98.1754 315.046 98.17 315.285 98.1664L315.524 98.1643C316.386 98.1643 317.251 98.1192 318.109 98.1738C319.835 98.2834 321.556 98.4689 323.282 98.5825C324.821 98.6838 326.363 98.7261 327.904 98.8026C329.197 98.8668 330.489 98.948 331.783 99.0122L333.631 99.1065C334.556 99.1529 335.48 99.1951 336.405 99.2195C338.136 99.2652 339.868 99.259 341.599 99.2883C341.7 99.2901 341.88 99.4005 341.887 99.4729C341.935 99.9911 341.947 100.513 341.97 101.033C341.695 100.997 341.421 100.941 341.145 100.928C339.592 100.85 338.037 100.814 336.487 100.702C335.184 100.608 333.891 100.371 332.588 100.303C331.222 100.232 329.849 100.299 328.48 100.278C328.189 100.273 327.905 100.112 327.611 100.081L325.715 99.8749C324.872 99.7853 324.028 99.7059 323.183 99.6662C321.675 99.5953 320.16 99.6742 318.649 99.6382C318.083 99.6247 317.522 99.4473 316.953 99.3912C316.503 99.3468 316.045 99.39 315.592 99.3643C315.098 99.3362 314.607 99.2701 314.115 99.2265C312.497 99.0833 310.882 98.8831 309.261 98.8174C307.505 98.7461 305.742 98.8266 303.984 98.7888C303.276 98.7737 302.572 98.6167 301.865 98.531C301.392 98.4735 300.917 98.4161 300.442 98.379C299.433 98.3004 298.423 98.2288 297.413 98.1677C297.06 98.1463 296.704 98.1805 296.351 98.1613C295.199 98.0985 294.049 97.9954 292.896 97.9634C292.317 97.9474 291.733 98.1005 291.153 98.0901C290.202 98.0731 289.253 97.9715 288.303 97.932C287.683 97.9063 287.059 97.9559 286.44 97.9212C285.347 97.8599 284.258 97.7418 283.165 97.683C282.5 97.6472 281.832 97.691 281.165 97.6743C280.665 97.6618 280.165 97.578 279.665 97.5871C279.352 97.5928 279.04 97.7114 278.727 97.7794C278.904 97.9296 279.078 98.0827 279.258 98.2294C281.189 99.8064 283.104 101.403 285.056 102.953C287.26 104.705 289.51 106.399 291.716 108.148C293.642 109.674 295.532 111.246 297.443 112.79C298.076 113.302 298.725 113.794 299.369 114.293C299.761 114.598 299.708 114.76 299.29 114.923L299.227 114.946C297.812 115.457 296.437 116.1 294.996 116.518C293.717 116.89 292.368 117.016 291.054 117.277C289.891 117.508 288.742 117.819 287.572 118.009C286.832 118.129 286.064 118.074 285.311 118.127C284.619 118.175 283.925 118.237 283.239 118.341C282.201 118.498 281.174 118.745 280.133 118.864C279.244 118.966 278.34 118.923 277.444 118.976C276.681 119.022 275.916 119.084 275.16 119.19C274.051 119.347 272.954 119.599 271.843 119.717C270.882 119.819 269.905 119.756 268.941 119.83C267.913 119.909 266.894 120.09 265.867 120.178C264.502 120.296 263.132 120.357 261.765 120.464C261.402 120.492 261.047 120.643 260.684 120.662C259.061 120.75 257.436 120.8 255.813 120.889C255.274 120.918 254.741 121.053 254.201 121.089C252.874 121.177 251.546 121.271 250.216 121.3C246.233 121.389 242.249 121.477 238.264 121.505C236.595 121.517 234.92 121.276 233.255 121.337C231.801 121.391 230.389 121.345 228.944 121.136C227.602 120.942 226.206 121.161 224.842 121.073C223.727 121.001 222.627 120.728 221.516 120.574C220.193 120.39 218.863 120.25 217.542 120.059C217.374 120.034 217.082 119.751 217.106 119.688L217.326 119.128C218.028 117.36 218.8 115.635 220.052 114.142C221.595 112.303 223.428 110.852 225.49 109.672L225.772 109.513C226.529 109.093 227.277 108.648 228.066 108.295L229.249 107.761C230.171 107.347 231.101 106.951 232.061 106.659C233.606 106.191 235.218 105.947 236.798 105.593C237.692 105.392 238.573 105.125 239.473 104.959C240.809 104.713 242.161 104.552 243.499 104.315C244.503 104.137 245.504 103.924 246.494 103.678C247.807 103.351 249.118 103.011 250.412 102.616C253.115 101.789 255.764 100.832 258.062 99.1136C258.183 99.0234 258.325 98.9616 258.457 98.8865C258.285 98.7873 258.124 98.6543 257.94 98.5991C257.777 98.5505 257.589 98.5889 257.412 98.5889L255.216 98.5911C254.85 98.591 254.485 98.5902 254.119 98.5881L236.37 98.4791C230.454 98.4434 224.537 98.4108 218.621 98.3882C216.207 98.379 213.793 98.5808 211.379 98.5737C208.08 98.564 204.781 98.4555 201.482 98.3738C199.21 98.3176 196.938 98.2011 194.665 98.1786C193.527 98.1673 192.386 98.3744 191.248 98.3627C188.692 98.3364 186.137 98.2439 183.582 98.1611C181.911 98.107 180.241 97.9746 178.571 97.9673C177.255 97.9616 175.938 98.1426 174.622 98.1489C173.554 98.154 172.485 97.9776 171.417 97.9888C171.195 97.9911 170.736 98.572 170.795 98.7029C171.504 100.281 170.637 101.544 169.873 102.684C168.366 104.934 166.205 106.359 163.582 107.144C162.07 107.596 160.603 108.201 159.129 108.78L158.577 108.996C155.742 110.091 153.475 111.797 152.641 114.883C152.219 116.444 151.964 117.995 152.202 119.686C152.725 123.417 154.559 126.393 156.986 129.09L157.164 129.287C158.488 130.734 159.778 132.23 161.233 133.537C164.203 136.206 167.198 138.856 170.323 141.337C173.378 143.762 176.536 146.077 179.784 148.236C182.584 150.098 185.556 151.706 188.488 153.362C190.374 154.427 192.3 155.429 194.255 156.36C195.898 157.142 197.617 157.761 199.286 158.488C200.762 159.131 202.188 159.894 203.686 160.477C205.756 161.283 207.86 162.009 209.974 162.697C211.882 163.318 213.81 163.888 215.753 164.392C217.415 164.824 219.115 165.107 220.788 165.497C222.949 166 225.093 166.577 227.258 167.059C228.901 167.424 230.562 167.713 232.223 167.991C233.721 168.243 235.227 168.453 236.734 168.648C238.042 168.816 239.354 168.962 240.668 169.07C241.935 169.175 243.209 169.192 244.475 169.297C245.777 169.405 247.072 169.6 248.374 169.703C248.991 169.752 249.618 169.657 250.24 169.66C251.625 169.667 253.01 169.674 254.394 169.722C255.252 169.752 256.106 169.907 256.962 169.917C259.37 169.945 261.778 169.927 264.186 169.927C265.366 169.927 266.55 169.982 267.727 169.912C269.017 169.836 270.33 169.41 271.581 169.562C273.106 169.747 274.532 169.524 276.001 169.307C276.671 169.208 277.373 169.344 278.052 169.28C280.009 169.096 281.959 168.821 283.918 168.666C285.619 168.532 287.332 168.546 289.036 168.427C289.916 168.365 290.782 168.13 291.66 168.024C292.536 167.918 293.423 167.903 294.299 167.796C295.222 167.683 296.146 167.548 297.055 167.352C298.86 166.962 300.669 166.578 302.447 166.087C303.748 165.728 305.003 165.201 306.282 164.757C306.361 164.73 306.516 164.749 306.55 164.802C306.594 164.871 306.594 165.035 306.541 165.089C305.774 165.873 305.039 166.699 304.197 167.395C303.945 167.604 303.549 167.664 303.166 167.704L302.83 167.738C301.736 167.858 300.627 167.863 299.543 168.034C298.442 168.207 297.374 168.585 296.274 168.76C295.158 168.938 294.02 168.971 292.893 169.081C292.342 169.134 291.792 169.207 291.245 169.292C289.927 169.497 288.615 169.751 287.292 169.917C285.832 170.101 284.362 170.2 282.899 170.355C282.045 170.446 281.198 170.604 280.344 170.679C278.912 170.805 277.475 170.879 276.042 170.994C275.644 171.027 275.253 171.157 274.855 171.196L273.274 171.351C272.219 171.454 271.164 171.55 270.108 171.613C269.037 171.677 267.959 171.602 266.885 171.63C264.825 171.684 262.766 171.826 260.706 171.822C258.351 171.818 255.994 171.729 253.641 171.615C251.843 171.527 250.053 171.304 248.255 171.214C246.96 171.148 245.655 171.255 244.36 171.184C243.304 171.126 242.259 170.896 241.205 170.783C240.257 170.681 239.303 170.644 238.353 170.56C237.766 170.509 237.178 170.45 236.6 170.344C235.904 170.217 235.219 170.029 234.527 169.88C233.896 169.745 233.264 169.613 232.628 169.506C231.466 169.31 230.303 169.115 229.136 168.955C228.189 168.826 227.227 168.796 226.287 168.632C225.5 168.494 224.735 168.224 223.96 168.017L220.281 167.03C219.668 166.866 219.054 166.704 218.44 166.543C216.733 166.097 214.999 165.742 213.317 165.22C210.833 164.45 208.384 163.568 205.921 162.734C203.994 162.082 202.048 161.485 200.147 160.764L199.319 160.448C197.939 159.917 196.564 159.352 195.276 158.643L190.897 156.237C187.248 154.229 183.614 152.194 180.084 149.996C176.354 147.673 172.889 144.923 169.348 142.306C165.435 139.415 162.016 135.968 158.67 132.464L158.157 131.923C155.773 129.388 153.549 126.706 152.062 123.515L151.905 123.172C151.371 121.968 150.652 120.701 150.621 119.448C150.552 116.644 151.073 113.944 153.173 111.748C154.838 110.007 156.855 108.86 158.924 107.779L160.278 107.078C162.703 105.82 165.151 104.598 167.511 103.226C168.349 102.739 169.082 101.943 169.638 101.134C170.247 100.249 169.72 99.0605 168.647 98.8239C166.804 98.4174 164.94 98.0493 163.065 97.853C160.478 97.5823 157.874 97.4769 155.276 97.3311C155.05 97.3184 154.697 97.4688 154.597 97.6501C153.214 100.159 151.047 101.718 148.406 102.6C146.36 103.283 144.231 103.714 142.163 104.335C140.616 104.8 139.134 105.491 137.575 105.898C135.485 106.443 133.662 107.51 132.05 108.819L131.589 109.199C129.605 110.862 127.832 112.755 127.336 115.515C126.967 117.571 127.07 119.518 127.686 121.571C128.578 124.549 130.416 126.803 132.436 128.986C133.445 130.077 134.518 131.109 135.586 132.143C138.886 135.339 142.455 138.196 146.19 140.879C150.592 144.041 155.24 146.742 160.052 149.22L161.185 149.799C163.96 151.21 166.751 152.618 169.184 154.629C171.137 156.242 172.91 158.013 174.079 160.259L174.463 161.001C175.072 162.192 175.646 163.459 175.681 164.697L175.7 165.412C175.725 166.536 175.706 167.714 175.359 168.9C174.148 173.039 171.454 176.07 168.44 178.86C165.351 181.719 161.899 184.126 158.204 186.169C156.699 187.002 155.256 187.957 153.712 188.707C152.235 189.425 150.656 189.931 149.135 190.562C147.392 191.285 145.697 192.136 143.921 192.764C141.405 193.654 138.831 194.383 136.287 195.195C134.661 195.714 133.057 196.307 131.418 196.78C129.408 197.36 127.367 197.83 125.349 198.384C124.028 198.747 122.738 199.221 121.412 199.562C119.751 199.99 118.063 200.314 116.395 200.718C114.789 201.108 113.203 201.583 111.592 201.947C109.555 202.407 107.502 202.805 105.452 203.208C103.625 203.568 101.793 203.906 99.9606 204.239C98.3323 204.535 96.7002 204.809 95.0704 205.096C94.6315 205.173 94.1919 205.33 93.7581 205.313C93.5727 205.306 93.4173 204.928 93.2194 204.751C92.9396 204.501 92.6329 204.28 92.3377 204.047C92.7457 203.997 93.1594 203.975 93.5606 203.892C94.8963 203.617 96.223 203.296 97.5618 203.037C99.1314 202.733 100.716 202.507 102.283 202.189C103.416 201.958 104.524 201.6 105.655 201.358C107.137 201.041 108.64 200.819 110.119 200.489C111.2 200.247 112.25 199.872 113.325 199.6C114.111 199.402 114.926 199.314 115.71 199.108C117.015 198.764 118.298 198.333 119.605 197.997C120.913 197.662 122.249 197.433 123.555 197.094C124.925 196.738 126.267 196.276 127.635 195.916C129.205 195.502 130.8 195.185 132.365 194.754C133.288 194.5 134.161 194.067 135.078 193.787C136.654 193.306 138.269 192.946 139.827 192.417C142.09 191.648 144.32 190.783 146.558 189.943L148.08 189.371C149.095 188.989 150.106 188.599 151.105 188.18C155.986 186.129 160.616 183.632 164.73 180.266L165.706 179.466C167.006 178.396 168.293 177.306 169.484 176.123C171.203 174.414 172.693 172.473 173.532 170.17C174.023 168.819 174.454 167.37 174.491 165.954C174.526 164.629 174.145 163.304 173.628 161.972C172.884 160.052 171.78 158.487 170.251 157.307C168.175 155.705 165.926 154.312 163.674 152.956C158.638 149.923 153.44 147.142 148.527 143.923C145.224 141.758 142.205 139.148 139.141 136.63L138.566 136.159C136.555 134.519 134.573 132.819 132.757 130.972C130.246 128.419 127.867 125.761 126.498 122.323C125.82 120.621 125.598 118.975 125.673 117.184C125.839 113.224 128.091 110.55 130.901 108.111C133.573 105.79 136.729 104.495 140.036 103.483C142.075 102.859 144.154 102.365 146.201 101.766C147.967 101.249 149.736 100.725 151.456 100.077C151.99 99.8764 152.585 99.3393 152.771 98.8199C153.158 97.737 152.551 97.214 151.376 97.2103C150.407 97.2072 149.44 96.9778 148.469 96.8972C147.272 96.7979 146.067 96.79 144.874 96.6659C143.793 96.5535 142.728 96.2873 141.647 96.1823C140.549 96.0756 139.439 96.0892 138.335 96.0349C138.141 96.0254 137.954 95.9114 137.759 95.8963C136.464 95.7953 135.164 95.7382 133.871 95.6075C132.717 95.4909 131.574 95.2617 130.419 95.1493C129.36 95.0462 128.291 95.0334 127.227 94.9785C127.09 94.9715 126.955 94.9501 126.819 94.9373C125.467 94.8096 124.111 94.7074 122.763 94.5472C121.614 94.4108 120.478 94.1625 119.328 94.0477C118.3 93.9449 117.259 93.9597 116.224 93.915C116.058 93.9078 115.895 93.8488 115.728 93.8345C114.37 93.718 113.01 93.6258 111.654 93.4872C110.564 93.3759 109.483 93.1826 108.393 93.0764C107.304 92.9703 106.208 92.9372 105.117 92.849C104.859 92.8281 104.611 92.6695 104.354 92.6517C103.085 92.5641 101.81 92.547 100.546 92.4184C99.4327 92.3051 98.3357 92.0274 97.222 91.9149C96.1924 91.8109 95.1498 91.8408 94.1142 91.7862C93.8926 91.7745 93.6799 91.6052 93.4576 91.5904C92.1536 91.5035 90.8475 91.4494 89.5433 91.365C89.1505 91.3396 88.7629 91.234 88.3702 91.2093C88.2886 91.2041 88.1947 91.3941 88.1065 91.4942L88.294 91.556C88.3253 91.5656 88.3569 91.5744 88.3889 91.5814C89.4826 91.8211 90.5859 92.024 91.6688 92.3052C92.9548 92.6393 94.2442 92.9815 95.4959 93.4226C99.9184 94.9811 104.087 97.0246 107.081 100.764C108.214 102.179 108.944 103.937 109.733 105.597C110.146 106.468 110.454 107.456 110.516 108.409C110.613 109.899 110.464 111.405 110.411 112.904C110.376 113.862 110.377 114.826 110.267 115.776C110.161 116.695 109.945 117.603 109.757 118.511L109.241 121.016C108.981 122.267 108.716 123.518 108.428 124.763C108.202 125.743 107.809 126.683 107.56 127.658C107.304 128.654 107.162 129.68 106.916 130.679C106.631 131.834 106.272 132.969 105.972 134.12C105.642 135.382 105.372 136.66 105.022 137.917L104.816 138.653C104.606 139.389 104.382 140.122 104.101 140.829L103.956 141.181C103.755 141.647 103.832 141.666 104.155 141.688L104.26 141.695C106.19 141.833 108.134 141.891 110.043 142.176C111.461 142.389 112.835 142.901 114.226 143.289C115.337 143.598 116.445 143.92 117.554 144.238C117.648 144.265 117.738 144.306 117.83 144.34C117.74 144.377 117.651 144.444 117.561 144.444C116.687 144.452 115.805 144.525 114.941 144.432C113.523 144.28 112.102 144.085 110.711 143.78C109.714 143.562 108.776 143.088 107.786 142.822C107.314 142.694 106.775 142.724 106.28 142.788L105.58 142.877C104.762 142.983 103.944 143.102 103.158 143.324C101.864 143.688 101.235 144.773 100.661 145.852L100.471 146.21C98.8331 149.285 97.2578 152.394 95.6376 155.478C93.8178 158.943 91.975 162.396 90.1451 165.856L89.9975 166.143C89.346 167.447 88.838 168.859 87.4415 169.606C87.1468 169.763 86.7257 169.684 86.3629 169.715C86.3967 169.442 86.3513 169.124 86.4765 168.903C87.8089 166.55 89.1719 164.214 90.5194 161.87C91.7511 159.727 93.0267 157.606 94.1887 155.426C95.963 152.096 97.7332 148.761 99.3587 145.358C100.608 142.742 101.658 140.03 102.748 137.341L103.433 135.655C104.231 133.687 105.017 131.713 105.696 129.704C106.478 127.387 107.052 124.998 107.682 122.63C108.057 121.222 108.483 119.81 108.669 118.372L108.795 117.406C109.064 115.309 109.31 113.198 109.271 111.1C109.237 109.27 108.871 107.358 108.221 105.646C106.821 101.956 104.229 99.1516 100.855 97.1119C98.6321 95.7688 96.3097 94.651 93.7313 94.1016C92.2894 93.7943 90.9091 93.1995 89.4681 92.8853C88.2548 92.6208 86.9954 92.4737 85.7538 92.456C84.0019 92.431 82.2481 92.593 80.4942 92.6376C79.1961 92.6706 77.8938 92.5948 76.5983 92.6626C75.8252 92.7031 75.0616 92.9272 74.2937 93.0687C73.1414 93.281 71.9736 93.4322 70.8399 93.7184C68.4841 94.3132 66.0908 94.8254 63.8122 95.6466C57.9542 97.7578 52.4594 100.63 47.353 104.19C43.8939 106.601 40.6645 109.318 37.8124 112.437C34.7455 115.791 32.1102 119.46 30.3186 123.662C29.6223 125.295 29.0691 126.997 28.5581 128.7C28.1959 129.907 27.8612 131.159 27.7899 132.407C27.7005 133.973 27.9046 135.555 27.959 137.131C27.9866 137.933 27.9086 138.741 27.9798 139.537C28.0469 140.288 28.1904 141.044 28.4023 141.767C28.7028 142.793 29.0856 143.795 29.4529 144.801C31.4769 150.34 34.9412 154.65 40.2988 157.277C41.5118 157.872 42.8247 158.308 44.1363 158.642C45.0207 158.867 45.8209 158.612 46.3491 157.634C48.4297 153.781 51.1598 150.463 54.8648 148.06C56.7453 146.84 58.7257 145.772 60.6788 144.667C62.3067 143.745 64.0843 143.27 65.921 142.948C67.0486 142.751 68.1393 142.265 69.2681 142.174C70.5445 142.07 71.8449 142.263 73.1349 142.325L73.4536 142.326C75.4193 142.397 77.3897 142.584 79.3493 142.504C81.1342 142.432 82.857 142.094 84.5858 141.364C87.0796 140.312 88.3416 138.528 88.978 136.116L89.3761 134.544C89.6101 133.614 89.831 132.681 89.9726 131.737C90.1264 130.713 89.9166 129.635 90.055 128.606C90.2484 127.168 90.5263 125.727 90.9351 124.336C91.2444 123.284 91.7633 122.295 92.1937 121.277L92.3334 120.936C93.2155 118.713 94.7358 116.916 96.3955 115.291C98.3582 113.37 100.597 111.774 103.268 110.896C104.315 110.552 105.328 110.108 106.369 109.747C106.526 109.693 106.756 109.845 106.952 109.902L106.722 110.055C106.683 110.079 106.644 110.104 106.604 110.127L105.9 110.537C102.267 112.658 98.693 114.868 95.8927 118.095L95.6128 118.419C94.5437 119.665 93.5366 120.962 93.1286 122.643C92.8501 123.791 92.2157 124.864 92.0246 126.017C91.7715 127.545 91.8041 129.12 91.6935 130.672C91.6701 131 91.5344 131.319 91.4922 131.647C91.3292 132.916 91.3674 134.245 90.9927 135.446C90.1924 138.011 88.8543 140.299 86.4181 141.668C85.1011 142.409 83.7163 143.139 82.2688 143.505C80.9751 143.832 79.577 143.788 78.2136 143.798L77.9221 143.801C75.2902 143.84 72.6572 143.791 70.0251 143.817C66.6 143.851 63.2249 144.349 60.12 145.803C56.498 147.499 53.2711 149.775 50.7352 152.972C49.0861 155.05 47.5926 157.194 46.7983 159.734C46.4654 160.799 45.5784 160.588 45.0334 160.49L44.4722 160.387C43.1592 160.138 41.8295 159.819 40.6572 159.235C38.7772 158.298 36.9369 157.184 35.3068 155.865C32.4708 153.57 30.1319 150.774 28.7181 147.381C27.8022 145.182 27.0411 142.877 26.5789 140.546C26.2585 138.931 26.5272 137.207 26.4708 135.53L26.4549 135.195C26.3529 133.556 26.6258 131.992 27.0172 130.43L27.0919 130.138C27.6094 128.144 27.9263 126.072 28.6769 124.171C29.3684 122.42 30.4142 120.804 31.3764 119.164L31.5811 118.812C33.5561 115.385 36.0774 112.374 38.9149 109.647C42.5873 106.118 46.6686 103.102 51.0521 100.504L52.8387 99.4412C54.0316 98.7351 55.2326 98.0432 56.4683 97.4219C57.8673 96.7185 59.3449 96.1674 60.8109 95.6009L61.299 95.4112C62.5698 94.914 63.8522 94.4387 65.1529 94.0278C66.9527 93.4593 68.768 92.9367 70.589 92.4398C71.8677 92.0909 73.1552 91.7468 74.4602 91.5288C76.0467 91.2639 77.6589 91.1563 79.2542 90.9385C80.5579 90.7606 81.8534 90.5223 83.1517 90.3055C83.2402 90.2907 83.3214 90.2321 83.406 90.1938C83.3132 90.1613 83.2181 90.0952 83.1281 90.1015C82.2362 90.1637 81.3434 90.3128 80.4542 90.2917C78.9704 90.2566 77.4887 90.1189 76.0068 90.0146C75.705 89.9933 75.4065 89.8923 75.106 89.89C73.4652 89.8773 71.8237 89.9084 70.1834 89.8747C69.2203 89.8549 68.2599 89.7013 67.2967 89.6809C65.6919 89.6469 64.0853 89.6963 62.4805 89.6624C61.5173 89.642 60.557 89.4895 59.5938 89.4685C58.3383 89.4412 57.0819 89.4517 55.8257 89.457L54.8836 89.4593C53.3135 89.4593 51.7409 89.5139 50.174 89.4426C48.848 89.3823 47.5314 89.1183 46.2054 89.0555C45.3548 89.0152 44.4932 89.2481 43.6391 89.2312C42.1156 89.2012 40.595 89.0523 39.0715 88.9974C38.169 88.9648 37.2617 89.0593 36.3597 89.0218C34.8417 88.9586 33.326 88.8394 31.81 88.7348C31.5075 88.7139 31.208 88.6176 30.9067 88.6158C29.0534 88.6044 27.1995 88.6331 25.3467 88.6006C24.3837 88.5837 23.4232 88.4269 22.46 88.407C20.8198 88.3733 19.1783 88.3978 17.5374 88.3978L14.1847 88.3979C13.6259 88.3986 13.0671 88.4 12.5083 88.4026C12.3506 88.4034 12.1932 88.4725 12.0357 88.5099L12.3289 88.6577C12.3775 88.6829 12.4257 88.7087 12.473 88.736C15.8678 90.6903 18.9483 93.0478 21.5912 95.946C23.36 97.8857 24.9765 99.9452 25.9441 102.422C26.3972 103.581 26.8457 104.756 27.1234 105.964C27.2915 106.696 27.056 107.51 27.1319 108.275C27.2322 109.285 27.0458 110.229 26.6833 111.144C25.5655 113.964 23.6671 116.104 21.0896 117.715C19.3468 118.804 17.5211 119.658 15.5145 120.026C13.9477 120.313 12.3462 120.465 10.7536 120.541C9.33255 120.61 7.89387 120.577 6.47923 120.432C5.27066 120.307 4.09036 119.93 2.88807 119.718C1.60168 119.491 0.299526 119.353 -0.986747 119.126C-1.81064 118.981 -2.61174 118.708 -3.4345 118.554C-5.16249 118.229 -6.90321 117.971 -8.62825 117.632C-9.47512 117.466 -10.2958 117.17 -11.1338 116.954L-11.559 116.843C-11.8434 116.771 -12.1298 116.705 -12.4175 116.67L-12.6335 116.65C-13.334 116.607 -13.7498 116.007 -13.453 115.339C-13.4389 115.307 -13.2469 115.337 -13.1445 115.364C-12.2723 115.594 -11.4037 115.838 -10.5303 116.063L-8.39941 116.612C-7.68867 116.793 -6.97703 116.971 -6.26323 117.139C-4.49497 117.556 -2.72411 117.965 -0.943748 118.325C0.126561 118.541 1.20643 118.716 2.28814 118.872L3.78557 119.082C4.77614 119.22 5.76977 119.348 6.76414 119.372C8.1253 119.406 9.4904 119.234 10.855 119.19C11.9051 119.157 12.9605 119.235 14.0071 119.165C14.7104 119.119 15.434 118.986 16.0932 118.742C17.6727 118.158 19.2436 117.537 20.7735 116.835C22.6363 115.979 24.0059 114.467 25.2966 112.953C25.7494 112.422 25.7614 111.443 25.7777 110.664C25.7818 110.469 25.0443 110.174 24.6125 110.068C22.729 109.608 20.8192 109.251 18.945 108.758C17.4561 108.366 16.0123 107.805 14.5346 107.366C13.4418 107.042 12.3189 106.819 11.2232 106.503C9.57712 106.028 8.59856 104.64 8.72647 103.04C8.7283 103.018 8.65415 102.985 8.65837 102.967C8.90604 101.891 8.40742 101.637 7.09765 101.892C5.93403 102.118 4.72263 102.094 3.53437 102.203C2.91686 102.259 2.29636 102.329 1.6902 102.455C0.226333 102.759 -1.21918 103.291 -2.69211 103.373C-4.27442 103.462 -5.87849 103.09 -7.15924 102.01C-8.48214 100.894 -9.75874 99.7225 -11.0439 98.5624C-12.0014 97.6981 -12.9418 96.815 -13.8856 95.9356C-14.0326 95.7987 -14.1568 95.6372 -14.2915 95.4871C-14.0289 95.4818 -13.6802 95.3646 -13.5178 95.4895C-12.4159 96.3362 -11.2276 97.1209 -10.3077 98.1421L-9.6278 98.8976C-8.48905 100.15 -7.2951 101.324 -5.6316 101.791C-4.31135 102.162 -2.85899 102.205 -1.47318 102.162C-0.161642 102.12 1.15121 101.824 2.44264 101.544C3.25684 101.368 4.06919 101.123 4.84179 100.806L5.12958 100.684C6.60487 100.036 8.2833 100.149 9.43373 101.255L9.8264 101.653C10.2072 102.046 10.584 102.51 10.466 103.161L10.4432 103.266C10.4002 103.434 10.4202 103.634 10.3358 103.774L10.1232 104.13C9.76724 104.75 9.84207 104.841 10.6319 105.09L10.8906 105.169C12.526 105.67 14.1522 106.206 15.8042 106.645C17.6113 107.125 19.4533 107.473 21.2608 107.951C22.5383 108.289 23.7859 108.741 25.0424 109.156C25.5604 109.327 26.2131 108.722 26.2552 107.939C26.2964 107.174 26.4057 106.37 26.2303 105.645C25.9809 104.615 25.6432 103.551 25.0904 102.658C22.7403 98.8609 20.0174 95.3339 16.6848 92.345C14.6189 90.4921 8.39736 87.0596 3.51776 86.0351C-1.36184 85.0106 -9.03471 85.589 -10.5303 86.4586C-12.0258 87.3283 -14.2715 88.33 -15.2691 88.5947C-15.3552 88.6176 -15.5533 88.5101 -15.5785 88.4267C-15.863 87.4863 -15.1687 87.0447 -14.5386 86.7188C-13.0517 85.95 -11.5282 85.2451 -9.98898 84.5856C-7.96019 83.7163 -5.75151 83.6039 -3.60655 83.3617C-2.44127 83.2301 -1.20263 83.6831 -0.00550665 83.9157C1.17649 84.1453 2.36319 84.3767 3.51776 84.711C4.14034 84.8913 4.70204 85.2847 5.28759 85.589C7.61341 86.7974 9.85462 86.7444 12.0931 85.2943C12.8008 84.8358 13.7201 84.7182 14.4866 84.3332C17.8397 82.6492 21.1752 80.9302 24.5113 79.2127C27.7611 77.5397 31.0037 75.8527 34.2502 74.1732C34.663 73.9597 35.0899 73.7706 35.4862 73.5305C35.5515 73.4909 35.5553 73.1656 35.4813 73.1075C33.9365 71.8938 32.3935 70.6765 30.8155 69.5065C27.6507 67.1601 24.4184 64.9018 21.3066 62.4878C19.6086 61.1706 18.0082 59.6968 16.5253 58.1401C13.2599 54.712 10.1598 51.1258 6.8731 47.7188C3.99293 44.7332 0.978758 41.8736 -2.06131 39.0498C-2.39372 38.741 -3.53788 38.7732 -3.87965 39.0967C-5.52599 40.6548 -7.02741 42.366 -8.57682 44.0261C-8.73935 44.2003 -8.86629 44.4085 -9.03471 44.5759C-9.13251 44.6731 -9.2801 44.7202 -9.40529 44.7898C-9.41295 44.6515 -9.45011 44.5071 -9.42358 44.3757C-9.21966 43.3649 -9.19968 42.2528 -8.7355 41.377C-8.27452 40.5073 -4.89303 36.9839 -3.1831 36.9839C-1.47318 36.9839 13.7591 52.9059 13.7591 52.9059C16.0708 55.4196 18.4025 57.9151 20.8376 60.3039C24.6004 63.9952 28.6241 67.4163 32.9996 70.3898C35.0507 71.7838 37.3433 72.4504 39.8013 72.2251C40.9749 72.1175 42.0963 71.52 43.2714 71.3291C44.3999 71.1458 45.5676 71.2087 46.7174 71.1497C48.1731 71.075 49.5412 71.4745 50.937 71.8138C52.6211 72.2233 54.222 72.8042 55.7913 73.5274C59.7597 75.3564 63.1539 78.067 66.7313 80.5052C69.5834 82.449 72.4863 84.337 75.4883 86.0351C77.1567 86.9789 79.0382 87.6048 80.89 88.1482C82.468 88.6113 84.1419 88.7455 85.7711 89.0383C86.2716 89.1283 86.7607 89.2817 87.2612 89.3711L88.9531 89.6739C89.7994 89.8235 90.6467 89.967 91.4971 90.0885C93.2113 90.3335 94.9329 90.5276 96.6528 90.7314C98.5124 90.9518 100.373 91.1608 102.234 91.3692C103.545 91.5159 104.857 91.6518 106.168 91.7952C107.444 91.9348 108.716 92.121 109.996 92.2087C111.664 92.3232 113.34 92.3264 115.008 92.4448C115.993 92.5148 116.966 92.7553 117.951 92.8461C119.181 92.9595 120.419 92.9886 121.652 93.0763C121.91 93.0947 122.158 93.2569 122.415 93.2732C123.79 93.3605 125.172 93.3665 126.54 93.5099C127.784 93.6402 129.007 93.9932 130.252 94.0961C131.54 94.2026 132.845 94.1154 134.142 94.1398C134.397 94.1446 134.647 94.3209 134.904 94.3346C136.527 94.4211 138.152 94.4764 139.775 94.5629C140.032 94.5766 140.279 94.7321 140.538 94.7613C141.906 94.9155 143.274 95.1081 144.647 95.176C146.084 95.247 147.528 95.1792 148.968 95.2015C149.294 95.2066 149.615 95.3659 149.943 95.3986C151.489 95.5526 153.034 95.7494 154.584 95.8123C156.34 95.8837 158.102 95.8143 159.861 95.8385C160.328 95.845 160.792 95.9977 161.261 96.0363L163.498 96.2213C164.617 96.3118 165.737 96.3952 166.858 96.4542C168.035 96.5161 169.219 96.4413 170.399 96.4712C172.4 96.5221 174.401 96.6236 176.402 96.6722C177.688 96.7034 178.978 96.712 180.261 96.6472C180.495 96.6354 180.891 96.2257 180.898 95.9912C180.918 95.2445 181.416 71.4381 181.367 70.7228C181.358 70.5924 181.481 70.4527 181.543 70.3173C181.623 70.4357 181.761 70.549 181.772 70.6732C181.859 71.6929 182.348 94.6028 182.351 96.454C182.351 96.5289 182.746 96.6752 182.951 96.6656C183.844 96.6238 210.922 96.7925 212.191 96.7067C212.695 96.6726 213.081 96.5251 213.023 95.8585C212.915 94.6172 213.008 66.7989 213.008 66.7989C213.008 66.7989 201.044 58.1401 197.283 58.0443ZM266.731 97.5707C265.413 97.7404 264.152 98.4222 262.837 98.5334C261.141 98.6768 259.776 99.5478 258.313 100.176C255.987 101.174 253.769 102.424 251.452 103.445C250.437 103.892 249.285 104.023 248.204 104.329C247.723 104.465 246.521 104.746 246.458 104.757L245.029 104.993C244.315 105.114 243.603 105.24 242.895 105.391C241.131 105.765 239.374 106.173 237.62 106.593C236.171 106.941 234.733 107.339 233.284 107.684L232.413 107.885C229.791 108.463 227.346 109.475 225.106 110.92C222.547 112.57 220.303 114.564 218.95 117.386C218.447 118.437 218.715 119.047 219.763 119.185C220.075 119.226 220.385 119.281 220.697 119.325C221.377 119.421 222.056 119.544 222.74 119.602C223.866 119.697 224.996 119.746 226.123 119.822C227.086 119.887 228.046 119.995 229.01 120.025C230.154 120.06 231.3 120.011 232.444 120.038C234.894 120.094 237.342 120.21 239.791 120.231C241.071 120.242 242.352 120.063 243.633 120.042C245.734 120.008 247.835 120.061 249.936 120.025C251.073 120.006 252.21 119.964 253.346 119.917L255.619 119.818C256.913 119.762 258.207 119.706 259.497 119.601C260.834 119.493 262.167 119.332 263.5 119.178C263.793 119.145 264.076 118.997 264.369 118.979C265.85 118.892 267.333 118.838 268.814 118.751C269.071 118.736 269.32 118.563 269.576 118.556C270.589 118.529 271.612 118.619 272.615 118.513C273.649 118.404 274.656 118.038 275.689 117.929C277.138 117.777 278.603 117.79 280.056 117.672C281.02 117.593 281.974 117.407 282.934 117.274C283.617 117.18 284.307 117.128 284.982 116.996C285.694 116.858 286.384 116.594 287.099 116.479C288.724 116.218 290.358 116.011 291.989 115.788C293.101 115.636 294.221 115.535 295.324 115.336C296.074 115.2 296.802 114.942 297.531 114.709C297.587 114.691 297.635 114.367 297.574 114.312C296.856 113.672 296.13 113.042 295.382 112.438C292.492 110.104 289.589 107.789 286.702 105.453C284.365 103.563 282.124 101.543 279.691 99.7874C277.872 98.4751 276.305 98.7163 275.394 100.096L275.146 100.467C274.233 101.818 273.25 103.056 271.79 103.873C271.655 103.949 271.571 104.117 271.464 104.242C271.636 104.339 271.82 104.537 271.977 104.517C272.673 104.429 273.357 104.218 274.053 104.176C274.407 104.155 274.785 104.377 275.128 104.542C275.169 104.562 275.114 104.963 274.999 105.098C272.738 107.756 269.762 109.284 266.509 110.32C265.161 110.749 263.753 110.983 262.388 111.361C261.324 111.655 260.298 112.095 259.229 112.363C258.02 112.665 256.783 112.86 255.554 113.077C254.723 113.224 253.881 113.305 253.051 113.457C251.981 113.653 250.921 113.909 249.85 114.103C249.177 114.225 248.495 114.307 247.812 114.359C246.643 114.447 245.472 114.535 244.3 114.552C242.759 114.575 241.217 114.536 239.676 114.507C239.442 114.503 239.209 114.414 238.975 114.364C239.291 114.272 239.601 114.142 239.924 114.097C240.445 114.023 240.976 114.016 241.5 113.96C242.247 113.88 242.991 113.765 243.739 113.694C244.558 113.616 245.388 113.618 246.2 113.5C247.44 113.32 248.665 113.038 249.904 112.853C250.99 112.691 252.095 112.648 253.177 112.469C254.093 112.317 254.983 112.009 255.896 111.834C257.006 111.622 258.143 111.541 259.242 111.287C260.505 110.994 261.754 110.615 262.982 110.196C264.428 109.703 265.844 109.124 267.276 108.588C268.854 107.997 270.441 107.426 272.01 106.811C272.347 106.679 272.621 106.39 272.925 106.174C272.483 105.981 272.049 105.766 271.594 105.611C271.478 105.571 271.301 105.739 271.144 105.778C270.512 105.937 269.882 106.162 269.24 106.209C268.67 106.25 268.02 106.127 268.056 105.321C268.07 105 268.212 104.479 268.42 104.406C271.305 103.397 273.317 101.359 274.996 98.9275C275.104 98.7716 274.991 98.2286 274.882 98.1964C274.205 97.996 273.506 97.8243 272.804 97.7689C271.899 97.6975 270.983 97.7693 270.073 97.7336C268.956 97.6897 267.819 97.4307 266.731 97.5707ZM214.123 66.7992L214.175 67.5858C214.284 69.3443 214.73 93.4233 214.859 94.8737C214.884 95.1486 215.331 95.6663 215.579 95.7016C216.427 95.8221 221.935 97.0998 221.935 94.8737C221.865 91.5795 222.018 69.1243 221.906 69.094C220.851 68.8099 214.369 66.8509 214.123 66.7992ZM42.6057 72.6466C40.2741 73.3137 37.9604 74.1009 35.7314 75.0532C33.1735 76.146 30.6973 77.4371 28.2198 78.7086C25.3266 80.1936 22.4728 81.7551 19.5967 83.2734C18.7553 83.7176 17.9059 84.1488 17.0429 84.549C15.6378 85.2004 14.2176 85.8191 12.807 86.459C12.6773 86.5178 12.5715 86.6293 12.4546 86.7163C12.5871 86.7815 12.7144 86.888 12.853 86.9054L14.0674 87.0599C14.8772 87.162 15.6877 87.2576 16.5007 87.3203C16.9567 87.3555 17.4284 87.1439 17.8904 87.1546C19.2217 87.1853 20.5521 87.2666 21.8822 87.3393C22.3607 87.3655 22.837 87.428 23.3149 87.4669C24.5486 87.5671 25.7811 87.6958 27.0168 87.7529C28.5349 87.823 30.0559 87.8319 31.6818 87.9735C33.0333 87.9027 34.3874 87.7438 35.7357 87.7832C37.4497 87.8334 39.1569 88.0948 40.8712 88.1659C41.8285 88.2056 42.7972 87.9568 43.7555 87.9901C46.4597 88.084 49.16 88.3313 51.8642 88.3754C54.205 88.4137 56.5486 88.2108 58.8915 88.1953C63.7057 88.1635 68.5205 88.1729 73.3349 88.1954C74.4387 88.2006 75.5415 88.3346 76.6458 88.3883C76.7742 88.3946 76.9091 88.2664 77.041 88.2006C76.9544 88.1249 76.8767 88.0346 76.7799 87.9756C73.7563 86.1329 70.7284 84.2972 67.7063 82.4521C65.1375 80.8837 62.6175 79.2284 60.0096 77.7307L59.1369 77.2377C56.3593 75.6956 53.9285 73.4721 50.6963 72.7959C49.4329 72.5316 48.166 72.1171 46.8957 72.0977C45.4651 72.0759 43.9803 72.2534 42.6057 72.6466Z" fill="#00160A"/>
<path fill-rule="evenodd" clip-rule="evenodd" d="M65.6215 59.5761C67.252 57.3098 68.7395 55.0254 70.4271 52.8996C73.1296 49.4955 75.9419 46.1771 78.7537 42.8614C80.124 41.2455 81.5739 39.6948 83.031 38.1554C85.0608 36.011 87.0284 33.7922 89.2077 31.8082C92.7208 28.61 96.3679 25.5576 99.9896 22.4802C104.088 18.998 108.59 16.0788 113.202 13.346C115.709 11.8604 118.365 10.6174 120.998 9.35552C122.889 8.44902 124.844 7.67225 126.785 6.87437C128.692 6.09064 130.596 5.29145 132.542 4.61538C134.076 4.08251 135.661 3.6805 137.243 3.30431C138.917 2.90602 140.612 2.58866 142.305 2.27036C143.659 2.0158 145.019 1.78727 146.382 1.59428C147.685 1.40994 148.994 1.25796 150.305 1.14436C151.559 1.03566 152.819 0.929518 154.076 0.9388C156.066 0.953492 158.054 1.12406 160.043 1.11657C161.487 1.11114 162.903 1.10876 164.355 1.27143C165.801 1.43338 167.257 1.60396 168.709 1.72632C170.171 1.84956 171.588 2.07027 173.018 2.38088C174.322 2.66411 175.709 2.57439 177.006 2.87682C178.86 3.30907 180.66 3.96918 182.493 4.49436C184.396 5.03931 186.335 5.4684 188.214 6.08357C189.514 6.5095 190.726 7.20058 192.003 7.70827C193.362 8.24852 194.795 8.61833 196.116 9.23349C197.718 9.97945 199.241 10.8961 200.79 11.7536C204.847 13.9994 208.772 16.4501 212.414 19.332C213.564 20.2427 214.695 21.1791 215.83 22.1092C215.994 22.2431 216.187 22.3819 216.27 22.5628C216.416 22.8803 216.487 23.2321 216.59 23.5695C216.319 23.4174 216.014 23.3049 215.782 23.1074C212.269 20.1223 208.391 17.6566 204.479 15.2505C202.666 14.1349 200.739 13.2011 198.845 12.2186C197.84 11.6969 196.818 11.1972 195.768 10.775C193.475 9.85341 191.164 8.97952 188.854 8.10189C187.171 7.46243 185.496 6.79734 183.786 6.2363C181.889 5.61372 179.972 5.04311 178.037 4.5493C176.349 4.11832 174.635 3.77099 172.915 3.49144C171.828 3.31467 170.701 3.38933 169.607 3.24079C168.714 3.11962 167.854 2.73635 166.961 2.64769C165.885 2.5408 164.79 2.63839 163.704 2.61264C163.378 2.6049 163.055 2.42308 162.73 2.41962C160.877 2.39992 159.023 2.43113 157.17 2.40042C156.349 2.38681 155.528 2.19944 154.709 2.21581C153.756 2.23488 152.807 2.41506 151.854 2.48069C150.788 2.55404 149.717 2.55016 148.651 2.63138C147.865 2.69133 147.08 2.80585 146.304 2.94624C145.182 3.14912 144.072 3.41957 142.949 3.61907C142.101 3.76984 141.232 3.80936 140.389 3.9805C139.352 4.1909 138.325 4.46154 137.308 4.75195C136.054 5.10962 134.817 5.52408 133.567 5.89613C132.484 6.21884 131.358 6.42953 130.311 6.84148C126.942 8.16657 123.553 9.4583 120.259 10.9547C115.473 13.1292 110.937 15.7849 106.615 18.7752C103.899 20.6544 101.275 22.6695 98.6467 24.6719C93.381 28.6834 88.7327 33.3732 84.1586 38.1246C81.8219 40.5519 79.6846 43.1771 77.5378 45.7792C75.354 48.4263 73.2206 51.1183 71.1548 53.8581C69.0931 56.5927 67.0913 59.376 65.159 62.2033C63.4541 64.6978 61.8833 67.2837 60.2437 69.823C60.1692 69.9383 59.9998 69.9925 59.8746 70.0751C59.8964 69.9543 59.8897 69.8187 59.944 69.7149C61.04 67.6203 62.1138 65.5132 63.2553 63.4435C63.9728 62.1425 64.7938 60.8987 65.6215 59.5761Z" fill="#00160A"/>
<path fill-rule="evenodd" clip-rule="evenodd" d="M270.375 32.7711C269.04 33.3373 267.832 33.9559 266.577 34.4586C264.043 35.4739 261.532 36.5385 258.882 37.2669C257.191 37.732 255.531 38.1762 253.77 38.3245C252.535 38.4285 251.332 39.0431 250.106 39.0709C248.407 39.1094 247.01 39.781 245.679 40.6456C244.439 41.4509 243.321 42.4422 242.108 43.2917C241.672 43.597 241.13 43.8314 240.607 43.914C239.83 44.0366 239.027 43.9883 238.236 44.0254C236.849 44.0906 235.462 44.2196 234.075 44.2209C232.687 44.2223 231.299 44.0993 229.911 44.0332C229.7 44.0232 229.486 44.0038 229.277 44.0276C228.107 44.1613 226.921 44.2256 225.773 44.469C224.334 44.774 222.923 45.215 221.508 45.6239C220.235 45.9919 218.914 46.2689 217.717 46.8112C215.448 47.8387 213.253 49.0286 211.025 50.1467C210.863 50.2279 210.684 50.2745 210.513 50.3372C210.605 50.2121 210.679 50.0686 210.791 49.9648C211.858 48.9714 212.808 47.7794 214.033 47.047C215.653 46.0781 217.454 45.369 219.244 44.7399C220.656 44.2442 222.165 44.0189 223.638 43.7096C224.947 43.4347 226.259 43.15 227.583 42.9776C229.169 42.7711 230.768 42.6074 232.365 42.56C233.678 42.5211 235.008 42.8208 236.311 42.7165C238.223 42.5633 240.136 42.2691 242.009 41.8565C242.707 41.7028 243.479 41.1771 243.893 40.5922C244.714 39.4309 245.859 38.7025 247.059 38.2145C248.152 37.7695 249.449 37.8295 250.654 37.652C251.775 37.4869 252.896 37.3127 254.013 37.123C254.97 36.9606 255.951 36.8617 256.869 36.5703C258.087 36.1837 259.244 35.6081 260.447 35.1713C261.082 34.9412 261.796 34.9164 262.413 34.6544C264.023 33.9702 265.588 33.1806 267.192 32.4823C268.518 31.9051 269.87 31.3868 271.218 30.8629C273.343 30.0371 275.448 29.1441 277.615 28.4441C278.91 28.0257 280.309 27.9347 281.657 27.6709C282.612 27.484 283.551 27.1345 284.511 27.0754C285.607 27.0079 286.72 27.1556 287.821 27.2593C288.684 27.3406 289.539 27.494 290.397 27.6221C290.836 27.6877 290.794 27.9087 290.477 28.0623C289.507 28.5316 288.533 28.8601 287.389 28.7724C286.226 28.6834 285.04 28.8548 283.868 28.9557C282.543 29.0699 281.203 29.1425 279.903 29.3997C278.638 29.65 277.401 30.07 276.178 30.491C274.931 30.9201 273.713 31.4348 272.487 31.9243C271.813 32.1935 271.15 32.488 270.375 32.7711Z" fill="#00160A"/>
<path fill-rule="evenodd" clip-rule="evenodd" d="M271.066 155.224C271.594 156.177 272.33 157.039 272.465 157.987C272.584 158.814 272.932 159.835 272.111 160.693C271.272 161.571 270.599 162.606 269.839 163.56C268.412 165.349 266.466 165.992 264.26 166.115C262.534 166.21 260.815 166.41 259.091 166.524C257.553 166.625 256.012 166.674 254.472 166.742C252.791 166.815 251.11 166.926 249.428 166.94C248.326 166.948 247.219 166.72 246.121 166.762C243.913 166.845 241.932 166.249 240.534 164.564C239.249 163.017 238.731 161.269 239.205 159.056C240.077 154.984 242.469 152.032 245.401 149.384C246.304 148.569 247.398 147.932 248.48 147.358C249.87 146.621 251.282 145.709 252.783 145.454C254.841 145.105 256.86 144.588 259.112 144.984C262.713 145.617 265.337 147.43 267.471 150.171C268.724 151.781 269.837 153.501 271.066 155.224M271.119 157.188C269.228 153.919 267.333 150.616 264.27 148.296C263.005 147.337 261.441 146.631 259.903 146.212C258.492 145.828 256.981 145.941 255.439 146.216C253.552 146.553 251.732 146.963 249.995 147.734C247.523 148.831 245.435 150.484 243.72 152.541C241.22 155.538 239.179 158.697 240.714 162.928C241.29 164.517 243.319 165.776 245.026 165.5C246.057 165.334 247.138 165.462 248.196 165.498C249.091 165.528 249.987 165.704 250.876 165.662C252.413 165.589 253.941 165.33 255.478 165.273C257.398 165.202 259.322 165.256 261.245 165.256C261.929 165.256 262.631 165.353 263.294 165.235C264.453 165.028 265.657 164.845 266.72 164.376C269.343 163.22 272.201 160.896 271.119 157.188Z" fill="#00160A"/>
<path fill-rule="evenodd" clip-rule="evenodd" d="M108.113 161.7C109.141 160.46 110.232 159.348 111.063 158.067C112.115 156.445 112.206 154.602 111.978 152.675C111.778 150.989 112.413 149.471 113.566 148.162C114.855 146.696 116.558 145.918 118.283 145.188C119.834 144.531 121.395 145.04 122.827 145.594C123.483 145.848 124.024 146.659 124.394 147.339C125.404 149.192 125.919 151.244 126.615 153.225C127.162 154.785 126.711 156.027 125.99 157.108C125.29 158.158 124.168 158.992 123.089 159.706C121.754 160.589 120.326 161.393 118.837 161.969C117.242 162.587 115.531 162.909 113.866 163.341C113.213 163.51 112.551 163.668 111.883 163.757C111.385 163.823 110.87 163.751 110.363 163.774C108.77 163.845 107.178 163.959 105.583 164.007C104.327 164.044 103.069 164.007 101.812 164.002C100.47 163.996 99.128 163.959 97.7875 163.991C96.4364 164.023 95.0871 164.126 93.7367 164.193C93.4544 164.206 93.1695 164.178 92.8884 164.201C92.7131 164.214 92.5425 164.287 92.3699 164.333C92.5122 164.145 92.6167 163.856 92.8029 163.787C93.9335 163.368 95.0854 163.016 96.3193 163.133C96.3544 163.136 96.3902 163.135 96.4253 163.133C97.9089 163.014 99.3917 162.884 100.876 162.779C101.536 162.732 102.2 162.728 102.862 162.718C103.582 162.707 104.303 162.698 105.023 162.713C105.544 162.723 106.115 162.92 106.571 162.764C107.118 162.577 107.568 162.103 108.113 161.7M113.477 151.031C113.465 151.797 113.472 152.564 113.435 153.329C113.382 154.417 113.54 155.595 113.174 156.572C112.416 158.595 111.179 160.379 109.614 161.91C109.379 162.14 109.227 162.454 109.036 162.729C109.411 162.793 109.787 162.913 110.161 162.906C110.605 162.897 111.056 162.812 111.489 162.702C112.811 162.365 114.169 162.113 115.434 161.623C117.969 160.641 120.479 159.582 122.945 158.439C124.261 157.828 125.201 156.748 125.246 155.204C125.272 154.288 125.117 153.367 124.974 152.446C124.728 150.857 124 149.545 123.359 148.157C122.894 147.149 121.984 146.517 121.03 146.425C119.907 146.315 118.683 146.531 117.598 146.893C115.635 147.547 114.219 148.883 113.477 151.031Z" fill="#00160A"/>
<path fill-rule="evenodd" clip-rule="evenodd" d="M208.498 49.8095C207.948 47.8899 208.979 46.4587 209.946 45.1131C212.092 42.1266 215.12 40.2249 218.413 38.7252C219.841 38.0747 221.284 37.4286 222.775 36.9537C224.567 36.3831 226.418 35.9978 228.243 35.5305C228.499 35.4651 228.748 35.3475 229.006 35.327C229.698 35.272 229.396 35.0067 229.134 34.767C227.544 33.3125 225.95 31.8627 224.356 30.4136C223.637 29.7604 222.903 29.1234 222.198 28.4558C221.982 28.252 221.787 27.9915 221.681 27.7188C221.581 27.4594 221.609 27.1502 221.58 26.8629C221.847 26.9635 222.177 26.9956 222.371 27.1751C224.775 29.4059 227.158 31.6603 229.552 33.9021C229.851 34.1814 230.365 34.7009 230.47 34.6329C230.879 34.3671 231.324 33.9599 231.464 33.5139C231.795 32.4614 231.904 31.3415 232.202 30.2762C232.743 28.3354 234.252 27.2371 235.937 26.4211C238.006 25.4193 240.129 24.5249 242.256 23.6508C244.934 22.5508 247.643 21.5305 250.33 20.4533C252.834 19.4492 255.279 18.266 257.844 17.4588C259.098 17.0639 260.565 17.3424 261.936 17.3257C261.987 17.3251 262.038 17.4265 262.089 17.4803C261.999 17.5524 261.92 17.6573 261.817 17.6919C259.072 18.618 256.308 19.4916 253.582 20.4724C251.702 21.149 249.883 21.995 248.019 22.7193C247.24 23.0221 246.384 23.1349 245.616 23.4582C244.007 24.1353 242.442 24.9175 240.841 25.6127C239.662 26.1241 238.422 26.5008 237.266 27.0545C235.7 27.8045 234.056 28.5614 233.542 30.4395C233.35 31.1389 233.62 31.9894 233.355 32.6381C232.985 33.5427 232.451 34.4787 231.736 35.1233C230.263 36.4505 228.382 37.0174 226.465 37.4519C225.299 37.7165 224.17 38.1652 222.996 38.3773C220.63 38.8049 218.457 39.7325 216.372 40.8548C213.494 42.4041 211.225 44.6315 209.661 47.5101C209.236 48.2907 209.059 49.2047 208.758 50.0537C208.726 50.1448 208.622 50.2106 208.552 50.2881C208.551 50.1462 208.551 50.0044 208.498 49.8095Z" fill="#00160A"/>
<path fill-rule="evenodd" clip-rule="evenodd" d="M181.569 120.458C179.958 120.387 178.452 120.254 176.947 120.263C175.402 120.272 173.898 120.129 172.366 119.885C171.108 119.683 169.874 119.612 168.712 118.999C168.115 118.685 167.9 118.388 167.939 117.677C167.996 116.617 167.759 115.543 167.773 114.477C167.809 111.772 168.475 109.269 170.564 107.382C171.545 106.496 172.821 106.187 174.051 105.719C175.979 104.985 177.651 105.824 179.324 106.134C180.995 106.443 182.52 107.598 184.079 108.437C185.305 109.096 186.618 109.687 187.648 110.587C188.558 111.382 189.235 112.507 189.822 113.59C190.272 114.421 190.633 115.412 190.64 116.336C190.647 117.127 190.231 118.017 189.761 118.696C188.957 119.856 187.687 120.155 186.315 120.035C186.175 120.022 186.031 120.021 185.891 120.035C184.485 120.173 183.08 120.316 181.569 120.458M188.474 116.424C188.711 115.882 189.251 115.251 189.122 114.818C188.857 113.927 188.419 112.919 187.729 112.352C184.697 109.858 181.47 107.704 177.491 106.896C175.386 106.468 173.48 106.719 171.635 107.722C170.266 108.467 170.151 109.605 171.332 110.543C171.968 111.049 172.606 111.555 173.258 112.042C176.027 114.115 179.096 115.579 182.449 116.407C183.716 116.72 185.024 116.941 186.325 117.022C186.993 117.064 187.686 116.707 188.474 116.424M187.836 118.759C188.132 118.488 188.428 118.218 188.723 117.947C188.336 117.956 187.948 117.953 187.561 117.979C187.438 117.988 187.314 118.124 187.199 118.113C185.781 117.984 184.353 117.912 182.952 117.675C181.776 117.476 180.576 117.211 179.488 116.74C178.051 116.117 176.689 115.307 175.339 114.503C173.541 113.432 171.691 112.41 170.5 110.578C170.36 110.363 170.098 110.227 169.892 110.054C169.748 110.29 169.53 110.51 169.472 110.765C169.229 111.826 169.009 112.894 168.83 113.968C168.713 114.673 168.616 115.394 168.624 116.106C168.637 117.335 169.508 118.49 170.392 118.544C171.743 118.626 173.141 118.495 174.435 118.805C176.306 119.253 178.169 119.162 180.04 119.169C181.355 119.174 182.67 119.03 183.986 118.975C185.233 118.923 186.482 118.901 187.836 118.759Z" fill="#00160A"/>
<path fill-rule="evenodd" clip-rule="evenodd" d="M206.16 48.7481C206.04 48.2035 205.905 47.7098 205.921 47.221C205.953 46.2121 205.971 45.1875 206.162 44.2017C206.886 40.465 209.559 38.1197 212.235 35.748C214.485 33.7539 216.806 31.8013 218.177 29.0082C218.712 27.9199 218.64 26.8508 218.611 25.6786C218.542 22.8944 217.014 20.9462 215.106 19.3389C213.149 17.6902 210.927 16.3453 208.769 14.948C206.072 13.2018 203.777 11.1184 202.313 8.19177C201.436 6.4398 201.872 2.9602 203.32 1.62124C203.67 1.2972 204.226 1.04288 204.691 1.03504C205.226 1.02604 205.486 1.5052 205.359 2.07542C205.333 2.19349 205.274 2.37058 205.189 2.39935C204.041 2.78833 202.922 5.72874 203.708 6.84292C204.276 7.64866 204.481 8.75115 205.14 9.44349C206.442 10.8103 207.915 12.0215 209.373 13.2299C211.812 15.2522 214.366 17.1425 216.738 19.2397C218.512 20.8088 219.784 22.8597 220.289 25.164C220.545 26.3282 220.316 27.7019 219.76 28.8949C218.63 31.3202 216.867 33.1923 214.844 34.9223C212.45 36.9692 209.801 38.8416 208.278 41.6998C207.594 42.9827 207.132 44.4523 206.91 45.8898C206.737 47.0091 207.1 48.209 207.202 49.375C207.216 49.5395 207.097 49.7157 207.04 49.8864C206.906 49.7846 206.737 49.707 206.646 49.5758C206.478 49.3342 206.355 49.0611 206.16 48.7481Z" fill="#00160A"/>
<path fill-rule="evenodd" clip-rule="evenodd" d="M63.8687 166.318C63.101 166.176 62.444 166.007 61.7771 165.9C60.7417 165.733 59.6867 165.668 58.6636 165.45C57.4238 165.185 56.1993 164.836 54.9855 164.467C53.8878 164.133 52.8127 163.724 51.732 163.337C51.6933 163.323 51.6634 163.128 51.6924 163.108C51.9323 162.941 52.1746 162.692 52.4394 162.66C54.6238 162.395 56.4691 163.655 58.511 164.059C60.211 164.395 61.8737 164.926 63.5781 165.23C64.7292 165.436 65.9255 165.379 67.0985 165.477C67.6422 165.522 68.1793 165.652 68.718 165.751C70.1217 166.008 71.5174 166.325 72.9303 166.513C74.0944 166.668 75.2868 166.609 76.4511 166.763C77.3412 166.881 78.2123 167.164 79.0824 167.408C80.7726 167.881 82.4564 168.377 84.1419 168.868C84.247 168.898 84.3435 168.958 84.444 169.005C84.3479 169.029 84.2495 169.081 84.1561 169.074C83.1431 168.988 82.1268 168.924 81.1194 168.792C79.9313 168.637 78.7525 168.412 77.5668 168.237C76.9365 168.144 76.3004 168.09 75.6663 168.023C74.2737 167.878 72.8736 167.783 71.4901 167.577C70.2842 167.398 69.1053 167.036 67.8992 166.861C66.6779 166.683 65.4373 166.639 64.2065 166.522C64.1236 166.514 64.0519 166.389 63.8687 166.318Z" fill="#00160A"/>
<path fill-rule="evenodd" clip-rule="evenodd" d="M197.511 63.2386C199.315 62.5985 203.19 65.551 201.931 68.5778C200.477 72.0735 195.969 71.4075 194.773 69.8964C192.527 67.0592 194.078 64.4563 197.511 63.2386ZM195.415 65.9521C193.154 68.1142 196.944 70.6402 198.626 70.0752C203.085 68.5774 200.264 61.3147 195.415 65.9521Z" fill="#00160A"/>
<path fill-rule="evenodd" clip-rule="evenodd" d="M205.556 53.4841C205.556 50.2883 212.478 52.8527 213.065 53.7788C213.211 54.0106 213.513 62.8143 212.998 61.5761C212.448 60.1908 212.828 54.6063 212.227 54.222C210.28 53.2611 207.926 52.7648 207.001 53.0919C205.402 53.4663 207.104 60.2331 206.096 59.0871C206.038 58.887 205.984 58.6852 205.919 58.4873C205.846 58.2646 205.556 55.0334 205.556 53.4841Z" fill="#00160A"/>
<path fill-rule="evenodd" clip-rule="evenodd" d="M235.532 41.4762C235.06 41.3933 234.556 41.4344 234.351 41.2066C233.375 40.1183 232.478 38.959 231.559 37.8197C231.413 37.6385 231.3 37.4311 231.171 37.2358C231.608 37.173 232.209 36.9 232.45 37.088C233.092 37.5881 233.641 38.2441 234.114 38.9174C234.683 39.7276 235.136 40.6196 235.532 41.4762Z" fill="#00160A"/>
<path fill-rule="evenodd" clip-rule="evenodd" d="M209.613 54.0922C209.637 53.8203 210.31 54.4248 210.327 54.6424C210.424 55.8598 210.894 61.2287 210.457 60.663C210.209 60.1403 209.983 58.6886 209.874 58.115C209.765 57.5414 209.613 55.8866 209.613 54.0922Z" fill="#00160A"/>
<path fill-rule="evenodd" clip-rule="evenodd" d="M220.099 79.2909C220.085 80.5226 220.127 81.7541 220.099 82.9854C220.082 83.7135 218.128 84.0025 217.268 83.5684C216.406 83.1332 216.676 79.794 216.628 79.2909C216.476 77.7123 216.415 76.1207 216.173 74.5566C216.014 73.5268 215.909 72.2868 216.399 72.1283C218.182 71.5522 219.767 73.7713 219.689 73.8494C219.894 75.4458 220.101 79.1161 220.099 79.2909ZM217.474 75.7651C217.545 76.0538 217.635 81.0841 217.759 82.8776C217.779 83.1755 218.93 83.1755 219.18 82.6542C219.419 81.2167 218.92 76.0787 218.93 74.3639C218.932 74.0891 218.585 73.6968 218.301 73.5568C217.365 73.095 217.197 73.2252 217.268 74.2619C217.298 74.6949 217.403 75.1226 217.474 75.7651Z" fill="#00160A"/>
<path fill-rule="evenodd" clip-rule="evenodd" d="M157.504 104.915C157.786 104.806 158.103 104.946 158.212 105.228C158.321 105.51 158.181 105.827 157.899 105.936C145.351 110.781 145.351 120.263 158.114 134.883C169.526 147.956 190.868 160.05 222.132 171.136C222.417 171.237 222.566 171.55 222.465 171.835C222.364 172.12 222.05 172.269 221.765 172.168C190.34 161.025 168.849 148.846 157.288 135.603C144.093 120.488 144.093 110.092 157.504 104.915Z" fill="#E7EAEE"/>
<path d="M178.689 168.895C178.787 168.61 179.099 168.458 179.385 168.557C179.671 168.656 179.823 168.968 179.724 169.253C177.289 176.291 172.842 182.155 166.395 186.837C159.969 191.503 149.354 195.726 134.534 199.525C134.241 199.6 133.942 199.423 133.867 199.13C133.792 198.837 133.969 198.539 134.262 198.464L135.292 198.197C149.451 194.499 159.608 190.411 165.75 185.951C172.019 181.399 176.328 175.717 178.689 168.895Z" fill="#64E1FC"/>
<path fill-rule="evenodd" clip-rule="evenodd" d="M179.298 174.889C179.366 174.595 179.661 174.412 179.956 174.481C180.25 174.549 180.434 174.844 180.365 175.138C178.167 184.551 173.49 191.287 166.341 195.306C159.279 199.277 151.667 201.978 143.509 203.408C143.211 203.46 142.927 203.261 142.875 202.963C142.823 202.665 143.022 202.382 143.32 202.329C151.356 200.921 158.85 198.262 165.804 194.352C172.671 190.491 177.167 184.016 179.298 174.889Z" fill="#E7EAEE"/>
<path fill-rule="evenodd" clip-rule="evenodd" d="M213.591 174.338C213.661 174.044 213.957 173.863 214.252 173.934C225.075 176.538 234.656 177.992 242.994 178.297L243.62 178.318C251.948 178.57 263.979 177.905 279.704 176.323C280.005 176.292 280.274 176.512 280.304 176.813C280.335 177.113 280.115 177.382 279.814 177.412L277.447 177.646C262.441 179.102 250.946 179.684 242.954 179.392C234.537 179.084 224.885 177.619 213.995 174.999C213.701 174.928 213.52 174.632 213.591 174.338Z" fill="#E7EAEE"/>
<path fill-rule="evenodd" clip-rule="evenodd" d="M133.512 109.94C133.759 109.766 134.101 109.826 134.275 110.073C134.449 110.321 134.389 110.662 134.142 110.836C131.096 112.975 129.499 115.137 129.297 117.308C129.092 119.505 130.321 122.535 133.019 126.358C133.193 126.605 133.134 126.947 132.887 127.121C132.64 127.295 132.298 127.236 132.123 126.989C129.289 122.972 127.971 119.724 128.205 117.206C128.442 114.663 130.228 112.246 133.512 109.94Z" fill="#00160A"/>
<path fill-rule="evenodd" clip-rule="evenodd" d="M134.691 112.453C134.867 112.33 135.108 112.372 135.231 112.547C135.355 112.722 135.312 112.964 135.137 113.087C132.983 114.6 131.852 116.13 131.709 117.666C131.564 119.22 132.434 121.363 134.343 124.068C134.466 124.243 134.424 124.485 134.249 124.608C134.074 124.731 133.832 124.69 133.709 124.515C131.704 121.673 130.771 119.375 130.937 117.594C131.105 115.794 132.369 114.084 134.691 112.453Z" fill="#00160A"/>
<path fill-rule="evenodd" clip-rule="evenodd" d="M334.497 536.909C320.394 491.359 278.313 436.005 270.024 434.783C243.803 430.915 206.475 422.358 173.135 420.061L172.126 419.994C160.347 419.225 144.359 419.149 124.16 419.765C120.176 426.696 116.458 431.626 113.006 434.556L112.734 434.783C110.886 436.301 106.123 445.964 94.1272 455.883C90.8267 458.613 81.0673 452.513 74.2442 457.37L73.9113 457.612C68.3991 461.699 59.3101 472.305 46.6443 489.432C46.721 489.831 46.7996 490.229 46.8799 490.628C46.5809 489.655 46.2861 488.678 45.9952 487.698C45.7052 486.72 -54.2816 332.754 -13.0996 252.105C14.982 197.111 177.421 201.106 267.245 217.287C518.521 83.987 341.392 559.181 334.497 536.909Z" fill="#F7E1AE" stroke="black" stroke-width="2"/>
<path fill-rule="evenodd" clip-rule="evenodd" d="M334.497 593.928C320.394 548.377 278.313 493.024 270.024 491.801C243.803 487.934 206.475 479.377 173.135 477.08L172.126 477.012C160.347 476.244 144.359 476.168 124.16 476.784C120.176 483.715 116.457 488.645 113.006 491.574L112.734 491.801C110.886 493.319 106.123 502.982 94.1271 512.902C90.8266 515.631 81.0672 509.531 74.2441 514.389L73.9111 514.631C68.399 518.717 59.31 529.324 46.6442 546.45C46.7209 546.849 46.7994 547.248 46.8798 547.646C46.5808 546.673 46.286 545.697 45.9951 544.716C45.705 543.738 -54.2816 389.773 -13.0996 309.124C14.982 254.13 104.173 263.518 185.516 273.92C486.217 211.508 341.392 616.199 334.497 593.928Z" fill="#C1F4FF" stroke="black" stroke-width="2"/>
<path fill-rule="evenodd" clip-rule="evenodd" d="M334.497 610.879C320.394 565.329 278.313 509.976 270.024 508.753C243.803 504.885 206.475 496.329 173.135 494.032L172.126 493.964C160.347 493.196 144.359 493.12 124.16 493.736C120.176 500.667 116.457 505.597 113.006 508.526L112.734 508.753C110.886 510.271 106.123 519.934 94.1271 529.854C90.8266 532.583 81.0672 526.483 74.2441 531.341L73.9111 531.583C68.399 535.669 59.31 546.276 46.6442 563.402C46.7209 563.801 46.7994 564.2 46.8798 564.598C46.5808 563.625 46.286 562.649 45.9951 561.668C45.705 560.69 -54.2817 406.725 -13.0997 326.075C14.9819 271.081 167.159 269.101 232.001 298.719C484.207 241.161 341.392 633.151 334.497 610.879Z" fill="#64E1FC" stroke="black" stroke-width="2"/>
</g>
</g>
<defs>
<clipPath id="clip0_691_6015">
<rect width="312" height="350" fill="white"/>
</clipPath>
<clipPath id="clip1_691_6015">
<rect width="330" height="413" fill="white" transform="translate(-3)"/>
</clipPath>
</defs>
</svg>
