<svg width="49" height="21" viewBox="0 0 49 21" fill="none" xmlns="http://www.w3.org/2000/svg">
<path fill-rule="evenodd" clip-rule="evenodd" d="M48.0562 18.8873C48.0562 15.8976 47.7316 14.5977 44.2466 12.966C37.1038 10.011 37.1038 9.8971 23.42 4.48212C19.8012 3.05751 12.1719 6.47022 8.85434 5.03998C6.64261 4.08649 4.57436 3.37848 2.7471 2.43286C2.57016 3.61551 1.42635 5.61782 1.02344 5.96202C3.1632 6.42163 5.23305 7.13239 7.23298 8.09431C11.5563 10.1737 8.99439 9.60707 15.8422 16.2168C16.4226 16.7769 18.5551 18.054 21.6387 19.3844C21.6387 19.3844 27.8485 18.5308 30.3391 17.4705C32.8738 16.3914 36.7145 12.966 36.7145 12.966C36.7145 12.966 41.194 15.9571 43.7692 17.3016C44.9745 17.9309 48.0562 18.8873 48.0562 18.8873Z" fill="#D3F1FA"/>
<path fill-rule="evenodd" clip-rule="evenodd" d="M2.55812 0.952455C2.29783 0.819953 2.00023 0.906491 2.05702 1.19452C2.23555 2.09989 2.41161 3.14536 1.94815 4.19039C1.47667 5.25351 0.735491 5.86733 0.378336 6.16745C0.153872 6.35607 0.24454 6.72223 0.530683 6.78269C2.67431 7.2356 4.74784 7.93599 6.75178 8.88407L7.04265 9.02277C8.0444 9.50458 8.6189 9.82749 9.03839 10.1414C9.28447 10.3256 9.48766 10.5141 9.70615 10.7569L9.74141 10.7972C9.98875 11.086 10.916 12.2469 11.3408 12.7419L11.4578 12.8776C12.4433 14.0144 13.6854 15.3042 15.3925 16.9251L15.4403 16.9692C16.223 17.6734 18.592 18.9722 21.3757 20.1536C21.5538 20.2292 16.5045 17.0124 15.8726 16.4125L15.6719 16.2214C12.6803 13.2987 11.2933 10.6253 9.39038 9.24585C8.40924 8.53458 8.22104 8.51888 7.04942 7.96457C5.24746 7.11204 3.19367 6.62931 1.28077 6.16745C1.28077 6.16745 1.38871 6.07108 1.44738 5.99927C1.73817 5.64336 2.10045 5.23988 2.37678 4.62447L2.41242 4.5446C2.80719 3.65444 2.8542 2.65457 2.83002 1.83004L2.82631 1.7343L2.84718 1.74491C4.47796 2.55748 6.25183 3.37262 8.16886 4.19039L8.40924 4.29262C9.23004 4.64069 10.2552 4.88658 11.5541 4.80206L11.6546 4.79519C12.542 4.73152 13.2885 4.62473 14.8538 4.35112L16.0223 4.14484C19.3166 3.57062 20.9651 3.48102 22.3235 3.99238C22.3235 3.99238 42.581 11.6644 45.1754 12.7797C46.7533 13.5064 47.2886 14.1902 47.9412 15.2981C48.4774 16.2085 48.0756 19.6622 48.2677 19.6833C48.4599 19.7044 48.6326 19.5647 48.6535 19.3712L48.6827 19.0971C48.8876 17.1376 48.8888 16.2811 48.5935 15.2981C48.1919 13.9611 47.2168 12.9451 45.4628 12.1373L44.9798 11.9224C42.8132 10.961 41.0924 10.2392 39.3076 9.53797L39.1769 9.4867C38.9768 9.4083 38.774 9.32942 38.567 9.24945L38.3641 9.17157C38.1217 9.08523 28.2268 5.11181 22.6172 2.92825C21.7707 2.60047 20.7457 2.4915 19.4886 2.55686L19.3803 2.56289C18.4386 2.6187 17.5122 2.74742 15.9937 3.01194L14.6595 3.24719C13.1696 3.50684 12.4477 3.60918 11.6049 3.66965C10.3582 3.75909 9.40263 3.94936 8.68089 3.6433C6.44483 2.69508 4.40387 1.89203 2.55812 0.952455Z" fill="#00160A"/>
</svg>
