<svg width="26" height="34" viewBox="0 0 26 34" fill="none" xmlns="http://www.w3.org/2000/svg">
<path d="M1.04837 25.1666L1.04838 25.1663C1.05907 24.8729 1.06903 24.5813 1.07898 24.2904C1.0933 23.8712 1.10759 23.4533 1.12391 23.0331C1.12905 22.9008 1.13848 22.7896 1.14878 22.668C1.15667 22.5748 1.16509 22.4755 1.17248 22.3559C1.2893 20.4662 1.51303 18.6066 1.98996 16.801C2.37239 15.3532 2.87779 13.9433 3.49313 12.5642C4.19263 10.9965 5.04396 9.52031 6.02692 8.11422C6.52472 7.40214 7.06871 6.71553 7.64769 6.06597L7.27443 5.73328L7.64769 6.06597C8.3572 5.26995 9.07321 4.49669 9.84887 3.80508C10.7414 3.00924 11.7045 2.28053 12.6866 1.55474L12.3907 1.15442L12.6866 1.55474C12.7221 1.52852 12.7998 1.49154 12.9056 1.47029C12.9692 1.4575 13.0242 1.45418 13.0661 1.45564C12.1807 2.24075 11.7615 3.2431 11.6972 4.37016C11.68 4.67334 11.6856 4.97458 11.6908 5.25435L11.6909 5.25915C11.6962 5.54661 11.7011 5.81207 11.6865 6.07338C11.5764 8.05715 12.1581 9.86326 12.9862 11.5435C13.7957 13.1861 14.9925 14.5726 16.7315 15.3851C17.5713 15.7775 18.4619 16.0673 19.3144 16.3446C19.436 16.3842 19.5568 16.4235 19.6766 16.4628C20.2212 16.6416 20.7885 16.7986 21.3419 16.9518C21.6548 17.0384 21.9633 17.1238 22.2609 17.2112L22.3797 16.8067L22.2609 17.2112C23.0884 17.4543 24.0591 17.7316 25.1151 17.3797L24.957 16.9054L25.1151 17.3797C25.1194 17.3783 25.1233 17.3771 25.1268 17.3762C25.1259 17.3863 25.1231 17.4006 25.1158 17.4191C25.017 17.6689 24.9213 17.917 24.8266 18.1627C24.2712 19.6036 23.7478 20.9613 22.811 22.0986C22.1385 22.915 21.3591 23.6722 20.5247 24.3293C19.3096 25.2864 17.9044 25.9749 16.4457 26.6774C15.7981 26.9893 15.1574 27.3148 14.5222 27.6374C14.4568 27.6706 14.3915 27.7038 14.3263 27.7369C13.625 28.0929 12.9292 28.444 12.2253 28.7747C10.6297 29.5244 9.01138 30.2309 7.3857 30.9354C6.08018 31.5012 4.761 32.0397 3.43611 32.5756C3.16545 32.6851 2.87094 32.7647 2.57249 32.8157C2.56213 32.8135 2.5386 32.8078 2.49982 32.7924C2.42375 32.7623 2.32856 32.7106 2.22956 32.6421C2.1313 32.5741 2.042 32.4983 1.97472 32.4278C1.90931 32.3593 1.88655 32.3186 1.88287 32.3121C1.88238 32.3112 1.88223 32.3109 1.88236 32.3113C1.55909 31.4581 1.34136 30.5863 1.25157 29.6867C1.19345 29.1044 1.11562 28.526 1.02666 27.9497L1.02937 27.8874C1.06398 27.0907 1.07844 26.3161 1.08801 25.5457C1.0893 25.442 1.0602 25.3579 1.02661 25.2955C1.03854 25.2568 1.04663 25.2138 1.04837 25.1666ZM0.598542 25.6457L0.600864 25.6455L0.598542 25.6457Z" fill="white" stroke="black"/>
<path d="M6.66624 27.2325C6.66622 27.2325 6.66593 27.2321 6.66541 27.2313L6.66624 27.2325Z" fill="#E7EAEE" stroke="black"/>
<path d="M10.5117 15.2187C10.5158 15.4181 10.5063 15.6256 10.4914 15.8436C10.4791 15.721 10.4718 15.6153 10.4748 15.5141C10.4778 15.4108 10.4904 15.3105 10.5117 15.2187ZM10.5935 14.9884C10.5935 14.9884 10.5935 14.9884 10.5935 14.9884L10.5935 14.9884ZM10.4864 14.8566L10.4864 14.8566L10.4864 14.8566Z" fill="#E7EAEE" stroke="black"/>
<path d="M13.6037 18.4709C13.6031 18.4703 13.6028 18.4699 13.6028 18.4699C13.6028 18.4699 13.6031 18.4702 13.6037 18.4709Z" fill="#E7EAEE" stroke="black"/>
<mask id="path-5-inside-1_691_6720" fill="white">
<path fill-rule="evenodd" clip-rule="evenodd" d="M18.5666 20.4316C18.0992 19.9772 17.6313 19.563 17.2129 19.1012C16.9953 18.861 17.0361 18.5557 17.2977 18.3265C17.5585 18.098 17.7217 18.3113 17.8719 18.4852C18.4405 19.1433 19.001 19.8088 19.5621 20.4737C19.5939 20.5114 19.6275 20.6063 19.6195 20.6118C19.5278 20.6754 19.4092 20.7924 19.334 20.7694C19.077 20.6909 18.8345 20.5619 18.5666 20.4316Z"/>
</mask>
<path fill-rule="evenodd" clip-rule="evenodd" d="M18.5666 20.4316C18.0992 19.9772 17.6313 19.563 17.2129 19.1012C16.9953 18.861 17.0361 18.5557 17.2977 18.3265C17.5585 18.098 17.7217 18.3113 17.8719 18.4852C18.4405 19.1433 19.001 19.8088 19.5621 20.4737C19.5939 20.5114 19.6275 20.6063 19.6195 20.6118C19.5278 20.6754 19.4092 20.7924 19.334 20.7694C19.077 20.6909 18.8345 20.5619 18.5666 20.4316Z" fill="#E7EAEE"/>
<path d="M18.5666 20.4316L17.8694 21.1485L17.9847 21.2606L18.1293 21.331L18.5666 20.4316ZM17.2129 19.1012L16.4718 19.7726L16.4718 19.7726L17.2129 19.1012ZM17.2977 18.3265L16.6387 17.5744L16.6386 17.5744L17.2977 18.3265ZM17.8719 18.4852L18.6287 17.8315L18.6287 17.8315L17.8719 18.4852ZM19.5621 20.4737L20.3264 19.8288L20.3264 19.8288L19.5621 20.4737ZM19.6195 20.6118L20.189 21.4338L20.1894 21.4336L19.6195 20.6118ZM19.334 20.7694L19.6263 19.8131L19.6263 19.8131L19.334 20.7694ZM19.2638 19.7147C18.7507 19.2158 18.3449 18.8613 17.954 18.4298L16.4718 19.7726C16.9177 20.2648 17.4478 20.7385 17.8694 21.1485L19.2638 19.7147ZM17.954 18.4298C18.0176 18.5 18.09 18.6439 18.0689 18.8252C18.0498 18.9891 17.9683 19.0685 17.9567 19.0787L16.6386 17.5744C16.3654 17.8138 16.1327 18.1604 16.0823 18.5943C16.0298 19.0456 16.1906 19.4622 16.4718 19.7726L17.954 18.4298ZM17.9567 19.0787C17.9288 19.1031 17.825 19.1849 17.6472 19.2158C17.4543 19.2492 17.2867 19.2037 17.1759 19.1478C17.1262 19.1227 17.0918 19.0978 17.073 19.083C17.0633 19.0753 17.0562 19.069 17.0518 19.0651C17.0475 19.0612 17.0452 19.0588 17.0451 19.0587C17.045 19.0586 17.0464 19.0601 17.0497 19.0636C17.053 19.0672 17.0574 19.0721 17.0635 19.0791C17.0798 19.0976 17.0885 19.108 17.1152 19.139L18.6287 17.8315C18.6074 17.8069 18.5375 17.7234 18.4659 17.6511C18.3922 17.5768 18.2614 17.4553 18.0766 17.3621C17.8737 17.2598 17.6069 17.1929 17.3054 17.2452C17.0189 17.2949 16.797 17.4357 16.6387 17.5744L17.9567 19.0787ZM17.1152 19.139C17.6792 19.7917 18.2356 20.4523 18.7978 21.1186L20.3264 19.8288C19.7665 19.1653 19.2018 18.4949 18.6287 17.8315L17.1152 19.139ZM18.7978 21.1186C18.7391 21.049 18.7083 20.9906 18.7003 20.9754C18.6881 20.9522 18.68 20.9334 18.6744 20.9189C18.6701 20.908 18.6585 20.8777 18.6472 20.8317C18.6431 20.8148 18.6283 20.754 18.6228 20.6721C18.6204 20.6351 18.6159 20.5429 18.6373 20.4273C18.6517 20.3497 18.7188 20.0196 19.0496 19.7901L20.1894 21.4336C20.5212 21.2035 20.589 20.8719 20.6037 20.7923C20.6256 20.6747 20.6211 20.5798 20.6184 20.5396C20.6126 20.4513 20.5962 20.3819 20.5895 20.3547C20.5732 20.2882 20.5527 20.2308 20.5371 20.1907C20.5161 20.1369 20.4518 19.9775 20.3264 19.8288L18.7978 21.1186ZM19.05 19.7899C18.9997 19.8247 18.9506 19.8634 18.9337 19.8765C18.9058 19.8981 18.9038 19.8991 18.9085 19.896C18.9086 19.8959 18.9593 19.8599 19.0443 19.8279C19.1214 19.7988 19.3457 19.7273 19.6263 19.8131L19.0416 21.7257C19.3599 21.823 19.6272 21.7456 19.7505 21.699C19.8818 21.6495 19.982 21.5846 20.0326 21.5502C20.0878 21.5127 20.1373 21.474 20.1599 21.4565C20.1933 21.4305 20.1934 21.4308 20.189 21.4338L19.05 19.7899ZM19.6263 19.8131C19.4658 19.764 19.3213 19.6867 19.0038 19.5323L18.1293 21.331C18.3478 21.4372 18.6882 21.6177 19.0416 21.7257L19.6263 19.8131Z" fill="black" mask="url(#path-5-inside-1_691_6720)"/>
</svg>
