<svg width="11" height="12" viewBox="0 0 11 12" fill="none" xmlns="http://www.w3.org/2000/svg">
<path fill-rule="evenodd" clip-rule="evenodd" d="M4.94235 10.2513C4.94235 10.2513 4.19241 10.7697 3.83676 9.79154C3.4811 8.8134 3.25761 8.12319 3.25761 8.12319C3.25761 8.12319 2.49263 7.35575 2.09312 7.35575C1.69362 7.35575 0.384572 6.45149 0.518906 5.74079C0.653239 5.03008 2.20084 5.11088 2.64078 5.11088C3.08072 5.11088 2.74725 4.0298 2.74725 3.70167C2.74725 3.37354 3.26388 0.586258 4.49213 1.00337C5.72039 1.42049 6.38652 2.15371 5.8974 3.42507C7.17782 3.36372 8.34356 2.77408 8.49306 5.27795C8.39078 6.19789 8.41491 6.4099 8.97672 7.09167C9.53852 7.77344 9.76722 8.79956 9.29999 9.14858C8.83275 9.49761 8.07298 9.63152 7.81935 9.79154C7.56572 9.95155 7.43086 10.3 7.43086 10.8753C7.43086 11.4505 6.54875 10.4484 6.54875 10.4484L5.72039 9.56529L4.94235 10.2513Z" fill="white" stroke="#1B1B1B"/>
</svg>
