<svg width="66" height="77" viewBox="0 0 66 77" fill="none" xmlns="http://www.w3.org/2000/svg">
<path fill-rule="evenodd" clip-rule="evenodd" d="M52.8914 40.8303C52.6855 40.5868 52.4796 40.3432 52.264 40.1093C51.5989 39.3876 50.7836 38.7296 49.8134 38.5831C49.7111 38.5677 49.6076 38.558 49.5041 38.5484C49.2955 38.5289 49.0872 38.5095 48.8896 38.4426C48.6253 38.3533 48.3957 38.184 48.1831 38.0033C47.895 37.7585 47.6175 37.4825 47.3394 37.2058C46.5211 36.3919 45.6976 35.5727 44.5866 35.5296C43.4167 35.4842 42.3182 36.5342 42.3103 37.7055C42.3037 38.6881 42.94 39.5436 43.5465 40.3165L54.0963 53.7594L60.6373 62.0941C61.4818 63.1702 62.5917 64.3614 63.9465 64.1738C65.164 64.0052 65.9817 62.5759 65.6347 61.3963C65.5014 60.943 65.2387 60.5473 64.9755 60.1508C64.746 59.805 64.516 59.4587 64.3711 59.0729C64.1403 58.4584 64.1423 57.7984 64.1444 57.1355C64.146 56.6281 64.1476 56.119 64.0448 55.6272C63.817 54.5377 63.0991 53.6228 62.3689 52.783C61.9738 52.3286 61.5549 51.6555 61.9327 51.1866C62.3822 50.6286 62.1578 49.8046 61.8739 49.1465C60.9626 47.034 59.6393 45.1003 58.0005 43.486C57.2989 42.7948 56.2778 42.1219 55.4 42.5683C55.0299 42.7564 54.5875 42.5254 54.2651 42.2638C53.7499 41.8459 53.3208 41.3383 52.8914 40.8303ZM60.6185 49.5801C60.6884 49.9375 60.6216 50.3414 60.3616 50.5963C60.2977 50.6589 60.218 50.7132 60.1286 50.7168C59.9759 50.723 59.8603 50.5864 59.7703 50.4629L55.6828 44.8582C55.5256 44.6427 55.6353 44.3074 55.8642 44.1705C56.0932 44.0336 56.3928 44.0659 56.6305 44.1871C56.8682 44.3083 57.0565 44.506 57.2368 44.7027C58.3352 45.9015 59.3191 47.2053 60.1707 48.5905C60.3614 48.9007 60.5486 49.2228 60.6185 49.5801Z" fill="white"/>
<path fill-rule="evenodd" clip-rule="evenodd" d="M53.2346 73.4411C53.2346 73.4411 52.4846 73.9594 52.129 72.9812C51.7733 72.0031 51.5498 71.3129 51.5498 71.3129C51.5498 71.3129 50.7849 70.5455 50.3854 70.5455C49.9859 70.5455 48.6768 69.6412 48.8111 68.9305C48.9455 68.2198 50.4931 68.3006 50.933 68.3006C51.373 68.3006 51.0395 67.2195 51.0395 66.8914C51.0395 66.5632 51.5561 63.776 52.7844 64.1931C54.0126 64.6102 54.6787 65.3434 54.1896 66.6148C55.47 66.5534 56.6358 65.9638 56.7853 68.4677C56.683 69.3876 56.7071 69.5996 57.2689 70.2814C57.8307 70.9632 58.0594 71.9893 57.5922 72.3383C57.125 72.6873 56.3652 72.8212 56.1116 72.9812C55.8579 73.1413 55.7231 73.4898 55.7231 74.065C55.7231 74.6402 54.841 73.6381 54.841 73.6381L54.0126 72.755L53.2346 73.4411Z" fill="white"/>
<path d="M42.7873 41.5206C43.6396 50.6204 44.3496 59.7334 44.9172 68.8552C44.9842 69.933 45.0251 71.1026 44.4081 71.9902C43.9941 72.5857 43.3387 72.965 42.6847 73.281C40.2917 74.4371 37.6542 74.9948 35.0246 75.3898C27.8558 76.4665 20.5156 76.4016 13.367 75.1982C11.9525 74.9601 10.5173 74.6676 9.27009 73.961C8.02291 73.2544 6.97506 72.0614 6.78819 70.6436C5.23205 58.8369 4.36099 46.9405 4.18082 35.0337C4.16777 34.1711 4.13742 33.2438 3.61898 32.5531C3.05737 31.8048 2.0539 31.5158 1.41955 30.8277C0.325262 29.6407 0.736911 27.6136 1.88503 26.4782C3.03314 25.3429 4.6807 24.8922 6.26336 24.5607C10.8871 23.592 15.6463 23.2676 20.3593 23.6C20.4984 23.979 19.9265 24.1916 19.5217 24.192C15.094 24.1973 10.6667 24.5587 6.29711 25.2714C4.6959 25.5326 2.95014 25.9318 1.98018 27.2283C6.39245 28.6779 11.123 28.7606 15.7686 28.7961C24.0727 28.8595 32.4362 28.8099 40.5895 27.238C41.3154 27.0981 42.1023 26.9081 42.5524 26.3235C43.0026 25.7389 42.7905 24.6562 42.0562 24.5708C35.7732 23.8403 29.4254 23.6645 23.1114 24.0462C22.6238 24.0756 21.9057 23.7832 22.1444 23.3583C27.9361 23.084 33.7469 23.2113 39.5209 23.739C41.0714 23.8807 42.7044 24.0835 43.945 25.0214C45.2617 26.0167 45.9177 27.8073 45.5545 29.4143C45.1913 31.0212 43.8283 32.3583 42.2107 32.6946" fill="white"/>
<path fill-rule="evenodd" clip-rule="evenodd" d="M20.898 23.1742C21.1068 17.44 21.9577 11.656 20.9943 5.99955C20.8885 5.37822 20.7594 4.75542 20.5102 4.17653C20.0892 3.19864 19.3219 2.37406 18.377 1.88391C18.0868 1.73343 17.764 1.59922 17.587 1.32441C17.4101 1.04959 17.4993 0.58418 17.8219 0.531738C19.1438 0.743162 20.2219 1.77589 20.8182 2.9747C21.4145 4.17352 21.6022 5.52952 21.7393 6.86146C22.2205 11.5358 22.181 16.2635 21.6216 20.9291C21.4313 22.5167 21.1875 24.1711 21.7173 25.6798C21.5575 25.6415 21.3977 25.6033 21.238 25.5651C20.8606 24.8432 20.8683 23.9882 20.898 23.1742H20.898Z" fill="#E7EAEE"/>
<path fill-rule="evenodd" clip-rule="evenodd" d="M19.4473 22.1018C19.4021 21.9274 19.468 21.718 19.6285 21.635C19.6808 21.7437 19.733 21.8523 19.7853 21.961C19.6761 22.0282 19.5669 22.0954 19.4578 22.1626L19.4473 22.1018Z" fill="#E7EAEE"/>
<path fill-rule="evenodd" clip-rule="evenodd" d="M19.9226 13.9014C19.7681 15.8617 19.7038 17.8281 19.7301 19.7934C19.7352 20.1782 19.7484 20.5798 19.9482 20.9181C20.007 21.0177 19.8561 21.1328 19.7371 21.1023C19.6182 21.0719 19.5466 20.963 19.4932 20.8609C18.7696 19.4766 19.2267 17.847 19.1943 16.3121C19.1732 15.3131 18.9413 14.2837 19.2802 13.3341C19.3487 13.1423 19.6837 13.1567 19.8165 13.3177C19.9493 13.4787 19.9385 13.7 19.9226 13.9014L19.9226 13.9014Z" fill="#E7EAEE"/>
<path fill-rule="evenodd" clip-rule="evenodd" d="M44.3133 68.8666C44.3491 69.3669 44.3837 69.8803 44.2389 70.3607C43.9659 71.2672 43.1207 71.8705 42.2944 72.3368C38.4728 74.4935 33.996 75.1922 29.6098 75.4071C23.1908 75.7216 16.7254 75.0767 10.4963 73.5006C9.18567 73.1689 8.1902 72.0511 7.66192 70.8104C7.13366 69.5696 7.0001 68.2031 6.8726 66.8613C5.80358 55.6102 4.73357 44.3394 4.72086 33.038C16.5611 35.3812 28.8744 35.3232 40.6919 32.8684C41.4386 32.7132 41.8895 33.7032 41.8478 34.4624C41.8408 34.591 41.8293 34.7231 41.8178 34.8564V34.8565V34.8565C41.7612 35.5107 41.7019 36.1957 42.143 36.6491L42.2107 32.6946C43.8283 32.3583 45.1913 31.0212 45.5545 29.4143C45.9177 27.8073 45.2617 26.0167 43.945 25.0214C42.7044 24.0835 41.0714 23.8807 39.5209 23.739C33.7469 23.2113 27.9361 23.084 22.1444 23.3583C21.9057 23.7832 22.6238 24.0756 23.1114 24.0462C29.4254 23.6645 35.7732 23.8403 42.0562 24.5708C42.7905 24.6562 43.0026 25.7389 42.5524 26.3235C42.1023 26.9081 41.3154 27.0981 40.5895 27.238C32.4362 28.8099 24.0727 28.8595 15.7686 28.7961C11.123 28.7606 6.39245 28.6779 1.98018 27.2283C2.95014 25.9318 4.6959 25.5326 6.29711 25.2714C10.6667 24.5587 15.094 24.1973 19.5217 24.192C19.9265 24.1916 20.4984 23.979 20.3593 23.6C15.6463 23.2676 10.8871 23.592 6.26336 24.5607C4.6807 24.8922 3.03314 25.3429 1.88503 26.4782C0.736911 27.6136 0.325262 29.6407 1.41955 30.8277C1.71218 31.1451 2.08336 31.3776 2.45347 31.6094C2.88568 31.8801 3.31644 32.15 3.61898 32.5531C4.13742 33.2438 4.16777 34.1711 4.18082 35.0337C4.36099 46.9405 5.23205 58.8369 6.78819 70.6436C6.97506 72.0614 8.02291 73.2544 9.27009 73.961C10.5173 74.6676 11.9525 74.9601 13.367 75.1982C20.5156 76.4016 27.8558 76.4665 35.0246 75.3898C37.6542 74.9948 40.2917 74.4371 42.6847 73.281C43.3387 72.965 43.9941 72.5857 44.4081 71.9902C45.0251 71.1026 44.9842 69.933 44.9172 68.8552C44.3496 59.7334 43.6396 50.6204 42.7873 41.5206C42.7294 40.9023 42.6502 40.2361 42.2278 39.7796L44.3133 68.8666ZM3.13598 31.4216C1.97471 30.582 1.1719 29.0883 1.56133 27.712C2.97183 28.36 4.47046 28.8169 6.00323 29.0665C7.15716 29.2543 8.32678 29.3248 9.49446 29.3847C19.7645 29.911 30.1093 29.6309 40.2472 27.9115C41.7754 27.6523 43.5361 27.1767 44.122 25.746C44.5315 26.6281 44.8972 27.5525 44.9558 28.5226C45.0144 29.4928 44.7243 30.5254 43.9975 31.1733C43.3419 31.7578 42.4367 31.9568 41.5735 32.1252C30.246 34.3358 18.5084 34.9305 7.15766 32.8414C5.74696 32.5817 4.29725 32.2612 3.13598 31.4216ZM7.10848 65.7604C7.38966 65.6864 7.64644 65.9104 7.86959 66.1052L7.90005 66.1317C9.06716 67.1466 10.9169 67.2583 12.1959 66.3912C11.01 66.4601 9.78838 66.5243 8.66586 66.1328C7.63264 65.7725 6.6705 64.887 6.65545 63.7851C6.54635 55.7977 6.00279 47.8164 5.02803 39.8889C4.9949 39.6195 4.96899 39.3189 5.1321 39.1029C5.39457 38.7552 5.93009 38.8614 6.34045 39.002L9.3783 40.043C9.81437 40.1925 10.2598 40.3469 10.6217 40.634C11.5012 41.3313 11.6595 42.5896 11.746 43.7141C12.2871 50.7482 12.6769 57.7942 12.9151 64.8454C12.9417 65.6316 12.9228 66.5268 12.3415 67.0517C12.0825 67.2856 11.7422 67.4098 11.4003 67.474C10.4528 67.652 9.48188 67.4068 8.55535 67.1391C7.85498 66.9368 7.00004 66.4866 7.10848 65.7604ZM9.30132 65.7587C10.2589 65.9328 11.3254 66.0055 12.1274 65.4502C12.4237 61.1058 12.1249 56.745 11.8261 52.4008L11.2217 43.6131C11.1747 42.9298 11.1148 42.2084 10.7237 41.6482C10.2723 41.0015 9.48043 40.7092 8.73814 40.4532L5.61127 39.3748C6.585 47.3279 7.16233 55.3303 7.34035 63.3418C7.35365 63.9407 7.3824 64.5901 7.76141 65.0516C8.12891 65.4991 8.73414 65.6555 9.30132 65.7587ZM22.518 67.488C23.5034 67.5447 24.4829 67.7024 25.436 67.9578C25.6606 68.0179 25.9025 68.3387 25.6803 68.4068C25.6443 68.4179 25.6056 68.4137 25.5681 68.4093L21.04 67.8874C20.1371 67.7833 19.7527 66.7107 19.5634 65.8255C18.8189 62.3456 18.0722 58.8494 17.8639 55.2975C17.8187 54.5252 17.7989 53.7516 17.7792 52.9783L17.4975 41.9245C17.6718 41.7839 17.9525 41.8863 18.0752 42.0733C18.1978 42.2603 18.2064 42.4968 18.2111 42.7201L18.2786 45.9438C18.4187 52.6375 18.5661 59.3906 20.1157 65.9055C20.1939 66.2341 20.2809 66.5731 20.4913 66.838C20.9356 67.3976 21.7478 67.444 22.4677 67.4851L22.518 67.488ZM41.1299 66.2787C41.8944 65.2763 41.8834 63.9046 41.8386 62.6453L41.2845 47.0637C41.2601 46.3784 41.2357 45.6927 41.1686 45.0103C41.0444 43.7467 40.7734 42.4976 40.3629 41.296C40.2579 40.9887 40.1359 40.6723 39.897 40.452C39.6582 40.2317 39.2685 40.1405 39.0049 40.3306C39.0158 40.4787 39.1572 40.568 39.2875 40.6503C39.3057 40.6618 39.3237 40.6731 39.3411 40.6845C39.6754 40.9029 39.8785 41.2703 40.0452 41.6329C41.2921 44.3448 41.2002 47.4413 41.1113 50.4358V50.4358C41.1068 50.5862 41.1023 50.7363 41.0981 50.8861C40.9842 54.872 41.0381 58.8626 41.2596 62.844L41.2609 62.8673C41.3018 63.6014 41.3436 64.3528 41.1296 65.0559C40.7789 66.2078 39.7654 67.0746 38.6351 67.4934C37.5047 67.9121 36.2658 67.9363 35.0642 67.8387C34.8417 67.8206 34.613 67.7966 34.4154 67.6927C34.207 67.5831 34.0522 67.394 33.9228 67.1975C33.2689 66.2046 33.1432 64.9655 33.0631 63.7797C32.9285 61.7839 32.8705 59.7787 32.8126 57.7741C32.6857 53.3802 32.5588 48.9889 31.6239 44.705L31.6123 44.6518C31.4414 43.87 31.2592 43.0363 31.5625 42.2984C32.0555 41.0988 33.5647 40.7216 34.8623 40.6778C35.0364 40.6719 35.2127 40.6684 35.3901 40.6649C36.5347 40.6425 37.7216 40.6192 38.6148 39.9375C39.0623 39.596 39.7453 39.7504 40.1536 40.1377C40.5619 40.5251 40.7564 41.0818 40.9119 41.6224C41.7654 44.5903 41.8624 47.715 41.9537 50.8016L42.3027 62.6024C42.3425 63.9496 42.2608 65.5433 41.1299 66.2787ZM34.2266 41.1475C33.511 41.1911 32.7145 41.2729 32.2457 41.8145C31.7123 42.4307 31.8385 43.3574 31.9958 44.1567L32.0037 44.1967C32.4796 46.6146 32.9568 49.0388 33.1536 51.4951C33.2905 53.2046 33.2925 54.9326 33.2945 56.6583C33.2984 59.956 33.3022 63.2457 34.2473 66.3838C34.3387 66.6875 34.4641 67.0191 34.7487 67.1598C34.943 67.2559 35.1713 67.2408 35.3874 67.2235L37.1357 67.0834C37.7618 67.0333 38.4031 66.9793 38.9732 66.7158C39.5432 66.4523 40.0366 65.9316 40.085 65.3062C40.5333 59.5035 40.6976 53.679 40.5771 47.8603C40.5339 45.7734 40.4394 43.6229 39.5628 41.728C39.4536 41.4919 39.3252 41.2522 39.1135 41.1008C38.8043 40.8796 38.3909 40.8936 38.0113 40.9168L34.2266 41.1475ZM50.603 70.4223C50.1512 70.3151 49.7308 70.082 49.4034 69.757L50.7276 69.8185C50.9792 69.8302 51.2666 69.8281 51.4358 69.6442L49.1545 69.2043C49.1275 69.0989 49.0586 69.0045 48.9658 68.9458C49.0864 68.7432 49.3302 68.639 49.5672 68.6144C49.7477 68.5957 49.9288 68.6153 50.1098 68.635H50.1098H50.1099H50.1099H50.11L50.1636 68.6407L50.2138 68.646C50.2359 68.6482 50.2579 68.6503 50.28 68.6522C50.995 68.7149 51.7264 68.585 52.3741 68.2802C52.5343 68.3961 52.5659 68.6193 52.551 68.8146C52.5474 68.8614 52.542 68.9084 52.5366 68.9555L52.5366 68.9557L52.5366 68.9558C52.5193 69.1053 52.5021 69.2552 52.5435 69.3984C52.5979 69.5868 52.8089 69.7513 52.99 69.6705C53.0549 69.5107 52.9967 69.3376 52.9402 69.1697L52.9402 69.1697L52.9402 69.1696L52.9266 69.129C52.9195 69.1077 52.9127 69.0865 52.9063 69.0655C52.8455 68.8662 52.8579 68.5961 53.0529 68.5163C53.118 68.4897 53.1914 68.4914 53.2614 68.4997C53.3179 68.5064 53.3747 68.5171 53.4315 68.5278C53.5774 68.5553 53.7233 68.5828 53.8637 68.5427C54.0588 68.487 54.1908 68.2047 54.0258 68.0879C53.9702 68.0486 53.8986 68.0412 53.8305 68.035L52.4359 67.9082C52.1776 67.8847 51.8857 67.8717 51.6942 68.044C51.522 68.199 51.2436 68.2246 51.0452 68.1037L50.9499 67.916C50.531 67.8294 50.0997 67.9479 49.6887 68.0653C49.3803 68.1534 49.0534 68.2529 48.8458 68.4943C48.5288 68.8628 48.615 69.4496 48.9146 69.832C49.2143 70.2144 49.674 70.4366 50.1241 70.628C50.4419 70.7632 50.7987 70.9253 50.9082 71.2489L50.9153 71.2707C50.9298 71.3158 50.9448 71.3626 50.9828 71.39C51.0271 71.4219 51.1109 71.3937 51.1 71.3407C51.2381 70.9732 50.9896 70.5141 50.603 70.4223ZM28.4177 47.135C28.2484 52.672 28.395 58.2185 28.8564 63.739C28.9961 65.4095 29.0867 67.3125 27.9112 68.5139C27.8649 68.5614 27.8139 68.6089 27.7498 68.6265C27.5862 68.6713 27.4344 68.4885 27.439 68.3198C27.4432 68.163 27.5332 68.0245 27.6196 67.8917L27.639 67.8618C28.7933 66.075 28.476 63.7967 28.1787 61.6625C28.1532 61.4797 28.1279 61.2981 28.1037 61.1179C27.6041 57.4005 27.6927 53.6414 27.7812 49.8861V49.8861L27.7812 49.886C27.8044 48.9036 27.8275 47.9215 27.8401 46.9405C27.8576 45.5776 27.8468 44.1728 27.3212 42.9141C26.9767 42.0892 26.3724 41.3232 25.5285 41.0175C24.919 40.7967 24.2499 40.8347 23.6025 40.8755L17.8698 41.2371C17.6597 41.2503 17.4388 41.267 17.2631 41.3824C16.9162 41.6103 16.896 42.1001 16.9137 42.5132C17.2415 50.1397 17.8639 57.7503 18.4862 65.3587C18.5638 66.3078 18.732 67.4062 19.5625 67.8802C19.9056 68.076 20.3103 68.1273 20.7031 68.1747L24.6021 68.6456C24.9158 68.6835 25.2674 68.7429 25.449 69C23.4532 69.2672 21.3969 69.0764 19.4852 68.4466C19.0346 68.2981 18.5662 68.1065 18.2892 67.7231C18.0225 67.354 17.9815 66.8745 17.9496 66.4211L16.2862 42.8081C16.2556 42.374 16.2304 41.9134 16.4364 41.5295C16.7339 40.9751 17.4109 40.7557 18.03 40.6297C19.8986 40.2497 21.8227 40.2659 23.7298 40.2836C24.4624 40.2904 25.2139 40.3007 25.896 40.5665C27.0705 41.0239 27.8505 42.1835 28.1793 43.3943C28.4972 44.5649 28.4591 45.7964 28.4216 47.0097V47.0097L28.4177 47.135ZM22.026 27.3329C21.5116 26.7733 20.7181 26.5932 19.9711 26.5642C19.04 26.528 18.1023 26.6842 17.2296 27.0208C17.1371 27.6141 16.5886 27.9973 16.0898 28.3078C16.5113 28.4292 16.9683 28.4161 17.3826 28.2708L17.4621 27.6288C17.4855 27.4398 17.5182 27.2324 17.6594 27.1096C17.8536 26.9407 18.1456 27.0148 18.3866 27.0977C18.6283 27.1808 18.918 27.3305 18.9095 27.5932C18.9062 27.6961 18.8548 27.7864 18.8034 27.8768C18.7825 27.9135 18.7616 27.9502 18.7438 27.9878C18.6825 28.1181 18.6776 28.3095 18.8036 28.3732C18.9558 28.375 19.0536 28.2131 19.1253 28.0746C19.3054 27.7263 19.5224 27.3883 19.8263 27.1484C20.1302 26.9085 20.5341 26.7782 20.9036 26.8811C21.273 26.984 21.577 27.3577 21.539 27.7505C21.3077 27.7428 21.108 27.9063 20.9316 28.061L20.4384 28.4935C20.6854 28.4801 20.9236 28.4095 21.1622 28.3387C21.3133 28.2939 21.4646 28.2491 21.6184 28.2186C22.0615 28.131 22.5267 28.1659 22.9528 28.3188C22.6746 28.1949 22.4901 27.9416 22.3045 27.6867C22.2155 27.5644 22.1261 27.4417 22.026 27.3329ZM52.4083 73.8474C51.7574 72.8004 51.333 71.618 51.1713 70.4012C51.6182 70.5151 51.8489 71.0049 51.9227 71.4531C51.9434 71.5784 51.9569 71.7061 51.9705 71.8337L51.9705 71.8338C52.0055 72.1624 52.0404 72.491 52.1959 72.7801C52.4117 73.1814 52.9947 73.4424 53.3404 73.1415C53.4262 73.0668 53.4911 72.9644 53.5549 72.8637C53.6589 72.6993 53.7601 72.5395 53.9451 72.5117C54.1745 72.4773 54.3615 72.6812 54.5002 72.8642L55.3517 73.9875C55.5747 73.9211 55.5893 73.6845 55.6048 73.4339C55.6143 73.2796 55.6242 73.12 55.6832 72.9915C55.8194 72.6946 56.1553 72.6467 56.5053 72.5968C56.7509 72.5618 57.0035 72.5258 57.1989 72.402C57.55 72.1797 57.644 71.6902 57.5135 71.3001C57.383 70.91 57.0779 70.6024 56.7619 70.3339C56.304 69.9447 56.3845 69.3128 56.4659 68.6734C56.544 68.0604 56.6229 67.4406 56.2289 67.0217C55.679 66.437 54.7003 66.7483 53.9726 67.0979L53.6629 66.7438C54.2567 66.5272 54.3642 65.6608 53.9773 65.1678C53.5903 64.6748 52.9058 64.5058 52.2725 64.5029C52.1807 64.5025 52.0812 64.5076 52.0105 64.5652C51.7909 64.7443 52.1009 65.0588 52.3659 65.1627L53.6602 65.6704C53.3611 65.8731 52.9662 65.7531 52.5829 65.6366C52.167 65.5102 51.7648 65.388 51.5135 65.6865C51.2312 66.0219 51.5289 66.5441 51.9118 66.7626C52.0598 66.8471 52.2206 66.9106 52.381 66.974C52.6354 67.0746 52.8887 67.1747 53.0871 67.357C52.8294 67.4861 52.5366 67.3918 52.2514 67.3C52.1791 67.2768 52.1072 67.2536 52.0365 67.2343C51.6871 67.139 51.1811 67.2578 51.1856 67.6144C50.8266 67.2182 50.9213 66.6098 51.0383 66.0918C51.1693 65.5114 51.3111 64.9097 51.6845 64.4421C52.0579 63.9744 52.7344 63.684 53.2836 63.9326C53.7518 64.1446 53.971 64.645 54.1799 65.122C54.2121 65.1955 54.2441 65.2685 54.2767 65.3398C54.5208 65.8734 55.0068 66.4385 55.589 66.3179C56.1174 66.2084 56.646 66.6015 56.8669 67.0861C57.0879 67.5707 57.0752 68.1227 57.0585 68.6536C57.0418 69.1854 57.2835 69.6731 57.5244 70.1592L57.5245 70.1593C57.6055 70.3227 57.6864 70.4859 57.7573 70.6506C58.0394 71.3052 58.1141 72.1851 57.5394 72.6164C57.3447 72.7626 57.1076 72.83 56.8699 72.8976C56.7605 72.9287 56.651 72.9599 56.5454 72.9988C56.2104 73.1221 55.8719 73.3973 55.9001 73.748C55.9039 73.794 55.9139 73.8399 55.924 73.8855C55.941 73.9628 55.9579 74.0397 55.9436 74.1167C55.9033 74.334 55.6229 74.4372 55.4072 74.3756C55.1915 74.314 55.03 74.1421 54.8801 73.9776L53.9287 72.9335C53.663 73.4946 53.0373 73.8708 52.4083 73.8474ZM52.2639 40.1091C51.5988 39.3874 50.7835 38.7295 49.8133 38.583C49.711 38.5675 49.6075 38.5579 49.504 38.5482C49.2954 38.5287 49.0871 38.5093 48.8895 38.4425C48.6252 38.3531 48.3956 38.1839 48.183 38.0032C47.8949 37.7584 47.6174 37.4823 47.3392 37.2056C46.521 36.3917 45.6975 35.5726 44.5865 35.5295C43.4166 35.484 42.3181 36.534 42.3102 37.7053C42.3036 38.6879 42.9399 39.5435 43.5464 40.3164L54.0962 53.7592L60.6371 62.0939C61.4817 63.1701 62.5916 64.3612 63.9464 64.1736C65.1639 64.005 65.9816 62.5757 65.6346 61.3961C65.5013 60.9428 65.2386 60.5472 64.9754 60.1507C64.7459 59.8049 64.5159 59.4585 64.371 59.0728C64.1402 58.4582 64.1422 57.7983 64.1443 57.1353C64.1459 56.628 64.1475 56.1189 64.0447 55.6271C63.8169 54.5375 63.099 53.6227 62.3688 52.7828C61.9737 52.3284 61.5548 51.6554 61.9326 51.1865C62.3821 50.6284 62.1577 49.8044 61.8738 49.1464C60.9625 47.0339 59.6392 45.1001 58.0004 43.4858C57.2987 42.7946 56.2777 42.1218 55.3999 42.5681C55.0298 42.7563 54.5873 42.5253 54.2649 42.2637C53.7498 41.8457 53.3207 41.3381 52.8913 40.8302C52.6854 40.5866 52.4795 40.343 52.2639 40.1091ZM43.3601 36.5718C43.7941 36.1474 44.4499 35.964 45.0409 36.1017C45.7165 36.2591 46.2395 36.7823 46.6962 37.3045C47.9013 38.6826 48.9177 40.2112 49.932 41.7366C50.0453 41.907 50.1585 42.0772 50.272 42.2473C54.538 48.6405 59.2039 54.7667 64.2332 60.5781C64.7253 61.1467 65.2559 61.8479 65.0636 62.575C64.8458 63.3981 63.761 63.7174 62.9613 63.426C62.1616 63.1345 61.5931 62.4349 61.0662 61.7662L43.6682 39.6874C43.3225 39.2488 42.9667 38.7889 42.8523 38.2422C42.7281 37.648 42.9262 36.9962 43.3601 36.5718ZM57.4632 49.4613C57.1129 49.0088 56.7377 48.5636 56.2618 48.2459C56.0321 48.0926 55.773 47.9604 55.5141 47.8283C54.8514 47.4902 54.1903 47.1529 54.0283 46.4646C53.9769 46.2461 53.9885 46.0211 54.0001 45.7956C54.0092 45.6196 54.0183 45.4432 53.9974 45.2693C53.9632 44.9836 53.8495 44.7139 53.7257 44.4542C52.7864 42.484 51.1726 40.8433 49.2186 39.872C48.8947 39.711 49.0955 39.1495 49.4504 39.0798C49.8053 39.01 50.1437 39.2401 50.4262 39.466C53.2201 41.6993 55.262 44.6504 57.3102 47.6105C58.5601 49.4169 59.8123 51.2265 61.2391 52.8785C61.3763 53.0374 61.5155 53.1954 61.6549 53.3536C62.4311 54.2345 63.2134 55.1223 63.6794 56.1938C63.0672 56.3031 62.537 56.7839 62.3682 57.3826C61.3484 56.4221 60.7321 55.1413 60.1194 53.8681C59.9622 53.5414 59.8053 53.2153 59.6418 52.8951C59.0245 51.686 58.2941 50.5348 57.4632 49.4613ZM60.3616 50.5962C60.2976 50.6589 60.218 50.7132 60.1285 50.7168C59.9759 50.723 59.8603 50.5864 59.7702 50.4629L55.6828 44.8582C55.5256 44.6426 55.6352 44.3073 55.8642 44.1704C56.0932 44.0335 56.3928 44.0659 56.6305 44.187C56.8681 44.3082 57.0565 44.506 57.2367 44.7027C58.3352 45.9015 59.3191 47.2053 60.1707 48.5905C60.3614 48.9006 60.5485 49.2227 60.6185 49.5801C60.6884 49.9374 60.6216 50.3414 60.3616 50.5962ZM60.96 50.047C61.0333 49.759 60.9091 49.4611 60.7805 49.1932C59.8553 47.2664 58.5568 45.5199 56.9783 44.0793C56.7228 43.8462 56.3902 43.605 56.0617 43.713C55.9404 43.7529 55.8418 43.8352 55.7427 43.9178C55.685 43.966 55.6271 44.0143 55.5645 44.0545C55.3943 44.1635 55.124 44.1859 55.0272 44.0084C54.9525 43.8711 55.0306 43.699 55.1349 43.5825C55.4942 43.1809 56.1266 43.1257 56.6321 43.3123C57.1376 43.4988 57.5437 43.8799 57.9251 44.2606C59.2992 45.6318 60.5806 47.1763 61.181 49.0227C61.449 49.8469 61.5339 50.8584 60.9315 51.4814C60.8814 51.5331 60.8255 51.5823 60.7575 51.6061C60.5424 51.6813 60.3176 51.4519 60.3125 51.2239C60.3073 50.996 60.4479 50.7923 60.5941 50.6174C60.6097 50.5987 60.6255 50.5801 60.6413 50.5613C60.7739 50.4047 60.9097 50.2443 60.96 50.047ZM52.0895 42.42C52.6458 43.2293 53.1294 44.0886 53.5325 44.9841C53.5879 45.1071 53.6389 45.2607 53.5566 45.3675C53.4968 45.4451 53.3726 45.4624 53.2938 45.4042C52.1342 43.9954 51.0892 42.4922 50.1726 40.9143C50.2548 40.944 50.3754 40.9002 50.3677 40.8132C51.1053 41.1138 51.6382 41.7635 52.0895 42.42ZM56.1534 49.2508C56.0513 49.1029 55.9647 48.8665 56.1189 48.7742C56.7986 49.0817 57.2637 49.7159 57.6874 50.3301C58.3052 51.2255 58.9023 52.1353 59.4779 53.0584C59.6158 53.2795 59.7347 53.6109 59.5231 53.7628C59.162 53.5994 58.9193 53.2581 58.6941 52.9318L56.1534 49.2508ZM62.9087 57.6446C62.8544 57.6211 62.8164 57.5704 62.7909 57.5169C62.6367 57.1945 62.9734 56.7633 63.3235 56.8348C63.3385 57.1488 63.2511 57.4669 63.0775 57.729C63.0598 57.6874 63.014 57.6754 62.9677 57.6632C62.9474 57.6579 62.9269 57.6525 62.9087 57.6446ZM63.7011 58.4009C63.5941 58.5172 63.3862 58.5169 63.2796 58.4004C63.1667 58.1049 63.303 57.7359 63.5809 57.5849L63.7011 58.4009Z" fill="#00160A"/>
</svg>
