<svg width="118" height="23" viewBox="0 0 118 23" fill="none" xmlns="http://www.w3.org/2000/svg">
<path fill-rule="evenodd" clip-rule="evenodd" d="M25.9113 18.2381C25.9113 15.2484 26.2358 13.9485 29.7208 12.3168C36.8636 9.36183 36.8636 9.24794 50.5474 3.83295C54.1662 2.40834 61.7955 5.82106 65.1131 4.39081C67.3248 3.43732 69.393 2.72931 71.2203 1.78369C71.3972 2.96634 72.5411 4.96865 72.944 5.31285C70.8042 5.77246 68.7344 6.48322 66.7344 7.44514C62.4111 9.52457 64.973 8.9579 58.1252 15.5676C57.5448 16.1277 55.4123 17.4049 52.3287 18.7352C52.3287 18.7352 46.1189 17.8817 43.6283 16.8213C41.0936 15.7422 37.2529 12.3168 37.2529 12.3168C37.2529 12.3168 32.7734 15.3079 30.1982 16.6524C28.9929 17.2817 25.9113 18.2381 25.9113 18.2381Z" fill="#107F1B"/>
<path fill-rule="evenodd" clip-rule="evenodd" d="M71.4092 0.303041C71.6695 0.170539 71.9671 0.257077 71.9103 0.545111C71.7317 1.45047 71.5557 2.49595 72.0191 3.54097C72.4906 4.6041 73.2318 5.21792 73.5889 5.51804C73.8134 5.70666 73.7227 6.07282 73.4366 6.13328C71.293 6.58619 69.2194 7.28657 67.2155 8.23466L66.9246 8.37336C65.9229 8.85516 65.3484 9.17808 64.9289 9.49201C64.6828 9.67616 64.4796 9.86473 64.2611 10.1074L64.2259 10.1478C63.9785 10.4365 63.0512 11.5975 62.6265 12.0925L62.5095 12.2282C61.524 13.365 60.2819 14.6548 58.5748 16.2757L58.527 16.3198C57.7443 17.024 55.3753 18.3228 52.5916 19.5042C52.4135 19.5798 57.4628 16.3629 58.0946 15.7631L58.2953 15.572C61.287 12.6493 62.674 9.97591 64.5769 8.59643C65.558 7.88516 65.7462 7.86946 66.9179 7.31515C68.7198 6.46263 70.7736 5.9799 72.6865 5.51804C72.6865 5.51804 72.5786 5.42166 72.5199 5.34985C72.2291 4.99395 71.8668 4.59046 71.5905 3.97506L71.5549 3.89518C71.1601 3.00502 71.1131 2.00515 71.1373 1.18063L71.141 1.08489L71.1201 1.09549C69.4893 1.90807 67.7155 2.7232 65.7984 3.54097L65.558 3.64321C64.7372 3.99128 63.7121 4.23716 62.4131 4.15265L62.3127 4.14577C61.4253 4.08211 60.6788 3.97531 59.1135 3.70171L57.945 3.49543C54.6507 2.92121 53.0022 2.8316 51.6438 3.34297C51.6438 3.34297 31.3863 11.015 28.7919 12.1303C27.214 12.857 26.6786 13.5408 26.0261 14.6487C25.4899 15.5591 25.8917 19.0128 25.6995 19.0339C25.5074 19.0549 25.3347 18.9152 25.3138 18.7218L25.2846 18.4477C25.0797 16.4881 25.0785 15.6317 25.3737 14.6487C25.7754 13.3116 26.7504 12.2957 28.5045 11.4879L28.9875 11.273C31.1541 10.3116 32.8749 9.58981 34.6596 8.88856L34.7904 8.83728C34.9905 8.75888 35.1933 8.68001 35.4003 8.60003L35.6032 8.52216C35.8456 8.43582 45.7404 4.46239 51.3501 2.27884C52.1965 1.95106 53.2215 1.84209 54.4786 1.90745L54.587 1.91348C55.5287 1.96929 56.455 2.098 57.9736 2.36252L59.3078 2.59778C60.7977 2.85743 61.5196 2.95977 62.3624 3.02024C63.6091 3.10967 64.5647 3.29995 65.2864 2.99388C67.5225 2.04566 69.5634 1.24262 71.4092 0.303041Z" fill="#00160A"/>
<path fill-rule="evenodd" clip-rule="evenodd" d="M76.9326 10.4986C77.0893 10.2286 77.4392 10.1779 77.6583 10.3934C83.7817 16.4165 90.8767 19.2038 98.9707 18.7685C107.086 18.3321 113.042 16.0919 116.855 12.0699C117.041 11.874 117.341 11.8751 117.526 12.0724C117.71 12.2697 117.709 12.5885 117.524 12.7844C113.523 17.0037 105.029 20.1696 96.6992 20.6176C88.5984 21.0532 83.7649 17.5083 77.5847 11.6817L77.4337 11.5384L77.3795 11.6267C73.4654 17.9266 64.9615 22.5216 56.4751 22.5866L56.2092 22.5876C47.5289 22.5876 42.5227 18.1238 36.6665 12.0227L36.6209 11.9748L36.6 11.9938C30.8516 17.1271 26.6965 20.986 20.3476 21.9497L20.1511 21.9788C13.2065 23.4711 2.67436 19.4962 1.05587 17.5479C-0.562623 15.5996 1.64563 17.0993 1.87283 17.2375C6.46917 20.0323 11.7686 21.0967 18.1268 20.1756C24.4892 19.2539 30.5579 16.1685 36.3384 10.9089C36.5272 10.7371 36.809 10.7495 36.9838 10.9372C42.7194 17.0956 49.8768 20.171 58.4846 20.171C67.0607 20.171 73.1888 16.949 76.9326 10.4986Z" fill="#00160A"/>
</svg>
