<svg width="118" height="23" viewBox="0 0 118 13" fill="none" xmlns="http://www.w3.org/2000/svg">
<path fill-rule="evenodd" clip-rule="evenodd" d="M76.9326 0.498601C77.0893 0.228622 77.4392 0.177903 77.6583 0.393405C83.7817 6.4165 90.8767 9.20378 98.9707 8.76851C107.086 8.33209 113.042 6.09187 116.855 2.06993C117.041 1.87401 117.341 1.87514 117.526 2.07244C117.71 2.26975 117.709 2.58852 117.524 2.78444C113.523 7.00367 105.029 10.1696 96.6992 10.6176C88.5984 11.0532 83.7649 7.50827 77.5847 1.68174L77.4337 1.53837L77.3795 1.62671C73.4654 7.92664 64.9615 12.5216 56.4751 12.5866L56.2092 12.5876C47.5289 12.5876 42.5227 8.12377 36.6665 2.02266L36.6209 1.97477L36.6 1.99378C30.8516 7.12708 26.6965 10.986 20.3476 11.9497L20.1511 11.9788C13.2065 13.4711 2.67436 9.49619 1.05587 7.54789C-0.562623 5.59959 1.64563 7.09935 1.87283 7.2375C6.46917 10.0323 11.7686 11.0967 18.1268 10.1756C24.4892 9.2539 30.5579 6.16853 36.3384 0.908926C36.5272 0.737108 36.809 0.749455 36.9838 0.937212C42.7194 7.09561 49.8768 10.171 58.4846 10.171C67.0607 10.171 73.1888 6.94896 76.9326 0.498601Z" fill="#00160A"/>
</svg>
